<svg xmlns="http://www.w3.org/2000/svg" viewBox="0 0 2048.75 2048.75"><defs><style>.cls-1{opacity:0.5;}.cls-2,.cls-5{fill:#555;}.cls-3{fill:#fff;}.cls-4{opacity:0.3;}.cls-5{opacity:0;}.cls-6{fill:none;stroke:#000;stroke-miterlimit:10;stroke-width:0.75px;}</style></defs><title>pattern1</title><g id="Layer_6" data-name="Layer 6"><g class="cls-1"><path class="cls-2" d="M35,1057.91c.15,0,.31-.34.47-.34,5-1,9.87-2,14.88-3.08,5.32-1,10.65-2.39,16-3.41L88.85,1046c6.58-1.71,13.31-3.08,19.89-4.44,7.52-1.37,15.2-3.08,22.72-4.79,7.51-1.37,15.19-3.07,22.86-4.78s15.2-3.42,22.72-5.13c8-1.71,16.13-3.42,24.12-5.13h4.38c.79.34,1.73,1,2.51,1.37,3,.68,6.11,1,9.09,1.71a76.35,76.35,0,0,1,8.77,1.37c2.19.34,4.54,1,6.73,1.36,1.1.35,2.35.35,3.6.69,3,.68,5.8,1.36,8.62,2a43.22,43.22,0,0,0,6.42,1.36c2.66.69,5.48,1,8.3,1.71,1.26.35,2.51.35,3.76.69a55.52,55.52,0,0,1,7.36,1.71c2.67.68,5.49,1,8.31,1.71a11.43,11.43,0,0,1,3.29.68,65.87,65.87,0,0,1,8.14,1.37c1.72.34,3.29,1,5,1.36,5.48,1,10.81,1.71,16.14,2.74,4.7.68,9.24,1.71,13.94,2.73l8.92,2,15.36,3.08a78,78,0,0,1,8.77,1.71c4.07,1,8.14,1,12.21,2.39,3,1,5.8.68,8.78,1.37,3.6.68,6.89,2.73,10.49,2.39.31,0,.47.68.78,1-.31.34-.47.68-.62.68-4.08.68-8,1.71-11.91,2.39s-8,1.71-11.9,2.39c-5.64,1.37-11.44,2.74-17.07,3.76a37.32,37.32,0,0,1-6.11,1c-3.92.68-7.84,1.71-11.75,2.39a1.59,1.59,0,0,1-1.1.34,39.56,39.56,0,0,1-6.11,1.71,42.63,42.63,0,0,1-6.58,1c-3.13.68-6.42,1.71-9.55,2.39-.94,0-1.88-.68-2.66,0a19.83,19.83,0,0,1-7.36,2c-1.57.34-3.29.34-5,.68a56.76,56.76,0,0,0-7.05,2c-3,.69-5.95.35-8.92,1.71-3.92,1.71-8.15.69-12.06,2.4-4.23,2-8.62,1-13,2.73-2.81,1-5.63.68-8.45,1a1.61,1.61,0,0,0-1.26.34c-3.44,2-7,2.39-10.65,2.39a3.73,3.73,0,0,0-2.66.68c-2.51,2-5.17,2-7.68,1.71h-6.1a3.75,3.75,0,0,1-3.14-1,3.39,3.39,0,0,0-2.66-1.37c-2.66-.34-5.48-1-8.15-1.37-1.09-.34-2.34-.68-3.6-1-3-.69-6.11-1-9.08-1.71-1.57-.34-3.14-1-4.7-1.37-3.13-.68-6.42-1-9.56-1.71l-14.56-3.07c-4.08-1-8-1.71-11.91-2.4l-6.42-1c-2.66-.68-5.17-1.71-7.83-2.05-4.07-1-8.15-1-12.22-2.39-2.35-1-4.85-1-7.2-1.37-3-.69-5.8-1.37-8.78-2-2.66-.69-5.48-1-8.3-1.71-1.56-.34-3-.69-4.54-1-5.17-.68-10.18-1.71-15.35-2.73-3.13-.68-6.11-1.37-9.24-2a79.25,79.25,0,0,0-8.62-1.37,80.06,80.06,0,0,1-8.92-1.71c-1.41-.34-3-.68-4.39-1-3-.69-5.8-1-8.62-1.71-.94,0-1.88-.34-2.81-.34C34.66,1058.25,34.66,1058.25,35,1057.91Z" transform="translate(0.38 0.38)"/><path class="cls-2" d="M389.9,911.29c-.31,0-.47.34-.78.34C383.64,913,378.31,914,373,915c-12.06,2.4-24.28,5.13-36.34,7.52-3.45.69-7,1.37-10.5,2.05-5,1-9.86,2.06-14.72,3.08l-10.34,2c-5,1-10.18,2.39-15.19,3.42-3.45,1-6.74,1.37-10,2.05-5.17,1-10.33,2.39-15.5,3.42-3.14.68-6.27,1-9.4,1.71-5.64,1-11.28,2.39-16.92,3.76-3.6,1-7.2.68-10.81,2.73-.47.34-.78,0-1.25,0a6.48,6.48,0,0,0-6.11,0,.89.89,0,0,1-1.25,0,2.67,2.67,0,0,0-2.82-1.71,21.89,21.89,0,0,1-4.7-.34c-5.79-1-11.59-2.39-17.39-3.76-3.91-.68-7.83-.68-11.74-2a45.63,45.63,0,0,0-6.58-1l-8.46-2.05c-3-.68-6.11-1-9.09-1.7-2-.35-3.91-1-5.95-1.37-1.09-.34-2.35,0-3.6-.34-3-.69-6.11-1.37-9.08-2.05-2.67-.69-5.17-1-7.84-1.71a38.09,38.09,0,0,0-6.11-1.37c-2.5-.68-4.85-1-7.36-1.71l-4.7-1c-2-.35-3.91-.35-5.95-.69-5.64-1.37-11.12-2.73-16.6-3.76-2.35-.68-4.7-.34-6.89-1a69.88,69.88,0,0,0-14.41-3.08c-1.73,0-3.45-1-5.17-1.37-4.08-.68-8-.68-12.06-2.05-3.14-1-6.43-1-9.72-1.71a11.65,11.65,0,0,1-4.54-1.36c6.11-1.71,12.38-3.08,18.49-4.45,6.57-1.36,13.31-2.73,19.89-4.1L92,896.93c6.58-1.37,13.32-2.73,20-4.1l19.74-4.1c6.58-1.37,13.31-2.74,20-4.1,8.93-2.06,18-3.76,26.94-5.81,8-1.71,16.13-3.42,24.12-5.13.16,0,.63-.34.78,0,1.1,2.39,2.67,1.71,3.92,1.71a27.16,27.16,0,0,1,8.93,1.36,22.49,22.49,0,0,0,4.7,1c2.5.34,4.85,1,7.36,1.37a14.69,14.69,0,0,1,3.92.68,64,64,0,0,1,7.83,1c5.64,1,11.12,2.39,16.76,3.76,3.91,1,8,1.7,11.9,2.39a84.07,84.07,0,0,1,9.24,1.37c6.11,1.36,12.06,2.73,18.17,4.1,3.76,1,7.68,1.71,11.44,2.39,5,1,10.18,2,15.19,3.08,4.07,1,8,1.7,11.9,2.39l6.27,1c3,.69,6.11,1.37,9.09,2s6.1,1,9.08,1.71c2,.35,4.07,1,6.11,1.37,3,.68,5.79,1,8.61,1.71a44.7,44.7,0,0,0,6.43,1.37l9.39,2Z" transform="translate(0.38 0.38)"/><path class="cls-2" d="M388.18,1353.9c-4.7,1-9.24,1.71-13.94,2.74-7.05,1.7-13.94,3.07-21,4.44-6.89,1.37-13.63,2.73-20.36,4.1-7.05,1.37-14.1,3.08-21.15,4.44-6.89,1.37-13.62,2.74-20.36,4.1-5.64,1-11.28,2.4-16.92,3.42s-11.59,2.4-17.38,3.42c-6.58,1.37-13.32,2.73-20,4.1-7.21,1.37-14.41,3.08-21.62,4.45a2.13,2.13,0,0,1-1.41-.35l-2.35-1c-.94-.34-2,0-3-.34a60.46,60.46,0,0,0-7.68-1.71c-5.17-1-10.49-1.71-15.82-2.74-4.7-.68-9.55-1.71-14.25-2.73l-8.46-2c-5-1-9.87-1.71-14.72-2.74-3.29-.34-6.58-1.36-10-2-3.76-1-7.67-1.71-11.43-2.39l-6.58-1-8.77-2.06a77.85,77.85,0,0,1-8.77-1.36c-1.57-.34-3.14-1-4.7-1.37-5-1-9.87-1.71-14.73-2.73-3.13-.35-6.42-1.37-9.55-2-4.08-.69-8-.69-12.06-2.06-3.14-1-6.43-1-9.71-1.7l-8-2.05c-3.14-.69-6.27-1-9.4-1.71v-.69a1.93,1.93,0,0,1,1.1-.68c4.85-1,9.86-2,14.72-3.08,6.58-1.71,13.16-3.07,19.73-4.44s12.69-2.73,19-4.1c5.32-1,10.65-2.39,16-3.42,7.52-1.71,15.2-3.42,22.72-5.13,6.58-1.36,13-2.73,19.58-4.1,7.67-1.71,15.19-3.42,22.86-5.12l23.5-5.13c3.92-.69,7.83-2,11.75-.69a16.16,16.16,0,0,0,3.91,1,31.14,31.14,0,0,1,9.56,1.71,48.68,48.68,0,0,0,6.73,1.37c2.67.68,5.49,1.36,8.31,2,3.13.68,6.26,1,9.39,1.71,2.2.34,4.23,1,6.43,1.36,1.88.34,3.75.34,5.48.69,5.64,1,11.12,2.39,16.76,3.76,4.07.68,8.14.68,12.06,2,2,.68,4.23.68,6.42,1,3,.69,5.8,1.37,8.77,2,3.13.69,6.42,1,9.56,1.71,2.19.34,4.23,1,6.42,1.37,1.72.34,3.44.34,5.17.68,5.64,1.37,11.12,2.39,16.76,3.76,4.07,1,8,1.71,11.9,2.39,3.45.69,6.74,1,10,1.71l9.86,2c.94.35,2,.35,3,.69l8,2c1.88.34,3.76.34,5.48.68,1.25.34,2.35,1,3.6,1.37C388.49,1353.56,388.49,1353.9,388.18,1353.9Z" transform="translate(0.38 0.38)"/><path class="cls-2" d="M37.47,1206.25a24.74,24.74,0,0,1,4.7-1.37c8.46-2.05,17.08-3.76,25.54-5.81,8.45-1.71,16.91-3.76,25.37-5.81s17.07-3.76,25.53-5.81,16.92-3.76,25.38-5.81c9.55-2.39,19.11-4.44,28.66-6.49,8.46-2.05,16.76-3.76,25.22-5.81,1.25-.35,2.51-1,3.76-.69,1.88.69,3.76,1.37,5.64,1,.47,0,.78.34,1.09.34l3.29,1c2.51.35,5.17.35,7.68,1,5.79,1,11.43,2.39,17.23,3.76,3.91,1,7.83,1.71,11.75,2.39a84,84,0,0,1,9.08,1.37c3.6.68,7.21,1.71,10.81,2.39,2,.34,4.07,1,6.11,1.37,1.41.34,3,.68,4.38,1a70,70,0,0,1,8.15,1.37l14.88,3.08c2.35.68,4.7.34,7,1a100.17,100.17,0,0,0,14.25,3.08,104.57,104.57,0,0,1,10.49,2c2.2.34,4.23,1,6.43,1.37,1.56.34,3,.68,4.54,1,2.51.34,4.86,1,7.36,1.37,2.66.34,5.33,1,8,1.37,1.1.34,2.35.34,3.45.68a61.67,61.67,0,0,0,7.2,1.71c1.41.34,2.66,0,4.07.34,3.76,1,7.52,1.71,11.28,2.74,1.25.34,2.66.34,3.92.68a6.91,6.91,0,0,1-3.76,2c-4.54,1-9.24,1.71-13.94,2.73-7.05,1.37-14.1,3.08-21.15,4.45-5.64,1.36-11.28,2.39-16.92,3.42-5.79,1-11.59,2.39-17.38,3.41-7.36,1.71-14.57,3.08-21.77,4.45s-13.94,2.73-21,4.1c-5.49,1-11.12,2.39-16.61,3.42-5.64,1-11.43,2.39-17.07,3.41-5.95,1-11.9,2.4-17.86,3.42-3,.34-6,2.39-9.08.69a12.34,12.34,0,0,0-3.13-1.37l-14.57-3.08c-4.07-1-8-1.71-11.9-2.39a78.37,78.37,0,0,1-8.93-1.37l-18.33-4.1c-2-.34-3.92-.34-6-.68-4.7-.69-9.24-1.71-13.94-2.74-3.13-.68-6.42-1.71-9.56-2.39a17.78,17.78,0,0,1-4.23-.34c-3.13-.69-6.1-1.37-9.24-2-2.35-.34-4.7-1-7-1.37s-4.69-1-7-1.37a39.67,39.67,0,0,0-6.11-1.36c-1.73-.35-3.29-1-5-1.37-3-.68-5.79-1-8.77-1.71a10.42,10.42,0,0,1-3.13-.68c-3-.69-6.11-1-9.08-1.71-2-.34-3.92-1-6-1.37a16.47,16.47,0,0,1-4.07-.34c-2.19-.34-4.54-1.37-6.89-1.71l-12.69-2C37.63,1205.91,37.63,1205.57,37.47,1206.25Z" transform="translate(0.38 0.38)"/><path d="M29.64,904.45c0-.68.16-1.37.16-2.05V847c0-.68-.16-1.37-.16-2v-1.37c.47-4.44,2-3.07,3.29-3.42,2-.68,4.07-.34,6.11-.68a11.92,11.92,0,0,0,3.29-1l5.8-1a55.24,55.24,0,0,1,7.2-1.71,33.76,33.76,0,0,1,6-1A18.62,18.62,0,0,0,68.49,833c2-1,4.07-.69,6.11-1,2.35-.34,4.54-1.37,6.73-1.71a51.71,51.71,0,0,1,6.89-1c1.73-.34,3.45-1,5.17-1.37a21,21,0,0,1,4.55-.68,20,20,0,0,0,8.61-2.05,8.17,8.17,0,0,1,4.07-.69,21.16,21.16,0,0,0,8.93-2.05,6.3,6.3,0,0,1,3.45-.68,28.39,28.39,0,0,0,8.93-2c1.72-.69,3.75-.35,5.63-.69a47.23,47.23,0,0,0,6.74-1.71c.78,0,1.57-.34,2.35-.34a27,27,0,0,0,11.43-2.39,6.84,6.84,0,0,1,2.67-.34,21.3,21.3,0,0,0,8.92-2.05,7.91,7.91,0,0,1,3.92-.69,19.21,19.21,0,0,0,8.46-2.05,9.87,9.87,0,0,1,4.38-.68c3,0,5.8-1,8.62-2,1.72-.69,3.6-.34,5.32-.69,2.35-.34,4.55-1.36,6.9-1.7,1.88-.35,3.91-.35,5.79-.69,2.67-.34,5.17-1.36,7.83-2a5.67,5.67,0,0,1,2.35-.34,18.74,18.74,0,0,0,9.4-2.05,8,8,0,0,1,3.92-.68,20.55,20.55,0,0,0,8.77-2.06,9.24,9.24,0,0,1,4.23-.68c3,0,5.79-1,8.77-2,1.57-.68,3.29-.34,4.86-.68,2.35-.35,4.54-1.37,6.89-1.71l5.79-1A26.39,26.39,0,0,0,281,790c.79,0,1.57-1,2.35-1.37s1.41-1,2-1c3.13-.34,6.11-.34,9.24-.69a.61.61,0,0,0,.63-.34c1.25-2,2.5-1.71,3.76-1.71a58,58,0,0,0,7.67-.34c.63,0,1.1-.68,1.72-1,.94-.35,1.73-1,2.67-1a65.19,65.19,0,0,1,8.14-.34,1.32,1.32,0,0,0,1.41-.68,3.94,3.94,0,0,1,3.6-1.37,61.73,61.73,0,0,0,7.84-.34,2,2,0,0,0,1.09-.69c1.25-1.71,2.51-1.36,3.92-1.36A63.48,63.48,0,0,0,345,777a.61.61,0,0,0,.63-.34c1.09-2,2.5-1.71,3.91-1.71a52.2,52.2,0,0,0,7.36-.34c.63-.34,1.41-1,2-1.37s1.41-1,2.19-1c3.14-.34,6.11-.34,9.24-.69h.32c1.88-3.07,4.07-1.71,6.11-1.71a21.84,21.84,0,0,1,4.7-.34c1.4,0,2.81-1,3.91-3.07h1.1a8.54,8.54,0,0,1,2.82.68c.31,0,.78,1,1.09,1.37v.34c0,.68-.15,1.71-.15,2.39v58.11c0,.68.15,1.36.15,2v1c-.47.34-.78,1-1.25,1-1.72.68-3.6.68-5.33,1.36-2.19,1-4.38,1-6.57,1.37a25.88,25.88,0,0,0-7.05,1.37c-.63,0-1.41.68-2.2.68-3.13.69-6.42.69-9.55,1.71a31.38,31.38,0,0,1-5.48,1.37,56.62,56.62,0,0,0-7.52,1.37c-1.57.34-3,.68-4.54,1-2.82.34-5.8.34-8.62,1.71-1.56,1-3.13.68-4.7,1-2.19.34-4.38.34-6.42,1a17.7,17.7,0,0,1-7.05,1.71,16.47,16.47,0,0,0-5.79,1,17.22,17.22,0,0,1-8.15,1.7,9.12,9.12,0,0,0-4.23.69,12.66,12.66,0,0,1-5.95,1.71c-2.82.34-5.48.34-8.14,1.71a17.93,17.93,0,0,1-4.08,1,63.88,63.88,0,0,0-8,1.37l-5.16,1c-2.35.35-4.7.35-6.9,1.37a23.72,23.72,0,0,1-6.73,1.37c-2,0-3.92.68-5.95,1s-4.08,1-6.11,1.37c-2.35.68-4.86,1-7.36,1.71a12.42,12.42,0,0,0-3.45.68c-2.66.69-5.33.69-7.83,1.37-1.88.34-3.76,1-5.8,1.37a67.39,67.39,0,0,0-8.14,1.71c-1.1.34-2.35.68-3.61,1a34.71,34.71,0,0,1-5.79,1.37l-7.05,2c-1.25.34-2.51.34-3.76.68-2.19.34-4.54,1.37-6.89,1.71-2,.34-3.92.34-5.95.69-3.14.68-6.11,1.36-9.24,2h-1.88c-2.82.68-5.49,1.36-8.31,2a56.89,56.89,0,0,1-7.51,1c-.79.34-1.57.34-2.2.69-3,1.7-6.11,1.36-9.08,2-1.72.34-3.29.68-5,1-2.35.34-4.86.69-7.37,1-.94.34-1.88,0-2.66.34-1.41.34-2.82,1.37-4.23,1.71-2.19.34-4.54.34-6.89.68a4.31,4.31,0,0,0-2,.34,14.46,14.46,0,0,1-8.14,2.05H96.37a5.2,5.2,0,0,0-3.13.69c-2.51,1.71-5,1.71-7.52,1.71-2.19,0-4.23,0-6.42,1.36-1.57,1-3.14.69-4.7,1-2.35.34-4.7,0-7,1.37a11.49,11.49,0,0,1-5.64,1.36,11.73,11.73,0,0,0-3.45,0c-1.25.35-2.66,1-4.07,1.37-1.1.34-2.19,1-3.29,1-2.19.34-4.23,0-6.42.34-.94.34-1.88,1-2.82,1.37A5.42,5.42,0,0,1,39,906.84a67.2,67.2,0,0,1-8.3,1c-.63,0-.94-.34-.94-1.71,0-.34-.16-.68-.16-1Z" transform="translate(0.38 0.38)"/><path d="M390.53,917.1c0,.68-.16,1-.16,1.71V979.3c0,1.37-.15,2.05-.78,2.39a37.68,37.68,0,0,1-5.64,2.06c-2.82.68-5.79.68-8.77,1.36-1.72.34-3.45,1-5.17,1.37-2.66.34-5.17,1-7.83,1.37-1.88.34-3.92.68-5.95,1-1.88.69-3.92.34-6,1.37-2.35,1-4.86,1-7.37,1.37a22.46,22.46,0,0,0-4.85,1,19.85,19.85,0,0,1-5.8,1.71,79.63,79.63,0,0,0-8.3,1.71,17,17,0,0,0-4.07.68c-2.35.69-4.86.69-7.21,1.37a19.73,19.73,0,0,1-6.26,1.37c-2.2.34-4.39.34-6.58,1.37a19.8,19.8,0,0,1-6.11,1.36c-2.19.34-4.39,1-6.58,1.37-1.88.34-3.91,1-5.79,1.37-2.51.68-5,1-7.52,1.71-1.1.34-2.35.68-3.61,1a55.3,55.3,0,0,0-7.51,1c-2,.68-4.08,1.71-6.27,1.71a13.86,13.86,0,0,0-6.42,1c-2.35,1.37-4.7,1.37-7.05,1.71-2,.34-4.23,1-6.27,1.37a30.57,30.57,0,0,1-5.32,1.36c-2.19.35-4.39,0-6.58,1a20.11,20.11,0,0,1-7.52,1.71,8,8,0,0,0-3.91.68c-3.45,1.71-6.9,1.71-10.34,2.05a23.4,23.4,0,0,0-4.39,1.71c-1.09.34-2,1-3.13,1.37l-5.8,1a55.52,55.52,0,0,1-7.36,1.71,73,73,0,0,0-8.46,1.37,28.55,28.55,0,0,0-5.32,1l-6.42,1c-1.26.34-2.51,1-3.76,1.37-4.23.68-8.46.68-12.53,2.39-2.51,1-5.17.68-7.84,1a1.24,1.24,0,0,0-1.09.34,22.38,22.38,0,0,1-10.34,2,6.88,6.88,0,0,0-2.66.68,18.79,18.79,0,0,1-9.4,2,23.94,23.94,0,0,0-5,1c-.94.34-1.73,1-2.67,1a22.64,22.64,0,0,1-4.85.35c-1.1,0-2.35-.35-3.29.34a13.47,13.47,0,0,1-9.4,2h-1.1a4.79,4.79,0,0,0-3,.68c-2.35,1.71-4.7,1.71-7,1.71-2.51,0-5.17-.34-7.52,2a1.09,1.09,0,0,1-.94.34,29.49,29.49,0,0,0-5.48,0,27.48,27.48,0,0,0-5,1.37c-.94,0-1.88,1-2.82,1a36.66,36.66,0,0,0-6.11,0c-1.57,0-3,1-4.39,1.71a3.05,3.05,0,0,1-1.72.69c-3.92-.34-7.83-.34-11.59,1.71a1.52,1.52,0,0,1-2.35-.69v-2c0-.68.16-1.36.16-2V994.34c0-.68-.16-1.37-.16-2.05v-2c.47-.34.78-.68,1.25-1s.79,0,1.26-.34c2.82-1.71,5.63-1.71,8.45-2,1.88-.34,3.76-1,5.64-1.37l4.7-1c2.35-.68,4.86-.34,7.21-1.37a22.64,22.64,0,0,1,6.73-1.36c2.2-.35,4.23-1,6.42-1.37,1.57-.34,3.14-1.37,4.7-1.37,2.82-.34,5.64-.34,8.31-1.71a6.12,6.12,0,0,1,2.34-.68,92.05,92.05,0,0,0,9.56-1.37c1.72-.34,3.6-1,5.33-1.37a51.11,51.11,0,0,1,7-1.36c1.57-.35,3.29-1,4.86-1.37,3-.34,5.79-.34,8.77-1.71,1.41-.68,3-.68,4.54-1,2.2-.34,4.55,0,6.74-1a19,19,0,0,1,7.2-1.71c2,0,3.92-.68,6-1s3.91-1,5.79-1.37c2-.34,4.23-.34,6.27-1a13.8,13.8,0,0,1,6.11-1.71c2.66-.34,5.48-.34,8.14-1.71a16.55,16.55,0,0,1,3.92-1c2.66-.34,5.17-1,7.83-1.37A35.07,35.07,0,0,1,191,955a45,45,0,0,1,6.58-1.36c1.88-.34,3.76-1,5.63-1.37,2-.34,3.92-.34,6-.68,1.41-.35,2.66-1,3.91-1.37a74,74,0,0,1,8.46-1,7.86,7.86,0,0,0,3.6-1.36c.94-.34,1.73-1,2.51-1h6.89a4.45,4.45,0,0,0,2.82-1,4.29,4.29,0,0,1,3.13-1.37h4.86c1.57-.34,3.29,0,4.86-1.71a4,4,0,0,1,2.5-1,60.34,60.34,0,0,1,7.83-.34c.63,0,1.26-.68,1.88-1,.94-.34,1.73-1.37,2.67-1.37a32.93,32.93,0,0,1,5.79,0,6,6,0,0,0,4.86-2.05,1.65,1.65,0,0,1,1.56-.68h7.05a4.3,4.3,0,0,0,3.6-1.71,3.15,3.15,0,0,1,1.73-.69c2.5,0,4.85.35,7.36,0,1.1,0,2-1,3.13-1.36.94-.69,1.72-1.37,2.66-1.37,2.51-.34,4.86,0,7.37-.34.94,0,1.72-1,2.66-1.37.78-.34,1.57-1,2.35-1h6.42a5.12,5.12,0,0,0,4.39-2.06,1.65,1.65,0,0,1,1.56-.68c2.82-.34,5.64,0,8.46-.34.63,0,1.41-1,2-1.37.47-.34,1.09-1,1.56-1H347a4.07,4.07,0,0,0,3.6-1.37,3.6,3.6,0,0,1,2.35-1H360c.94-.34,2-.34,2.82-1.36a3.46,3.46,0,0,1,2.82-1.37h5.95a5.77,5.77,0,0,0,4.38-1.71,2.94,2.94,0,0,1,2-1c3.6,0,7.2.68,10.65-1.71.47-.35,1.1.34,1.72.34C390.37,914,390.37,914.7,390.53,917.1Z" transform="translate(0.38 0.38)"/><path d="M30.11,1343.31c0-.69.16-1,.16-1.71v-56.06c0-.68-.16-1-.16-1.71v-1c0-.34.16-.68.16-1,0-1.36.31-2,.94-2a31.93,31.93,0,0,0,5.64-.68c1.88-.34,3.76-1,5.64-1.37,1.25-.34,2.66-.68,3.91-1a75.22,75.22,0,0,0,8.46-1.37l5.17-1c2.35-.34,4.86-1,7.21-1.36,1.72-.35,3.44-1,5.16-1.37,2.35-.68,4.7-.34,7-1.37a17.87,17.87,0,0,1,7-1.71c2,0,3.92-.68,6-1,1.73-.34,3.29-1,5-1.37,2.35-.34,4.69,0,6.89-1a26.28,26.28,0,0,1,7-1.71c1.88-.35,3.91,0,5.79-1,2.19-1.37,4.54-1.37,6.89-1.71a41.35,41.35,0,0,0,6.27-1.36,12.4,12.4,0,0,1,5.79-1.37,18.89,18.89,0,0,0,6.11-1,20.15,20.15,0,0,1,7.52-1.71,11.09,11.09,0,0,0,5.64-1,17.19,17.19,0,0,1,7.05-1.37,28.76,28.76,0,0,0,5-1,20.31,20.31,0,0,1,6.11-1.71c2.35-.35,4.86-1,7.21-1.37,1.41-.34,3-.68,4.54-1l7.2-1c1.41,0,2.67-1.37,4.08-1.37A27.28,27.28,0,0,0,207,1243.5c2.35-1,4.7-.68,7.05-1,2.51-.34,4.86-.34,7.21-2.74a1.58,1.58,0,0,1,1.25-.34h7c1.1,0,2.19,0,3-1a5.38,5.38,0,0,1,3.75-1.37,22.39,22.39,0,0,0,6.74,0c.94,0,1.72-1,2.66-1.37s1.41-1,2.2-1h7.83c.78,0,1.41-.69,2.19-1,.94-.34,1.88-1.37,2.82-1.37,2.66-.34,5.33,0,8-.34.78,0,1.56-1,2.35-1.37.62-.34,1.25-1,1.88-1h6.73a5.16,5.16,0,0,0,4.08-1.71,2.17,2.17,0,0,1,1.87-.68,46.73,46.73,0,0,0,6.9,0,16.2,16.2,0,0,0,3.44-1.71c.63-.34,1.26-1,1.88-1h7.52a5.42,5.42,0,0,0,2.82-1.36,3.67,3.67,0,0,1,2.82-1.37,27.85,27.85,0,0,0,7.52,0c.94,0,1.72-1,2.66-1.71a3.14,3.14,0,0,1,1.72-.68h6.27a4.9,4.9,0,0,0,4.39-1.71,2.63,2.63,0,0,1,2-1h6.89a4.36,4.36,0,0,0,3.92-2,1.43,1.43,0,0,1,1.41-.68,48.79,48.79,0,0,0,7.05,0,7.88,7.88,0,0,0,3.6-1.37,7.76,7.76,0,0,1,2.51-1c2.35,0,4.7.35,7,0a6.35,6.35,0,0,0,3.14-1.36c.78-.34,1.41-1,2-1h7.68a3.52,3.52,0,0,0,3.13-1.71,1.87,1.87,0,0,1,1.25-.68,14.7,14.7,0,0,1,3.92.34c.31,0,.78,1,1.1,1.37v.34c0,.68-.16,1.71-.16,2.39v58.45c0,.68.16,1.37.16,2v1a2,2,0,0,1-1.1.69c-1.88.68-3.76.68-5.64,1.37a21.7,21.7,0,0,1-6.42,1.36c-2.35.34-4.54,1-6.89,1.37-1.73.34-3.45,1-5.17,1.37-2.66.68-5.33,1-8,1.71-1.25.34-2.35.68-3.6,1-2.35.34-5,0-7.36,1-3,1.36-6.11,1.36-9.09,1.71a16.6,16.6,0,0,0-3.91,1c-2,1-4.08,1-6.11,1.37a27.73,27.73,0,0,0-7.37,1.37c-1.41.34-3,.68-4.54,1-2.35.34-4.7,0-7,1a20,20,0,0,1-7.52,1.7,15.75,15.75,0,0,0-3.91.69c-2.82,1-5.48,2-8.3,2-2.2,0-4.54,1-6.74,1.37l-3.76,1c-3.13.34-6.26,0-9.24,1.71-1.1.34-2.19.34-3.29.68-2.5.69-5.17.35-7.67,1.37a28.53,28.53,0,0,1-7.36,1.71c-1.88.34-3.92,1-5.8,1.37s-3.76,1-5.64,1.36c-2.35.35-4.85,1-7.36,1.37a40.21,40.21,0,0,1-6.27,1.37l-5.79,1c-1.88.35-3.92,1-6,1.37a37,37,0,0,0-6.11,1,27,27,0,0,1-7.21,2,40.74,40.74,0,0,0-5.95,1.37c-1.25.34-2.35,1-3.6,1.36-3.92,1-7.83.34-11.75,2.39-2.35,1.37-4.7.69-7,1-1.25.34-2.51.34-3.6,1-2.19,1.7-4.54,1.36-6.74,1.7-1.72.35-3.44.35-5.17.69-1.09,0-2.19,1.37-3.29,1.37-2.34.34-4.54,0-6.73.34a5.27,5.27,0,0,0-3.13.68c-2.51,1.71-4.86,1.71-7.37,1.71-2,.34-4.07-.34-6,1.37s-3.6,1.36-5.48,1.36c-2.19,0-4.39,0-6.42,1a12.87,12.87,0,0,1-6.89,1.71h-2.67c-.94.34-2.19.34-3.13,1-2,1.71-4.07,1.71-6.11,1.71-2.35,0-4.54,0-6.73,1a16.29,16.29,0,0,1-5.49,1.37c-2.5,0-5-.35-7.36,1.36-1.41,1.37-3,1.37-4.54,1.37H71a7.79,7.79,0,0,0-3.75,1A7,7,0,0,1,63,1343a15.72,15.72,0,0,0-5.64,0,4.4,4.4,0,0,0-3.29,1.37,4.6,4.6,0,0,1-3.29,1.37H47c-2,0-4.07,0-6,1.71a4.08,4.08,0,0,1-2.67,1c-2.35.34-4.85.34-7.2.69-.78,0-1.41.34-1.57-2A21.6,21.6,0,0,1,30.11,1343.31Z" transform="translate(0.38 0.38)"/><path d="M29.8,1199.76c0-2.74.16-5.13.16-7.87v-52c0-.68-.16-1-.16-1.71v-2c.47-.34.78-.68,1.1-.68,2-.34,4.07-.34,6-1a23.28,23.28,0,0,1,8.14-1.71,11.9,11.9,0,0,0,4.86-1,16.24,16.24,0,0,1,7.83-1.71,22.52,22.52,0,0,0,4.86-.68c2-.34,3.91-1,5.79-1.37,2.35-.34,4.7,0,6.89-1a29.35,29.35,0,0,1,7.21-1.7c2.19-.35,4.23-1,6.42-1.37l4.7-1c2.35-.68,4.86-.34,7.21-1.36a21.34,21.34,0,0,1,6.42-1.37c2.19-.34,4.23-1,6.42-1.37s3.92-1,5.79-1.37c2.51-.68,5-1,7.52-1.7.79,0,1.57-.69,2.35-.69a89.8,89.8,0,0,0,9.56-1.37c1.72-.34,3.29-1,5-1.36,2.35-.69,4.7-.34,7-1.37a22.67,22.67,0,0,1,6.58-1.37c2.19,0,4.23-.68,6.42-1,2-.34,3.92-1,5.79-1.37a54.24,54.24,0,0,1,6.9-1.37c1.88-.34,3.6-1,5.48-1.36,2.51-.69,4.85-.35,7.2-1.37,2.67-1,5.17-1,7.84-1.37a9.87,9.87,0,0,0,4.38-.68,21.27,21.27,0,0,1,6.27-1.71c2.35-.34,4.7-.34,7-1.37a17.83,17.83,0,0,1,7-1.71,28,28,0,0,0,5.33-.34,2.69,2.69,0,0,0,2-1,4,4,0,0,1,3.13-1.37,23.34,23.34,0,0,0,4.85.34c1.73,0,3.45,0,5-1.71a3.29,3.29,0,0,1,2.35-1h5.95c1.56,0,3.13,0,4.54-2.06a1.43,1.43,0,0,1,1.41-.68h4.7c2-.34,4.07.34,6.11-1.71a4,4,0,0,1,2.5-1h7.05a4,4,0,0,0,2.67-1,3.78,3.78,0,0,1,3-1.37h5.95a5.19,5.19,0,0,0,4.08-1.7,3.26,3.26,0,0,1,2.35-1,66.48,66.48,0,0,1,8.14-.34,2.1,2.1,0,0,0,1.72-1,3.23,3.23,0,0,1,2.67-1.36h6.26a5.17,5.17,0,0,0,4.07-1.71,2.38,2.38,0,0,1,1.88-1h6.9a4.51,4.51,0,0,0,3.91-2,1.33,1.33,0,0,1,1.41-.68h7.68a5.21,5.21,0,0,0,3.29-1.71,2.9,2.9,0,0,1,2-1c2.67-.34,5.49,0,8.15-.34.78,0,1.41-1,2.19-1.37s1.41-1,2-1a42.51,42.51,0,0,0,6.58,0,8.26,8.26,0,0,0,3.91-1.37,7.73,7.73,0,0,1,2.51-1h6.73c1.26-.35,2.67-.35,3.76-2.4a1.33,1.33,0,0,1,1.41-.68H389c1.73,0,1.73,0,1.73,3.76v60.5c0,2.73-.16,3.07-1.41,3.41h-.63c-2.82.35-5.64,0-8.3,1a29.39,29.39,0,0,1-7.21,1.71,48.72,48.72,0,0,0-7.2,1.71c-1.25.34-2.51.34-3.76.68a66.34,66.34,0,0,0-8.15,1.37c-1.72.34-3.6.68-5.32,1-2.66.69-5.33,1-8,1.71-1.57.34-3,.69-4.54,1a45.14,45.14,0,0,0-6.42,1,44.89,44.89,0,0,1-6.9,1.71,26.93,26.93,0,0,0-7.2,1.37,12.23,12.23,0,0,1-3.29,1l-7.52,1c-1.88.34-3.76,1.37-5.64,1.71-2.82.34-5.79.34-8.77,1.71-1.41.68-3,.68-4.39,1-2.5.69-5,.69-7.51,1.71a12.6,12.6,0,0,1-6,1.37,40,40,0,0,0-6.26,1c-1.72.35-3.6,1-5.48,1.37a52.28,52.28,0,0,1-7.21,1.37c-1.88.34-3.91,1-5.95,1.37a38.2,38.2,0,0,0-6.11,1,39,39,0,0,1-5.8,1.37c-2.66.34-5.16,1-7.67,1.37-1.72.34-3.45,1-5.17,1.36-2.66.69-5.17,1-7.83,1.71l-4.7,1c-1.72.34-3.6.34-5.48.68a4.36,4.36,0,0,0-3.29,1.37,6.38,6.38,0,0,1-3.13,1.37h-2.67a13.59,13.59,0,0,0-5.17.68,14.94,14.94,0,0,1-7.36,2,12.63,12.63,0,0,0-7.67,1.71c-1.88.68-3.92.34-5.8.68-1.72.34-3.44,0-5,1-2.51,1.71-5.17,1.71-7.68,1.71a9.4,9.4,0,0,0-5.16,1,10,10,0,0,1-5.33,1.37h-3.6a3.77,3.77,0,0,0-2.67.68c-3,2.4-5.95,2-8.92,2-1.57.35-3,0-4.39,1-2.51,1.71-4.86,1.71-7.36,1.71a10.23,10.23,0,0,0-5.48,1,10.42,10.42,0,0,1-6.11,1.71c-2.35,0-4.55,0-6.74,1a9.81,9.81,0,0,1-5.17,1.36c-1.41,0-2.66-.34-3.91,0a26.65,26.65,0,0,0-4.7,1.71,4.72,4.72,0,0,1-2,.69H79a4.88,4.88,0,0,0-3,1c-1.57,1-3.14,1.71-4.7,1.37a10.68,10.68,0,0,0-3.29,0,28.24,28.24,0,0,0-5.17,1.37,12.23,12.23,0,0,1-3.29,1,13.92,13.92,0,0,1-3.76,0c-2,0-4.23,0-6.11,1.71a3.63,3.63,0,0,1-1.88.68h-6c-1.88,0-3.76,0-5.33,2.4a1.58,1.58,0,0,1-1.25.34c-1.56-.34-3-.34-4.54-.68a2,2,0,0,1-1.1-.69C29.64,1200.44,29.64,1199.75,29.8,1199.76Z" transform="translate(0.38 0.38)"/><path d="M391,1355.27c0,.68-.16,1-.16,1.71v58.79c0,3.76-.15,3.41-1.88,4.44-3.76,2.39-7.67,1.37-11.59,2.39-1.25.34-2.5,1-3.76,1.37a28.52,28.52,0,0,1-5.48.68c-2.66,0-5.32,1.37-8,2.4h-.62c-4.08-.35-8,.68-12.06,2.39-1.88,1-3.92.34-6,.68-1.56.34-3.13,1-4.7,1.37a12.57,12.57,0,0,1-5,1,26.51,26.51,0,0,0-8.77,2,9.12,9.12,0,0,1-4.23.69,34.18,34.18,0,0,0-8,2,12.38,12.38,0,0,1-5,.68c-2.82,0-5.48,1.37-8.3,2.4a1.41,1.41,0,0,1-1.1.34c-3.91,0-7.83.34-11.59,2.39a3.68,3.68,0,0,1-1.88.34,25.49,25.49,0,0,0-9.87,2c-1.56.69-3.13.34-4.7.69-2.34.34-4.54,1-6.89,1.36-1.88.34-3.6,1-5.48,1-3,0-5.79,1-8.61,2.05a9.91,9.91,0,0,1-4.39.68,23.13,23.13,0,0,0-8,2,11.84,11.84,0,0,1-4.85.69,19.82,19.82,0,0,0-8.62,2.39,2.89,2.89,0,0,1-1.72.34,21.36,21.36,0,0,0-10.18,2,6.49,6.49,0,0,1-3.61.69,21.35,21.35,0,0,0-9.08,2,6.56,6.56,0,0,1-3.6.68,25.38,25.38,0,0,0-8.62,2c-1.72,1-3.6.68-5.48,1-2.51.34-4.86,1.36-7.21,1.7a29.42,29.42,0,0,1-5.32.69,35.77,35.77,0,0,0-8.3,2.39,2.91,2.91,0,0,1-1.73.34l-8.45,1a1.91,1.91,0,0,0-1.26.68c-1.25,1.37-2.5,1.37-3.91,1.37a56.22,56.22,0,0,0-7.68.68h-.31c-2.51,3.08-5.33,1.37-8.15,1.71-2,.34-4.23.34-6.26,2.39a1.94,1.94,0,0,1-1.41.35,67.77,67.77,0,0,0-8.3.34,4.46,4.46,0,0,0-1.73.68,6.3,6.3,0,0,1-3.13,1.37c-2.51.34-5.17.34-7.83.68a2.67,2.67,0,0,0-1.57.68,3.67,3.67,0,0,1-3.44,1.37,61.62,61.62,0,0,0-8.15.69c-.15,0-.31.34-.47.34-1.88,2-3.91,1.71-6,1.71a37.34,37.34,0,0,0-6.11.68,1.09,1.09,0,0,0-.94.34c-1.41,1.71-2.82,1.37-4.23,1.37a60.85,60.85,0,0,0-7.83.68c-3.13,3.42-6.42,1.37-9.55,2.05-1.73.34-3.29.34-4.86,2a1.77,1.77,0,0,1-1.72.69,65.27,65.27,0,0,0-8.15.34c-.94,0-1.88,1-2.82,1.37-.78.34-1.72.68-2.5-.69v-2.05c0-.68.15-1.36.15-2v-57.08c0-1-.15-1.71-.15-2.39v-1.37c.31-.34.78-1,1.09-1.36a7,7,0,0,1,2.35-1,27.7,27.7,0,0,1,5-1.37c2.35-.68,4.86-.68,7.21-1.36A22.41,22.41,0,0,1,52.2,1424a13.39,13.39,0,0,0,6.26-1c2.51-1,5-1,7.52-1.36l4.7-1c1.72-.34,3.45-1,5.17-1.37,2.82-.34,5.8,0,8.77-1.71,1.26-.68,2.66-.68,4.07-1a63.26,63.26,0,0,0,8-1.37l5.17-1a50.1,50.1,0,0,1,7.05-1.37c1.72-.34,3.6-1,5.48-1.37,2.2-.34,4.39-.34,6.42-1a42.92,42.92,0,0,1,6.74-1.71,29.24,29.24,0,0,0,7.36-1.37c1.1-.34,2.35-.68,3.6-1,2.35-.35,4.86,0,7.21-1a23.85,23.85,0,0,1,6.89-1.71c2.19,0,4.23-.68,6.42-1,1.41-.35,3-1,4.55-1.37,2.82-.68,5.63-1,8.45-1.71,1.57-.34,3.29-.68,4.86-1,2.35-.68,4.7-.34,7.05-1.36a28.74,28.74,0,0,1,7.52-1.37,14.73,14.73,0,0,0,3.6-.68,23.66,23.66,0,0,1,8.3-2.05,23.85,23.85,0,0,0,6.74-1.37c.78,0,1.56-.69,2.35-.69,3-.34,5.95-.34,8.92-.68a3.58,3.58,0,0,0,2.35-1,3.47,3.47,0,0,1,2.82-1.37h6c1.56-.34,3.28-.34,4.69-2.39a1.42,1.42,0,0,1,1.41-.69h6.11c1.73,0,3.45,0,5-2.05.31-.68,1.09-.68,1.56-.68a42.51,42.51,0,0,0,6.58,0,8.44,8.44,0,0,0,3.92-1.37,7.77,7.77,0,0,1,2.5-1h6.89a3,3,0,0,0,2.67-1,4.68,4.68,0,0,1,3.44-1.37,24.49,24.49,0,0,0,7.05,0c.94,0,1.88-1,2.82-1.36.63-.35,1.41-1,2-1a36.66,36.66,0,0,1,6.11,0c1.72,0,3.29,0,4.85-2A2,2,0,0,1,302,1372c2.66-.35,5.17,0,7.83-.35.79,0,1.73-1,2.67-1.7a3.08,3.08,0,0,1,1.56-.69h7.05a5.32,5.32,0,0,0,3.13-1,6.28,6.28,0,0,1,3.14-1.37,42.38,42.38,0,0,0,6.57,0,4.59,4.59,0,0,0,3.29-1.37,3.62,3.62,0,0,1,2.35-1,55.51,55.51,0,0,0,7.52,0c.94,0,1.88-1,2.82-1.37a7.76,7.76,0,0,1,2.51-1c2.66-.34,5.17,0,7.83-.34.78,0,1.57-1,2.35-1.36s1.41-1,2-1h7c1.1-.34,2-1,3.14-1.37.94-.34,1.72-1.36,2.66-1.36,3.76,0,7.52.68,11.12-2.06.63-.34,1.25-.34,1.72,1C390.37,1356,390.37,1356.29,391,1355.27Z" transform="translate(0.38 0.38)"/><path class="cls-3" d="M390.37,1272.9c0-.69-.15-1.37-.15-2.05V1212.4c0-.68.15-1.71.15-2.39Z" transform="translate(0.38 0.38)"/><path class="cls-3" d="M390.37,830.62c0-.68-.15-1.36-.15-2v-58.1c0-.68.15-1.71.15-2.39Z" transform="translate(0.38 0.38)"/><path class="cls-3" d="M29.64,990.92c0,.69.16,1.37.16,2.05v57.42c0,.69-.16,1.37-.16,2Z" transform="translate(0.38 0.38)"/><path class="cls-3" d="M29.64,1137.55c0,.68.16,1,.16,1.71v52c0,2.73-.16,5.13-.16,7.86Z" transform="translate(0.38 0.38)"/><path class="cls-3" d="M29.64,1432.51c0,1,.16,1.71.16,2.4V1492c0,.69-.16,1.37-.16,2Z" transform="translate(0.38 0.38)"/><path class="cls-3" d="M29.64,844.64c0,.68.16,1.36.16,2.05v55.37c0,.68-.16,1.36-.16,2.05Z" transform="translate(0.38 0.38)"/><path class="cls-3" d="M29.64,1286.23c0,.68.16,1,.16,1.71v56c0,.68-.16,1-.16,1.71Z" transform="translate(0.38 0.38)"/><path class="cls-3" d="M390.37,765v2.39a8.12,8.12,0,0,0-1.09-1.36c-.94-.35-1.88-.35-2.82-.69A15.22,15.22,0,0,0,390.37,765Z" transform="translate(0.38 0.38)"/></g></g><g id="Layer_7" data-name="Layer 7"><g class="cls-4"><path class="cls-5" d="M1942.88,765.36c-2.1,0-4.2.57-6.3.57-6.29,1.14-12.59,1.71-19.24,2.84-3.15.57-6.65,1.14-9.8,1.71-6.65,1.14-13.3,2.27-20,2.84-6.3.57-12.6,1.14-19.25,2.28-7,1.13-13.65,2.27-20.65,3.41-11.54,1.7-22.74,3.41-34.29,4.55-3.5.56-6.65,1.13-10.15,1.7-6.3,1.14-12.6,1.71-18.55,2.84-6.65,1.14-13,2.28-19.6,3.41-5.25.57-10.84.57-16.09,2.28-9.1,2.27-18.2,2.27-27.3,4-6,.57-11.55,2.27-17.5,3.41-4.9.57-9.45,1.14-14.35,1.71-8.75,1.13-17.49,2.27-26.59,4L1630.72,812c-7,1.14-14.35,1.71-21.35,2.84-3.5.57-7,1.71-10.5,2.28-6.65,1.14-13.64,1.7-20.29,2.84-2.8.57-5.6,1.14-8,1.71-6,.57-12.25,1.7-18.2,2.27a8.73,8.73,0,0,0-5.95,2.28c-2.1,1.7-4.55,1.7-7,1.7h-13.65c-5.6.57-11.55.57-17.15-2.84-1.75-1.14-3.85-1.14-5.95-1.14-8,0-16.09-.57-23.79-4a4.43,4.43,0,0,0-2.8-.57c-6.3-.57-12.6,0-18.9-1.7-9.8-2.85-19.6-1.14-29.05-4.55-8.75-2.84-18.19-1.14-26.94-4-6.65-2.27-13.3-1.71-20-2.84-5.25-1.14-10.5-2.85-15.75-3.41-3.85-.57-7.7-.57-11.2-1.14-5.6-.57-10.85-1.14-16.45-3.41-1.75-1.14-3.85,0-6,0-7-1.14-14.34-2.84-21.34-4-4.9-.57-9.8-.57-14.7-1.71a116.21,116.21,0,0,1-13.65-2.84,4.44,4.44,0,0,1-2.45-.57c-8.75-1.14-17.5-2.84-26.25-4-4.55-.57-9.1-.57-13.64-1.7-12.6-1.71-25.55-4-38.15-6.26-8.75-1.13-17.85-2.84-26.6-4s-17.5-2.84-26.59-4c-.35,0-.7-.57-1.4-1.13.7-.57,1.05-1.71,1.75-1.71,8,.57,15.39-2.84,23.44-4,6.65-1.14,13-.57,19.6-2.27,9.1-2.28,18.2-2.28,27.3-4,6.65-1.14,12.95-2.28,19.6-2.85,11.54-1.7,22.74-3.41,34.29-5.11l20-3.41c10.5-1.71,20.65-3.41,31.15-4.55,11.89-1.71,23.79-2.84,36-4.55,3.85-.57,7.35-1.71,11.2-2.27,5.95-1.14,12.25-1.71,18.2-2.28a32.84,32.84,0,0,1,7.35-1.14c6.3-1.13,12.6-1.7,18.54-2.84a165.48,165.48,0,0,1,16.45-2.84c2.8-.57,5.6-.57,8.4-1.14,6.3-1.14,12.6-1.7,18.55-2.84a127.3,127.3,0,0,0,14.35-2.27c6.3-1.14,12.6-2.28,19.25-3.42,2.8-.56,5.6-.56,8-1.13,4.9-.57,10.15-1.71,15-2.28,6.65-1.13,13-1.7,19.6-2.27,6.65-1.14,13.65-1.71,20.3-2.84,1.75-.57,3.85-1.71,5.6-2.28h9.8c17.84,2.84,36,5.69,53.89,8.53,16.8,2.84,34,5.68,50.74,8.53,17.15,2.84,34.3,5.68,51.1,8,16.8,2.84,33.94,5.68,50.74,8,14.7,2.27,29.75,4.54,44.45,7.39l50.39,8.53c11.9,1.7,23.8,4,35.7,5.68,11.2,1.71,22,3.41,33.24,5.12.35,0,.7.57,1,.57C1942.88,764.79,1942.88,764.79,1942.88,765.36Z" transform="translate(0.38 0.38)"/><path class="cls-5" d="M1149.18,520.9l21-3.41a125.11,125.11,0,0,0,14.35-2.28c6.3-1.14,12.6-1.7,19.25-2.84,4.55-.57,9.1-1.71,13.65-2.27,6.65-1.14,13.65-1.71,20.3-2.85s13.64-2.27,20.29-3.41c4.55-.57,9.45-1.14,14-1.7,8.75-1.14,17.5-2.28,26.6-4,11.2-1.71,22.75-3.41,33.94-5.12,8.4-1.14,17.15-2.27,25.55-4,13.65-2.27,27-4.55,40.6-6.82,7-1.14,13.65-1.71,20.64-2.28,8.75-1.13,17.85-2.27,26.6-4,12.6-2.27,24.85-4.54,37.45-6.25,5.95-1.14,11.9-1.14,17.49-1.71a43.32,43.32,0,0,1,8.75-1.13c5.6-.57,10.85-1.71,16.45-2.28,3.5-.57,7-.57,10.5-1.7a79.42,79.42,0,0,1,20-2.28c2.8,0,6.3,1.14,8.75-2.84.35-.57,1.4,0,1.75,0,17.85,2.84,36,5.69,53.89,8.53,19.95,3.41,40.25,6.25,60.19,9.66,15.05,2.28,30.1,4.55,44.8,6.83l44.09,6.82c15,2.27,30.1,4.55,44.8,6.82l44.09,6.82c14.7,2.28,29.75,4.55,44.45,6.83,13.65,2.27,27.65,4.54,41.29,7.39-3.5,1.13-6.65,2.27-10.15,2.27-7.34,1.14-14.69,1.14-21.69,2.84-9.1,2.28-17.85,2.28-27,3.41-3.85.57-7.7,2.28-11.55,2.28-10.85.57-21.7,2.84-32.19,5.11-4.9,1.14-10.15.57-15.4,1.71-12.25,1.71-24.5,4-37.1,6.25-4.55.57-8.75.57-13.3,1.14l-10.5,1.71c-5.6,1.13-10.84,1.7-16.44,2.84a115.64,115.64,0,0,0-13.65,2.27c-6,1.14-11.55,1.71-17.5,2.85-6.65,1.13-13.65,2.27-20.3,3.41-2.8.57-5.6,0-8.05.57-4.55.56-8.75,1.7-13.3,2.27-6.64,1.14-13.64,1.71-20.29,2.84l-18.9,3.41c-4.9.57-9.8.57-14.7,1.71-8.75,2.27-17.5,2.27-26.25,3.41-13,2.27-25.89,4.55-38.84,6.25a64.87,64.87,0,0,1-10.5.57c-2.1,0-4.2,0-6.3,2.84a2.51,2.51,0,0,1-2.8,0,18.9,18.9,0,0,0-13.65,0c-1,0-1.75.57-2.8,0-8-3.41-16.1-2.84-24.14-4.54-12.6-2.28-25.2-4.55-37.8-6.26-7-1.13-14-1.7-21-2.84-11.55-1.71-23.1-4-34.64-5.69-7.35-1.13-14.7-1.7-22.4-3.41-11.2-1.7-22.75-4-34-5.68l-23.09-3.41c-10.85-1.71-21.7-3.41-32.9-5.12-7.7-1.14-15.75-2.27-23.45-3.41-27-4-54.24-8.53-81.19-12.51-11.9-1.7-23.8-3.41-36-5.68-.7,0-1-.57-1.75-.57Z" transform="translate(0.38 0.38)"/><path class="cls-5" d="M1152.33,1256c2.79-.57,5.24-1.71,8-2.27,3.85-.57,8.05-.57,12.25-1.14l17.85-3.41c2.1-.57,4.55-.57,6.65-1.14l22.05-3.41c7.35-1.14,14.7-1.71,22.39-2.84,8.75-1.14,17.5-2.28,26.6-4,12.6-2.28,24.85-4,37.45-6.26,3.85-.56,7.7-.56,11.55-1.13,4.9-.57,9.44-1.71,14.34-2.28,7-1.13,14.35-1.7,21.35-2.84,6.65-1.14,13-2.27,19.6-3.41,4.9-.57,9.8-.57,14.35-1.71,8.75-2.27,17.85-2.27,26.94-3.41,12.6-2.27,24.85-4.55,37.45-6.25,3.85-.57,8-.57,12.25-1.14,4.9-.57,9.45-1.7,14.35-2.27,7-1.14,14-1.71,21-2.85,6.29-1.13,12.59-2.27,18.54-3.41a134.75,134.75,0,0,0,15.05-2.27,91.54,91.54,0,0,1,21.35-2.84c2.8,0,6-1.14,8.75-1.71,8.75-2.27,17.5,0,26.24,1.14l52.5,8.53c17.15,2.84,33.94,5.68,51.09,8.52,14.7,2.28,29,4.55,43.75,6.83,16.8,2.84,33.94,5.68,50.74,8.52,11.9,1.71,23.8,4,35.7,5.69,14,2.27,28,4.55,42.34,6.82,14.7,2.28,29.4,4.55,44.1,7.39,10.85,1.71,22,3.41,32.89,5.12a4.79,4.79,0,0,1,2.45,1.14v1.13c-7,1.14-14,1.71-21,2.85l-17.85,3.41c-7.35,1.13-14.7,1.13-21.7,2.84-9.1,2.27-17.85,2.27-27,3.41-7,1.14-14.34,2.84-21.34,3.41-10.85,1.71-21.7,2.84-32.9,4.55-3.5.57-7,1.71-10.5,2.27-6.65,1.14-13,1.71-19.6,2.28-6.65,1.14-13,2.27-19.59,3.41l-14.7,1.71c-8.4,1.13-17.15,2.27-25.55,4-7.7,1.14-15,2.85-22.4,3.42-10.85,1.7-21.69,2.84-32.89,4.54l-18.9,3.42c-10.5,1.7-21.35,3.41-31.85,4.54-11.9,1.71-23.79,2.85-35.34,4.55-5.6.57-11.55,1.71-17.15,2.84-2.1.57-4.55,0-6.65.57l-5.25,1.71a6.19,6.19,0,0,1-3.15.57c-16.1-2.28-32.2-5.12-48.29-7.39-15-2.28-30.1-4.55-44.8-6.83-13-1.7-25.9-4-38.84-5.68-12.6-1.71-25.2-4-37.8-5.69-15-2.27-30.1-4.55-45.49-6.82-15.75-2.27-31.5-5.12-47.25-7.39-15-2.27-30.1-4.55-45.49-6.82-15.75-2.28-31.15-4.55-46.9-7.39-10.5-1.71-20.65-2.85-31.14-4.55C1152.33,1256.57,1152.33,1256,1152.33,1256Z" transform="translate(0.38 0.38)"/><path class="cls-5" d="M1936.23,1011l-28.34,3.41c-5.25.57-10.5,2.27-15.4,2.84a48.82,48.82,0,0,1-9.1.57c-4.55.57-8.75,1.7-13.3,2.27-6.65,1.14-13.65,1.71-20.3,2.84a29.82,29.82,0,0,1-7,1.14c-6.65,1.14-13,1.71-19.6,2.84-3.85.57-7.35,1.71-11.2,2.28a115.64,115.64,0,0,0-13.65,2.27c-5.25.57-10.5,1.71-15.75,2.28s-10.5,1.7-15.75,2.27c-7,1.14-13.64,2.28-20.64,3.41a52.62,52.62,0,0,1-9.45.57c-7,1.14-14.35,2.84-21.35,4-10.5,1.71-20.65,3.41-31.15,4.55-4.55.57-8.75.57-13.29,1.14l-41,6.82c-6.65,1.14-13.3,1.7-20,2.27-8.75,1.14-17.5,2.28-26.59,4l-32.55,5.12a34,34,0,0,0-7,2.27c-7,2.85-13.65-.57-20.3-1.13-13.3-1.71-26.59-4-39.89-5.69-12.6-1.7-25.55-4-38.15-5.68-12.25-1.71-24.85-4-37.09-5.69-15.75-2.27-31.15-4.55-46.9-6.82-16.1-2.28-32.2-4.55-48.64-7.39-13-1.71-25.9-4-38.85-5.69-12.6-1.7-25.2-3.41-37.79-5.68-15.75-2.28-31.5-5.12-47.25-7.39-10.5-1.71-21-2.85-31.15-4.55-2.79-.57-5.59-1.14-8.39-3.41,2.8-.57,6-.57,8.74-1.14,8.4-1.71,16.8-2.84,25.2-4.55,3.15-.57,6,0,9.1-.57,5.25-.57,10.5-1.7,16.1-2.84,2.45-.57,5.25-.57,7.7-1.14,6-.56,11.9-1.7,17.85-2.27,5.6-.57,10.84-1.71,16.44-2.27,3.5-.57,6.65-1.14,10.15-1.71,4.9-.57,9.45-1.71,14.35-2.27,7.7-1.14,15.4-2.85,23.45-3.42a293.32,293.32,0,0,0,31.84-5.11c5.25-1.14,10.5-.57,15.75-1.71,11.2-1.7,22-3.41,33.25-5.11,6-1.14,12.25-1.71,18.2-2.28,3.15-.57,6.65-1.14,9.8-1.7,4.55-.57,9.1-1.71,13.64-2.28,8.05-1.14,16.1-2.84,24.15-4,6.65-1.14,13.65-1.7,20.3-2.27,8.75-1.14,17.5-2.28,26.25-4,12.94-2.28,25.54-4.55,38.49-6.26,5.6-1.13,11.55-1.13,17.15-1.7l7.35-1.71c.7,0,1.4-.57,2.45-.57,4.2.57,8.4-.56,12.6-1.7,2.8-.57,5.6.57,8.4,1.14,18.89,3.41,37.44,6.25,56.34,9.66,21.35,3.41,42.69,6.82,64,10.8,18.9,3.41,37.8,6.26,56.7,9.67s38.14,6.25,57,9.66,37.79,6.83,56.69,9.67c18.9,3.41,38.15,6.25,57,9.66a68.8,68.8,0,0,1,10.49,2.28C1936.23,1009.83,1936.23,1010.4,1936.23,1011Z" transform="translate(0.38 0.38)"/><path d="M1954.08,510.1c0,.56-.35,1.13-.35,1.7,0,2.28-.7,2.84-2.1,2.84-6.3-.56-12.25-.56-18.54-1.7-2.1,0-4.2-1.14-6.3-2.28-2.1-.56-4.2-1.7-6.3-2.27-4.9-.57-9.45,0-14.35-.57-2.45,0-4.9-1.14-7.35-1.7-3.15-.57-6.3-1.71-9.1-2.28-2.45-.57-5.25,0-7.7,0a33,33,0,0,1-12.6-2.27c-5.25-2.28-10.5-1.71-15.75-2.28-3.49-.57-7,0-10.49-1.7-4.9-2.28-9.45-2.28-14.35-2.28-5.6,0-11.2,0-16.8-2.84-2.1-1.14-4.9-1.14-7-1.14h-5.25c-6,0-12.25-.56-18.2-3.41a12.5,12.5,0,0,0-4.55-.57c-5.25-.56-10.5-.56-15.39-1.13-3.15-.57-6.3-2.28-9.45-2.85-1.75-.56-3.85,0-6-.56-5.6-.57-11.2-1.14-16.45-1.71-3.85-.57-7.35-1.14-11.2-1.71-6.65-1.13-13.65-.56-20.3-3.41-1.4-.56-3.15-.56-4.9-1.13-5.6-.57-11.2-.57-16.79-1.71-6.3-1.14-12.25-2.27-18.55-3.41h-4.2c-7-1.14-13.65-2.27-20.65-3.41-4.55-.57-8.75-.57-13.3-1.14-5.25-.57-10.5-2.27-15.4-2.84-2.8-.57-5.6-.57-8.4-1.14l-15.74-3.41a104.56,104.56,0,0,1-12.95-2.27c-2.8-.57-5.6-1.14-8.05-1.71-5.95-1.14-12.25-2.27-18.2-2.84-4.55-.57-8.75-1.71-13-2.28-5.6-1.13-11.55-1.13-17.5-2.27a35.83,35.83,0,0,0-7.69-1.14c-5.6-1.13-11.2-1.7-16.45-2.84-4.55-.57-9.1-1.7-13.65-2.27s-8.75-1.71-13.3-1.71c-4.9,0-10.15-1.14-15-2.27-4.9-1.71-10.15-1.71-15.4-2.28l-11.54-1.7c-5.95-1.14-11.9-1.71-17.85-2.28-3.15-.57-6-.57-9.1-1.7-6-2.28-11.9-2.28-18.2-2.85a35.65,35.65,0,0,1-13.3-2.84c-3.15-1.14-6.3-1.14-9.45-1.14-6.3,0-12.25-.56-18.19-2.84a49,49,0,0,0-13-1.7,51.05,51.05,0,0,1-15.75-2.85c-4.55-1.13-9.45-1.13-14.35-1.7-3.5-.57-7,0-10.5-1.71-6.3-2.27-13-2.27-19.25-2.84-3.5-.57-6.65-1.14-10.15-1.7a169.14,169.14,0,0,0-16.79-2.28,94.06,94.06,0,0,1-12.25-2.27c-7-1.71-14.35-1.71-21.35-2.85-1.75,0-3.5-1.13-4.9-1.13-5.25-1.14-10.5-2.28-15.75-2.28-4.9-.57-9.8-.57-14.7-2.27-3.84-1.14-8-1.14-11.89-2.28-1,0-1.75-1.13-2.8-1.7v-1.71c0-1.13.35-2.27.35-3.41V287.23c0-1.13-.35-2.84-.35-4v-.57c.7-.56,1.75-2.27,2.45-2.27a24.46,24.46,0,0,1,6.3-1.14h2.45c2.44,3.41,5.59,5.12,8.74,5.12a64.87,64.87,0,0,1,10.5.57c4.55,0,9.45-2.28,13.65,2.84h.7c7,.57,13.65.57,20.65,1.14,1.75,0,3.5,1.14,4.9,1.7s3.15,1.71,4.55,2.28a155.3,155.3,0,0,0,16.45.57c3.15,0,6.3-.57,8.74,2.84a1.53,1.53,0,0,0,1.4.57c6,.57,11.9,1.14,17.5,1.14,3.15,0,6-.57,8.75,2.27a4.79,4.79,0,0,0,2.45,1.14c6,.56,11.9.56,17.5.56,2.8,0,5.6,0,8,2.28.7,1.14,2.1,1.14,3.15,1.14,6,0,12.25,0,18.2.56,2.1,0,3.85,1.14,6,1.71,1.4.57,2.45,1.71,3.84,1.71,5.6.56,11.55.56,17.15.56,2.8,0,5.6-.56,8.4,2.85a1.53,1.53,0,0,0,1.4.57c7,.56,13.65.56,20.65,1.13,1.4,0,3.15,1.14,4.55,1.71,1.75.57,3.5,2.27,5.25,2.27a78.4,78.4,0,0,0,11.55.57c4.2.57,8.75,1.14,13,1.71,5.24.56,10.14,2.27,15.39,2.84,3.5.57,7.35,0,10.85,1.14,6.65,1.7,12.95,3.41,19.6,3.41,3.15,0,6.3,0,9.45,1.13a59.16,59.16,0,0,0,19.6,3.42c2.8,0,6,0,8.75,1.13,7,2.85,14,3.41,21,3.41a16.51,16.51,0,0,1,5.25.57c6,1.14,11.55,2.84,17.5,3.41,4.2.57,8.75.57,13,1.14,5.25.57,10.15,2.27,15.4,2.84,3.85.57,8,0,11.9,1.14,6.3,1.71,12.59,3.41,19.24,3.41,3.15,0,6.65,0,9.8,1.14a55.44,55.44,0,0,0,18.9,3.41c2.8,0,6,0,8.75,1.14a61.43,61.43,0,0,0,20,3.41,19.91,19.91,0,0,1,5.95.57,78.41,78.41,0,0,0,25.54,4c1.75,0,3.5.56,5.25.56a139.75,139.75,0,0,0,15,2.85c4.2.57,8.75,0,12.6,1.13,6.65,2.28,13.3,2.85,20,3.42,2.45,0,5.25,0,7.7,1.13a61.11,61.11,0,0,0,19.94,3.41c3.15,0,6.3,0,9.1,1.14a57.15,57.15,0,0,0,19.25,3.41,61.5,61.5,0,0,1,10.15,1.14c3.85.57,7.7,1.71,11.55,2.27,4.9.57,10.15.57,15.4,1.71,4.9.57,9.8,2.27,15,2.84,4.55.57,9.1,0,13.65,1.71a53.52,53.52,0,0,0,16.1,2.84c4.55,0,9.1,1.14,13.3,1.71a156.08,156.08,0,0,1,16.1,2.84c4.2.57,8.75,1.14,13,1.7,2.45.57,4.9,1.71,7.35,1.71,4.54.57,9.09,0,13.64,1.14,2.8.56,6.3-1.71,7.35,5.68V410c0,1.13-.35,2.27-.35,3.41v92.1c0,1.14.35,2.27.35,3.41Z" transform="translate(0.38 0.38)"/><path d="M1148.13,524.31c1.4,0,2.8-1.14,3.85-.57,7.69,4,15.74,2.84,23.79,2.84a7.55,7.55,0,0,1,4.55,1.71,15.66,15.66,0,0,0,9.8,2.84h13.3a9,9,0,0,1,6.3,2.28c1.75,1.7,4.2,1.7,6.3,2.27h15.75a9.62,9.62,0,0,1,5.25,1.7c2.79,2.28,5.24,2.28,8,2.28h16.45c1,0,2.45,1.14,3.5,1.7,1.4.57,3.15,2.28,4.55,2.28,6.3.57,12.6,0,18.9.57a4.38,4.38,0,0,1,3.5,1.13c3.15,2.85,6.3,3.42,9.8,3.42h14.35c1.75,0,3.5,1.13,5.25,1.7,2.1.57,3.84,2.28,5.94,2.28,5.6.56,10.85,0,16.45.56,2.1,0,3.85,1.14,6,2.28,2.45.57,4.55,2.27,7,2.27,5.6.57,10.85,0,16.45,0A8.43,8.43,0,0,1,1377,559a11.17,11.17,0,0,0,8,2.84h15.75a4.35,4.35,0,0,1,3.5,1.14c3.5,2.84,7,3.41,10.84,3.41,4.2,0,8.75-.57,12.95,0,2.1,0,3.85,1.71,6,2.27,1.4.57,2.8,1.71,4.2,1.71,6,0,11.55,0,17.5.57a10.74,10.74,0,0,1,5.6,1.7c3.5,2.85,7.35,2.28,10.85,2.85H1483a11.37,11.37,0,0,1,7,2.27,12.14,12.14,0,0,0,6.3,1.71h15.39c1.75,0,3.5,1.13,5.6,1.7,2.8,1.14,5.25,2.28,8.05,2.28,6.3.56,12.6.56,18.9,1.7,2.8.57,5.6,1.71,8.75,2.28,4.55.56,8.75.56,13.3,1.13,4.2.57,8.4,1.71,12.6,2.28a130.85,130.85,0,0,1,14.69,2.27,97.54,97.54,0,0,1,12.6,2.28c6,.56,11.55,1.7,17.5,2.27,2.8.57,6,.57,8.75,1.71,6,2.27,12.25,2.27,18.2,2.84a39,39,0,0,1,13.65,2.84c4.55,1.14,9.44,1.14,14,1.71,4.2.56,8.4,1.7,13,2.27s8.75,1.71,13.3,1.71a55.14,55.14,0,0,1,16.1,2.84c4.9,1.7,10.15,1.14,15,1.7,3.5.57,7,.57,10.15,1.71,6.65,2.27,13,2.27,19.59,2.84,3.5.57,7.35,1.71,10.85,2.28a147.14,147.14,0,0,1,15.75,2.27c3.85.57,8,1.71,11.9,2.27,7,1.14,14.35,1.71,21.35,2.28a17.37,17.37,0,0,1,5.25,1.14c6,2.27,12.25,2.27,18.54,2.84,3.5,0,7,1.7,10.5,2.27,4.9.57,9.45,1.71,14.35,2.28,5.25,0,10.15,1.13,15,2.27,5.25,1.71,10.85,1.14,16.1,2.28l10.5,1.7c4.2.57,8.4,1.71,12.59,2.28,6.3.56,12.6.56,18.9,3.41,1.05.56,1.75,0,2.8.56s1.75,1.14,2.8,1.71v3.41c0,1.14-.35,2.28-.35,3.41V754c0,1.14.35,2.28.35,3.42v3.41c-1.75,2.27-3.85,1.7-5.25,1.13-8.4-3.41-17.15-3.41-25.89-2.84a8.43,8.43,0,0,1-3.85-1.14c-3.15-1.13-6.3-2.84-9.8-2.84-4.55-.57-9.1,0-13.65,0-2.1,0-4.2-1.7-6.3-1.7a78.06,78.06,0,0,0-11.2-2.28c-4.2-.57-8.4,0-12.25,0a3,3,0,0,1-2.1-.57c-5.25-4-11.2-3.41-16.8-3.41-5.24,0-10.49,0-15.74-2.84-2.1-1.14-4.55-1.14-6.65-1.14h-2.45c-7,.57-14.35,0-21-3.41-2.1-1.14-4.9-.57-7.35-.57a69.24,69.24,0,0,1-10.85-.57c-2.1,0-3.85-1.13-6-1.7-3.5-.57-7.35-1.71-11.2-1.71-7,0-14-.57-21-3.41a19.65,19.65,0,0,0-6-1.13c-7.7,0-15.4-.57-23.1-3.42a3.48,3.48,0,0,0-2.45-.56c-6-.57-11.9,0-17.5-1.71-9.1-2.84-18.55-2.84-28-4-2.8-.57-5.6-1.7-8.4-2.27-4.9-.57-9.45-1.14-14.35-1.71-3.85-.57-8.05-1.7-11.9-1.7-6.3-1.14-12.6-1.71-18.9-2.28a165.48,165.48,0,0,1-16.45-2.84c-4.2-.57-8.75-1.14-13-1.71-2.44-.57-4.54-1.7-7-2.27a62.39,62.39,0,0,0-9.8-2.84c-7.7-.57-15.4-.57-23.1-3.41-2.8-1.14-5.95-1.14-8.75-1.14A58,58,0,0,1,1518,696c-4.9-1.71-9.8-1.14-14.7-1.71a88.89,88.89,0,0,1-11.89-2.27c-4.55-.57-9.45-1.71-14-2.28-5.25-.57-10.5-.57-15.75-2.84-4.55-1.71-9.45-1.71-14.35-1.71s-9.45-1.7-14-2.84c-5.6-1.14-11.2-1.14-16.8-1.7-2.8-.57-5.6-1.14-8-1.71-5.6-1.14-11.2-1.71-16.8-2.84-4.2-.57-8.75-1.71-13-2.28-4.9-.57-9.8-1.7-14.7-2.27-4.55,0-9.1-1.14-13.65-2.28-4.9-1.7-9.8-1.7-14.7-2.27-4.9,0-9.45-1.14-14-2.27-5.25-1.14-10.85-1.14-16.1-2.28a49.68,49.68,0,0,0-9.1-1.14c-6.3-1.13-12.6-2.27-18.55-2.84a57.08,57.08,0,0,1-13-2.84c-3.5-1.14-7-1.14-10.85-1.71-5.6-.56-11.2-.56-16.45-2.27-4.54-1.71-9.09-1.14-13.29-2.27-4.55-.57-9.1-1.14-13.3-1.71-5.95-.57-11.55-1.71-17.5-2.27-3.85-.57-7.7-1.71-11.55-2.28-6.65-1.14-13.3-1.14-19.6-2.27-4.2-.57-8.4-2.28-12.59-3.41-1.4-.57-1.75-1.71-1.75-4V532.84c0-1.14-.35-1.71-.35-2.85C1148.13,526,1148.13,524.88,1148.13,524.31Z" transform="translate(0.38 0.38)"/><path d="M1954.08,1245.2c-.35,4-1.75,3.41-3.5,3.41-5.25-.57-10.85-.57-16.1-1.14a11,11,0,0,1-5.94-1.7c-4.2-2.85-8.75-2.85-13.3-2.85h-8.4a12.35,12.35,0,0,1-7.35-2.27,11.68,11.68,0,0,0-7.35-2.27,46.63,46.63,0,0,0-12.6,0c-3.5,0-6.3-1.14-9.45-2.85a22.31,22.31,0,0,0-8.4-1.7h-8.75c-3.5,0-7,0-10.14-2.28-5.25-2.84-10.85-2.27-16.45-2.27-4.2,0-8-1.14-12.25-2.28-4.9-1.7-9.8-1.7-15-1.7-4.55,0-9.1,0-13.65-2.84-2.1-1.14-4.9-1.14-7-1.71h-6a37,37,0,0,1-15.39-2.84c-4.55-1.71-9.45-1.71-14.35-1.71-4.2,0-8,.57-12.25-2.27s-8.75-1.71-13.3-2.28c-5.6,0-10.85,0-16.45-2.84-2.1-1.14-4.9-1.14-7-1.14-4.9-.56-9.8,0-15-.56-2.45,0-4.9-2.28-7.34-2.28-3.85-.57-7.7-.57-11.55-1.13-4.9-.57-10.15,0-15-2.85-2.45-1.13-5.25-1.13-8-1.7-5.25-.57-10.5.57-15.75-1.71-8.75-3.41-17.5-2.27-26.25-4-2.8-.57-5.25-1.7-8-2.27a120.77,120.77,0,0,0-13.3-2.28,76.23,76.23,0,0,1-16.1-3.41c-4.55-1.13-9.1-1.13-13.65-1.7s-9.1-1.71-13.3-2.28-8.75-1.13-13-1.7a119.31,119.31,0,0,1-14-2.28c-5.59-.57-11.19-1.7-16.44-2.27-4.2-.57-8.4-1.71-12.6-2.28s-8.75-1.7-13-2.27a83.62,83.62,0,0,1-16.45-2.84c-5.6-1.71-11.55-1.14-17.15-2.28-2.45-.57-4.9-.57-7.35-1.13-6.64-2.85-13.64-2.28-20.64-2.85l-8.4-1.7c-4.9-.57-10.15-2.28-15-2.28-6.3,0-12.25-1.7-18.55-3.41a46,46,0,0,0-8.75-1.13,57.72,57.72,0,0,1-16.8-2.85c-5.24-1.7-10.49-1.13-15.74-1.7-3.5-.57-7-1.14-10.15-1.71-5.6-1.14-10.85-2.27-16.45-2.27-4.55-.57-9.1-.57-13.65-2.28-2.8-1.13-6-1.13-8.75-1.7-6.65-.57-13.65-.57-20.3-2.84-5.24-1.71-11.19-1.14-16.44-1.71-2.8-.57-5.25-1.14-8-1.71-6-1.13-11.9-1.7-17.85-2.84-3.85-.57-7.7-1.7-11.55-2.27-5.25-.57-10.15-1.71-15.4-2.28-4.9,0-9.45-1.13-14.35-2.27-4.2-1.14-8.39-1.14-12.59-2.28a4.77,4.77,0,0,1-2.45-1.13v-1.71c0-1.14.35-2.27.35-3.41v-97.22c0-1.13-.35-2.84-.35-4v-.56c.7-.57,1.75-2.28,2.45-2.28a43.35,43.35,0,0,1,8.74-.57,4.74,4.74,0,0,1,2.8,1.14,8.91,8.91,0,0,0,7,2.84h17.15c1.4,0,2.8,1.14,4.55,1.71,2.45,1.13,4.55,2.27,7,2.27,5.25.57,10.5,0,15.75,0,1.75,0,3.85,1.14,5.6,1.71,2.8,1.13,5.25,2.27,8,2.27,5.25.57,10.5,0,15.74,0a3.67,3.67,0,0,1,3.15,1.14,11.09,11.09,0,0,0,8.75,3.41h15.4a6.84,6.84,0,0,1,4.55,1.71c3.15,2.84,6.65,2.84,9.8,2.84h14a8.43,8.43,0,0,1,3.85,1.14c2.1,1.13,3.85,2.84,6,2.84a82.74,82.74,0,0,0,16.8,0,9.58,9.58,0,0,1,6.29,2.27c2.1,1.14,4.2,2.28,6.3,2.28H1355c1.4,0,2.8,1.13,4.2,1.7a41.35,41.35,0,0,0,7.7,2.84c5.25.57,10.5,0,15.4,0a5.93,5.93,0,0,1,4.2,1.14,13.7,13.7,0,0,0,9.1,2.84h15c1.4,0,2.79,1.14,4.19,1.71,1.75.57,3.5,2.27,5.25,2.27,6,.57,11.9,0,17.85.57,2.1,0,4.2,1.71,6.3,2.28,1.75.56,3.15,1.7,4.9,1.7h17.5c1.75,0,3.15,1.14,4.9,1.71,2.1.57,3.85,2.27,6,2.27a66.42,66.42,0,0,0,15,0,14.77,14.77,0,0,1,8.39,2.28c1.75,1.7,4.2,1.7,6.65,1.7h15.75a4.43,4.43,0,0,1,2.8.57c5.25,4,10.5,4,16.1,4.55,5.25.57,10.5,0,15.75,1.7a80.22,80.22,0,0,0,23.1,2.85c3.15,0,5.94,2.27,9.09,2.27,5.25.57,10.85,1.14,16.1,1.71,3.5.56,7,1.13,10.15,1.7,5.25.57,10.85,1.71,16.1,2.28,4.55.56,9.1,1.13,13.65,2.84,3.85,1.14,7.7,1.14,11.2,1.7a50.09,50.09,0,0,1,15.74,2.28c4.2,1.7,8.4,1.7,12.6,1.7a57.72,57.72,0,0,1,16.8,2.85,56.45,56.45,0,0,0,13.65,1.7,35.76,35.76,0,0,1,13,2.28,121.4,121.4,0,0,0,14,2.27c5.25.57,10.5.57,15.4,2.84,4.19,1.71,8.74,1.14,12.94,1.71,5.25.57,10.5,1.14,15.75,2.84,4.9,1.71,10.15,1.14,15.4,1.71,3.85.56,7.35,1.7,11.2,2.27,4.55.57,8.75,1.71,13.3,1.71a51,51,0,0,1,15.75,2.84c5.24,1.7,10.49,1.14,15.74,2.27,3.85.57,7.7,1.71,11.55,2.28,5.25.57,10.85,1.7,16.1,2.27l11.55,1.71c6.3,1.13,12.6,1.7,18.9,2.27,2.8.57,5.95,1.14,8.75,1.71,4.2.57,8.39,1.7,12.59,2.27a94.09,94.09,0,0,0,12.6,1.14c1.4,0,2.1,1.14,2.1,3.41,0,.57.35,1.14.35,1.7V1140c0,1.14-.35,1.71-.35,2.84v93.24c0,1.14.35,1.71.35,2.84C1954.08,1243.49,1954.08,1244.63,1954.08,1245.2Z" transform="translate(0.38 0.38)"/><path d="M1954.08,1002.44a4.79,4.79,0,0,1-2.45,1.14c-3.5.56-6.65.56-10.15,1.13a4.43,4.43,0,0,1-2.8-.57c-3.5-4-7.69-4-11.89-4h-13.3a9.94,9.94,0,0,1-4.2-1.13c-4.2-2.85-9.1-2.85-13.65-2.85-2.8,0-5.6.57-8.4,0-2.45,0-4.9-1.13-7.35-1.7a82.72,82.72,0,0,0-11.55-2.28c-2.45-.56-4.9,0-7.35,0-3.5.57-7-.56-10.5-2.27a13.41,13.41,0,0,0-6.64-1.71h-14.7a13.34,13.34,0,0,1-4.55-1.13,70.54,70.54,0,0,0-10.5-2.84c-2.8-.57-5.6,0-8.75,0A27.84,27.84,0,0,1,1793.8,982c-4.9-1.7-9.8-1.7-15-1.7a29.44,29.44,0,0,1-13.65-2.85c-3.85-1.7-8-1.7-12.24-1.7-5.6,0-10.85,0-16.45-2.85-3.15-1.7-6.3-1.13-9.8-1.7-6.65,0-13.3.57-19.95-3.41-1.75-1.14-3.85-1.14-6-1.14h-8a28.51,28.51,0,0,1-11.9-2.27c-3.85-1.71-7.7-1.71-11.54-1.71-5.6,0-11.55,0-17.15-2.84-3.5-1.71-7.35-1.14-11.2-1.71-4.2-.57-8.75,0-12.95-1.13a36.47,36.47,0,0,0-17.15-2.85,42.54,42.54,0,0,1-16.45-3.41c-3.85-1.13-7.7-1.13-11.54-1.13h-6c-2.45,0-4.55-1.14-7-2.28a11.74,11.74,0,0,0-7.35-2.27c-4.2-.57-8.4-.57-12.25-1.14l-10.5-1.71c-6-1.13-11.55-1.7-17.5-2.84-3.85-.57-7.7-1.7-11.55-2.27-5.6-.57-11.2-1.71-17.14-2.28a115,115,0,0,1-13-2.27c-4.55-1.14-9.1-1.14-13.65-1.71s-9.1-1.7-13.3-2.27a156.27,156.27,0,0,1-16.1-2.28c-4.2-.56-8.4-1.7-12.25-2.27-4.55-.57-9.45-1.7-14-1.7A36.32,36.32,0,0,1,1398,920c-5.6-1.7-11.2-1.7-16.8-2.84-3.15-.57-6.65-.57-9.8-1.71-6.65-2.27-13.3-2.27-19.6-2.84-4.2-.57-8.4-2.27-12.6-2.84l-16.79-1.71c-2.45,0-4.9-1.14-7.35-1.7-5.25-1.14-10.85-2.28-16.1-2.28a131.09,131.09,0,0,1-15.4-2.84c-4.9-1.14-9.8-1.14-14.35-1.71-3.5-.56-6.65-1.13-10.15-1.7-6-1.14-11.9-1.71-17.85-2.84-3.84-.57-8-1.14-11.89-1.71-6-1.14-12.25-1.71-18.2-2.27-2.8-.57-5.6-.57-8.4-1.14a141.07,141.07,0,0,0-16.1-2.84,84.09,84.09,0,0,1-16.1-2.85c-6-1.7-12.25-1.13-18.54-1.7h-1.4c-2.8-.57-3.15-1.14-3.15-5.69V776.16c0-6.25,0-6.25,3.85-6.25h15.39c1,0,2.45,0,3.15,1.14,2.45,3.41,5.6,3.41,8.4,4h15c1.75,0,3.85,1.13,5.6,1.7,2.8,1.14,5.6,2.28,8.75,2.28,4.9.57,9.8,0,14.7,0,1.4,0,3.15,1.13,4.55,1.7,1.75.57,3.15,2.28,4.9,2.28,6,.57,12.24,0,18.19.57a7.54,7.54,0,0,1,4.55,1.7c2.45,1.71,4.9,2.84,7.35,2.84H1279c1,0,2.45,0,3.15,1.14a11.54,11.54,0,0,0,8.75,3.41h15.4a6,6,0,0,1,4.2,1.71,13.75,13.75,0,0,0,9.1,2.84h14a8.2,8.2,0,0,1,6,2.27,5.22,5.22,0,0,0,3.85,1.71c5.95,0,11.9,0,18.2.57a8.8,8.8,0,0,1,5.25,1.7,13.71,13.71,0,0,0,9.1,2.85h13.3a9.83,9.83,0,0,1,6.65,2.27,10.94,10.94,0,0,0,5.95,1.71h15.74a10.65,10.65,0,0,1,5.6,1.7c4.55,3.41,9.1,2.28,13.65,2.84h10.5a3.67,3.67,0,0,1,3.15,1.14c3.15,3.41,6.65,3.41,10.15,3.41h13.3a8.75,8.75,0,0,1,5.25,1.71c3.5,2.84,7.35,2.84,11.2,2.84a69,69,0,0,0,10.84-.57,10.74,10.74,0,0,1,7,2.28,6.88,6.88,0,0,0,4.55,1.7,83.2,83.2,0,0,0,11.9.57,51.33,51.33,0,0,1,15.75,2.84c5.25,1.71,10.5,1.71,15.75,2.28,4.55.56,9.45,1.13,14,2.84,3.15,1.14,6.65,1.14,9.8,1.14,5.94.56,11.54.56,17.49,2.27,5.25,1.71,10.5,1.14,16.1,2.27,4.2.57,8,1.71,12.25,2.28,4.9.57,10.15,1.14,15.4,2.27,4.2.57,8.4,1.71,13,2.28,4.9.57,9.45,1.7,14.35,1.7s9.79,1.14,14.69,2.28c5.25,1.7,10.5,1.13,15.75,2.27,3.85.57,7.35,1.71,11.2,2.28,7,1.13,14.35,1.7,21.35,2.27,1.75,0,3.5,1.14,5.25,1.14,5.6,1.13,11.2,1.7,16.8,2.84,4.2.57,8.39,1.71,12.94,2.27,4.9.57,9.45,1.71,14.35,2.28,4.9,0,9.45,1.14,14.35,2.27,5.25,1.71,10.85,1.14,16.1,2.28l10.5,1.7c4.9.57,9.45,1.71,14.35,2.28a83.18,83.18,0,0,1,16.09,2.84c4.9,1.7,10.15,1.14,15.4,1.7,4.2.57,8.4,1.71,12.95,2.28a65.83,65.83,0,0,0,10.85,1.14,47,47,0,0,1,17.5,2.84,34.28,34.28,0,0,0,10.85,1.7,67.2,67.2,0,0,1,18.19,2.85c4.2,1.13,8.75,1.13,13.3,1.7.7,0,1.4.57,2.45,1.14v3.41c0,1.14-.35,1.71-.35,2.84v86.42c0,4.55.35,8.53.35,13.07C1954.08,1000.16,1954.08,1001.3,1954.08,1002.44Z" transform="translate(0.38 0.38)"/><path d="M1148.13,1259.41c1-2.27,2.45-2.27,3.85-1.7,8,4.54,16.44,3.41,24.84,3.41,2.1,0,3.85,1.7,6,2.27,2.45.57,4.55,1.71,7,2.28h15.75c1.4,0,3.15,1.13,4.55,1.7,1.75.57,3.5,2.28,5.25,2.28,6,.56,11.55,0,17.5.56,1.75,0,3.85,1.14,5.6,1.71,2.1.57,4.19,2.27,6.29,2.27,5.6.57,11.2,0,16.8,0a9.56,9.56,0,0,1,5.25,1.71,12.42,12.42,0,0,0,7.35,2.27c4.9.57,9.8,0,14.7,0,2.45,0,4.55,1.14,7,2.28a14.87,14.87,0,0,0,7,1.7h15.75a8.42,8.42,0,0,1,3.5,1.14c2.1,1.14,4.2,2.84,6,2.84,5.94.57,11.54,0,17.49.57,1.4,0,3.15,0,4.2,1.14,3.5,3.41,7,3.41,10.85,3.41,4.55,0,9.1-.57,13.65,0,1.4,0,3.15,1.14,4.55,1.7,2.1.57,4.2,2.28,6.3,2.28a72.75,72.75,0,0,0,15.75,0,12.74,12.74,0,0,1,7.7,2.27c1.75,1.71,4.2,1.71,6,1.71h15.39c1.75,0,3.85,1.14,5.6,1.7,2.8,1.14,5.6,2.28,8.75,2.28,4.9.57,9.8,0,14.7,0,1,0,2.8,0,3.5,1.14,3.5,3.41,7.35,3.41,11.2,3.41h13.65a3.69,3.69,0,0,1,3.15,1.13c3.15,3.41,7,3.41,10.5,4h13.29a9,9,0,0,1,6.3,2.28,9.62,9.62,0,0,0,5.25,1.7c6.65.57,13.3.57,20,1.14,1.75,0,3.5,1.14,5.25,1.14,4.9,1.13,10.15,2.27,15,2.27,6.3,0,12.6,1.71,18.55,3.41a42.58,42.58,0,0,0,8,1.14c5.6,0,11.2,1.14,16.8,2.27,5.25,1.71,10.5,1.14,15.75,2.28,3.5.57,7.35,1.14,10.85,1.7,6.3,1.14,12.6,1.71,18.9,2.85,3.5.56,7,1.7,10.15,2.27,4.9.57,9.44,1.71,14.34,1.71,5.25.56,10.5,1.13,15.4,2.84,5.25,1.7,10.85,1.14,16.1,1.7,2.8.57,5.6,1.14,8.05,1.71,5.6,1.14,11.2,2.27,16.45,2.27a125.2,125.2,0,0,1,15.05,2.85c4.55,1.13,9.44,1.13,14.34,1.7,4.2.57,8.4,1.71,12.25,2.28a147.14,147.14,0,0,1,15.75,2.27l11.55,1.71c6,1.13,11.9,1.7,17.85,2.27,3.15.57,6.3.57,9.1,1.71,6.65,2.84,13.29,2.27,19.59,2.84,3.85.57,7.7,1.7,11.55,2.27l10.5,1.71c5.6.57,11.2.57,16.8,2.27,4.55,1.71,9.45,1.71,14,1.71,4.9,0,9.8,1.14,14.7,2.27,5.25,1.14,10.84,1.14,16.09,2.28a76.68,76.68,0,0,1,11.2,2.27c1.75.57,3.5.57,5.25,1.71.7.56,1.75,1.7,2.45,2.27v2.27c0,1.14-.35,2.28-.35,4v94.95c0,1.14.35,2.27.35,3.41v3.41c-1.75,2.27-3.85,1.71-5.6,1.14-2.1-.57-4.2-2.28-6.3-2.28-6-.57-12.25-.57-18.19-.57-1.4,0-2.8,0-3.85-1.13-3.5-2.85-7-2.85-10.85-3.41-7-1.14-14.35,2.27-21.35-3.41-6-.57-11.55-1.14-17.5-1.14-3.15,0-6.3.57-9.45-2.28a3,3,0,0,0-2.1-.56,110.21,110.21,0,0,0-13.65-1.14c-4.54,0-9.09.57-13.29-2.84-.35,0-.7-.57-1-.57-6-.57-11.9-1.14-18.2-1.14-2.8,0-5.25,0-7.7-2.27a7.06,7.06,0,0,0-3.5-1.14c-6-.57-11.9-.57-17.5-1.14-2.45,0-4.55-1.14-7-2.27a12,12,0,0,0-3.85-1.14c-6.3-.57-12.25-.57-18.54-.57-1.05,0-2.45,0-3.15-.57-4.55-3.41-9.45-3.41-14-4-6.3-.56-12.6,2.28-18.2-2.84h-.7a166.43,166.43,0,0,0-17.15-1.14c-3.15,0-6,0-8.75-2.27a4.74,4.74,0,0,0-2.8-1.14l-18.9-1.7a8.28,8.28,0,0,1-3.84-.57,101.21,101.21,0,0,0-18.55-4,89.25,89.25,0,0,1-11.9-1.14c-5.25-.57-10.5-2.27-16.1-2.84-4.2-.57-8.4,0-12.25-1.71-6.3-2.27-12.6-2.84-19.25-3.41-2.8,0-5.59,0-8-1.13a61.68,61.68,0,0,0-20.3-3.42c-2.8,0-5.6,0-8-1.13-7.35-2.84-15-3.41-22.75-3.41a8.3,8.3,0,0,1-3.85-.57c-6.3-2.28-12.6-4-19.25-4-3.5,0-7.35,0-10.84-1.14-6-2.27-11.9-2.84-17.85-3.41-3.15,0-6.65,0-9.8-1.14-6.3-1.7-12.6-3.41-19.25-3.41-4.2,0-8.05-1.13-12.25-1.7-5.25-.57-10.15-1.71-15.4-2.28-3.5-.57-7,0-10.49-1.13a74.08,74.08,0,0,0-22-3.42,10.88,10.88,0,0,1-4.2-.56c-8.4-3.41-17.15-4-25.9-4a3.9,3.9,0,0,1-2.45-.57c-6.3-1.71-12.25-4-18.55-4-3.85,0-7.7,0-11.19-1.14a99.38,99.38,0,0,0-17.85-3.41c-3.15,0-6.3,0-9.45-1.14-6.3-1.7-12.95-3.41-19.6-3.41a36.78,36.78,0,0,1-11.2-1.7c-3.5-.57-7-1.71-10.5-2.28-4.55-.57-9.1.57-13.3-1.13-9.09-2.85-17.84-4.55-26.94-4h-1.4c-6-1.71-11.9-4-17.85-4a84.18,84.18,0,0,1-12.25-1.14c-2.8-.57-5.6-1.71-8.4-2.28-8.75-1.7-17.5,0-25.89-4-3.85-1.7-4.2-1.13-4.2-7.39v-97.78c0-1.14-.35-1.71-.35-2.85C1148.13,1260.55,1148.13,1260,1148.13,1259.41Z" transform="translate(0.38 0.38)"/><path class="cls-3" d="M1148.13,1017.22c0,1.14.35,2.84.35,4v97.22c0,1.13-.35,2.27-.35,3.41Z" transform="translate(0.38 0.38)"/><path class="cls-3" d="M1148.13,282.12c0,1.13.35,2.84.35,4v96.65c0,1.13-.35,2.27-.35,3.41Z" transform="translate(0.38 0.38)"/><path class="cls-3" d="M1954.08,755.13c0-1.14-.35-2.27-.35-3.41V656.21c0-1.14.35-2.28.35-3.41Z" transform="translate(0.38 0.38)"/><path class="cls-3" d="M1954.08,999c0-4.55-.35-8.53-.35-13.08V899.54c0-1.14.35-1.71.35-2.85Z" transform="translate(0.38 0.38)"/><path class="cls-3" d="M1954.08,1489.66c0-1.13-.35-2.27-.35-3.41v-94.94c0-1.14.35-2.27.35-4Z" transform="translate(0.38 0.38)"/><path class="cls-3" d="M1954.08,508.39c0-1.14-.35-2.27-.35-3.41v-92.1c0-1.14.35-2.28.35-3.41Z" transform="translate(0.38 0.38)"/><path class="cls-3" d="M1954.08,1242.92c0-1.13-.35-1.7-.35-2.84v-93.24c0-1.13.35-1.7.35-2.84Z" transform="translate(0.38 0.38)"/><path class="cls-3" d="M1156.87,277.57c-2.1.57-4.19.57-6.29,1.14-1,.56-1.75,1.7-2.45,2.27v-4A45.11,45.11,0,0,0,1156.87,277.57Z" transform="translate(0.38 0.38)"/></g></g><g id="Layer_4" data-name="Layer 4"><rect class="cls-6" x="0.38" y="0.38" width="2048" height="2048"/></g></svg>