<svg xmlns="http://www.w3.org/2000/svg" viewBox="0 0 2094.45 2048.75"><defs><style>.cls-1{fill:none;stroke:#000;stroke-miterlimit:10;stroke-width:0.75px;}</style></defs><title>pattern2</title><g id="Layer_2" data-name="Layer 2"><path d="M385.87,498c7.38,0,14.77,0,22.15,0a2.7,2.7,0,0,1,2.66,1.52q11.08,19.31,22.24,38.48a2.61,2.61,0,0,1,0,3q-11.2,19.25-22.24,38.53a2.65,2.65,0,0,1-2.66,1.56c-14.85,0-29.66,0-44.52,0a2.47,2.47,0,0,1-2.49-1.4c-7.42-13-14.93-25.9-22.36-38.9a3.15,3.15,0,0,1,0-2.62c7.43-13,14.94-25.91,22.36-38.9a2.48,2.48,0,0,1,2.54-1.31C371,498,378.44,498,385.87,498Z" transform="translate(0.38 0.38)"/><path d="M385.66,670.92c7.38,0,14.76,0,22.15,0a2.72,2.72,0,0,1,2.66,1.52q11.07,19.3,22.23,38.49a2.57,2.57,0,0,1,0,3q-11.21,19.25-22.23,38.53a2.65,2.65,0,0,1-2.66,1.56c-14.86,0-29.67,0-44.52,0a2.48,2.48,0,0,1-2.49-1.39c-7.43-13-14.94-25.91-22.36-38.91a3.13,3.13,0,0,1,0-2.61c7.42-13,14.93-25.91,22.36-38.91a2.47,2.47,0,0,1,2.53-1.31C370.76,670.92,378.23,670.92,385.66,670.92Zm-.05,2.57c-6.87,0-13.79,0-20.67,0a2.76,2.76,0,0,0-2.79,1.6c-6.88,12-13.84,24-20.67,36a3.07,3.07,0,0,0-.05,2.58q10.38,18.23,21,36.29a3,3,0,0,0,2.23,1.31c13.93.08,27.85,0,41.78.08a2.53,2.53,0,0,0,2.49-1.44q10.38-18.09,20.84-36.12a2.4,2.4,0,0,0-.08-2.82Q419.29,692.94,409,675a2.66,2.66,0,0,0-2.66-1.52C399.37,673.53,392.49,673.49,385.61,673.49Z" transform="translate(0.38 0.38)"/><path d="M385.71,584.57c7.38,0,14.77,0,22.15,0a2.7,2.7,0,0,1,2.66,1.52q11.09,19.31,22.24,38.48a2.61,2.61,0,0,1,0,3q-11.21,19.24-22.24,38.53a2.64,2.64,0,0,1-2.66,1.56c-14.85,0-29.66,0-44.52,0a2.48,2.48,0,0,1-2.49-1.39c-7.42-13-14.93-25.91-22.36-38.91a3.13,3.13,0,0,1,0-2.61c7.43-13,14.94-25.91,22.36-38.91a2.48,2.48,0,0,1,2.54-1.31C370.81,584.57,378.28,584.57,385.71,584.57Zm0,2.58c-6.88,0-13.8,0-20.68,0a2.74,2.74,0,0,0-2.78,1.6c-6.88,12-13.84,24-20.68,36a3.06,3.06,0,0,0,0,2.58q10.38,18.22,21,36.29a3,3,0,0,0,2.24,1.3c13.92.09,27.85,0,41.77.09a2.53,2.53,0,0,0,2.49-1.44q10.38-18.09,20.84-36.12a2.38,2.38,0,0,0-.08-2.82q-10.38-18-20.72-36a2.66,2.66,0,0,0-2.66-1.52C399.42,587.19,392.55,587.15,385.67,587.15Z" transform="translate(0.38 0.38)"/><path d="M310.9,628c7.38,0,14.77,0,22.15,0a2.71,2.71,0,0,1,2.66,1.52q11.07,19.31,22.24,38.48a2.6,2.6,0,0,1-.05,3q-11.19,19.24-22.23,38.52a2.65,2.65,0,0,1-2.66,1.57q-22.27-.07-44.52,0a2.47,2.47,0,0,1-2.49-1.4c-7.43-13-14.94-25.91-22.36-38.9a3.15,3.15,0,0,1,0-2.62c7.42-13,14.93-25.91,22.36-38.9a2.47,2.47,0,0,1,2.53-1.31C296,628,303.47,628,310.9,628Z" transform="translate(0.38 0.38)"/><path d="M311,541.63c7.39,0,14.77,0,22.15,0a2.7,2.7,0,0,1,2.66,1.52q11.08,19.3,22.24,38.48a2.6,2.6,0,0,1,0,3q-11.2,19.25-22.24,38.52a2.64,2.64,0,0,1-2.66,1.56c-14.85,0-29.66,0-44.52,0a2.45,2.45,0,0,1-2.48-1.39c-7.43-13-14.94-25.91-22.37-38.9a3.15,3.15,0,0,1,0-2.62c7.43-13,14.94-25.91,22.37-38.9a2.46,2.46,0,0,1,2.53-1.31C296.06,541.63,303.52,541.63,311,541.63Zm0,2.57c-6.88,0-13.8,0-20.68,0a2.73,2.73,0,0,0-2.78,1.61c-6.88,12-13.84,24-20.68,36a3,3,0,0,0,0,2.57q10.38,18.24,21,36.29a3,3,0,0,0,2.24,1.31c13.92.08,27.85,0,41.77.08a2.52,2.52,0,0,0,2.49-1.43q10.38-18.11,20.85-36.12a2.41,2.41,0,0,0-.09-2.83q-10.38-18-20.72-36a2.66,2.66,0,0,0-2.65-1.52C324.67,544.25,317.79,544.2,310.91,544.2Z" transform="translate(0.38 0.38)"/><path d="M461.12,628c7.38,0,14.77,0,22.15,0a2.71,2.71,0,0,1,2.66,1.52q11.07,19.31,22.24,38.48a2.6,2.6,0,0,1-.05,3q-11.21,19.24-22.23,38.52a2.65,2.65,0,0,1-2.66,1.57c-14.86,0-29.67,0-44.52,0a2.47,2.47,0,0,1-2.49-1.4c-7.43-13-14.94-25.91-22.36-38.9a3.15,3.15,0,0,1,0-2.62c7.42-13,14.93-25.91,22.36-38.9a2.47,2.47,0,0,1,2.53-1.31C446.22,628,453.69,628,461.12,628Z" transform="translate(0.38 0.38)"/><path d="M461.17,541.63c7.38,0,14.77,0,22.15,0a2.7,2.7,0,0,1,2.66,1.52q11.08,19.3,22.24,38.48a2.61,2.61,0,0,1,0,3Q497,603.88,485.94,623.15a2.64,2.64,0,0,1-2.66,1.56c-14.85,0-29.66,0-44.52,0a2.47,2.47,0,0,1-2.49-1.39c-7.42-13-14.93-25.91-22.36-38.9a3.15,3.15,0,0,1,0-2.62c7.43-13,14.94-25.91,22.36-38.9a2.48,2.48,0,0,1,2.54-1.31C446.27,541.63,453.74,541.63,461.17,541.63Zm0,2.57c-6.88,0-13.8,0-20.68,0a2.73,2.73,0,0,0-2.78,1.61c-6.88,12-13.84,24-20.68,36a3,3,0,0,0,0,2.57q10.38,18.24,21,36.29a3,3,0,0,0,2.24,1.31c13.92.08,27.85,0,41.77.08a2.53,2.53,0,0,0,2.49-1.43q10.38-18.11,20.85-36.12a2.41,2.41,0,0,0-.09-2.83q-10.38-18-20.72-36a2.66,2.66,0,0,0-2.66-1.52C474.88,544.25,468,544.2,461.13,544.2Z" transform="translate(0.38 0.38)"/><path d="M464.33,1171c16.79,0,33.58.09,50.37-.1,3,0,4.51,1,6,3.46q25.18,43.89,50.56,87.49c1.54,2.6,1.35,4.42-.09,6.91q-25.47,43.76-50.56,87.6a6,6,0,0,1-6,3.55c-33.77-.1-67.44-.1-101.21,0-2.69,0-4.32-.77-5.67-3.17-16.88-29.55-34-58.91-50.84-88.46a7.11,7.11,0,0,1,0-6c16.88-29.55,34-58.9,50.84-88.45,1.54-2.59,3.27-3,5.76-3C430.46,1171,447.44,1171,464.33,1171Zm-.1,5.85c-15.63,0-31.37.1-47-.09-3.16,0-4.79,1-6.33,3.64-15.64,27.34-31.47,54.5-47,81.84a7,7,0,0,0-.1,5.85q23.61,41.45,47.69,82.51a6.89,6.89,0,0,0,5.08,3c31.66.2,63.32.1,95,.2a5.74,5.74,0,0,0,5.66-3.27q23.61-41.16,47.4-82.12c1.44-2.5,1.15-4.22-.19-6.43q-23.61-40.87-47.11-81.74c-1.44-2.5-3.07-3.45-6-3.45C495.51,1176.91,479.87,1176.81,464.23,1176.81Z" transform="translate(0.38 0.38)"/><path d="M468.43,1364.92c16.79,0,33.58.1,50.37-.1,3,0,4.51,1,6,3.46q25.18,43.89,50.56,87.5c1.54,2.59,1.35,4.41-.09,6.9q-25.47,43.75-50.56,87.6a6,6,0,0,1-6,3.55c-33.77-.1-67.44-.1-101.21,0-2.69,0-4.32-.77-5.66-3.17-16.89-29.55-34-58.91-50.85-88.46a7.09,7.09,0,0,1,0-5.94c16.88-29.55,34-58.91,50.85-88.46,1.53-2.59,3.26-3,5.75-3C434.56,1364.92,451.55,1364.92,468.43,1364.92Zm-.09,5.85c-15.64,0-31.38.1-47-.09-3.16,0-4.79,1-6.33,3.64-15.64,27.35-31.47,54.5-47,81.84a6.92,6.92,0,0,0-.09,5.85q23.6,41.45,47.68,82.51a6.89,6.89,0,0,0,5.08,3c31.66.19,63.32.09,95,.19a5.74,5.74,0,0,0,5.66-3.26q23.61-41.16,47.4-82.13c1.44-2.49,1.15-4.22-.19-6.43q-23.61-40.86-47.11-81.74a6.07,6.07,0,0,0-6-3.45C499.61,1370.87,484,1370.77,468.34,1370.77Z" transform="translate(0.38 0.38)"/><path d="M296.88,1462.09c16.79,0,33.58.1,50.37-.09,3,0,4.51,1,6,3.45q25.18,43.89,50.56,87.5c1.54,2.59,1.35,4.41-.09,6.91q-25.47,43.74-50.56,87.59a6,6,0,0,1-6.05,3.55c-33.77-.1-67.44-.1-101.22,0-2.68,0-4.31-.77-5.66-3.17-16.88-29.55-34-58.9-50.84-88.45a7.11,7.11,0,0,1,0-6c16.88-29.55,34-58.91,50.84-88.46,1.54-2.59,3.27-3,5.76-3C263,1462.09,280,1462.09,296.88,1462.09Zm-.1,5.86c-15.64,0-31.37.09-47-.1-3.16,0-4.79,1-6.33,3.65-15.64,27.34-31.47,54.49-47,81.83a7,7,0,0,0-.1,5.85q23.61,41.46,47.69,82.51a6.87,6.87,0,0,0,5.08,3c31.66.19,63.32.09,95,.19a5.75,5.75,0,0,0,5.66-3.26q23.61-41.16,47.4-82.13c1.44-2.49,1.15-4.22-.19-6.43q-23.61-40.86-47.11-81.74a6.07,6.07,0,0,0-6-3.45C328.06,1468,312.42,1468,296.78,1468Z" transform="translate(0.38 0.38)"/><path d="M125.54,1366c16.79,0,33.58.1,50.37-.1,3,0,4.51,1,6.05,3.46q25.17,43.89,50.56,87.5c1.53,2.59,1.34,4.41-.1,6.9q-25.47,43.76-50.56,87.6a6,6,0,0,1-6,3.55c-33.78-.1-67.45-.1-101.22,0-2.69,0-4.32-.77-5.66-3.17-16.89-29.55-34-58.91-50.85-88.46a7.16,7.16,0,0,1,0-5.94c16.88-29.55,34-58.91,50.85-88.46,1.53-2.59,3.26-3,5.75-3C91.68,1366,108.66,1366,125.54,1366Zm-.09,5.85c-15.64,0-31.38.1-47-.09-3.17,0-4.8,1-6.34,3.64-15.64,27.35-31.47,54.5-47,81.84a6.92,6.92,0,0,0-.09,5.85q23.6,41.45,47.68,82.51a6.89,6.89,0,0,0,5.08,3c31.66.19,63.32.09,95,.19a5.76,5.76,0,0,0,5.67-3.27q23.6-41.15,47.39-82.12c1.44-2.49,1.15-4.22-.19-6.43Q202,1416,178.5,1375.18a6.07,6.07,0,0,0-6-3.45C156.72,1371.92,141.08,1371.82,125.45,1371.82Z" transform="translate(0.38 0.38)"/><path d="M297.11,1268.33c16.79,0,33.58.09,50.37-.1,3,0,4.51,1,6,3.46q25.19,43.89,50.56,87.49c1.53,2.59,1.34,4.42-.1,6.91q-25.47,43.76-50.56,87.6a6,6,0,0,1-6,3.55c-33.77-.1-67.45-.1-101.22,0-2.69,0-4.32-.77-5.66-3.17-16.89-29.55-34-58.91-50.85-88.46a7.18,7.18,0,0,1,0-5.95c16.89-29.55,34-58.9,50.85-88.45,1.53-2.59,3.26-3,5.76-3C263.25,1268.33,280.23,1268.33,297.11,1268.33Zm-.09,5.85c-15.64,0-31.37.1-47-.1-3.17,0-4.8,1-6.33,3.65-15.64,27.34-31.47,54.49-47,81.84a7,7,0,0,0-.09,5.85q23.6,41.44,47.68,82.51a6.91,6.91,0,0,0,5.09,3c31.66.2,63.32.1,95,.2a5.75,5.75,0,0,0,5.66-3.27q23.59-41.16,47.39-82.12c1.44-2.5,1.15-4.22-.19-6.43q-23.6-40.87-47.11-81.74a6.06,6.06,0,0,0-6-3.46C328.3,1274.28,312.66,1274.18,297,1274.18Z" transform="translate(0.38 0.38)"/><path d="M297.24,1072c16.79,0,33.58.09,50.37-.1,3,0,4.51,1,6,3.46q25.19,43.89,50.56,87.49c1.54,2.59,1.34,4.42-.1,6.91q-25.47,43.76-50.56,87.59a6,6,0,0,1-6,3.55c-33.77-.09-67.45-.09-101.22,0-2.68,0-4.31-.76-5.66-3.16-16.88-29.55-34-58.91-50.85-88.46a7.18,7.18,0,0,1,0-6c16.89-29.55,34-58.9,50.85-88.45,1.54-2.6,3.26-3,5.76-3C263.37,1072,280.35,1072,297.24,1072Zm-.1,5.85c-15.64,0-31.37.1-47-.1-3.17,0-4.8,1-6.33,3.65-15.64,27.34-31.47,54.49-47,81.84a6.93,6.93,0,0,0-.1,5.85q23.61,41.45,47.68,82.51a6.93,6.93,0,0,0,5.09,3c31.66.19,63.32.1,95,.19a5.75,5.75,0,0,0,5.66-3.26q23.59-41.16,47.39-82.12c1.44-2.5,1.16-4.22-.19-6.43q-23.6-40.87-47.1-81.74a6.07,6.07,0,0,0-6.05-3.46C328.42,1078,312.78,1077.87,297.14,1077.87Z" transform="translate(0.38 0.38)"/><path d="M125.69,1169.19c16.78,0,33.57.1,50.36-.1,3,0,4.51,1,6,3.46q25.18,43.89,50.56,87.5c1.53,2.59,1.34,4.41-.1,6.9q-25.47,43.75-50.56,87.6a6,6,0,0,1-6,3.55c-33.77-.1-67.45-.1-101.22,0-2.69,0-4.32-.77-5.66-3.17-16.89-29.55-34-58.91-50.85-88.46a7.16,7.16,0,0,1,0-5.94c16.89-29.55,34-58.91,50.85-88.46,1.54-2.59,3.26-3,5.76-3C91.82,1169.19,108.8,1169.19,125.69,1169.19Zm-.1,5.85c-15.64,0-31.37.1-47-.09-3.17,0-4.8,1-6.33,3.64-15.64,27.34-31.47,54.5-47,81.84a6.93,6.93,0,0,0-.1,5.85q23.6,41.45,47.68,82.51a6.89,6.89,0,0,0,5.09,3c31.66.2,63.32.1,95,.2a5.74,5.74,0,0,0,5.66-3.27q23.59-41.14,47.39-82.12c1.44-2.5,1.15-4.22-.19-6.43q-23.59-40.87-47.11-81.74a6.06,6.06,0,0,0-6-3.45C156.87,1175.14,141.23,1175,125.59,1175Z" transform="translate(0.38 0.38)"/></g><g id="Layer_3" data-name="Layer 3"><path d="M1444.12,1476.51c13.73,0,27.46.08,41.19-.07a5,5,0,0,1,5,2.82q20.6,35.9,41.34,71.56c1.26,2.11,1.1,3.6-.07,5.64q-20.83,35.79-41.35,71.64a4.91,4.91,0,0,1-5,2.9c-27.61-.08-55.15-.08-82.77,0a4.6,4.6,0,0,1-4.63-2.59c-13.81-24.16-27.77-48.17-41.58-72.34a5.81,5.81,0,0,1,0-4.86c13.81-24.17,27.77-48.18,41.58-72.34,1.26-2.12,2.67-2.43,4.71-2.43C1416.43,1476.51,1430.31,1476.51,1444.12,1476.51Zm-.08,4.79c-12.79,0-25.65.08-38.44-.08a5.13,5.13,0,0,0-5.18,3c-12.79,22.36-25.73,44.57-38.44,66.93a5.64,5.64,0,0,0-.08,4.78q19.29,33.9,39,67.48a5.67,5.67,0,0,0,4.16,2.43c25.89.16,51.78.08,77.67.16a4.71,4.71,0,0,0,4.63-2.67q19.31-33.66,38.76-67.16a4.47,4.47,0,0,0-.16-5.26q-19.29-33.42-38.52-66.84a5,5,0,0,0-4.94-2.83C1469.62,1481.38,1456.83,1481.3,1444,1481.3Z" transform="translate(0.38 0.38)"/><path d="M1305.22,1236.12c13.73,0,27.46.08,41.19-.07a5,5,0,0,1,4.94,2.82q20.6,35.89,41.35,71.55c1.25,2.12,1.1,3.61-.08,5.65q-20.83,35.79-41.35,71.64a4.9,4.9,0,0,1-4.94,2.9c-27.62-.08-55.16-.08-82.77,0a4.6,4.6,0,0,1-4.63-2.59c-13.81-24.16-27.78-48.17-41.59-72.34a5.89,5.89,0,0,1,0-4.86c13.81-24.17,27.78-48.18,41.59-72.34,1.25-2.12,2.66-2.43,4.7-2.43C1277.52,1236.12,1291.41,1236.12,1305.22,1236.12Zm-.08,4.79c-12.79,0-25.66.08-38.45-.08a5.11,5.11,0,0,0-5.17,3c-12.79,22.36-25.74,44.57-38.45,66.93a5.71,5.71,0,0,0-.08,4.78q19.3,33.9,39,67.48a5.63,5.63,0,0,0,4.16,2.43c25.89.16,51.78.08,77.67.16a4.71,4.71,0,0,0,4.63-2.67c12.87-22.44,25.73-44.8,38.76-67.16a4.48,4.48,0,0,0-.16-5.26q-19.3-33.42-38.52-66.84a5,5,0,0,0-5-2.83C1330.72,1241,1317.93,1240.91,1305.14,1240.91Z" transform="translate(0.38 0.38)"/><path d="M1584.53,1236.12c13.73,0,27.46.08,41.19-.07a5,5,0,0,1,5,2.82q20.6,35.89,41.34,71.55c1.26,2.12,1.1,3.61-.08,5.65q-20.82,35.79-41.34,71.64a4.91,4.91,0,0,1-4.95,2.9c-27.61-.08-55.15-.08-82.77,0a4.6,4.6,0,0,1-4.63-2.59c-13.81-24.16-27.77-48.17-41.58-72.34a5.81,5.81,0,0,1,0-4.86c13.81-24.17,27.77-48.18,41.58-72.34,1.26-2.12,2.67-2.43,4.71-2.43C1556.84,1236.12,1570.72,1236.12,1584.53,1236.12Zm-.08,4.79c-12.79,0-25.65.08-38.44-.08a5.13,5.13,0,0,0-5.18,3c-12.79,22.36-25.73,44.57-38.44,66.93a5.64,5.64,0,0,0-.08,4.78q19.29,33.9,39,67.48a5.67,5.67,0,0,0,4.16,2.43c25.89.16,51.78.08,77.67.16a4.71,4.71,0,0,0,4.63-2.67q19.31-33.66,38.76-67.16a4.47,4.47,0,0,0-.16-5.26q-19.29-33.42-38.52-66.84a5,5,0,0,0-4.94-2.83C1610,1241,1597.24,1240.91,1584.45,1240.91Z" transform="translate(0.38 0.38)"/><path d="M1164.7,837.27c13.73,0,27.46.08,41.19-.08a5,5,0,0,1,4.95,2.83q20.6,35.9,41.34,71.55c1.26,2.12,1.1,3.61-.08,5.65q-20.82,35.78-41.34,71.63a4.92,4.92,0,0,1-5,2.91c-27.61-.08-55.15-.08-82.77,0a4.6,4.6,0,0,1-4.63-2.59c-13.81-24.17-27.77-48.18-41.58-72.34a5.83,5.83,0,0,1,0-4.87c13.81-24.16,27.77-48.17,41.58-72.34,1.26-2.11,2.67-2.43,4.71-2.43C1137,837.27,1150.89,837.27,1164.7,837.27Zm-.08,4.79c-12.79,0-25.65.07-38.44-.08a5.11,5.11,0,0,0-5.18,3c-12.79,22.36-25.73,44.56-38.44,66.92a5.66,5.66,0,0,0-.08,4.79q19.29,33.9,39,67.47a5.65,5.65,0,0,0,4.16,2.44c25.89.15,51.78.08,77.67.15a4.7,4.7,0,0,0,4.63-2.66q19.3-33.66,38.76-67.16a4.46,4.46,0,0,0-.16-5.26q-19.29-33.42-38.52-66.85a5,5,0,0,0-4.94-2.82C1190.2,842.13,1177.41,842.06,1164.62,842.06Z" transform="translate(0.38 0.38)"/><path d="M1164.3,1158.71c13.73,0,27.46.07,41.19-.08a5,5,0,0,1,5,2.82q20.6,35.9,41.35,71.56c1.25,2.11,1.09,3.61-.08,5.65q-20.84,35.77-41.35,71.63a4.91,4.91,0,0,1-4.94,2.9c-27.62-.08-55.16-.08-82.78,0a4.6,4.6,0,0,1-4.63-2.59c-13.81-24.16-27.77-48.17-41.58-72.34a5.81,5.81,0,0,1,0-4.86c13.81-24.17,27.77-48.17,41.58-72.34,1.26-2.12,2.67-2.43,4.71-2.43C1136.61,1158.71,1150.5,1158.71,1164.3,1158.71Zm-.07,4.78c-12.79,0-25.66.08-38.45-.08a5.12,5.12,0,0,0-5.18,3c-12.79,22.36-25.73,44.56-38.44,66.92a5.66,5.66,0,0,0-.08,4.79q19.31,33.89,39,67.47a5.64,5.64,0,0,0,4.16,2.43c25.89.16,51.78.08,77.68.16a4.68,4.68,0,0,0,4.62-2.67q19.31-33.66,38.76-67.16a4.45,4.45,0,0,0-.15-5.25q-19.31-33.43-38.53-66.85a5,5,0,0,0-4.94-2.83C1189.8,1163.57,1177,1163.49,1164.23,1163.49Z" transform="translate(0.38 0.38)"/><path d="M1865.3,1396.71c13.73,0,27.46.07,41.19-.08a5,5,0,0,1,5,2.82q20.6,35.9,41.35,71.56c1.25,2.11,1.09,3.61-.08,5.65q-20.84,35.77-41.35,71.63a4.91,4.91,0,0,1-4.94,2.9c-27.62-.08-55.16-.08-82.78,0a4.6,4.6,0,0,1-4.63-2.59c-13.81-24.16-27.77-48.17-41.58-72.34a5.81,5.81,0,0,1,0-4.86c13.81-24.17,27.77-48.17,41.58-72.34,1.26-2.12,2.67-2.43,4.71-2.43C1837.61,1396.71,1851.5,1396.71,1865.3,1396.71Zm-.07,4.78c-12.79,0-25.66.08-38.45-.08a5.12,5.12,0,0,0-5.18,3c-12.79,22.36-25.73,44.56-38.44,66.92a5.66,5.66,0,0,0-.08,4.79q19.31,33.89,39,67.47a5.64,5.64,0,0,0,4.16,2.43c25.89.16,51.78.08,77.68.16a4.68,4.68,0,0,0,4.62-2.67q19.31-33.66,38.76-67.16a4.45,4.45,0,0,0-.15-5.25q-19.31-33.43-38.53-66.85a5,5,0,0,0-4.94-2.83C1890.8,1401.57,1878,1401.49,1865.23,1401.49Z" transform="translate(0.38 0.38)"/><path d="M2005.61,1316.86c13.73,0,27.46.07,41.19-.08a5,5,0,0,1,5,2.82q20.6,35.89,41.34,71.56c1.26,2.11,1.1,3.61-.07,5.65q-20.83,35.78-41.35,71.63a4.91,4.91,0,0,1-4.94,2.9c-27.62-.08-55.16-.08-82.78,0a4.6,4.6,0,0,1-4.63-2.59c-13.81-24.16-27.77-48.17-41.58-72.34a5.81,5.81,0,0,1,0-4.86c13.81-24.17,27.77-48.17,41.58-72.34,1.26-2.12,2.67-2.43,4.71-2.43C1977.92,1316.86,1991.8,1316.86,2005.61,1316.86Zm-.08,4.78c-12.78,0-25.65.08-38.44-.08a5.13,5.13,0,0,0-5.18,3c-12.79,22.37-25.73,44.57-38.44,66.93a5.66,5.66,0,0,0-.08,4.79q19.3,33.88,39,67.47a5.64,5.64,0,0,0,4.16,2.43c25.89.16,51.78.08,77.68.16a4.68,4.68,0,0,0,4.62-2.67q19.3-33.66,38.76-67.16a4.48,4.48,0,0,0-.15-5.26q-19.3-33.42-38.53-66.84a5,5,0,0,0-4.94-2.83C2031.11,1321.72,2018.32,1321.64,2005.53,1321.64Z" transform="translate(0.38 0.38)"/><path d="M2005.71,1156.32c13.73,0,27.46.07,41.19-.08a5,5,0,0,1,4.95,2.82q20.59,35.89,41.35,71.56c1.25,2.11,1.09,3.61-.08,5.65q-20.84,35.77-41.35,71.63a4.91,4.91,0,0,1-4.94,2.9c-27.62-.08-55.16-.08-82.78,0a4.6,4.6,0,0,1-4.63-2.59c-13.81-24.16-27.77-48.17-41.58-72.34a5.81,5.81,0,0,1,0-4.86c13.81-24.17,27.77-48.18,41.58-72.34,1.26-2.12,2.67-2.43,4.71-2.43C1978,1156.32,1991.9,1156.32,2005.71,1156.32Zm-.08,4.78c-12.78,0-25.65.08-38.44-.08a5.13,5.13,0,0,0-5.18,3c-12.79,22.37-25.73,44.57-38.44,66.93a5.66,5.66,0,0,0-.08,4.79q19.3,33.88,39,67.47a5.64,5.64,0,0,0,4.16,2.43c25.89.16,51.78.08,77.68.16a4.68,4.68,0,0,0,4.62-2.67q19.3-33.66,38.76-67.16a4.48,4.48,0,0,0-.15-5.26q-19.31-33.42-38.53-66.84a5,5,0,0,0-4.94-2.83C2031.21,1161.18,2018.42,1161.1,2005.63,1161.1Z" transform="translate(0.38 0.38)"/><path d="M1865.42,1235.78c13.73,0,27.46.08,41.19-.08a5,5,0,0,1,4.94,2.83q20.6,35.9,41.35,71.55c1.26,2.12,1.1,3.61-.08,5.65q-20.82,35.77-41.34,71.63a4.92,4.92,0,0,1-5,2.91c-27.61-.08-55.15-.08-82.77,0a4.6,4.6,0,0,1-4.63-2.59c-13.81-24.17-27.77-48.18-41.58-72.34a5.83,5.83,0,0,1,0-4.87c13.81-24.16,27.77-48.17,41.58-72.33,1.26-2.12,2.67-2.44,4.71-2.44C1837.72,1235.78,1851.61,1235.78,1865.42,1235.78Zm-.08,4.79c-12.79,0-25.65.08-38.44-.08a5.11,5.11,0,0,0-5.18,3c-12.79,22.36-25.74,44.57-38.45,66.93a5.67,5.67,0,0,0-.07,4.78q19.29,33.9,39,67.48a5.67,5.67,0,0,0,4.16,2.43c25.89.16,51.78.08,77.67.16a4.71,4.71,0,0,0,4.63-2.67q19.3-33.66,38.76-67.16a4.47,4.47,0,0,0-.16-5.26q-19.29-33.42-38.52-66.85a5,5,0,0,0-4.94-2.82C1890.92,1240.65,1878.13,1240.57,1865.34,1240.57Z" transform="translate(0.38 0.38)"/><path d="M1445.3,994.86c13.73,0,27.46.07,41.19-.08a5,5,0,0,1,4.94,2.82q20.6,35.89,41.35,71.56c1.26,2.11,1.1,3.61-.08,5.65q-20.82,35.78-41.34,71.63a4.92,4.92,0,0,1-4.95,2.9c-27.62-.08-55.15-.08-82.77,0a4.6,4.6,0,0,1-4.63-2.59c-13.81-24.16-27.78-48.17-41.58-72.34a5.81,5.81,0,0,1,0-4.86c13.8-24.17,27.77-48.17,41.58-72.34,1.25-2.12,2.67-2.43,4.71-2.43C1417.6,994.86,1431.49,994.86,1445.3,994.86Zm-.08,4.78c-12.79,0-25.65.08-38.44-.08a5.12,5.12,0,0,0-5.18,3c-12.79,22.37-25.74,44.57-38.45,66.93a5.73,5.73,0,0,0-.08,4.79q19.31,33.88,39,67.47a5.64,5.64,0,0,0,4.16,2.43c25.89.16,51.78.08,77.67.16a4.69,4.69,0,0,0,4.63-2.67q19.31-33.66,38.76-67.16a4.47,4.47,0,0,0-.16-5.26q-19.29-33.42-38.52-66.84a5,5,0,0,0-4.94-2.83C1470.8,999.72,1458,999.64,1445.22,999.64Z" transform="translate(0.38 0.38)"/><path d="M1445.4,834.32c13.73,0,27.46.07,41.19-.08a5,5,0,0,1,4.94,2.82q20.6,35.9,41.35,71.56c1.26,2.11,1.1,3.61-.08,5.65Q1512,950,1491.46,985.9a4.92,4.92,0,0,1-5,2.9c-27.62-.08-55.15-.08-82.77,0a4.6,4.6,0,0,1-4.63-2.59c-13.81-24.16-27.78-48.17-41.58-72.34a5.81,5.81,0,0,1,0-4.86c13.8-24.17,27.77-48.18,41.58-72.34,1.25-2.12,2.67-2.43,4.71-2.43C1417.7,834.32,1431.59,834.32,1445.4,834.32Zm-.08,4.78c-12.79,0-25.65.08-38.44-.08a5.12,5.12,0,0,0-5.18,3c-12.79,22.37-25.74,44.57-38.45,66.93a5.69,5.69,0,0,0-.07,4.79q19.29,33.88,39,67.47a5.64,5.64,0,0,0,4.16,2.43c25.89.16,51.78.08,77.67.16a4.69,4.69,0,0,0,4.63-2.67q19.3-33.66,38.76-67.16a4.47,4.47,0,0,0-.16-5.26q-19.29-33.42-38.52-66.84a5,5,0,0,0-4.94-2.83C1470.9,839.18,1458.11,839.1,1445.32,839.1Z" transform="translate(0.38 0.38)"/><path d="M1724.61,994.86c13.73,0,27.46.07,41.19-.08a5,5,0,0,1,5,2.82q20.6,35.89,41.34,71.56c1.26,2.11,1.1,3.61-.07,5.65q-20.83,35.78-41.35,71.63a4.91,4.91,0,0,1-4.94,2.9c-27.62-.08-55.16-.08-82.78,0a4.6,4.6,0,0,1-4.63-2.59c-13.81-24.16-27.77-48.17-41.58-72.34a5.81,5.81,0,0,1,0-4.86c13.81-24.17,27.77-48.17,41.58-72.34,1.26-2.12,2.67-2.43,4.71-2.43C1696.92,994.86,1710.8,994.86,1724.61,994.86Zm-.08,4.78c-12.78,0-25.65.08-38.44-.08a5.13,5.13,0,0,0-5.18,3c-12.79,22.37-25.73,44.57-38.44,66.93a5.66,5.66,0,0,0-.08,4.79q19.3,33.88,39,67.47a5.64,5.64,0,0,0,4.16,2.43c25.89.16,51.78.08,77.68.16a4.68,4.68,0,0,0,4.62-2.67q19.31-33.66,38.76-67.16a4.48,4.48,0,0,0-.15-5.26q-19.31-33.42-38.53-66.84a5,5,0,0,0-4.94-2.83C1750.11,999.72,1737.32,999.64,1724.53,999.64Z" transform="translate(0.38 0.38)"/><path d="M1584.42,913.78c13.73,0,27.46.08,41.19-.08a5,5,0,0,1,4.94,2.83q20.6,35.9,41.35,71.55c1.26,2.12,1.1,3.61-.08,5.65q-20.82,35.78-41.34,71.63a4.92,4.92,0,0,1-5,2.91c-27.61-.08-55.15-.08-82.77,0a4.6,4.6,0,0,1-4.63-2.59c-13.81-24.17-27.77-48.18-41.58-72.34a5.83,5.83,0,0,1,0-4.87c13.81-24.16,27.77-48.17,41.58-72.33,1.26-2.12,2.67-2.44,4.71-2.44C1556.72,913.78,1570.61,913.78,1584.42,913.78Zm-.08,4.79c-12.79,0-25.65.08-38.44-.08a5.11,5.11,0,0,0-5.18,3c-12.79,22.36-25.74,44.57-38.45,66.93a5.67,5.67,0,0,0-.07,4.78q19.29,33.9,39,67.48a5.67,5.67,0,0,0,4.16,2.43c25.89.16,51.78.08,77.67.16a4.71,4.71,0,0,0,4.63-2.67q19.3-33.66,38.76-67.16a4.47,4.47,0,0,0-.16-5.26q-19.29-33.42-38.52-66.85a5,5,0,0,0-4.94-2.82C1609.92,918.65,1597.13,918.57,1584.34,918.57Z" transform="translate(0.38 0.38)"/><path d="M1725,1477c13.73,0,27.46.08,41.19-.08a5,5,0,0,1,4.94,2.82q20.59,35.89,41.35,71.56c1.25,2.12,1.1,3.61-.08,5.65q-20.84,35.77-41.35,71.63a4.9,4.9,0,0,1-4.94,2.9c-27.62-.08-55.16-.08-82.77,0a4.57,4.57,0,0,1-4.63-2.59c-13.81-24.16-27.78-48.17-41.59-72.33a5.91,5.91,0,0,1,0-4.87c13.81-24.16,27.78-48.17,41.59-72.34,1.25-2.12,2.66-2.43,4.7-2.43C1697.31,1477,1711.2,1477,1725,1477Zm-.08,4.78c-12.79,0-25.66.08-38.45-.07a5.09,5.09,0,0,0-5.17,3c-12.79,22.36-25.74,44.56-38.45,66.92a5.69,5.69,0,0,0-.08,4.79c12.87,22.59,25.81,45.11,39,67.47a5.61,5.61,0,0,0,4.15,2.44c25.9.15,51.79.07,77.68.15a4.7,4.7,0,0,0,4.63-2.67q19.29-33.65,38.76-67.16a4.46,4.46,0,0,0-.16-5.25q-19.3-33.43-38.52-66.85a5,5,0,0,0-5-2.82C1750.51,1481.85,1737.72,1481.77,1724.93,1481.77Z" transform="translate(0.38 0.38)"/><path d="M1027.25,1557.72c13.73,0,27.46.07,41.19-.08a5,5,0,0,1,4.94,2.82q20.59,35.89,41.35,71.56c1.26,2.11,1.1,3.6-.08,5.64q-20.84,35.79-41.35,71.64a4.9,4.9,0,0,1-4.94,2.9c-27.62-.08-55.16-.08-82.77,0a4.6,4.6,0,0,1-4.63-2.59c-13.81-24.16-27.78-48.17-41.59-72.34a5.89,5.89,0,0,1,0-4.86c13.81-24.17,27.78-48.18,41.59-72.34,1.25-2.12,2.67-2.43,4.71-2.43C999.55,1557.72,1013.44,1557.72,1027.25,1557.72Zm-.08,4.78c-12.79,0-25.66.08-38.44-.08a5.12,5.12,0,0,0-5.18,3c-12.79,22.36-25.74,44.57-38.45,66.93a5.73,5.73,0,0,0-.08,4.79q19.31,33.89,39,67.47a5.6,5.6,0,0,0,4.16,2.43c25.89.16,51.78.08,77.67.16a4.71,4.71,0,0,0,4.63-2.67c12.87-22.44,25.73-44.8,38.76-67.16a4.47,4.47,0,0,0-.16-5.26q-19.3-33.42-38.52-66.84a5,5,0,0,0-4.94-2.83C1052.75,1562.58,1040,1562.5,1027.17,1562.5Z" transform="translate(0.38 0.38)"/><path d="M1167.56,1477.86c13.73,0,27.46.08,41.19-.07a5,5,0,0,1,4.94,2.82q20.6,35.9,41.35,71.56c1.25,2.11,1.1,3.6-.08,5.64q-20.84,35.79-41.35,71.64a4.9,4.9,0,0,1-4.94,2.9c-27.62-.08-55.16-.08-82.77,0a4.6,4.6,0,0,1-4.63-2.59c-13.81-24.16-27.78-48.17-41.59-72.34a5.89,5.89,0,0,1,0-4.86c13.81-24.17,27.78-48.18,41.59-72.34,1.25-2.12,2.66-2.43,4.7-2.43C1139.86,1477.86,1153.75,1477.86,1167.56,1477.86Zm-.08,4.79c-12.79,0-25.66.08-38.45-.08a5.11,5.11,0,0,0-5.17,3c-12.79,22.36-25.74,44.57-38.45,66.93a5.73,5.73,0,0,0-.08,4.79q19.31,33.88,39,67.47a5.6,5.6,0,0,0,4.16,2.43c25.89.16,51.78.08,77.67.16a4.71,4.71,0,0,0,4.63-2.67c12.87-22.44,25.73-44.8,38.76-67.16a4.48,4.48,0,0,0-.16-5.26q-19.31-33.42-38.52-66.84a5,5,0,0,0-4.95-2.83C1193.06,1482.73,1180.27,1482.65,1167.48,1482.65Z" transform="translate(0.38 0.38)"/><path d="M1167.66,1317.32c13.73,0,27.46.08,41.19-.07a5,5,0,0,1,4.94,2.82q20.6,35.9,41.35,71.56c1.26,2.11,1.1,3.6-.08,5.64q-20.83,35.79-41.35,71.64a4.9,4.9,0,0,1-4.94,2.9c-27.62-.08-55.16-.08-82.77,0a4.6,4.6,0,0,1-4.63-2.59c-13.81-24.16-27.78-48.17-41.59-72.34a5.89,5.89,0,0,1,0-4.86c13.81-24.17,27.78-48.18,41.59-72.34,1.25-2.12,2.67-2.43,4.7-2.43C1140,1317.32,1153.85,1317.32,1167.66,1317.32Zm-.08,4.79c-12.79,0-25.66.08-38.45-.08a5.11,5.11,0,0,0-5.17,3c-12.79,22.36-25.74,44.57-38.45,66.93a5.73,5.73,0,0,0-.08,4.79q19.3,33.88,39,67.47a5.6,5.6,0,0,0,4.16,2.43c25.89.16,51.78.08,77.67.16a4.71,4.71,0,0,0,4.63-2.67c12.87-22.44,25.73-44.8,38.76-67.16a4.48,4.48,0,0,0-.16-5.26q-19.31-33.42-38.52-66.84a5,5,0,0,0-5-2.83C1193.16,1322.19,1180.37,1322.11,1167.58,1322.11Z" transform="translate(0.38 0.38)"/><path d="M1027.37,1396.79c13.73,0,27.46.08,41.19-.08a5,5,0,0,1,4.94,2.83q20.6,35.89,41.35,71.55c1.25,2.12,1.1,3.61-.08,5.65q-20.83,35.77-41.35,71.63a4.91,4.91,0,0,1-4.94,2.91c-27.62-.08-55.16-.08-82.78,0a4.6,4.6,0,0,1-4.63-2.59c-13.8-24.17-27.77-48.18-41.58-72.34a5.91,5.91,0,0,1,0-4.87c13.81-24.16,27.78-48.17,41.58-72.34,1.26-2.11,2.67-2.43,4.71-2.43C999.67,1396.79,1013.56,1396.79,1027.37,1396.79Zm-.08,4.79c-12.79,0-25.66.08-38.45-.08a5.11,5.11,0,0,0-5.18,3c-12.78,22.36-25.73,44.56-38.44,66.93a5.64,5.64,0,0,0-.08,4.78q19.3,33.9,39,67.48a5.67,5.67,0,0,0,4.16,2.43c25.89.16,51.79.08,77.68.16a4.72,4.72,0,0,0,4.63-2.67q19.29-33.66,38.76-67.16a4.48,4.48,0,0,0-.16-5.26q-19.31-33.42-38.53-66.85a5,5,0,0,0-4.94-2.82C1052.86,1401.66,1040.08,1401.58,1027.29,1401.58Z" transform="translate(0.38 0.38)"/><path d="M887.25,1318.18c13.73,0,27.46.08,41.19-.08a5,5,0,0,1,4.94,2.83q20.6,35.89,41.35,71.55c1.26,2.12,1.1,3.61-.08,5.65q-20.83,35.77-41.35,71.64a4.91,4.91,0,0,1-4.94,2.9c-27.62-.08-55.16-.08-82.77,0a4.6,4.6,0,0,1-4.63-2.59c-13.81-24.17-27.78-48.17-41.59-72.34a5.89,5.89,0,0,1,0-4.86c13.81-24.17,27.78-48.18,41.59-72.34,1.25-2.12,2.67-2.44,4.71-2.44C859.55,1318.18,873.44,1318.18,887.25,1318.18Zm-.08,4.79c-12.79,0-25.66.08-38.44-.08a5.12,5.12,0,0,0-5.18,3c-12.79,22.36-25.74,44.57-38.45,66.93a5.71,5.71,0,0,0-.08,4.78q19.31,33.9,39,67.48a5.63,5.63,0,0,0,4.16,2.43c25.89.16,51.78.08,77.67.16a4.71,4.71,0,0,0,4.63-2.67c12.87-22.44,25.73-44.8,38.76-67.16a4.47,4.47,0,0,0-.16-5.26q-19.3-33.42-38.52-66.84a5,5,0,0,0-4.94-2.83C912.75,1323.05,900,1323,887.17,1323Z" transform="translate(0.38 0.38)"/><path d="M1027.56,1238.33c13.73,0,27.46.08,41.19-.08a5,5,0,0,1,4.94,2.83q20.6,35.89,41.35,71.55c1.25,2.12,1.1,3.61-.08,5.65q-20.84,35.78-41.35,71.64a4.91,4.91,0,0,1-4.94,2.9c-27.62-.08-55.16-.08-82.77,0a4.6,4.6,0,0,1-4.63-2.59c-13.81-24.17-27.78-48.17-41.59-72.34a5.89,5.89,0,0,1,0-4.86c13.81-24.17,27.78-48.18,41.59-72.34,1.25-2.12,2.66-2.44,4.7-2.44C999.86,1238.33,1013.75,1238.33,1027.56,1238.33Zm-.08,4.79c-12.79,0-25.66.08-38.45-.08a5.11,5.11,0,0,0-5.17,3c-12.79,22.36-25.74,44.57-38.45,66.93a5.71,5.71,0,0,0-.08,4.78q19.3,33.9,39,67.48a5.63,5.63,0,0,0,4.16,2.43c25.89.16,51.78.08,77.67.16a4.71,4.71,0,0,0,4.63-2.67c12.87-22.44,25.73-44.8,38.76-67.16a4.48,4.48,0,0,0-.16-5.26q-19.31-33.42-38.52-66.84a5,5,0,0,0-4.95-2.83C1053.06,1243.2,1040.27,1243.12,1027.48,1243.12Z" transform="translate(0.38 0.38)"/><path d="M1027.66,1077.79c13.73,0,27.46.08,41.19-.08a5,5,0,0,1,4.94,2.83q20.6,35.89,41.35,71.55c1.26,2.12,1.1,3.61-.08,5.65q-20.83,35.77-41.35,71.64a4.91,4.91,0,0,1-4.94,2.9c-27.62-.08-55.16-.08-82.77,0a4.6,4.6,0,0,1-4.63-2.59c-13.81-24.17-27.78-48.17-41.59-72.34a5.89,5.89,0,0,1,0-4.86c13.81-24.17,27.78-48.18,41.59-72.34,1.25-2.12,2.67-2.44,4.7-2.44C1000,1077.79,1013.85,1077.79,1027.66,1077.79Zm-.08,4.79c-12.79,0-25.66.08-38.45-.08a5.11,5.11,0,0,0-5.17,3c-12.79,22.36-25.74,44.57-38.45,66.93a5.71,5.71,0,0,0-.08,4.78q19.3,33.9,39,67.48a5.63,5.63,0,0,0,4.16,2.43c25.89.16,51.78.08,77.67.16a4.71,4.71,0,0,0,4.63-2.67c12.87-22.44,25.73-44.8,38.76-67.16a4.48,4.48,0,0,0-.16-5.26q-19.31-33.42-38.52-66.85a5,5,0,0,0-5-2.82C1053.16,1082.66,1040.37,1082.58,1027.58,1082.58Z" transform="translate(0.38 0.38)"/><path d="M887.37,1157.26c13.73,0,27.46.08,41.19-.08a5,5,0,0,1,4.94,2.83q20.6,35.9,41.35,71.55c1.25,2.12,1.1,3.61-.08,5.65q-20.84,35.77-41.35,71.63a4.91,4.91,0,0,1-4.94,2.9c-27.62-.07-55.16-.07-82.78,0a4.6,4.6,0,0,1-4.63-2.58c-13.8-24.17-27.77-48.18-41.58-72.34a5.91,5.91,0,0,1,0-4.87c13.81-24.16,27.78-48.17,41.58-72.34,1.26-2.12,2.67-2.43,4.71-2.43C859.67,1157.26,873.56,1157.26,887.37,1157.26Zm-.08,4.79c-12.79,0-25.66.07-38.45-.08a5.11,5.11,0,0,0-5.18,3c-12.78,22.36-25.73,44.56-38.44,66.92a5.66,5.66,0,0,0-.08,4.79q19.3,33.9,39,67.47a5.65,5.65,0,0,0,4.16,2.44c25.89.15,51.79.07,77.68.15a4.71,4.71,0,0,0,4.63-2.66q19.29-33.66,38.76-67.17a4.46,4.46,0,0,0-.16-5.25q-19.31-33.42-38.53-66.85a5,5,0,0,0-4.94-2.82C912.86,1162.12,900.08,1162.05,887.29,1162.05Z" transform="translate(0.38 0.38)"/></g><g id="Layer_4" data-name="Layer 4"><rect class="cls-1" x="0.38" y="0.38" width="2048" height="2048"/></g></svg>