<?xml version="1.0" encoding="utf-8"?>
<!-- Generator: Adobe Illustrator 24.0.0, SVG Export Plug-In . SVG Version: 6.00 Build 0)  -->
<svg version="1.1" id="Layer_1" xmlns="http://www.w3.org/2000/svg" xmlns:xlink="http://www.w3.org/1999/xlink" x="0px" y="0px"
	 width="612px" height="792px" viewBox="0 0 612 792" enable-background="new 0 0 612 792" xml:space="preserve">
<g>
	<path d="M165.2,54.8c17.5,0,35,0.1,52.5-0.1c3.1,0,4.7,1,6.3,3.6c17.5,30.5,35,60.9,52.7,91.2c1.6,2.7,1.4,4.6-0.1,7.2
		c-17.7,30.4-35.2,60.8-52.7,91.3c-1.5,2.7-3.2,3.7-6.3,3.7c-35.2-0.1-70.3-0.1-105.5,0c-2.8,0-4.5-0.8-5.9-3.3
		c-17.6-30.8-35.4-61.4-53-92.2c-0.9-1.6-0.9-4.6,0-6.2c17.6-30.8,35.4-61.4,53-92.2c1.6-2.7,3.4-3.1,6-3.1
		C129.9,54.8,147.6,54.8,165.2,54.8z M165.1,60.9c-16.3,0-32.7,0.1-49-0.1c-3.3,0-5,1-6.6,3.8c-16.3,28.5-32.8,56.8-49,85.3
		c-0.9,1.6-1,4.6-0.1,6.1c16.4,28.8,32.9,57.5,49.7,86c0.9,1.6,3.5,3.1,5.3,3.1c33,0.2,66,0.1,99,0.2c2.9,0,4.5-1,5.9-3.4
		c16.4-28.6,32.8-57.1,49.4-85.6c1.5-2.6,1.2-4.4-0.2-6.7c-16.4-28.4-32.8-56.8-49.1-85.2c-1.5-2.6-3.2-3.6-6.3-3.6
		C197.7,61,181.4,60.9,165.1,60.9z"/>
	<path d="M363.1,166.9c0-53.8,43.6-97.4,97.6-97.7c54.2-0.2,97.9,43.7,97.8,98.3c-0.1,54-43.9,97.5-98.2,97.4
		C406.7,264.8,363.1,220.8,363.1,166.9z M460.9,75.7c-50.7,0-91.6,40.6-91.6,91.2c0,50.5,41,91.9,91.2,92
		c50.6,0.1,91.8-41.1,91.9-91.8C552.4,116.4,511.7,75.7,460.9,75.7z"/>
	<path d="M288.3,641.3c0,2.9,0,5.4,0,8.2c-84.8,0-169.5,0-254.5,0c0-2.6,0-5.2,0-8.2C118.5,641.3,203.1,641.3,288.3,641.3z"/>
	<path d="M288.3,677.1c0,2.9,0,5.4,0,8.2c-84.9,0-169.5,0-254.5,0c0-2.7,0-5.2,0-8.2C118.5,677.1,203.1,677.1,288.3,677.1z"/>
	<path d="M33.7,721c0-2.8,0-5.2,0-8c84.9,0,169.6,0,254.6,0c0,2.7,0,5.1,0,8C203.5,721,118.8,721,33.7,721z"/>
	<path d="M33.6,613.5c0-2.6,0-4.9,0-7.6c84.8,0,169.5,0,254.5,0c0,2.4,0,4.8,0,7.6C203.5,613.5,118.8,613.5,33.6,613.5z"/>
</g>
<g>
	<path d="M50.3,410.9c0-1.8,0-3.7,0-5.5c0-1,0.4-1.5,1.4-1.8c0.5-0.2,0.9-0.5,1.4-0.8c0.2-0.1,0.3-0.1,0.5-0.2
		c0.5-0.2,1-0.5,1.4-0.8c0.2-0.1,0.3-0.1,0.5-0.2c0.5-0.3,1-0.5,1.5-0.8c0.2-0.1,0.5-0.2,0.7-0.3c0.2-0.1,0.4-0.1,0.6-0.2
		c0.8-0.5,1.5-1,2.3-1.5c0,0,0.1-0.1,0.1-0.1c0.8-0.4,1.6-0.8,2.4-1.3c0.8-0.5,1.6-1,2.4-1.5c0.2-0.1,0.4-0.2,0.5-0.3
		c1-0.6,1.9-1.2,2.9-1.8c0.7-0.4,1.3-0.8,2-1.3c0.7-0.5,1.5-1.1,2.2-1.6c0.1,0,0.1-0.1,0.1-0.1c0.7-0.5,1.5-0.9,2.2-1.4
		c0.7-0.5,1.3-1,2-1.5c0.6-0.5,1.3-0.9,1.9-1.4c0.7-0.5,1.3-1,2-1.6c0.4-0.4,0.9-0.8,1.3-1.1c0.5-0.4,1.1-0.8,1.6-1.2
		c0.7-0.6,1.5-1,2.1-1.8c0.4-0.5,1.1-0.8,1.6-1.2c0.6-0.5,1.1-1.1,1.7-1.6c0.6-0.5,1.2-1,1.8-1.6c1-0.8,1.9-1.7,2.9-2.6
		c0.8-0.7,1.6-1.4,2.5-2.2c0.5-0.4,0.9-0.9,1.4-1.3c1.5-1.4,2.9-2.7,4.4-4.1c1.1-1,2.2-2,3.3-3c0.8-0.8,1.6-1.7,2.4-2.5
		c0.8-0.8,1.7-1.5,2.6-2.3c0.4-0.3,0.8-0.7,1.1-1.1c0.8-0.8,1.6-1.7,2.4-2.6c0.8-0.8,1.7-1.5,2.4-2.3c0.8-0.8,1.6-1.7,2.5-2.6
		c0.8-0.8,1.6-1.5,2.4-2.3c0.9-0.9,1.7-1.8,2.6-2.6c0.4-0.5,0.9-0.9,1.4-1.3c0.5-0.4,1-0.8,1.5-1.3c1.3-1.3,2.6-2.6,3.9-3.9
		c1.3-1.2,2.5-2.5,3.9-3.7c0.9-0.8,1.9-1.6,2.8-2.4c0.5-0.5,0.9-1,1.4-1.5c0.4-0.4,0.8-0.8,1.3-1.1c1.2-1.1,2.4-2.1,3.6-3.2
		c1.3-1.2,2.6-2.5,4-3.8c0.5-0.5,1.2-0.8,1.7-1.3c0.6-0.5,1-1,1.6-1.5c0.9-0.8,1.9-1.6,2.9-2.4c0.7-0.5,1.3-1.1,1.9-1.6
		c1-0.8,2-1.6,3-2.4c0.6-0.5,1.3-1.1,1.9-1.6c0.5-0.4,1-0.7,1.5-1.1c1-0.7,2-1.4,3-2.1c0.2-0.1,0.3-0.4,0.5-0.5
		c-0.2-0.1-0.5-0.3-0.7-0.3c-3.2,0-6.5-0.1-9.7,0c-1.9,0.1-3.8,0.1-5.6,0.7c-0.5,0.2-1.2,0.2-1.8,0.2c-1.7,0.1-3.3,0.3-5,0.7
		c-1,0.3-2.2,0.2-3.2,0.6c-1.3,0.5-2.7,0.7-4.1,1c-0.8,0.2-1.6,0.6-2.4,0.7c-0.9,0.2-1.8,0.4-2.6,0.9c-0.2,0.2-0.6,0.1-0.9,0.2
		c-0.5,0.1-0.9,0.3-1.4,0.5c-0.5,0.2-1,0.3-1.5,0.5c-0.5,0.2-0.9,0.3-1.4,0.5c-0.7,0.2-1.4,0.4-2.1,0.6c-0.3,0.1-0.6,0.3-0.8,0.4
		c-0.1,0.1-0.2,0.2-0.3,0.2c-1.1,0.4-2.1,0.8-3.2,1.2c-0.5,0.2-0.9,0.5-1.4,0.7c0,0,0,0-0.1,0c-1.2,0.4-2.3,0.9-3.5,1.3
		c-0.1,0-0.2,0-0.3,0c-0.9,0.5-1.8,1-2.7,1.5c-0.1,0-0.1,0.1-0.2,0.2c-1,0.5-2,0.9-3,1.4c-0.4,0.2-0.6,0.5-1,0.7
		c-1,0.5-2,0.8-2.9,1.3c-0.8,0.4-1.6,1-2.4,1.5c-0.2,0.1-0.4,0.2-0.6,0.4c-0.4,0.2-0.7,0.5-1.1,0.7c-0.2,0.1-0.5,0.2-0.7,0.4
		c-0.3,0.2-0.5,0.3-0.8,0.5c-0.2,0.1-0.3,0.2-0.5,0.3c-0.5,0.3-0.9,0.6-1.4,0.8c-0.8,0.4-1.6,0.8-2.4,1.3c-0.2,0.1-0.4,0.2-0.6,0.3
		c-0.4,0.3-0.9,0.5-1.3,0.8c-0.5,0.3-0.9,0.6-1.4,0.9c-0.7,0.5-1.4,1.1-2.2,1.6c-0.1,0.1-0.1,0.1-0.2,0.2c-1,0.6-1.9,1.3-2.9,1.9
		c-0.7,0.4-1.4,0.8-2.1,1.3c-0.8,0.5-1.5,1.2-2.3,1.7c-0.7,0.5-1.4,0.9-2.1,1.3c-0.6,0.4-1.1,0.8-1.6,1.2c-0.8,0.6-1.6,1.2-2.4,1.8
		c-0.6,0.5-1.2,1-1.8,1.4c-0.6,0.5-1.3,1-1.9,1.5c-0.6,0.5-1.3,0.9-1.9,1.4c-0.7,0.5-1.5,1.1-2.2,1.6c-0.6,0.5-1.2,1-1.8,1.5
		c-0.5,0.4-1.1,0.8-1.6,1.2c-1.2,0.9-2.4,1.9-3.6,2.9c-1.1,0.8-2.2,1.6-3.2,2.5c-0.5,0.4-0.9,0.8-1.3,1.1c-1.2,1-2.4,1.9-3.6,2.9
		c-0.1,0.1-0.2,0.3-0.4,0.4c-0.3,0.2-0.6,0.4-0.9,0.6c-0.2-0.3-0.5-0.6-0.5-1c-0.1-0.3,0-0.7,0-1.1c0-2,0-4,0-6
		c0-0.6,0.2-1.1,0.8-1.4c0.8-0.5,1.4-1.2,2.2-1.7c0.4-0.4,0.9-0.7,1.3-1c0.8-0.7,1.7-1.4,2.5-2.1c0.6-0.5,1.2-0.8,1.8-1.3
		c0.5-0.3,0.9-0.7,1.3-1.1c0.6-0.5,1.3-1.1,1.9-1.6c0.5-0.4,1.1-0.7,1.6-1.1c0.7-0.5,1.4-1.1,2.1-1.6c0.7-0.5,1.4-1,2.1-1.5
		c0.6-0.5,1.2-1,1.9-1.5c0.6-0.5,1.3-0.9,1.9-1.4c0.7-0.5,1.3-1,2-1.4c1.2-0.9,2.5-1.8,3.7-2.7c1.2-0.9,2.4-1.7,3.6-2.6
		c0.7-0.5,1.4-0.9,2-1.3c0.8-0.5,1.5-1.1,2.3-1.6c0.7-0.5,1.5-1,2.3-1.4c0.7-0.4,1.4-0.9,2.1-1.3c0.3-0.2,0.7-0.4,1-0.6
		c0.4-0.2,0.7-0.5,1-0.7c0.8-0.5,1.7-0.9,2.5-1.3c0.8-0.5,1.6-1,2.4-1.6c0.2-0.1,0.4-0.2,0.5-0.3c0.1,0,0.2,0,0.3-0.1
		c0.8-0.5,1.6-1,2.4-1.5c0.2-0.1,0.5-0.3,0.7-0.4c0.4-0.2,0.9-0.5,1.3-0.7c0.2-0.1,0.4-0.2,0.6-0.3c0.4-0.2,0.9-0.5,1.3-0.8
		c0.1-0.1,0.3-0.2,0.4-0.2c0.1,0,0.2,0,0.3,0c1-0.5,2-1.1,3-1.6c0.2-0.1,0.4-0.2,0.6-0.3c0.5-0.3,1-0.5,1.5-0.8c0,0,0,0,0.1,0
		c1-0.4,2-0.8,3-1.3c0.4-0.2,0.7-0.3,1.1-0.5c0.4-0.2,0.7-0.3,1.1-0.5c0.3-0.1,0.7-0.1,1-0.3c0.6-0.4,1.3-0.6,2-0.8
		c1.1-0.4,2.1-1,3.2-1.4c0.6-0.2,1.2-0.3,1.8-0.5c0.3-0.1,0.5-0.2,0.8-0.3c0.6-0.2,1.2-0.4,1.7-0.6c0.6-0.2,1.1-0.4,1.6-0.7
		c0.3-0.1,0.6-0.2,0.9-0.3c0.7-0.2,1.4-0.5,2.2-0.7c0.5-0.2,1.1-0.3,1.6-0.4c0.7-0.2,1.4-0.4,2-0.6c0.4-0.1,0.8-0.4,1.2-0.3
		c1.5,0.1,2.7-0.8,4.1-0.9c2.4-0.2,4.8-1.2,7.3-1.1c1.2,0,2.5-0.4,3.7-0.7c0.6-0.1,1.2-0.2,1.8-0.2c4.3-0.1,8.7-0.1,13-0.1
		c1.7,0,3.3,0,5,0.2c1.6,0.1,3.2,0.4,4.8,0.7c0.9,0.2,1.6,0.2,2.4-0.5c0.6-0.6,1.5-0.8,2.3-1.3c0.4-0.2,0.7-0.4,1.1-0.6
		c0.3-0.2,0.6-0.3,0.8-0.4c0.2-0.1,0.3-0.1,0.5-0.2c1.2-0.7,2.3-1.4,3.5-2c0.9-0.4,1.7-1.1,2.6-1.5c1-0.5,2.2-0.9,3.2-1.3
		c0.2-0.1,0.4-0.2,0.6-0.2c0.6-0.3,1.2-0.5,1.7-0.8c0.9-0.4,1.9-0.7,2.7-1.3c0.5-0.4,1.1-0.5,1.6-0.6c0.4-0.1,0.8-0.3,1.3-0.5
		c0.3-0.1,0.5-0.3,0.8-0.4c0.9-0.3,1.8-0.7,2.7-1c0.9-0.3,1.8-0.7,2.6-1c1-0.3,2-0.8,3.1-1c1.2-0.2,2.4-0.4,3.5-1
		c0.3-0.2,0.7,0,1-0.1c0.8-0.2,1.5-0.6,2.3-0.7c1-0.2,2-0.1,3-0.5c1.9-0.7,3.8-0.6,5.7-1.1c1.1-0.3,2.3-0.5,3.4-0.6
		c2.6-0.1,5.1-0.2,7.7-0.8c0.2,0,0.4,0,0.6,0c2,0,3.9-0.1,5.9,0c1.4,0.1,2.8,0.3,4.2,0.4c0.7,0.1,1.4,0.2,2.1,0.2
		c2.3,0,4.5,0.2,6.7,0.9c0.9,0.3,1.9,0.2,2.9,0.4c1.3,0.2,2.5,0.6,3.8,0.8c0.2,0,0.3,0.1,0.4,0.2c0.7,0.3,1.5,0.5,2.2,0.8
		c0.5,0.2,1,0.3,1.6,0.5c0.5,0.2,1,0.3,1.5,0.5c0.4,0.1,0.7,0.2,1.1,0.3c0.5,0.2,1.1,0.4,1.6,0.7c0.3,0.1,0.6,0.3,0.9,0.5
		c0.1,0,0.1,0.1,0.2,0.2c1.1,0.4,2.2,0.9,3.2,1.3c0.3,0.1,0.6,0.3,0.8,0.4c0.1,0.1,0.2,0.2,0.3,0.2c1,0.5,2,0.9,3,1.5
		c0.8,0.4,1.5,1,2.2,1.5c0.1,0.1,0.3,0.2,0.5,0.2c0.4,0.2,0.7,0.4,1.1,0.6c0.2,0.1,0.4,0.3,0.6,0.4c0.4,0.3,0.8,0.5,1.2,0.7
		c0.7,0.4,1.4,0.8,2,1.2c0.7,0.5,1.4,1.1,2.2,1.7c0.5,0.4,1.1,0.9,1.6,1.3c0.7,0.6,1.5,1.2,2.2,1.7c0.5,0.4,1,0.7,1.4,1.1
		c0.7,0.7,1.4,1.3,2.2,2c0.9,0.8,1.8,1.5,2.6,2.4c0.8,0.8,1.6,1.7,2.5,2.6c0.7,0.8,1.5,1.5,2.2,2.3c1.2,1.3,2.4,2.6,3.5,3.9
		c0.9,1.1,1.8,2.1,2.7,3.2c0.5,0.6,0.9,1.2,1.4,1.8c0.8,1.1,1.6,2.1,2.4,3.2c0.6,0.8,1.1,1.6,1.7,2.5c0.4,0.5,0.7,1,1.1,1.5
		c0.7,1.1,1.4,2.2,2.1,3.3c0.6,0.9,1.2,1.9,1.8,2.8c0.5,0.7,1.1,1.4,1.5,2.2c0.4,0.6,0.8,1.3,1.2,2c0.1,0.2,0.3,0.4,0.4,0.6
		c0.3,0.4,0.5,0.9,0.8,1.3c0.5,0.8,1,1.6,1.5,2.3c0.2,0.2,0.3,0.5,0.4,0.8c0.2,0.3,0.3,0.6,0.5,0.8c0.1,0.2,0.3,0.3,0.4,0.4
		c0.4,0.8,0.8,1.7,1.3,2.5c0.5,0.8,1,1.5,1.5,2.3c0.1,0.2,0.2,0.5,0.3,0.7c0.2,0.4,0.5,0.8,0.7,1.2c0.5,0.8,0.9,1.6,1.3,2.4
		c0.4,0.8,0.8,1.7,1.3,2.5c0.2,0.4,0.5,0.8,0.8,1.1c0.2,0.2,0.5,0.3,0.7,0.3c2,0,3.9,0,5.9,0c0.1,0,0.2,0,0.3,0
		c2.1,0.1,4.1,0,6.2,0.2c1.5,0.1,2.9,0.5,4.3,0.7c0.7,0.1,1.3,0.2,2,0.2c1.1,0,2.1,0.3,3.1,0.5c1.3,0.3,2.6,0.4,3.9,0.6
		c0.8,0.2,1.5,0.7,2.2,0.7c1.3,0,2.3,0.9,3.5,1c1.3,0.1,2.4,0.7,3.6,1c0.4,0.1,0.7,0,1.1,0.2c0.6,0.2,1.1,0.4,1.6,0.6
		c0.4,0.1,0.8,0.2,1.1,0.3c0.5,0.2,1.1,0.4,1.6,0.6c0.1,0,0.1,0.1,0.2,0.1c1.4,0.4,2.8,0.9,4.2,1.3c0.2,0.1,0.4,0.1,0.5,0.2
		c0.8,0.5,1.7,0.5,2.5,0.9c1,0.5,2.1,0.8,3.2,1.2c0.7,0.3,1.4,0.5,2.1,0.8c0.3,0.1,0.7,0.3,1,0.4c0.5,0.2,1,0.4,1.5,0.5
		c0.8,0.1,1.4,0.6,1.4,1.4c0,2,0,4,0,5.9c0,0.3-0.2,0.8-0.4,0.8c-0.3,0.1-0.8,0-1.1-0.2c-0.4-0.2-0.8-0.4-1.3-0.6
		c-0.6-0.2-1.1-0.5-1.7-0.7c-0.3-0.1-0.6-0.2-0.8-0.3c-0.6-0.2-1.3-0.5-1.9-0.7c-0.2-0.1-0.5-0.2-0.7-0.2c-0.7-0.2-1.4-0.1-2-0.7
		c-0.2-0.3-0.8-0.2-1.2-0.4c-0.5-0.2-1-0.4-1.6-0.6c-0.1,0-0.1-0.1-0.2-0.1c-1.3-0.4-2.6-0.8-3.9-1.3c-0.3-0.1-0.7-0.3-1-0.4
		c-0.5-0.2-1-0.4-1.5-0.6c-0.5-0.2-1.1-0.4-1.6-0.6c-0.6-0.2-1.1-0.3-1.7-0.5c-0.9-0.3-1.8-0.7-2.7-0.8c-1.5-0.1-2.9-0.8-4.3-1.2
		c-1.3-0.3-2.6-0.7-3.9-1c-0.6-0.1-1.2-0.1-1.8-0.2c-1.1-0.2-2.1-0.6-3.2-0.8c-0.8-0.2-1.6-0.1-2.5-0.2c-1.1-0.1-2.1-0.3-3.2-0.4
		c-1.8-0.2-3.6-0.3-5.4-0.4c-1-0.1-1.9,0-2.9,0c-0.6,0-0.8,0.3-0.5,0.8c0.1,0.3,0.3,0.6,0.5,0.9c0.5,0.8,1,1.6,1.5,2.4
		c0.7,1.1,1.4,2.1,2,3.2c0.5,0.8,0.8,1.7,1.3,2.5c0.5,0.8,1,1.6,1.5,2.4c0.5,0.8,0.9,1.5,1.4,2.3c0.5,0.9,1,1.8,1.6,2.6
		c0.4,0.7,0.9,1.3,1.3,2c0.9,1.3,1.8,2.7,2.7,4c0.4,0.5,0.7,1.1,1.1,1.6c0.5,0.8,0.9,1.6,1.4,2.3c0.7,1,1.5,2,2.3,3
		c0.5,0.7,1,1.4,1.5,2.1c0.4,0.6,0.9,1.1,1.4,1.7c0.6,0.7,1.2,1.5,1.8,2.2c0.4,0.5,0.9,1,1.4,1.5c0.4,0.5,0.8,0.9,1.2,1.4
		c0.9,0.9,1.7,1.8,2.6,2.7c0.8,0.9,1.6,1.7,2.5,2.6c1.2,1.2,2.5,2.3,3.7,3.4c0.5,0.5,1,1.1,1.6,1.5c1,0.8,2.1,1.5,3.1,2.3
		c0.7,0.5,1.4,1.1,2.1,1.6c0.6,0.5,1.3,0.9,1.9,1.4c0.9,0.6,1.7,1.1,2.6,1.7c0,0,0.1,0.1,0.1,0.1c0.7,0.4,1.3,0.7,2,1.1
		c0.4,0.3,0.8,0.6,1.3,0.8c0.2,0.1,0.6,0.2,0.8,0.3c0.8,0.4,1.7,0.7,2.4,1.2c0.3,0.2,0.5,0.7,0.5,1c0.1,2.1,0,4.2,0,6.3
		c0,0.7-0.5,1-1.2,0.7c-0.4-0.2-0.8-0.6-1.2-0.8c-1-0.5-2-0.9-3-1.4c-0.8-0.4-1.5-0.9-2.3-1.4c-0.1-0.1-0.2-0.2-0.3-0.3
		c-0.8-0.4-1.7-0.8-2.4-1.3c-0.8-0.5-1.6-1.1-2.4-1.6c-0.8-0.5-1.6-1-2.4-1.6c-0.7-0.5-1.5-1.1-2.2-1.6c-0.8-0.6-1.5-1.2-2.3-1.8
		c-1-0.8-1.9-1.5-2.9-2.3c-0.6-0.5-1.2-1.1-1.7-1.7c-0.4-0.4-0.8-0.7-1.2-1.1c-1.2-1.1-2.4-2.2-3.5-3.4c-1.2-1.2-2.3-2.4-3.4-3.6
		c-0.9-1-1.8-2-2.7-3c-0.8-0.9-1.5-1.8-2.2-2.8c-0.4-0.5-0.7-0.9-1.1-1.4c-0.6-0.7-1.1-1.4-1.7-2.1c-0.8-1.1-1.6-2.2-2.4-3.3
		c-0.5-0.6-1-1.2-1.4-1.9c-0.5-0.8-1-1.6-1.5-2.3c-0.4-0.7-0.9-1.3-1.3-2c-0.6-0.9-1.2-1.8-1.7-2.7c-0.3-0.4-0.6-0.8-0.8-1.2
		c-0.6-0.8-1.1-1.6-1.7-2.5c-0.1-0.1-0.2-0.3-0.2-0.4c-0.2-0.4-0.5-0.8-0.7-1.3c-0.5-0.9-1-1.7-1.5-2.6c-0.4-0.8-0.9-1.6-1.4-2.4
		c-0.6-1-1.1-2-1.7-2.9c-0.5-0.8-1-1.5-1.5-2.3c-0.1-0.2-0.2-0.3-0.3-0.5c-0.1-0.3-0.2-0.5-0.3-0.8c-0.8-1.4-1.7-2.8-2.6-4.2
		c-0.1-0.2-0.2-0.5-0.2-0.7c-0.2-0.7-0.6-0.9-1.3-1c-2,0-4,0.2-6,0.6c-1,0.2-2,0.3-3,0.4c-1.5,0-3,0.2-4.5,0.7
		c-1.2,0.4-2.5,0.3-3.8,0.5c-0.3,0-0.6,0.1-0.9,0.2c-0.9,0.2-1.8,0.4-2.6,0.6c-1.1,0.3-2.2,0.6-3.3,0.9c-0.5,0.1-1,0.1-1.4,0.2
		c-0.9,0.2-1.7,0.5-2.6,0.7c-0.4,0.1-0.8,0.1-1.2,0.2c-1,0.3-2,0.8-3,0.9c-1.1,0.1-2,0.8-3.1,1c-0.7,0.2-1.3,0.3-2,0.5
		c-0.5,0.2-0.5,0.7-0.2,1.1c0.8,0.7,1.6,1.4,2.3,2.2c0.8,0.8,1.5,1.7,2.3,2.6c0.8,0.8,1.7,1.6,2.5,2.4c0.4,0.4,0.7,0.8,1.1,1.2
		c0.9,1,1.9,1.9,2.9,2.9c0.4,0.5,0.8,1,1.3,1.5c0.5,0.5,1,0.9,1.5,1.4c0.5,0.4,0.9,0.9,1.3,1.3c0.8,0.8,1.5,1.6,2.3,2.4
		c1,1,2,2,3.1,2.9c0.8,0.8,1.7,1.5,2.6,2.3c0.9,0.8,1.6,1.7,2.5,2.6c1.1,1,2.2,2,3.2,3c1.3,1.2,2.6,2.5,3.9,3.7
		c0.9,0.8,1.8,1.7,2.7,2.5c1,0.9,2,1.9,3.1,2.8c1.3,1.2,2.7,2.3,4.1,3.4c0.9,0.8,1.8,1.7,2.8,2.5c0.8,0.7,1.7,1.4,2.6,2.1
		c0.8,0.6,1.5,1.3,2.3,1.9c0.6,0.5,1.2,0.9,1.8,1.3c0.6,0.5,1.2,1.1,1.8,1.6c0.5,0.5,1.1,0.9,1.6,1.3c0.8,0.6,1.6,1.2,2.5,1.8
		c0.7,0.5,1.4,0.9,2.1,1.3c0.7,0.5,1.3,1,2,1.5c0.5,0.4,1,0.8,1.5,1.1c0.7,0.5,1.5,0.9,2.2,1.4c0.4,0.3,0.8,0.6,1.2,0.9
		c0.8,0.5,1.6,1.1,2.3,1.6c0.1,0.1,0.3,0.2,0.5,0.2c0.4,0.2,0.9,0.5,1.3,0.8c0.7,0.4,1.3,0.8,2,1.2c1,0.6,2,1.2,3,1.8
		c0.5,0.3,1,0.6,1.6,0.9c0.9,0.5,1.8,0.9,2.7,1.5c0.8,0.5,1.7,0.9,2.6,1.3c0.4,0.2,0.9,0.4,1.3,0.7c0.3,0.2,0.6,0.3,0.9,0.5
		c0.1,0,0.1,0.2,0.2,0.2c1.1,0.5,2.2,0.9,3.3,1.4c0.2,0.1,0.3,0.2,0.5,0.3c0.3,0.2,0.6,0.4,0.9,0.5c1.1,0.4,2.3,0.8,3.4,1.2
		c1.1,0.4,2.1,1,3.2,1.5c0.4,0.2,0.8,0.3,1.2,0.3c1.4,0.1,2.2,0.9,2.2,2.3c0,1.7,0,3.5,0,5.2c0,0.3,0,0.7-0.2,0.9
		c-0.2,0.4-0.5,0.8-1,0.5c-1.1-0.6-2.3-0.5-3.4-0.7c-0.8-0.1-1.6-0.3-2.3-0.4c-1.1-0.2-2.2-0.4-3.3-0.7c-0.8-0.2-1.6-0.7-2.4-0.7
		c-1.2,0-2.2-0.8-3.3-1c-0.8-0.2-1.6-0.4-2.3-0.8c-0.3-0.2-0.7-0.2-1-0.3c-0.6-0.2-1.1-0.4-1.7-0.5c-0.5-0.1-0.9-0.3-1.4-0.4
		c-0.5-0.2-1.1-0.4-1.6-0.6c-0.4-0.1-0.8-0.2-1.2-0.4c-0.5-0.2-1-0.4-1.5-0.6c-0.1,0-0.1-0.1-0.2-0.2c-1.2-0.4-2.4-0.9-3.5-1.3
		c-0.1,0-0.2,0-0.3-0.1c-0.8-0.5-1.6-0.8-2.5-1c-1-0.3-1.9-1-2.9-1.5c-1-0.5-2.1-0.9-3.1-1.3c-0.2-0.1-0.4-0.2-0.6-0.3
		c-0.2-0.1-0.3-0.3-0.4-0.3c-1-0.5-2.1-0.9-3.1-1.4c-0.9-0.5-1.8-1-2.7-1.5c0,0-0.1-0.1-0.1-0.1c-0.9-0.5-1.9-0.9-2.8-1.4
		c-0.2-0.1-0.4-0.2-0.5-0.3c-0.3-0.2-0.6-0.4-0.9-0.6c-0.3-0.2-0.7-0.4-1.1-0.6c-0.3-0.1-0.5-0.3-0.8-0.4c-0.2-0.1-0.5-0.2-0.8-0.3
		c-1.1-0.6-2.2-1.2-3.3-1.8c-0.8-0.5-1.6-1.1-2.3-1.6c-0.5-0.3-1-0.6-1.5-0.9c-0.8-0.5-1.6-0.9-2.4-1.4c-0.2-0.1-0.4-0.3-0.7-0.5
		c-0.1-0.1-0.2-0.2-0.3-0.3c-0.7-0.4-1.5-0.8-2.2-1.3c-0.7-0.5-1.5-1-2.2-1.5c-0.1-0.1-0.2-0.2-0.3-0.2c-1-0.6-2-1.3-3-1.9
		c-0.8-0.5-1.7-0.9-2.5-1.4c-0.7-0.4-1.4-1-2.1-1.5c-0.1-0.1-0.2-0.1-0.2-0.1c-1-0.7-2-1.4-3-2c-1.3-0.8-2.6-1.5-3.8-2.4
		c-1.3-0.8-2.4-1.8-3.7-2.6c-0.5-0.3-1-0.6-1.4-0.9c-1.3-0.8-2.7-1.6-4-2.4c-0.7-0.5-1.4-1-2.1-1.5c-0.7-0.5-1.5-0.9-2.2-1.4
		c-0.8-0.5-1.5-1.1-2.3-1.6c-0.5-0.3-1-0.7-1.5-1c-0.8-0.5-1.5-0.9-2.3-1.4c-0.8-0.5-1.6-1-2.4-1.5c-0.1,0-0.1-0.1-0.2-0.2
		c-0.9-0.5-1.7-0.9-2.6-1.4c-0.2-0.1-0.4-0.3-0.6-0.5c-0.2-0.1-0.3-0.3-0.5-0.4c-0.4-0.3-0.8-0.5-1.3-0.7c-0.8-0.4-1.6-0.9-2.4-1.3
		c-0.3-0.2-0.5-0.3-0.8-0.5c-0.3-0.2-0.6-0.3-0.8-0.4c-0.3-0.2-0.6-0.3-1-0.5c-0.2-0.1-0.4-0.3-0.6-0.4c-0.5-0.3-0.9-0.5-1.4-0.8
		c0,0-0.1-0.1-0.1-0.1c-0.9-0.4-1.9-0.9-2.8-1.3c-0.2-0.1-0.3-0.3-0.5-0.4c-0.2-0.1-0.3-0.3-0.5-0.4c-0.5-0.3-1-0.6-1.6-0.9
		c-0.9-0.4-1.9-0.8-2.8-1.2c-0.4-0.2-0.7-0.4-1.1-0.6c-0.1,0-0.1-0.1-0.2-0.1c-1.1-0.4-2.2-0.9-3.2-1.3c-0.3-0.1-0.6-0.5-0.9-0.6
		c-1.2-0.2-2.1-1.3-3.4-1.4c-0.6-0.1-1.1-0.6-1.7-0.8c-1.1-0.4-2.3-0.4-3.4,0c-0.2,0.1-0.3,0.2-0.5,0.3c-0.2,0.1-0.3,0.3-0.5,0.4
		c-1,0.4-1.9,0.8-2.9,1.3c-0.9,0.4-1.7,1-2.5,1.5c-0.2,0.1-0.4,0.2-0.5,0.3c-0.4,0.2-0.8,0.5-1.2,0.7c-0.1,0-0.1,0.2-0.2,0.2
		c-0.8,0.4-1.7,0.8-2.5,1.2c-0.9,0.5-1.7,1-2.6,1.6c-0.2,0.1-0.5,0.2-0.7,0.4c-0.4,0.2-0.7,0.5-1.1,0.7c-0.2,0.1-0.3,0.2-0.5,0.3
		c-0.1,0.1-0.3,0-0.4,0.1c-0.9,0.5-1.7,1-2.5,1.5c-0.1,0-0.1,0.1-0.2,0.2c-0.9,0.4-1.8,0.8-2.6,1.3c-0.8,0.5-1.6,1-2.4,1.5
		c-0.2,0.1-0.4,0.2-0.7,0.4c-0.3,0.1-0.6,0.3-0.8,0.4c-0.3,0.2-0.6,0.4-0.9,0.6c-0.3,0.2-0.6,0.4-0.9,0.6c-0.3,0.2-0.6,0.3-0.8,0.4
		c-0.9,0.5-1.7,1.1-2.6,1.6c-0.3,0.2-0.6,0.3-0.8,0.5c-0.1,0-0.2,0-0.3,0c-0.8,0.5-1.5,1-2.3,1.5c-0.2,0.2-0.5,0.3-0.8,0.4
		c-0.3,0.1-0.5,0.3-0.8,0.4c-0.4,0.2-0.7,0.4-1.1,0.6c-0.2,0.1-0.4,0.3-0.6,0.4c-0.1,0.1-0.3,0.3-0.4,0.4c-0.6,0.3-1.2,0.7-1.7,1
		c-0.5,0.3-1.1,0.7-1.6,1c-0.9,0.5-1.8,0.9-2.7,1.3c-0.8,0.5-1.6,1-2.4,1.5c-0.2,0.1-0.5,0.2-0.7,0.4c-0.4,0.2-0.8,0.5-1.2,0.7
		c-0.2,0.1-0.4,0.2-0.7,0.3c-0.2,0.1-0.4,0.2-0.6,0.3c-0.5,0.3-1,0.5-1.5,0.8c-0.8,0.5-1.6,1-2.5,1.5c-0.2,0.1-0.4,0.2-0.5,0.3
		c-0.4,0.2-0.9,0.5-1.3,0.7c-0.2,0.1-0.4,0.2-0.6,0.3c-0.4,0.2-0.7,0.4-1.1,0.6c-0.2,0.1-0.3,0.2-0.5,0.3c-0.1,0.1-0.2,0.1-0.3,0.1
		c-0.9,0.5-1.7,1-2.6,1.5c-0.2,0.1-0.5,0.3-0.7,0.4c-0.4,0.2-0.8,0.5-1.2,0.7c-0.2,0.1-0.4,0.2-0.5,0.3c-0.1,0-0.3,0-0.4,0.1
		c-0.9,0.5-1.8,1-2.7,1.4c-0.3,0.2-0.7,0.4-1,0.6c-0.3,0.2-0.6,0.4-0.9,0.5c-0.2,0.1-0.4,0.2-0.7,0.4c-0.5,0.2-0.9,0.5-1.4,0.7
		c-0.3,0.1-0.6,0.3-0.9,0.4c-0.1,0-0.2,0-0.3,0.1c-0.9,0.5-1.7,1-2.6,1.5c-0.1,0-0.1,0.1-0.2,0.1c-1,0.5-2,0.9-2.9,1.4
		c-1.1,0.5-2.1,1.1-3.2,1.6c-0.2,0.1-0.3,0.1-0.5,0.2c-0.5,0.2-1,0.4-1.5,0.7c-0.2,0.1-0.5,0.2-0.7,0.3c-0.5,0.2-0.9,0.4-1.4,0.7
		c-0.2,0.1-0.3,0.3-0.5,0.3c-0.6,0.1-1.3,0.3-1.7,0.8c-0.1,0.1-0.3,0.1-0.5,0.2c-0.5,0.2-1.1,0.5-1.6,0.7c-0.4,0.2-0.7,0.3-1.1,0.4
		c-0.4,0.1-0.8,0.3-1.2,0.4c-0.5,0.2-1.1,0.4-1.6,0.7c-0.3,0.1-0.6,0.3-0.8,0.4c-0.1,0.1-0.2,0.2-0.3,0.2c-1.3,0.5-2.6,0.8-3.8,1.4
		c-1,0.6-2.2,0.7-3.2,1.2c-0.7,0.3-1.4,0.6-2.3,0.7c0,0,0,0-0.1,0c-1.3,0.5-2.7,1.1-4,1.6c-0.2,0.1-0.4,0.1-0.7,0.2
		c-1.1,0.3-2.1,0.7-3.2,1c-1.1,0.3-2.2,0.8-3.3,0.9c-1.1,0.2-2.1,0.5-3.1,0.9c-0.5,0.2-1,0.1-1.6,0.3c-1,0.3-1.9,0.6-2.9,0.8
		c-0.9,0.2-1.9,0.2-2.7,0.5c-1.4,0.6-2.8,0.5-4.2,0.8c-0.7,0.2-1.4,0.4-2.2,0.6c-0.8,0.1-1.5,0.2-2.3,0.3c-0.9,0.1-1.7,0.3-2.6,0.5
		c-0.7,0.1-1.3,0.3-2,0.3c-2.1,0.2-4.3,0.1-6.4,0.8c-0.4,0.1-0.9,0.2-1.3,0.2c-1.7,0.1-3.4,0.1-5.1,0.2c-3.2,0.1-6.5,0.2-9.7,0.3
		c-2.1,0-4.3,0-6.4,0c-2.7-0.1-5.3-0.1-8-0.3c-2.3-0.2-4.6-0.5-7-0.8c-1.1-0.1-2.2-0.3-3.3-0.3c-1.6,0.1-3.1-0.6-4.7-0.8
		c-0.6-0.1-1.1-0.1-1.7-0.2c-1-0.2-2-0.4-3-0.6c-0.9-0.2-1.9-0.3-2.8-0.4c-0.8-0.1-1.5-0.3-2.3-0.5c-0.3-0.1-0.6-0.2-0.8-0.3
		c-0.9-0.2-1-0.3-1-1.3c0-1.7,0-3.3,0-5c0-1.1,0.3-1.3,1.3-1.1c1.3,0.3,2.6,0.6,3.8,0.9c0.9,0.2,2,0.1,2.9,0.4
		c1.8,0.6,3.6,0.6,5.4,0.8c1.2,0.1,2.3,0.5,3.4,0.7c1.1,0.2,2.2,0.2,3.2,0.3c1.6,0.2,3.3,0.4,4.9,0.6c0.7,0.1,1.4,0.2,2.1,0.2
		c3.3,0.1,6.6,0.1,9.9,0.2c3.4,0,6.8,0,10.2,0c2.5,0,4.9-0.1,7.4-0.3c1-0.1,2.1-0.4,3.1-0.5c0.9-0.1,1.9-0.2,2.8-0.3
		c1.7,0,3.4-0.2,5-0.8c0.4-0.2,0.9-0.2,1.3-0.2c1.4,0,2.8-0.3,4.2-0.7c0.8-0.3,1.8-0.2,2.6-0.4c1-0.2,2-0.6,3-0.8
		c0.3-0.1,0.5,0,0.8-0.1c0.8-0.2,1.6-0.4,2.4-0.5c0.6-0.1,1.1-0.3,1.7-0.4c0.7-0.2,1.4-0.4,2.2-0.6c0.7-0.2,1.4-0.3,2.1-0.5
		c0.5-0.1,1-0.3,1.4-0.4c0.6-0.2,1.3-0.4,1.9-0.6c0.3-0.1,0.6,0,0.9-0.2c0.8-0.6,1.7-0.7,2.7-1c0.6-0.1,1.1-0.5,1.6-0.7
		c0.9-0.4,1.8-0.7,2.8-1c0.9-0.2,1.8-0.4,2.5-0.9c0.2-0.1,0.4-0.1,0.6-0.2c0.5-0.1,1-0.3,1.4-0.4c0.5-0.2,0.9-0.4,1.4-0.6
		c0.4-0.2,0.9-0.5,1.3-0.7c0.1,0,0.2-0.1,0.2-0.1c1.2-0.4,2.5-0.8,3.7-1.3c0.9-0.4,1.8-0.9,2.9-1.2c0.6-0.2,1.1-0.5,1.6-0.7
		c1-0.5,2.1-1,3.1-1.5c0.4-0.2,0.8-0.2,1.2-0.4c1.1-0.6,2.2-1.2,3.4-1.8c0.1-0.1,0.3-0.1,0.4-0.1c0.4-0.2,0.9-0.4,1.3-0.7
		c0.2-0.1,0.3-0.2,0.5-0.3c0.5-0.3,1-0.5,1.6-0.8c0.1-0.1,0.3-0.1,0.4-0.2c0.5-0.3,1-0.5,1.5-0.8c0.2-0.1,0.5-0.2,0.7-0.3
		c0.1,0,0.2,0,0.3-0.1c0.9-0.5,1.9-1.1,2.8-1.6c0.2-0.1,0.4-0.2,0.7-0.3c0.1,0,0.2,0,0.3-0.1c1-0.5,1.9-1.1,2.9-1.6
		c0.1-0.1,0.3-0.1,0.4-0.2c0.5-0.3,0.9-0.5,1.4-0.8c0.2-0.1,0.5-0.2,0.7-0.4c0.3-0.2,0.6-0.4,0.9-0.5c0.1,0,0.1-0.1,0.1-0.1
		c0.9-0.4,1.7-0.8,2.6-1.3c0.3-0.2,0.6-0.4,0.9-0.6c0.2-0.1,0.5-0.3,0.7-0.4c0.3-0.1,0.5-0.3,0.8-0.4c0.4-0.2,0.8-0.4,1.1-0.6
		c0.3-0.2,0.6-0.5,1-0.7c0.9-0.5,1.9-0.9,2.8-1.4c0.8-0.4,1.5-0.9,2.3-1.4c0.1,0,0.1-0.1,0.2-0.2c0.9-0.4,1.8-0.8,2.6-1.3
		c0.9-0.5,1.7-1.1,2.6-1.6c0.3-0.2,0.6-0.2,0.9-0.4c0.8-0.5,1.6-1,2.4-1.6c0.2-0.2,0.5-0.2,0.8-0.4c0.3-0.2,0.6-0.4,0.9-0.6
		c0.1-0.1,0.3-0.2,0.5-0.3c0.4-0.3,0.9-0.5,1.3-0.8c0.1-0.1,0.2-0.1,0.4-0.2c0.5-0.3,0.9-0.6,1.4-0.8c0.8-0.5,1.7-0.9,2.5-1.3
		c0.8-0.5,1.6-1,2.4-1.5c0.2-0.1,0.5-0.2,0.7-0.4c0.3-0.2,0.7-0.4,1-0.6c0.2-0.1,0.4-0.2,0.6-0.3c0.4-0.2,0.8-0.5,1.2-0.7
		c0.2-0.1,0.4-0.2,0.5-0.3c0.4-0.2,0.7-0.4,1.1-0.6c0.1,0,0.1-0.2,0.2-0.2c0.8-0.4,1.7-0.8,2.5-1.3c0.9-0.5,1.7-1.1,2.6-1.7
		c0.2-0.1,0.4-0.2,0.6-0.3c0.3-0.2,0.6-0.3,1-0.5c0.3-0.2,0.6-0.3,1-0.5c0,0,0.1,0,0.1,0c0.9-0.5,1.7-1.1,2.6-1.6
		c0.2-0.1,0.4-0.2,0.6-0.3c0.4-0.2,0.8-0.5,1.2-0.7c0.2-0.1,0.3-0.2,0.5-0.2c0.4-0.2,0.9-0.5,1.3-0.7c0.1,0,0.1-0.1,0.2-0.1
		c0.9-0.4,1.8-0.8,2.7-1.2c0.1-0.1,0.3-0.1,0.4-0.2c0.4-0.2,0.8-0.5,1.2-0.7c0.2-0.1,0.4-0.3,0.4-0.4c0-0.2-0.2-0.4-0.3-0.5
		c-0.8-0.3-1.6-0.5-2.4-0.7c0,0,0,0-0.1,0c-1.6-0.5-3.2-1-4.8-1.5c-0.7-0.2-1.3-0.4-2-0.4c-1.2-0.1-2.3-0.2-3.3-0.7
		c-0.4-0.2-0.9-0.3-1.3-0.3c-1.5,0-2.8-0.4-4.2-0.8c-0.6-0.2-1.2-0.2-1.8-0.2c-1.7-0.1-3.4,0.1-5-0.2c-2.9-0.5-5.7-0.6-8.6-0.5
		c-1.7,0.1-3.3,0.4-5,0.5c-0.9,0.1-1.8,0.2-2.8,0.2c-1.4,0-2.6,0.2-3.9,0.6c-0.6,0.2-1.3,0.4-2,0.4c-1.4,0-2.7,0.3-3.9,0.8
		c-0.3,0.2-0.8,0.1-1.1,0.2c-0.7,0.2-1.4,0.4-2.2,0.6c-0.5,0.1-1,0.3-1.5,0.4c-0.9,0.1-1.8,0.2-2.5,0.7c-0.4,0.3-1,0.2-1.5,0.3
		c-1,0.3-1.9,0.7-2.9,1c-0.9,0.3-1.8,0.6-2.7,1c-0.8,0.3-1.7,0.6-2.5,1c-0.7,0.3-1.5,0.6-2.2,0.9c-0.2,0.1-0.5,0.1-0.7,0.2
		c-0.5,0.2-0.9,0.4-1.4,0.6c-0.6,0.2-1.2,0.3-1.7,0.5c-0.3,0.1-0.6,0.3-0.9,0.4c-0.1,0.1-0.2,0.2-0.3,0.2c-0.9,0.2-1.7,0.5-2.4,1
		c-1.1,0.6-2.3,0.9-3.4,1.4c-1,0.5-2,1.1-3,1.6c-0.2,0.1-0.5,0.1-0.8,0.2c-0.4,0.2-0.7,0.4-1.1,0.5c-0.2,0.1-0.4,0.2-0.6,0.3
		c-0.6,0.3-1.2,0.6-1.8,0.9c0,0,0,0-0.1,0c-1.1,0.4-2.1,0.9-3.2,1.3c0,0,0,0-0.1,0c-1,0.5-2.1,1.1-3.1,1.6c-0.2,0.1-0.3,0.1-0.5,0.2
		c-0.5,0.3-1,0.5-1.5,0.8c-0.2,0.1-0.3,0.1-0.5,0.2c-0.5,0.3-1.1,0.5-1.6,0.8c-0.2,0.1-0.4,0.2-0.6,0.3c-0.5,0.2-0.9,0.5-1.3,0.7
		c0,0-0.1,0.1-0.1,0.1c-1,0.4-1.9,0.8-2.9,1.2c-0.4,0.2-0.7,0.4-1.1,0.6c-0.2,0.1-0.4,0.2-0.7,0.3c-0.5,0.2-1,0.5-1.5,0.7
		c-0.1,0-0.1,0.1-0.2,0.1c-1,0.4-2,0.8-3,1.2c-0.5,0.2-0.9,0.4-1.3,0.6c-0.1,0.1-0.3,0.2-0.4,0.2c-0.7,0.1-1.4,0.4-2,0.9
		c-0.2,0.2-0.6,0.2-0.8,0.3c-0.4,0.1-0.7,0.3-1,0.5c-0.1,0-0.1,0.2-0.2,0.2c-1,0.4-2,0.8-3,1.3c-0.4,0.2-0.7,0.3-1.1,0.5
		c-0.4,0.2-0.7,0.3-1.1,0.5c-0.5,0.2-1,0.4-1.5,0.7c-0.2,0.1-0.4,0.2-0.7,0.3c-0.3,0.1-0.6,0-0.9,0.2c-1.2,0.5-2.5,1.1-3.7,1.7
		c-0.3,0.1-0.7,0.2-1,0.3c-0.3,0.1-0.7,0.3-1,0.4c-0.4,0.2-0.8,0.3-1.3,0.5c-0.9,0.3-1.9,0.8-2.8,1c-0.9,0.2-1.8,0.5-2.6,0.9
		c-0.2,0.1-0.5,0.1-0.8,0.2c-0.5,0.2-1,0.4-1.5,0.5c-0.9,0.2-1.7,0.4-2.6,0.6c-0.5,0.1-0.9,0.3-1.4,0.4c-0.9,0.2-1.8,0.4-2.7,0.6
		c-0.2,0-0.4,0-0.5,0.1c-1.4,0.8-3.1,0.7-4.7,1c-0.9,0.2-1.8,0.4-2.7,0.6c-0.8,0.1-1.6,0.2-2.4,0.3c-1.7,0.2-3.4,0.5-5,0.7
		c-0.1,0-0.1,0-0.2,0c-3.2,0-6.5,0.1-9.7,0.1c-1.2,0-2.4-0.3-3.7-0.5c-1.2-0.2-2.5-0.2-3.7-0.4c-1.3-0.2-2.5-0.5-3.7-0.8
		c-0.9-0.2-1.9-0.2-2.9-0.4c-0.8-0.2-1.6-0.5-2.3-0.8c-1-0.3-2-0.6-3-1c-0.1,0-0.3-0.1-0.4-0.1c-1.1-0.1-1.4-0.4-1.4-1.5
		C50.3,414.6,50.3,412.7,50.3,410.9C50.3,410.9,50.3,410.9,50.3,410.9z M75.9,414.3c2.7-0.2,5.3-0.4,8-0.7c1.9-0.2,3.8-0.5,5.7-0.8
		c1.9-0.3,3.9-0.3,5.7-1.2c0.1-0.1,0.3,0,0.5-0.1c1.9-0.4,3.8-0.8,5.7-1.3c0.1,0,0.1-0.1,0.2-0.1c1.4-0.5,2.8-1.1,4.3-1.6
		c1.4-0.5,2.9-0.9,4.4-1.3c0.6-0.2,1.1-0.5,1.6-0.8c1.2-0.5,2.4-0.8,3.6-1.3c0.4-0.2,0.8-0.5,1.2-0.6c1.2-0.5,2.5-0.9,3.7-1.4
		c0.7-0.3,1.4-0.6,2.1-0.9c0.1,0,0.2-0.1,0.3-0.2c1.1-0.5,2.2-1.1,3.3-1.6c1.1-0.5,2.3-0.9,3.4-1.4c0.4-0.2,0.7-0.4,1.1-0.6
		c1-0.5,2.1-0.9,3.2-1.3c0.1,0,0.1-0.1,0.2-0.1c0.4-0.2,0.8-0.4,1.2-0.6c0.2-0.1,0.5-0.2,0.7-0.3c1-0.5,1.9-1.1,2.9-1.6
		c1.3-0.7,2.6-1.3,4-1.9c0.1-0.1,0.3-0.1,0.4-0.2c1-0.5,2.1-0.9,3.1-1.4c1.2-0.6,2.4-1.1,3.6-1.7c0.5-0.3,1-0.6,1.5-0.8
		c1.1-0.5,2.2-0.9,3.2-1.3c0,0,0.1-0.1,0.1-0.1c1-0.5,2.1-1.1,3.1-1.6c0.1,0,0.1,0,0.2,0c1.1-0.5,2.2-0.9,3.3-1.4
		c0.5-0.2,1.1-0.5,1.6-0.7c0.2-0.1,0.5-0.2,0.7-0.3c0.4-0.2,0.8-0.4,1.2-0.6c1.2-0.4,2.4-0.9,3.6-1.3c0.1,0,0.2-0.2,0.3-0.2
		c0.3-0.2,0.7-0.3,1-0.4c1.3-0.5,2.6-0.9,3.9-1.3c0.1,0,0.2-0.1,0.2-0.1c0.5-0.2,1.1-0.4,1.6-0.6c1-0.3,2-0.7,2.9-1
		c0.5-0.2,1-0.3,1.5-0.5c0.6-0.2,1.1-0.4,1.7-0.5c0.4-0.1,0.8-0.3,1.3-0.4c0.7-0.2,1.3-0.4,2-0.6c0.7-0.2,1.4-0.4,2.1-0.5
		c0.6-0.2,1.3-0.3,1.9-0.5c0.7-0.2,1.4-0.3,2.1-0.5c0.5-0.1,1.1-0.3,1.6-0.4c1.6-0.3,3.1-0.6,4.7-0.8c1.6-0.2,3.2-0.3,4.8-0.5
		c2-0.2,4-0.5,6-0.6c4.2-0.2,8.3,0,12.5,0.6c1.8,0.2,3.6,0.3,5.3,0.5c1.4,0.2,2.9,0.5,4.3,0.8c0.5,0.1,1,0.2,1.6,0.3
		c0.9,0.2,1.8,0.4,2.7,0.6c0.8,0.2,1.5,0.3,2.3,0.5c0.5,0.1,1.1,0.3,1.6,0.5c1.5,0.4,3.1,0.8,4.6,1.3c0,0,0.1,0,0.1,0.1
		c0.7,0.2,1.5,0.5,2.2,0.7c0.5,0.1,0.9,0.3,1.4,0.4c0.5,0.2,1.1,0.4,1.6,0.6c0.4,0.1,0.8,0.2,1.2,0.4c1.6,0.8,3.3,1.3,5,0.3
		c0.4-0.2,0.8-0.5,1.2-0.7c1-0.5,2.1-0.9,3.1-1.4c0,0,0.1-0.1,0.1-0.1c0.9-0.5,1.9-1,2.8-1.5c1.1-0.5,2.2-0.9,3.2-1.4
		c0.1-0.1,0.3-0.2,0.4-0.3c0.4-0.2,0.8-0.3,1.2-0.5c0.3-0.1,0.7-0.2,1-0.4c1.4-0.6,2.7-1.2,4.1-1.7c1-0.4,2-0.8,3-1.3
		c0.2-0.1,0.4-0.3,0.6-0.4c0.4-0.2,0.4-0.5,0-0.8c-0.4-0.3-0.8-0.7-1.2-1c-1.3-1.2-2.5-2.5-3.8-3.7c-1.3-1.2-2.6-2.3-3.8-3.5
		c-1.2-1.1-2.4-2.3-3.6-3.4c-0.9-0.8-1.8-1.6-2.7-2.3c-1-0.9-2-1.9-3.1-2.8c-1.3-1.1-2.6-2.1-3.9-3.2c-1.4-1.2-2.7-2.4-4.1-3.6
		c-1.2-1-2.4-1.9-3.6-2.9c-0.6-0.5-1.2-0.9-1.8-1.3c-1.1-0.8-2.1-1.5-3.2-2.3c-0.2-0.2-0.4-0.4-0.7-0.6c-0.7-0.5-1.4-1-2.1-1.5
		c-1.1-0.8-2.2-1.7-3.3-2.5c-0.9-0.6-1.7-1.2-2.6-1.8c-0.6-0.4-1.2-0.8-1.8-1.2c-0.8-0.5-1.5-0.9-2.3-1.4c-0.6-0.4-1.3-0.8-1.9-1.2
		c-0.9-0.5-1.7-1.1-2.6-1.6c-0.8-0.5-1.6-0.9-2.4-1.4c-1-0.6-2-1.1-3-1.6c-0.2-0.1-0.4-0.2-0.6-0.3c-0.9-0.5-1.8-1.1-2.8-1.6
		c-0.9-0.5-1.9-0.9-2.9-1.3c-0.1,0-0.1-0.1-0.2-0.1c-0.5-0.2-1-0.5-1.5-0.7c-0.2-0.1-0.4-0.1-0.6-0.2c-1.1-0.6-2.2-1.1-3.3-1.7
		c-0.3-0.2-0.7-0.2-1-0.3c-1.2-0.5-2.4-1.1-3.7-1.6c-1.2-0.5-2.5-0.9-3.8-1.3c-0.1,0-0.2-0.2-0.4-0.2c-0.4-0.2-0.8-0.4-1.2-0.5
		c-1.5-0.4-3-0.8-4.5-1.2c-0.1,0-0.2-0.1-0.2-0.1c-0.7-0.2-1.4-0.5-2.1-0.7c-0.5-0.2-1-0.3-1.5-0.4c-0.7-0.2-1.4-0.4-2.1-0.5
		c-0.6-0.1-1.2-0.2-1.8-0.3c-1.1-0.2-2.2-0.5-3.4-0.8c-0.5-0.1-0.9-0.3-1.4-0.4c-0.5-0.1-1-0.3-1.4-0.2c-1.1,0.5-2.2,1.2-3.2,1.8
		c-1.3,0.9-2.6,1.8-3.9,2.7c-0.7,0.5-1.3,0.9-2,1.4c-0.7,0.5-1.3,1.1-2,1.6c-1,0.8-2.1,1.5-3.2,2.3c-1.1,0.8-2.1,1.8-3.1,2.6
		c-1,0.8-1.9,1.5-2.9,2.3c-1.8,1.5-3.5,3-5.3,4.6c-1.4,1.2-2.7,2.4-4,3.6c-1.4,1.2-2.7,2.5-4.1,3.8c-0.8,0.7-1.5,1.4-2.3,2.1
		c-0.9,0.8-1.7,1.7-2.6,2.5c-1.2,1.2-2.5,2.3-3.7,3.4c-1.5,1.5-3,3-4.5,4.5c-1.9,1.8-3.7,3.7-5.6,5.5c-2.3,2.2-4.5,4.5-6.8,6.7
		c-1.8,1.8-3.7,3.6-5.6,5.3c-1.2,1.1-2.4,2.3-3.6,3.4c-0.4,0.4-0.8,0.7-1.2,1.1c-0.5,0.5-1.1,0.9-1.6,1.4c-0.8,0.8-1.7,1.6-2.5,2.5
		c-0.9,0.8-1.8,1.7-2.7,2.5c-1.3,1.2-2.6,2.4-3.9,3.5c-0.9,0.8-1.9,1.6-2.8,2.4c-1.1,0.9-2.1,1.9-3.2,2.8c-0.9,0.7-1.8,1.4-2.6,2.1
		c-1,0.9-2,1.8-3.1,2.6c-1.2,0.9-2.4,1.9-3.6,2.8c-0.6,0.4-1.2,0.8-1.7,1.2c-0.7,0.5-1.5,1-2.2,1.5c-0.5,0.3-1,0.7-1.4,1
		c-0.7,0.5-1.4,1-2.1,1.5c-0.8,0.5-1.6,1-2.4,1.5c-0.8,0.5-1.6,1-2.4,1.5c-0.8,0.5-1.7,1-2.5,1.5c-0.7,0.4-1.4,0.9-2.1,1.3
		c-0.8,0.5-1.6,0.9-2.5,1.4c-1.2,0.6-2.3,1.2-3.5,1.8c-0.9,0.4-1.7,0.9-2.6,1.3c-0.4,0.2-0.8,0.4-1.2,0.6c-0.3,0.2-0.5,0.5-0.8,0.7
		c0.3,0.2,0.5,0.5,0.8,0.6c0.7,0.2,1.5,0.4,2.3,0.6c0.7,0.2,1.3,0.4,2,0.6c1,0.2,2,0.3,2.9,0.5c0.8,0.1,1.5,0.4,2.3,0.5
		c1.2,0.1,2.3,0.1,3.5,0.3C70.9,414.1,73.4,414.4,75.9,414.3z M238.8,290c-2.6,0.2-5.2,0.3-7.8,0.5c-1.5,0.1-3,0.2-4.4,0.4
		c-1.5,0.2-2.9,0.5-4.4,0.7c-0.6,0.1-1.1,0.2-1.7,0.3c-1.2,0.2-2.3,0.5-3.5,0.7c-0.5,0.1-1,0.3-1.5,0.4c-0.6,0.2-1.2,0.4-1.9,0.5
		c-0.6,0.2-1.2,0.3-1.9,0.5c-0.5,0.1-0.9,0.3-1.4,0.4c-1.5,0.5-3.1,0.9-4.6,1.4c-0.1,0-0.2,0.1-0.2,0.1c-0.4,0.2-0.8,0.3-1.2,0.5
		c-1.3,0.4-2.5,0.9-3.8,1.3c0,0-0.1,0.1-0.1,0.1c-0.5,0.2-0.9,0.5-1.4,0.7c-1.1,0.4-2.2,0.9-3.3,1.3c-0.6,0.2-1.2,0.5-1.7,0.8
		c-0.1,0.1-0.3,0.1-0.4,0.2c-0.9,0.5-1.8,1-2.8,1.5c-0.9,0.4-1.8,0.8-2.8,1.2c-0.5,0.2-0.4,0.5,0,0.7c0.6,0.3,1.3,0.5,1.9,0.6
		c1.7,0.4,3.3,0.9,5,1.3c0.1,0,0.2,0.1,0.3,0.2c0.5,0.2,1,0.5,1.5,0.6c1.4,0.4,2.8,0.8,4.2,1.2c0.1,0,0.1,0.1,0.2,0.1
		c1.2,0.5,2.3,1.1,3.5,1.6c0.1,0,0.1,0,0.2,0c1.1,0.4,2.2,0.8,3.3,1.2c0.1,0,0.1,0.1,0.2,0.1c1.1,0.5,2.1,1.1,3.2,1.6
		c1,0.5,2.1,0.9,3.1,1.3c0.1,0,0.1,0.1,0.2,0.1c0.9,0.5,1.9,1,2.8,1.5c0.9,0.5,1.9,0.9,2.8,1.4c0.6,0.3,1.2,0.7,1.9,1
		c0.9,0.5,1.8,1.1,2.7,1.6c0.8,0.5,1.6,0.9,2.5,1.4c0.6,0.3,1.1,0.7,1.6,1c0.8,0.5,1.5,1.1,2.3,1.6c0.8,0.5,1.6,0.8,2.3,1.3
		c0.6,0.4,1.2,0.8,1.8,1.2c0.7,0.5,1.4,1,2.1,1.5c0.7,0.5,1.4,0.9,2.1,1.4c0.5,0.3,0.9,0.7,1.4,1.1c0.7,0.5,1.4,1.1,2.1,1.6
		c0.7,0.5,1.4,1,2.1,1.5c1.2,0.8,2.3,1.7,3.5,2.5c0.6,0.4,1.2,0.9,1.8,1.4c1,0.8,1.9,1.6,2.9,2.4c1,0.8,2,1.7,3,2.5
		c1,0.8,1.9,1.6,2.9,2.5c1,0.8,2.1,1.6,3.1,2.5c0.9,0.8,1.8,1.6,2.7,2.5c0.9,0.8,1.9,1.6,2.8,2.4c1.6,1.5,3.3,3.1,4.9,4.6
		c1.5,1.4,3.1,2.9,4.7,4.3c0.4,0.4,0.8,0.8,1.2,1.2c0.5,0.5,0.9,1,1.4,1.4c0.8,0.8,1.8,1.5,2.5,2.4c0.6,0.8,1.3,0.8,2.1,0.6
		c0.5-0.2,1-0.5,1.5-0.7c1.5-0.4,2.9-0.8,4.4-1.2c1.1-0.3,2.3-0.6,3.4-1c0.8-0.2,1.5-0.6,2.3-0.8c1.2-0.4,2.3-0.7,3.5-1
		c0.2,0,0.3-0.1,0.5-0.1c2.2-0.4,4.4-0.8,6.5-1.2c2.3-0.5,4.6-1.1,6.9-1.5c1.5-0.3,3-0.2,4.5-0.4c1.6-0.2,3.3-0.4,4.9-0.7
		c0.3,0,0.8-0.2,0.8-0.3c0-0.3-0.1-0.7-0.3-1c-0.2-0.4-0.4-0.7-0.6-1c-0.2-0.3-0.4-0.6-0.5-0.9c-0.5-0.9-1-1.8-1.5-2.6
		c-0.5-0.8-0.9-1.7-1.4-2.5c-0.5-0.8-1-1.6-1.5-2.4c-0.5-0.8-0.8-1.7-1.4-2.6c-0.8-1.3-1.7-2.5-2.5-3.8c-0.8-1.3-1.6-2.6-2.4-3.8
		c-0.5-0.7-1-1.4-1.5-2.1c-0.4-0.5-0.7-1-1-1.5c-0.5-0.7-0.9-1.5-1.4-2.2c-0.4-0.6-0.8-1.1-1.2-1.7c-0.5-0.7-1.1-1.4-1.7-2.1
		c-0.8-1-1.5-2.1-2.3-3.1c-1.1-1.4-2.3-2.7-3.4-4c-1.4-1.6-2.7-3.2-4.1-4.7c-1.9-2-4-4-6-5.9c-0.8-0.7-1.6-1.4-2.4-2.1
		c-0.6-0.5-1.3-1-2-1.5c-1-0.8-1.9-1.6-2.9-2.4c-0.5-0.4-1-0.7-1.5-1c-0.9-0.6-1.9-1.2-2.8-1.7c-0.7-0.4-1.4-0.9-2.1-1.3
		c-0.8-0.5-1.6-0.9-2.4-1.3c-1.1-0.6-2.1-1.2-3.2-1.7c-1.1-0.5-2.2-0.9-3.3-1.3c-0.1,0-0.2-0.1-0.2-0.1c-0.6-0.2-1.1-0.5-1.7-0.7
		c-0.3-0.1-0.7-0.2-1.1-0.4c-1.3-0.5-2.7-1.1-4-1.4c-2.1-0.5-4.3-0.9-6.4-1.3c-1.2-0.2-2.4-0.6-3.6-0.7
		C246,290.4,242.4,290.2,238.8,290z M342.7,432.6c0-0.1,0.1-0.1,0.1-0.2c-0.1-0.2-0.2-0.4-0.4-0.5c-0.9-0.7-1.8-1.3-2.6-1.9
		c-0.8-0.6-1.6-1.3-2.4-1.9c-1.1-0.8-2.1-1.7-3.2-2.5c-1-0.8-2-1.6-3-2.4c-0.7-0.6-1.4-1.2-2.1-1.8c-0.8-0.7-1.6-1.5-2.4-2.2
		c-0.9-0.8-1.9-1.6-2.8-2.4c-1.1-1-2.2-1.9-3.3-2.9c-0.9-0.8-1.8-1.7-2.7-2.5c-0.8-0.7-1.5-1.5-2.3-2.2c-0.8-0.8-1.7-1.6-2.6-2.4
		c-0.8-0.8-1.6-1.7-2.5-2.5c-1.2-1.1-2.4-2.2-3.6-3.3c-1.6-1.6-3.3-3.2-4.9-4.8c-2.5-2.5-4.9-5-7.4-7.5c-1.5-1.5-3-3-4.5-4.5
		c-0.8-0.8-1.6-1.7-2.5-2.5c-0.8-0.8-1.5-1.5-2.3-2.3c-0.9-0.9-1.7-1.8-2.6-2.7c-0.6-0.6-1.1-1-2-0.7c-0.8,0.3-1.6,0.6-2.4,0.9
		c-1.3,0.5-2.6,0.9-3.8,1.3c-0.5,0.2-1,0.5-1.5,0.7c-0.7,0.3-1.5,0.6-2.2,0.9c-0.8,0.4-1.6,0.8-2.4,1.1c-1.1,0.5-2.2,0.9-3.3,1.3
		c-0.1,0-0.1,0.1-0.2,0.1c-0.4,0.2-0.9,0.4-1.3,0.7c-0.5,0.2-0.9,0.4-1.4,0.7c-0.1,0.1-0.3,0.3-0.3,0.4c0,0.1,0.2,0.2,0.4,0.3
		c1,0.4,2,0.8,3,1.3c0.1,0,0.1,0.1,0.2,0.1c1,0.5,1.9,1.1,2.9,1.6c1,0.5,2,0.9,2.9,1.3c0.1,0,0.1,0.1,0.2,0.2
		c0.9,0.5,1.7,1.1,2.6,1.6c0.9,0.5,1.8,0.9,2.6,1.3c0.9,0.5,1.7,1,2.5,1.5c0.9,0.5,1.8,0.9,2.8,1.4c0.1,0.1,0.2,0.1,0.3,0.2
		c0.8,0.5,1.6,1.1,2.4,1.5c0.8,0.5,1.6,0.8,2.3,1.3c0.6,0.4,1.2,0.7,1.8,1.1c0.8,0.5,1.5,1,2.3,1.5c0.9,0.6,1.9,1.2,2.8,1.7
		c0.7,0.4,1.4,0.9,2.1,1.3c0.8,0.5,1.5,0.9,2.3,1.4c0.8,0.5,1.5,1.1,2.3,1.6c0.7,0.5,1.5,0.9,2.2,1.3c0.6,0.4,1.1,0.8,1.7,1.2
		c0.8,0.5,1.5,1.1,2.3,1.6c0.7,0.5,1.5,1,2.2,1.4c0.6,0.4,1.2,0.9,1.9,1.3c1.3,0.8,2.6,1.6,3.9,2.5c0.7,0.4,1.3,1,1.9,1.4
		c0.7,0.5,1.4,0.9,2,1.3c0.8,0.5,1.5,0.9,2.3,1.4c0.9,0.5,1.7,1.1,2.5,1.6c0.7,0.5,1.5,0.9,2.2,1.4c0.7,0.5,1.4,1,2.1,1.4
		c0.8,0.5,1.6,0.9,2.3,1.3c1.1,0.6,2.1,1.3,3.1,2c1.1,0.7,2.2,1.4,3.3,2.1c1.4,0.9,2.8,1.7,4.3,2.6
		C341.8,432.4,342.3,432.5,342.7,432.6z"/>
</g>
<g>
	<path fill="#545454" d="M345.7,746.6c-0.1-0.4-0.3-0.9-0.3-1.3c0-6,0-12,0-18c0-1.2,0-1.2,1.2-1.5c0.3-0.1,0.6-0.2,0.9-0.2
		c1.8-0.3,3.5-0.6,5.3-0.9c1.2-0.2,2.3-0.5,3.5-0.7c1.9-0.3,3.8-0.5,5.6-0.9c2.2-0.4,4.3-0.9,6.5-1.3c2.1-0.4,4.3-0.7,6.4-1.1
		c2-0.4,4-0.8,6-1.1c2.1-0.4,4.2-0.7,6.3-1.1c0.1,0,0.3,0,0.4,0c1.9-0.4,3.9-0.7,5.8-1.1c0.6-0.1,1.2-0.2,1.9-0.3
		c2.4-0.5,4.9-0.9,7.3-1.4c2.1-0.4,4.1-0.7,6.2-1c0.5-0.1,1-0.2,1.5-0.3c0.6-0.1,1.2-0.2,1.8-0.3c1.4-0.3,2.9-0.5,4.3-0.8
		c2.5-0.5,5-1,7.6-1.4c2.1-0.4,4.1-0.6,6.2-1c0.5-0.1,0.9-0.2,1.4-0.3c0.8-0.1,1.5-0.3,2.3-0.4c0.1,0,0.3,0,0.4,0
		c1.7-0.3,3.4-0.6,5.2-0.9c1.9-0.4,3.8-0.8,5.8-1.2c2-0.4,4.1-0.6,6.2-1c0.4-0.1,0.8-0.2,1.2-0.3c0.4-0.1,0.8-0.2,1.2-0.3
		c1.7-0.3,3.4-0.6,5.1-0.9c2.5-0.5,5-1,7.6-1.4c2-0.4,4-0.6,6.1-1c0.6-0.1,1.1-0.2,1.6-0.3c0.7-0.1,1.5-0.3,2.2-0.4
		c0.7-0.1,1.4-0.3,2.1-0.4c0.7-0.1,1.4-0.3,2.1-0.4c0.8-0.1,1.6-0.3,2.4-0.4c0.5-0.1,1-0.2,1.4-0.3c1-0.2,1.9-0.3,2.9-0.5
		c0.4-0.1,0.8-0.1,1.2-0.2c1-0.2,2-0.4,3.1-0.6c1-0.2,2-0.3,3-0.4c1-0.2,2-0.4,3-0.6c0.6-0.1,1.4,0.1,1.8-0.6c0.1-0.1,0.5-0.1,0.8,0
		c2,0.2,4,0.3,6,0.5c4.5,0.4,9,0.9,13.5,1.3c4.5,0.4,8.9,0.8,13.4,1.3c4.4,0.4,8.7,0.8,13.1,1.2c3.6,0.3,7.2,0.7,10.8,1
		c4.4,0.4,8.7,0.8,13.1,1.2c1.7,0.2,3.4,0.3,5.1,0.5c0,0.1,0,0.2,0,0.2c-0.5,0.1-1,0.3-1.6,0.4c-0.7,0.1-1.5,0.3-2.2,0.4
		c-0.7,0.1-1.5,0.2-2.2,0.4c-1.1,0.2-2.2,0.5-3.3,0.7c-2,0.3-4,0.6-6.1,1c-2.1,0.4-4.2,0.9-6.4,1.3c-2.1,0.4-4.3,0.7-6.4,1.1
		c-0.8,0.1-1.5,0.4-2.3,0.5c-2.2,0.4-4.3,0.7-6.5,1.1c-2,0.4-3.9,0.8-5.9,1.2c-0.4,0.1-0.8,0.1-1.2,0.2c-0.3,0-0.7,0-1,0.1
		c-2,0.4-4,0.8-6,1.2c-0.6,0.1-1.2,0.2-1.9,0.3c-0.1,0-0.2,0-0.3,0c-1.9,0.4-3.8,0.7-5.7,1.1c-1,0.2-2,0.3-3,0.5
		c-2,0.4-3.9,0.7-5.9,1.1c-0.5,0.1-1.1,0.2-1.6,0.3c-0.9,0.2-1.8,0.3-2.6,0.5c-0.7,0.1-1.5,0.2-2.2,0.4c-0.1,0-0.2,0-0.2,0
		c-1.9,0.4-3.8,0.7-5.7,1.1c-0.9,0.2-1.9,0.3-2.9,0.5c-0.1,0-0.2,0-0.2,0c-1.9,0.4-3.9,0.8-5.8,1.1c-0.5,0.1-1,0.2-1.5,0.3
		c-0.9,0.2-1.8,0.3-2.7,0.5c-0.6,0.1-1.2,0.2-1.9,0.3c-0.2,0-0.4,0-0.6,0c-2.1,0.4-4.2,0.8-6.2,1.2c-0.3,0.1-0.5,0.1-0.8,0.2
		c-2,0.3-4,0.6-6.1,1c-2,0.4-4.1,0.8-6.1,1.2c-0.5,0.1-1,0.1-1.4,0.2c-0.6,0.1-1.2,0.1-1.8,0.2c-2,0.4-4.1,0.8-6.1,1.2
		c-1.9,0.3-3.8,0.6-5.7,0.9c-2.1,0.4-4.2,0.9-6.4,1.3c-0.4,0.1-0.8,0.1-1.2,0.2c-0.7,0.1-1.5,0.2-2.2,0.4c-0.7,0.1-1.5,0.3-2.2,0.4
		c-0.7,0.1-1.4,0.3-2.1,0.4c-0.9,0.2-1.8,0.3-2.6,0.4c-0.1,0-0.1,0-0.2,0c-1.9,0.4-3.8,0.7-5.7,1.1c-0.5,0.1-1.1,0.2-1.6,0.3
		c-2.5,0.5-5,1-7.6,1.4c-2.1,0.4-4.1,0.7-6.2,1c-0.2,0-0.4,0.1-0.6,0.1c-1.3,0.2-2.6,0.5-3.9,0.7c-2,0.4-4.1,0.8-6.1,1.2
		c-0.4,0.1-0.9,0.1-1.3,0.2c-0.3,0-0.6,0-0.9,0.1c-2.1,0.4-4.2,0.8-6.2,1.2c-0.5,0.1-1.1,0.2-1.7,0.2c-0.2,0-0.4,0-0.6,0
		c-1.9,0.4-3.9,0.7-5.8,1.1c-0.9,0.2-1.8,0.3-2.6,0.4c-0.1,0-0.2,0-0.2,0c-1.8,0.3-3.7,0.7-5.5,1c-0.8,0.1-1.5,0.3-2.3,0.4
		c-0.7,0.1-1.5,0.3-2.2,0.4c-0.8,0.1-1.5,0.3-2.3,0.4c0,0-0.1,0-0.1,0c-1.9,0.4-3.9,0.7-5.8,1.1c-0.9,0.2-1.9,0.3-2.9,0.5
		c-1.9,0.3-3.7,0.7-5.6,1c-1,0.2-2,0.4-3.1,0.6c-0.2,0-0.5,0.2-0.7,0.2C346.2,746.6,345.9,746.6,345.7,746.6z"/>
	<path fill="#545454" d="M576.2,448.7c0.1,0.6,0.2,1.1,0.2,1.6c0,5.9,0,11.8,0,17.7c0,1.2,0,1.2-1.2,1.4c-2.8,0.5-5.6,1-8.3,1.5
		c-2,0.4-4,0.8-6,1.2c0,0-0.1,0-0.1,0c-2,0.3-4,0.7-5.9,1c-0.6,0.1-1.2,0.2-1.8,0.3c-0.7,0.1-1.4,0.2-2.1,0.4c-0.2,0-0.4,0-0.6,0.1
		c-2.1,0.4-4.2,0.8-6.2,1.2c-0.6,0.1-1.3,0.2-1.9,0.3c-0.1,0-0.2,0-0.3,0c-1.9,0.3-3.8,0.7-5.7,1.1c-1,0.2-1.9,0.3-2.9,0.5
		c0,0-0.1,0-0.1,0c-1.9,0.4-3.8,0.7-5.7,1.1c-0.2,0-0.4,0.1-0.5,0.1c-2.1,0.3-4.1,0.7-6.2,1c-0.1,0-0.1,0-0.2,0
		c-2.1,0.4-4.2,0.8-6.2,1.2c-0.4,0.1-0.9,0.2-1.3,0.2c-1.9,0.3-3.8,0.5-5.6,0.9c-2,0.4-3.9,0.8-5.9,1.2c-0.6,0.1-1.2,0.2-1.8,0.2
		c-0.1,0-0.3,0-0.4,0c-2,0.4-4.1,0.8-6.1,1.2c-0.3,0.1-0.7,0.1-1,0.2c-2,0.3-4.1,0.6-6.1,1c-2,0.4-4,0.8-6,1.2c-1,0.2-2,0.2-3,0.4
		c-2.2,0.4-4.4,0.9-6.6,1.3c-2.5,0.5-5,1-7.6,1.4c-2.1,0.4-4.1,0.6-6.2,1c-0.4,0.1-0.8,0.2-1.2,0.2c-0.9,0.2-1.8,0.3-2.7,0.5
		c-0.6,0.1-1.2,0.2-1.8,0.4c-0.5,0.1-0.9,0.2-1.4,0.3c-2.1,0.4-4.3,0.7-6.4,1c-1.9,0.3-3.8,0.8-5.7,1.1c-2.2,0.4-4.4,0.7-6.6,1.1
		c-0.7,0.1-1.4,0.4-2.1,0.5c-2.1,0.3-4.2,0.6-6.3,0.9c-0.5,0.1-1,0.1-1.4,0.2c-2,0.5-3.9,0.1-5.9-0.1c-3.5-0.3-7.1-0.7-10.6-1
		c-3.3-0.3-6.7-0.7-10-1c-4.4-0.4-8.7-0.8-13.1-1.3c-4.2-0.4-8.4-0.8-12.6-1.3c-3.3-0.3-6.6-0.6-9.9-1c-3.5-0.3-6.9-0.7-10.4-1
		c-0.8-0.1-1.6-0.1-2.4-0.4C422.8,476.3,499.4,462.5,576.2,448.7z"/>
	<path fill="#545454" d="M572.7,576.3c-0.6,0-1.2,0.1-1.8,0.1c-1.8,0.2-3.6,0.3-5.5,0.5c-0.9,0.1-1.9,0.2-2.8,0.3
		c-1.9,0.2-3.8,0.4-5.7,0.5c-1.8,0.1-3.6,0.2-5.5,0.4c-2,0.2-3.9,0.4-5.9,0.6c-3.3,0.3-6.5,0.6-9.8,0.8c-1,0.1-1.9,0.2-2.9,0.3
		c-1.8,0.2-3.6,0.3-5.3,0.5c-1.9,0.2-3.7,0.4-5.6,0.6c-1.5,0.1-3.1,0.1-4.6,0.4c-2.6,0.4-5.2,0.4-7.8,0.7c-1.7,0.1-3.3,0.4-5,0.6
		c-1.4,0.1-2.7,0.2-4.1,0.3c-2.5,0.2-5,0.4-7.6,0.7c-3.1,0.3-6.2,0.6-9.3,0.9c-2,0.2-4.1,0.3-6.1,0.5c-1,0.1-2,0.3-3,0.4
		c-1.9,0.2-3.9,0.3-5.8,0.5c-0.8,0.1-1.6,0.2-2.3,0.3c-1.7,0.1-3.5,0.3-5.2,0.4c-0.6,0-1.1,0.1-1.7,0.4c-0.6,0.3-1.3,0.3-2,0.3
		c-1.3,0-2.6,0-3.9,0c-1.6,0.1-3.3,0.1-4.9-0.5c-0.5-0.2-1.1-0.2-1.7-0.2c-2.3,0-4.6-0.1-6.8-0.7c-0.2-0.1-0.5-0.1-0.8-0.1
		c-1.8-0.1-3.6,0-5.4-0.3c-2.8-0.5-5.6-0.2-8.3-0.8c-2.5-0.5-5.2-0.2-7.7-0.7c-1.9-0.4-3.8-0.3-5.7-0.5c-1.5-0.2-3-0.5-4.5-0.6
		c-1.1-0.1-2.2-0.1-3.2-0.2c-1.6-0.1-3.1-0.2-4.7-0.6c-0.5-0.2-1.1,0-1.7,0c-2-0.2-4.1-0.5-6.1-0.7c-1.4-0.1-2.8-0.1-4.2-0.3
		c-1.3-0.1-2.6-0.3-3.9-0.5c-0.2,0-0.4,0-0.7-0.1c-2.5-0.2-5-0.5-7.5-0.7c-1.3-0.1-2.6-0.1-3.9-0.3c-3.6-0.3-7.3-0.7-10.9-1.1
		c-2.5-0.2-5.1-0.5-7.6-0.7c-2.5-0.2-5-0.5-7.6-0.7c-0.1,0-0.2-0.1-0.4-0.2c0.2-0.1,0.3-0.3,0.5-0.3c2.3,0.1,4.4-0.5,6.7-0.7
		c1.9-0.2,3.7-0.1,5.6-0.4c2.6-0.4,5.2-0.4,7.8-0.7c1.9-0.2,3.7-0.4,5.6-0.5c3.3-0.3,6.5-0.6,9.8-0.9c1.9-0.2,3.8-0.4,5.7-0.6
		c3-0.3,5.9-0.6,8.9-0.8c3.4-0.3,6.8-0.5,10.3-0.8c1.1-0.1,2.1-0.3,3.2-0.4c1.7-0.2,3.5-0.3,5.2-0.4c0.7-0.1,1.4-0.2,2.1-0.2
		c1.8-0.2,3.6-0.3,5.3-0.5c1.6-0.2,3.1-0.4,4.7-0.5c0.8-0.1,1.6-0.1,2.4-0.2c1.8-0.2,3.6-0.3,5.3-0.5c1.4-0.1,2.7-0.2,4.1-0.4
		c1.8-0.2,3.6-0.4,5.5-0.6c0.8-0.1,1.6-0.1,2.3-0.2c1.4-0.1,2.9-0.3,4.3-0.4c1.9-0.2,3.7-0.3,5.6-0.4c1.9-0.2,3.9-0.3,5.8-0.5
		c0.5-0.1,1.1-0.3,1.6-0.4c0.9,0,1.9,0,2.8,0c5.1,0.5,10.3,1,15.4,1.5c4.8,0.5,9.7,1,14.5,1.5c4.9,0.5,9.8,1,14.6,1.4
		c4.8,0.5,9.7,1,14.5,1.4c4.2,0.4,8.5,0.8,12.7,1.3c4.8,0.5,9.6,1,14.4,1.5c3.4,0.3,6.8,0.7,10.2,1c3.2,0.3,6.3,0.6,9.5,0.9
		c0.1,0,0.2,0.1,0.3,0.1C572.7,576.2,572.7,576.2,572.7,576.3z"/>
	<path fill="#545454" d="M345.9,533.3c2-0.2,4-0.4,6-0.6c1.4-0.1,2.7-0.2,4.1-0.4c1.8-0.2,3.6-0.3,5.5-0.5c1.3-0.1,2.6-0.3,3.9-0.4
		c1.9-0.2,3.9-0.3,5.8-0.5c1.9-0.2,3.9-0.4,5.8-0.6c1.3-0.1,2.7-0.2,4-0.3c2.5-0.2,5-0.4,7.6-0.7c3.2-0.3,6.5-0.6,9.7-0.9
		c2.4-0.2,4.9-0.4,7.3-0.7c3.9-0.4,7.7-0.8,11.6-1.2c2-0.2,3.9-0.3,5.9-0.4c2.5-0.2,5.1-0.4,7.6-0.7c3.6-0.4,7.1-0.8,10.7-1.1
		c1.7-0.2,3.4-0.2,5-0.3c0.8-0.1,1.6-0.2,2.5-0.2c1.6-0.1,3.1-0.3,4.7-0.4c1-0.1,2-0.1,3-0.3c1.9-0.3,3.8-0.4,5.7-0.4
		c0.8,0,1.8,0.2,2.5-0.5c0.1-0.1,0.4,0,0.5,0c5.1,0.5,10.3,1,15.4,1.5c5.7,0.6,11.5,1.1,17.2,1.7c4.3,0.4,8.6,0.8,12.8,1.2
		c4.2,0.4,8.4,0.8,12.6,1.2c4.3,0.4,8.6,0.8,12.8,1.2c4.2,0.4,8.4,0.8,12.6,1.2c4.2,0.4,8.5,0.8,12.7,1.2c3.9,0.4,7.9,0.8,11.8,1.3
		c-1,0.2-1.9,0.4-2.9,0.4c-2.1,0.2-4.2,0.2-6.2,0.5c-2.6,0.4-5.1,0.4-7.7,0.6c-1.1,0.1-2.2,0.4-3.3,0.4c-3.1,0.1-6.2,0.5-9.2,0.9
		c-1.4,0.2-2.9,0.1-4.4,0.3c-3.5,0.3-7,0.7-10.6,1.1c-1.3,0.1-2.5,0.1-3.8,0.2c-1,0.1-2,0.2-3,0.3c-1.6,0.2-3.1,0.3-4.7,0.5
		c-1.3,0.1-2.6,0.2-3.9,0.4c-1.7,0.2-3.3,0.3-5,0.5c-1.9,0.2-3.9,0.4-5.8,0.6c-0.8,0.1-1.6,0-2.3,0.1c-1.3,0.1-2.5,0.3-3.8,0.4
		c-1.9,0.2-3.9,0.3-5.8,0.5c-1.8,0.2-3.6,0.4-5.4,0.6c-1.4,0.1-2.8,0.1-4.2,0.3c-2.5,0.4-5,0.4-7.5,0.6c-3.7,0.4-7.4,0.8-11.1,1.1
		c-1,0.1-2,0.1-3,0.1c-0.6,0-1.2,0-1.8,0.5c-0.2,0.1-0.6,0.1-0.8,0c-1.3-0.3-2.6-0.3-3.9,0c-0.3,0-0.5,0.1-0.8,0
		c-2.3-0.6-4.6-0.5-6.9-0.8c-3.6-0.4-7.2-0.8-10.8-1.1c-2-0.2-4-0.3-6-0.5c-3.3-0.3-6.6-0.7-9.9-1c-2.1-0.2-4.2-0.3-6.4-0.6
		c-3.2-0.3-6.5-0.7-9.7-1c-2.2-0.2-4.4-0.4-6.6-0.6c-3.1-0.3-6.2-0.6-9.4-0.9c-2.2-0.2-4.5-0.4-6.7-0.6c-7.7-0.7-15.5-1.5-23.2-2.2
		c-3.4-0.3-6.8-0.6-10.3-1c-0.2,0-0.3-0.1-0.5-0.1C345.9,533.5,345.9,533.4,345.9,533.3z"/>
	<path fill="#545454" d="M346.8,662.6c0.8-0.1,1.5-0.3,2.3-0.4c1.1-0.1,2.3-0.1,3.5-0.2c1.7-0.2,3.4-0.4,5.1-0.6
		c0.6-0.1,1.3-0.1,1.9-0.2c2.1-0.2,4.2-0.4,6.3-0.6c2.1-0.2,4.2-0.3,6.4-0.5c2.5-0.2,5-0.4,7.6-0.7c3.6-0.4,7.1-0.7,10.7-1.1
		c1.1-0.1,2.2-0.1,3.3-0.2c1.4-0.1,2.7-0.3,4.1-0.4c2-0.2,4.1-0.3,6.1-0.5c1.9-0.2,3.7-0.4,5.6-0.6c1.4-0.1,2.8-0.1,4.1-0.3
		c2.5-0.4,5.1-0.4,7.7-0.6c3.6-0.4,7.1-0.8,10.7-1.1c1.1-0.1,2.3-0.1,3.5-0.2c1.4-0.1,2.7-0.3,4.1-0.4c2-0.2,4-0.3,6-0.5
		c1.8-0.2,3.6-0.4,5.3-0.6c1.4-0.1,2.9-0.2,4.3-0.4c2-0.3,4.1-0.5,6.1-0.5c0.8,0,1.7-0.2,2.5-0.3c2.5-0.4,5,0,7.5,0.2
		c5,0.5,10,1,15,1.5c4.9,0.5,9.7,1,14.6,1.5c4.2,0.4,8.3,0.8,12.5,1.2c4.8,0.5,9.7,1,14.5,1.5c3.4,0.3,6.8,0.7,10.2,1
		c4,0.4,8,0.8,12.1,1.2c4.2,0.4,8.4,0.8,12.6,1.3c3.1,0.3,6.3,0.6,9.4,0.9c0.2,0,0.5,0.1,0.7,0.2c0,0.1,0,0.2,0,0.2
		c-2,0.2-4,0.3-6,0.5c-1.7,0.2-3.4,0.4-5.1,0.6c-2.1,0.2-4.2,0.2-6.2,0.5c-2.6,0.4-5.1,0.4-7.7,0.6c-2,0.2-4.1,0.5-6.1,0.6
		c-3.1,0.3-6.2,0.5-9.4,0.8c-1,0.1-2,0.3-3,0.4c-1.9,0.2-3.7,0.3-5.6,0.4c-1.9,0.2-3.7,0.4-5.6,0.6c-1.4,0.1-2.8,0.2-4.2,0.3
		c-2.4,0.2-4.9,0.4-7.3,0.7c-2.2,0.2-4.3,0.5-6.4,0.6c-3.1,0.3-6.2,0.5-9.4,0.8c-1.8,0.2-3.6,0.4-5.4,0.6c-3,0.3-6.1,0.6-9.1,0.8
		c-3.4,0.3-6.8,0.5-10.1,0.8c-1.6,0.1-3.3,0.3-4.9,0.5c-0.6,0.1-1.3,0-1.9,0.1c-0.5,0.1-1,0.2-1.5,0.3c-0.3,0.1-0.6,0.1-0.9,0.1
		c-4.6-0.4-9.2-0.9-13.8-1.3c-4.3-0.4-8.6-0.8-12.8-1.2c-3.7-0.3-7.4-0.7-11.1-1c-3.6-0.3-7.2-0.7-10.8-1c-4.3-0.4-8.6-0.8-13-1.2
		c-4.5-0.4-9-0.9-13.5-1.3c-4.3-0.4-8.6-0.8-13-1.2c-4.5-0.4-8.9-0.8-13.4-1.3c-3-0.3-5.9-0.5-8.9-0.8
		C346.8,662.7,346.8,662.6,346.8,662.6z"/>
	<path fill="#545454" d="M570.8,619.5c-2.7,0.2-5.4,0.4-8.1,0.6c-1.5,0.1-3,0.4-4.4,0.5c-0.9,0.1-1.7,0.1-2.6,0.1
		c-1.3,0.1-2.5,0.3-3.8,0.4c-1.9,0.2-3.9,0.3-5.8,0.5c-0.7,0.1-1.3,0.2-2,0.2c-1.9,0.2-3.7,0.3-5.6,0.5c-1.1,0.1-2.1,0.3-3.2,0.4
		c-1.3,0.1-2.6,0.2-3.9,0.4c-1.5,0.1-3,0.3-4.5,0.4c-1.5,0.1-3,0.3-4.5,0.4c-2,0.2-3.9,0.4-5.9,0.6c-0.9,0.1-1.8,0.1-2.7,0.1
		c-2,0.2-4.1,0.5-6.1,0.7c-3,0.3-5.9,0.6-8.9,0.8c-1.3,0.1-2.5,0.1-3.8,0.2c-3.9,0.4-7.8,0.8-11.7,1.2c-1.9,0.2-3.8,0.3-5.7,0.4
		c-2.5,0.2-5,0.4-7.6,0.7c-3.1,0.3-6.2,0.6-9.3,0.9c-0.7,0.1-1.3,0.2-2,0.4c-2,0.5-3.9-0.1-5.8-0.2c-3.8-0.3-7.6-0.7-11.4-1
		c-3.6-0.3-7.3-0.7-10.9-1c-3.5-0.3-7.1-0.7-10.6-1c-4.5-0.4-8.9-0.8-13.4-1.2c-4.6-0.4-9.2-0.8-13.9-1.3c-3.7-0.3-7.4-0.7-11.1-1
		c-3.6-0.3-7.2-0.6-10.8-1c-4.5-0.4-9-0.9-13.5-1.3c-3-0.3-6-0.5-8.9-0.8c-0.8-0.1-1.6-0.2-2.4-0.6c0.8-0.1,1.7-0.1,2.5-0.2
		c2.4-0.3,4.8-0.5,7.2-0.8c0.9-0.1,1.7,0,2.6-0.1c1.5-0.1,3-0.3,4.6-0.5c0.7-0.1,1.5-0.1,2.2-0.2c1.7-0.1,3.4-0.3,5.1-0.4
		c1.6-0.1,3.1-0.3,4.7-0.4c1-0.1,1.9-0.2,2.9-0.3c1.4-0.1,2.7-0.3,4.1-0.4c2.2-0.2,4.4-0.5,6.7-0.6c3.1-0.2,6.1-0.5,9.1-0.9
		c1.5-0.2,3-0.1,4.5-0.3c3.2-0.3,6.3-0.6,9.5-0.9c1.7-0.2,3.5-0.3,5.2-0.4c0.9-0.1,1.9-0.2,2.8-0.3c1.3-0.1,2.6-0.3,3.9-0.4
		c2.3-0.2,4.6-0.5,6.9-0.7c1.9-0.2,3.9-0.3,5.8-0.4c2.5-0.2,5-0.4,7.5-0.7c3.7-0.4,7.3-0.8,11-1.1c1.6-0.2,3.3-0.2,4.9-0.3
		c0.7-0.1,1.4-0.2,2.1-0.3c0.2,0,0.4-0.1,0.7-0.1c1.2,0.1,2.4-0.1,3.6-0.3c0.8-0.1,1.6,0.1,2.4,0.2c5.4,0.6,10.7,1.1,16.1,1.7
		c6.1,0.6,12.2,1.2,18.3,1.9c5.4,0.6,10.8,1.1,16.2,1.7c5.4,0.6,10.9,1.1,16.3,1.7c5.4,0.6,10.8,1.2,16.2,1.7
		c5.4,0.6,10.9,1.1,16.3,1.7c1,0.1,2,0.2,3,0.4C570.8,619.3,570.8,619.4,570.8,619.5z"/>
	<g>
		<path d="M575.9,531.4c0,0.1-0.1,0.2-0.1,0.3c0,0.4-0.2,0.5-0.6,0.5c-1.8-0.1-3.5-0.1-5.3-0.3c-0.6,0-1.2-0.2-1.8-0.4
			c-0.6-0.1-1.2-0.3-1.8-0.4c-1.4-0.1-2.7,0-4.1-0.1c-0.7,0-1.4-0.2-2.1-0.3c-0.9-0.1-1.8-0.3-2.6-0.4c-0.7-0.1-1.5,0-2.2,0
			c-1.2,0-2.4-0.1-3.6-0.4c-1.5-0.4-3-0.3-4.5-0.4c-1-0.1-2,0-3-0.3c-1.4-0.4-2.7-0.4-4.1-0.4c-1.6,0-3.2,0-4.8-0.5
			c-0.6-0.2-1.4-0.2-2-0.2c-0.5,0-1,0-1.5,0c-1.7,0-3.5-0.1-5.2-0.6c-0.4-0.1-0.9-0.1-1.3-0.1c-1.5-0.1-3-0.1-4.4-0.2
			c-0.9-0.1-1.8-0.4-2.7-0.5c-0.5-0.1-1.1,0-1.7-0.1c-1.6-0.1-3.2-0.2-4.7-0.3c-1.1-0.1-2.1-0.2-3.2-0.3c-1.9-0.2-3.9-0.1-5.8-0.6
			c-0.4-0.1-0.9-0.1-1.4-0.2c-1.6-0.1-3.2-0.1-4.8-0.3c-1.8-0.2-3.5-0.4-5.3-0.6c-0.4,0-0.8,0-1.2,0c-2-0.2-3.9-0.4-5.9-0.6
			c-1.3-0.1-2.5-0.1-3.8-0.2c-1.5-0.1-3-0.4-4.4-0.5c-0.8-0.1-1.6-0.1-2.4-0.2c-1.5-0.2-3-0.4-4.5-0.6c-1.2-0.1-2.5-0.2-3.7-0.4
			c-0.8-0.1-1.6-0.2-2.3-0.3c-1.7-0.2-3.5-0.4-5.2-0.5c-1.3-0.1-2.5-0.3-3.7-0.4c-1.6-0.2-3.3-0.2-5-0.4c-0.7-0.1-1.5-0.2-2.2-0.2
			c-1.6-0.2-3.2-0.3-4.7-0.5c-1.3-0.1-2.6-0.3-3.9-0.4c-1.3-0.1-2.5-0.3-3.8-0.3c-1.4,0-2.9-0.2-4.3-0.4c-1.4-0.3-2.9-0.3-4.4-0.4
			c-1.1-0.1-2.2-0.2-3.3-0.3c-1.7-0.2-3.4-0.3-5.1-0.4c-0.9-0.1-1.7-0.1-2.6-0.3c-1.7-0.4-3.4-0.4-5.2-0.5c-1.3,0-2.6-0.2-3.8-0.5
			c-0.9-0.2-1.8-0.2-2.7-0.2c-1.8,0-3.5-0.1-5.2-0.5c-1.2-0.2-2.4-0.3-3.7-0.3c-1.5,0-3-0.2-4.5-0.5c-1.3-0.2-2.7-0.2-4.1-0.3
			c-1-0.1-2,0-3-0.3c-1.8-0.4-3.7-0.4-5.5-0.5c-1-0.1-1.9-0.2-2.9-0.3c-1.6-0.2-3.2-0.3-4.8-0.4c-1.2-0.1-2.3-0.2-3.5-0.4
			c-2-0.3-4.1-0.3-6.1-0.5c-0.5,0-1-0.2-1.4-0.2c-1.5-0.2-3-0.4-4.5-0.4c-1.4-0.1-2.8-0.1-4.2-0.4c-1.1-0.2-2.3-0.2-3.4-0.4
			c-0.3,0-0.5-0.2-0.8-0.3c0-0.1,0-0.2,0-0.3c0-0.2,0.1-0.4,0.1-0.6c0-5.7,0-11.4,0-17c0-0.2-0.1-0.5-0.1-0.7c0,0,0-0.1,0-0.1
			c0.2-0.1,0.5-0.4,0.7-0.4c0.6-0.1,1.2-0.2,1.8-0.2c0.2,0,0.4,0,0.7,0c0.7,0.6,1.6,0.9,2.5,0.9c1,0,2,0,3,0.1
			c1.3,0,2.7-0.4,3.9,0.5c0.1,0,0.1,0,0.2,0c2,0.1,3.9,0.1,5.9,0.2c0.5,0,1,0.2,1.4,0.3c0.4,0.1,0.9,0.3,1.3,0.4
			c1.5,0.1,3.1,0.1,4.7,0.1c0.9,0,1.8-0.1,2.5,0.5c0.1,0.1,0.3,0.1,0.4,0.1c1.7,0.1,3.4,0.2,5,0.2c0.9,0,1.7-0.1,2.5,0.4
			c0.2,0.1,0.5,0.2,0.7,0.2c1.7,0.1,3.4,0.1,5,0.1c0.8,0,1.6,0,2.3,0.4c0.2,0.2,0.6,0.2,0.9,0.2c1.7,0,3.5,0,5.2,0.1
			c0.6,0,1.1,0.2,1.7,0.3c0.4,0.1,0.7,0.3,1.1,0.3c1.6,0.1,3.3,0.1,4.9,0.1c0.8,0,1.6-0.1,2.4,0.5c0.1,0.1,0.3,0.1,0.4,0.1
			c2,0.1,3.9,0.1,5.9,0.2c0.4,0,0.9,0.2,1.3,0.3c0.5,0.1,1,0.4,1.5,0.4c1.1,0.1,2.2,0.1,3.3,0.1c1.2,0.1,2.5,0.2,3.7,0.3
			c1.5,0.1,2.9,0.4,4.4,0.5c1,0.1,2.1,0,3.1,0.2c1.9,0.3,3.7,0.6,5.6,0.6c0.9,0,1.8,0,2.7,0.2c1.9,0.4,3.7,0.6,5.6,0.6
			c0.8,0,1.7,0,2.5,0.2c2,0.5,4,0.6,6,0.6c0.5,0,1,0,1.5,0.1c1.7,0.2,3.3,0.5,5,0.6c1.2,0.1,2.5,0.1,3.7,0.2
			c1.5,0.1,2.9,0.4,4.4,0.5c1.1,0.1,2.3,0,3.4,0.2c1.8,0.3,3.6,0.6,5.5,0.6c0.9,0,1.9,0,2.8,0.2c1.8,0.4,3.6,0.6,5.4,0.6
			c0.8,0,1.7,0,2.5,0.2c1.9,0.4,3.8,0.6,5.7,0.6c0.6,0,1.2,0,1.7,0.1c2.4,0.5,4.8,0.7,7.3,0.7c0.5,0,1,0.1,1.5,0.1
			c1.4,0.2,2.9,0.4,4.3,0.5c1.2,0.1,2.5,0,3.6,0.2c1.9,0.4,3.8,0.5,5.7,0.6c0.7,0,1.5,0,2.2,0.2c1.9,0.4,3.8,0.6,5.7,0.6
			c0.9,0,1.8,0,2.6,0.2c1.8,0.4,3.7,0.6,5.5,0.6c1,0,1.9,0.1,2.9,0.2c1.1,0.1,2.2,0.3,3.3,0.4c1.4,0.1,2.9,0.1,4.4,0.3
			c1.4,0.1,2.8,0.4,4.3,0.5c1.3,0.1,2.6,0,3.9,0.3c1.5,0.3,3.1,0.5,4.6,0.5c1.3,0,2.6,0.2,3.8,0.3c1.5,0.1,3.1,0.3,4.6,0.5
			c1.2,0.1,2.5,0.2,3.7,0.3c0.7,0.1,1.4,0.3,2.1,0.3c1.3,0.1,2.6,0,3.9,0.2c0.8,0.1,1.8-0.3,2.1,1c0,0.1,0,0.3,0,0.4
			c0,0.2-0.1,0.4-0.1,0.6c0,5.4,0,10.8,0,16.2c0,0.2,0.1,0.4,0.1,0.6C575.9,531.2,575.9,531.3,575.9,531.4z"/>
		<path d="M345.6,533.9c0.4,0,0.8-0.2,1.1-0.1c2.2,0.7,4.5,0.5,6.8,0.5c0.4,0,0.9,0.1,1.3,0.3c0.9,0.4,1.8,0.5,2.8,0.5
			c1.3,0,2.5,0,3.8,0c0.7,0,1.2,0.1,1.8,0.4c0.5,0.3,1.2,0.3,1.8,0.4c1.5,0,3,0,4.5,0c0.5,0,1,0.1,1.5,0.3c0.8,0.4,1.5,0.4,2.3,0.4
			c1.6,0,3.1,0,4.7,0c0.3,0,0.7,0.2,1,0.3c0.4,0.1,0.9,0.4,1.3,0.4c1.8,0.1,3.6,0,5.4,0.1c0.3,0,0.7,0,1,0.2
			c0.9,0.5,1.8,0.6,2.8,0.6c1.4,0,2.7,0,4.1,0c0.5,0,1,0.2,1.5,0.3c0.6,0.1,1.1,0.4,1.7,0.4c1.6,0.1,3.1,0,4.7,0.1
			c0.6,0,1.1,0.2,1.7,0.4c0.7,0.1,1.3,0.4,2,0.4c1.6,0.1,3.1,0,4.7,0c0.4,0,0.8,0.1,1.1,0.2c0.7,0.4,1.5,0.5,2.3,0.5
			c1.5,0,3,0,4.5,0c0.3,0,0.7,0,1,0.2c1,0.5,2,0.6,3.1,0.6c1.2,0,2.5-0.1,3.7,0c0.6,0,1.1,0.3,1.7,0.4c0.4,0.1,0.8,0.3,1.2,0.3
			c1.7,0,3.3,0,5,0.1c0.5,0,1.1,0.1,1.6,0.3c1,0.5,2.1,0.4,3.1,0.5c1,0,2.1,0,3.1,0c0.7,0,1.3,0.1,2,0.4c0.5,0.2,1.2,0.3,1.8,0.3
			c1.5,0,3,0,4.4,0c0.5,0,1,0.2,1.6,0.3c0.8,0.2,1.5,0.4,2.3,0.4c1.8,0.1,3.6,0.1,5.4,0.3c0.8,0.1,1.6,0.3,2.5,0.4
			c1.3,0.1,2.5,0.1,3.8,0.2c1.2,0.1,2.4,0.3,3.6,0.4c1.4,0.1,2.8,0.2,4.2,0.4c1.2,0.1,2.4,0.2,3.6,0.4c1.7,0.1,3.3,0.3,5,0.4
			c0.8,0.1,1.7,0.1,2.5,0.3c1.7,0.4,3.5,0.4,5.2,0.5c1.3,0,2.6,0.2,3.9,0.5c1.3,0.2,2.7,0.2,4,0.3c1.2,0.1,2.4,0.3,3.7,0.4
			c1.3,0.1,2.5,0.3,3.8,0.3c1.5,0,3,0.2,4.6,0.5c1.4,0.3,2.9,0.2,4.3,0.3c1,0.1,2,0.1,2.9,0.3c1.9,0.4,3.7,0.4,5.6,0.5
			c1,0.1,2.1,0.3,3.1,0.4c1.5,0.1,3,0.2,4.5,0.4c1.1,0.1,2.3,0.3,3.4,0.4c2,0.2,4.1,0.3,6.1,0.4c0.5,0,1,0.1,1.5,0.2
			c1.7,0.4,3.5,0.4,5.3,0.5c1,0,2,0.3,3,0.4c1.4,0.1,2.7,0.3,4.1,0.4c1.5,0,2.9,0.2,4.3,0.4c1.5,0.3,3.1,0.2,4.6,0.4
			c1,0.1,2,0.2,3,0.3c1.2,0.1,2.4,0.3,3.6,0.4c1.8,0.1,3.6,0.1,5.4,0.6c0.3,0.1,0.5,0,0.8,0.1c0.3,0.1,0.5,0.2,0.8,0.3
			c0,0.2,0,0.4,0,0.6c0,0.2-0.1,0.4-0.1,0.6c0,5.6,0,11.2,0,16.8c0,0.2,0.1,0.4,0.1,0.6c0,0.2,0,0.4,0,0.6c-0.5,0.4-1.1,0.3-1.5,0.2
			c-2.4-0.6-4.9-0.6-7.4-0.5c-0.4,0-0.8-0.1-1.1-0.2c-0.9-0.2-1.8-0.5-2.8-0.5c-1.3-0.1-2.6,0-3.9,0c-0.6,0-1.2-0.3-1.8-0.3
			c-1.1-0.2-2.1-0.3-3.2-0.4c-1.2-0.1-2.4,0-3.5,0c-0.2,0-0.4,0-0.6-0.1c-1.5-0.7-3.2-0.6-4.8-0.6c-1.5,0-3,0-4.5-0.5
			c-0.6-0.2-1.3-0.2-1.9-0.2c-0.2,0-0.5,0-0.7,0c-2,0.1-4.1,0-6-0.6c-0.6-0.2-1.4-0.1-2.1-0.1c-1,0-2.1,0-3.1-0.1
			c-0.6,0-1.1-0.2-1.7-0.3c-1-0.1-2.1-0.3-3.2-0.3c-2,0-4-0.1-6-0.6c-0.5-0.1-1.1-0.2-1.7-0.2c-2.2,0-4.4-0.1-6.6-0.6
			c-0.2-0.1-0.4-0.1-0.7-0.1c-1.7-0.1-3.4,0-5-0.3c-2.6-0.5-5.3-0.5-8-0.7c-0.8-0.1-1.6-0.3-2.4-0.4c-1.4-0.1-2.7-0.2-4.1-0.3
			c-1.1-0.1-2.3-0.3-3.4-0.3c-1.8-0.2-3.6-0.3-5.4-0.4c-1.6-0.1-3.1-0.3-4.7-0.5c-1.2-0.1-2.5-0.2-3.7-0.3c-0.7-0.1-1.3-0.3-2-0.4
			c-0.9-0.2-1.9-0.4-2.8-0.5c-2.2-0.1-4.4-0.1-6.6-0.6c-0.8-0.2-1.7-0.2-2.5-0.2c-1.6,0-3.2-0.2-4.8-0.5c-1.4-0.3-2.8-0.2-4.2-0.3
			c-1.1-0.1-2.3-0.2-3.4-0.4c-1.3-0.1-2.7-0.3-4-0.4c-1.5-0.1-3-0.1-4.5-0.5c-1.3-0.3-2.7-0.3-4.1-0.3c-1.4,0-2.7-0.3-4-0.5
			c-1.6-0.2-3.2-0.2-4.8-0.3c-0.8-0.1-1.6-0.2-2.3-0.3c-1.6-0.2-3.2-0.3-4.8-0.5c-1.2-0.1-2.5-0.3-3.7-0.4c-1.4-0.1-2.8-0.3-4.2-0.4
			c-1.3,0-2.6-0.2-3.9-0.4c-1.4-0.3-2.8-0.3-4.2-0.4c-1.4,0-2.7-0.2-4-0.4c-1.5-0.2-3.1-0.2-4.6-0.4c-0.9-0.1-1.7-0.2-2.6-0.2
			c-1.8-0.2-3.6-0.4-5.3-0.5c-1.2-0.1-2.4-0.2-3.7-0.5c-1-0.2-2-0.2-3.1-0.3c-1.6-0.1-3.2-0.1-4.7-0.4c-1.3-0.3-2.6-0.2-3.8-0.4
			c-1.3-0.1-2.6-0.2-3.8-0.3c-1.7-0.1-3.3-0.3-5-0.4c-1.1-0.1-2.2-0.3-3.3-0.4c-1.9-0.2-3.8-0.2-5.6-0.4c-1.2-0.1-2.4-0.4-3.6-0.6
			c-0.4-0.1-0.5-0.3-0.5-0.7c0-5.9,0-11.8,0-17.7c0-0.2-0.1-0.3-0.1-0.5C345.6,534.2,345.6,534,345.6,533.9z"/>
		<path d="M575.9,660.7c-0.1,0.7-0.5,0.6-1,0.6c-1.5-0.1-3.1-0.1-4.6-0.2c-0.6,0-1.2-0.1-1.7-0.3c-1.2-0.5-2.5-0.5-3.8-0.5
			c-0.8,0-1.6,0-2.4,0c-0.7,0-1.4-0.1-2.1-0.4c-0.6-0.3-1.4-0.4-2.1-0.4c-1.2-0.1-2.4-0.1-3.6,0c-1,0-1.8-0.2-2.7-0.5
			c-0.8-0.2-1.6-0.3-2.4-0.3c-0.8,0-1.7,0-2.5,0c-1,0-2,0-2.9-0.4c-1.5-0.5-3.1-0.4-4.7-0.4c-1.2,0-2.3-0.2-3.5-0.4
			c-1.4-0.3-2.8-0.3-4.3-0.3c-1.3,0-2.6,0-3.9-0.5c-0.6-0.2-1.4-0.2-2-0.3c-0.6,0-1.2,0-1.7,0c-1.5,0-2.9-0.1-4.4-0.5
			c-1.3-0.3-2.7-0.3-4.1-0.3c-1.2,0-2.3,0.1-3.5-0.4c-1.2-0.5-2.5-0.3-3.8-0.4c-1.6,0-3.1,0-4.7-0.5c-0.6-0.2-1.4-0.2-2-0.2
			c-1.4-0.1-2.8,0-4.3-0.1c-0.7,0-1.4-0.4-2.1-0.4c-1.1-0.1-2.2-0.1-3.3-0.2c-1.4-0.1-2.9,0-4.3-0.5c-0.7-0.2-1.5-0.2-2.3-0.3
			c-1.5-0.1-3,0.1-4.5-0.3c-2.5-0.6-5-0.4-7.5-0.7c-0.8-0.1-1.5-0.3-2.3-0.4c-1.3-0.2-2.6-0.3-3.8-0.4c-1.6-0.1-3.1-0.3-4.6-0.6
			c-1.3-0.2-2.6-0.2-3.9-0.3c-1.3-0.1-2.6-0.3-3.8-0.4c-1.2-0.1-2.5-0.2-3.7-0.3c-1.3-0.1-2.7-0.2-4-0.4c-1.6-0.1-3.2-0.3-4.7-0.4
			c-1.2-0.1-2.4-0.3-3.6-0.4c-1.2-0.1-2.5-0.3-3.7-0.4c-1.6-0.1-3.1-0.2-4.7-0.5c-1.6-0.3-3.3-0.2-4.9-0.4c-0.7-0.1-1.4-0.1-2.1-0.2
			c-1.9-0.5-3.9-0.4-5.9-0.5c-0.8-0.1-1.6-0.2-2.4-0.3c-1.4-0.1-2.9-0.4-4.3-0.4c-1.8,0-3.5-0.3-5.3-0.6c-0.8-0.1-1.7-0.2-2.5-0.2
			c-1.6,0-3.2-0.2-4.8-0.5c-1.5-0.3-3-0.2-4.5-0.3c-1-0.1-2-0.2-2.9-0.3c-1.6-0.2-3.1-0.4-4.7-0.4c-1.3-0.1-2.6-0.1-3.9-0.4
			c-0.8-0.2-1.7-0.2-2.5-0.3c-1.9-0.1-3.9-0.1-5.8-0.5c-1.5-0.3-3.2-0.2-4.7-0.3c-0.8-0.1-1.5-0.2-2.3-0.3c-1.7-0.2-3.4-0.3-5.1-0.5
			c-1.1-0.1-2.2-0.3-3.3-0.4c-1.5-0.1-2.9-0.3-4.4-0.4c-1.4,0-2.7-0.2-4.1-0.4c-1.2-0.2-2.4-0.2-3.6-0.4c-0.2,0-0.5-0.1-0.7-0.2
			c0-0.1,0-0.2,0-0.3c0-0.2,0.1-0.4,0.1-0.6c0-5.7,0-11.4,0-17.1c0-0.2-0.1-0.5-0.1-0.7c0,0,0-0.1,0-0.1c0.2-0.1,0.5-0.4,0.7-0.4
			c0.8-0.1,1.6-0.1,2.5-0.1c0.3,0,0.6,0.1,0.8,0.2c0.6,0.4,1.3,0.5,2,0.5c1.6,0,3.3,0,4.9,0c0.4,0,0.8,0.2,1.3,0.3
			c0.7,0.2,1.3,0.4,2,0.4c1.5,0.1,3,0,4.5,0c0.5,0,1.1,0.2,1.6,0.3c0.8,0.2,1.5,0.4,2.3,0.4c1.5,0.1,3,0,4.5,0c0.3,0,0.6,0,0.9,0.2
			c0.8,0.5,1.6,0.6,2.5,0.6c1.5,0,3,0,4.4,0c0.5,0,0.9,0.1,1.3,0.3c0.9,0.5,1.9,0.5,2.8,0.5c1.3,0,2.7,0,4,0c0.4,0,0.8,0.1,1.1,0.2
			c0.6,0.2,1.1,0.5,1.7,0.5c1.6,0.1,3.2,0.1,4.8,0c0.6,0,1.2,0.1,1.8,0.4c0.6,0.2,1.2,0.4,1.8,0.4c1.6,0,3.2,0,4.8,0
			c0.4,0,0.8,0.2,1.2,0.3c0.7,0.2,1.5,0.4,2.2,0.5c1.5,0.1,3,0,4.4,0c0.4,0,0.8,0,1.2,0.2c0.8,0.4,1.7,0.5,2.6,0.5
			c1.4,0,2.9,0,4.3,0c0.4,0,0.8,0.2,1.2,0.3c0.5,0.1,1,0.4,1.5,0.4c1.7,0.1,3.4,0,5.1,0.1c0.6,0,1.2,0.3,1.8,0.4
			c0.5,0.1,0.9,0.3,1.4,0.3c1.7,0,3.3,0,5,0c0.5,0,0.9,0.2,1.4,0.3c0.6,0.1,1.1,0.4,1.7,0.4c1.4,0.1,2.8,0.1,4.3,0
			c0.9,0,1.6,0.1,2.4,0.4c0.5,0.3,1.2,0.3,1.9,0.3c1.5,0,3,0,4.5,0c0.3,0,0.6,0,0.8,0.1c1.5,0.7,3,0.7,4.6,0.8c1.5,0.1,3,0,4.5,0.3
			c2.2,0.4,4.4,0.5,6.6,0.5c0.9,0,1.7,0.4,2.6,0.4c1.5,0.1,3.1,0.2,4.6,0.3c1,0.1,2,0.2,2.9,0.3c1.5,0.1,3.1,0.3,4.6,0.4
			c1.3,0.1,2.6,0.2,3.9,0.5c1.1,0.2,2.2,0.2,3.2,0.3c1.5,0,3,0.1,4.5,0.4c1.2,0.3,2.4,0.3,3.6,0.3c1.6,0,3.2,0.2,4.8,0.5
			c1.3,0.2,2.6,0.3,3.9,0.3c1.2,0,2.4,0.1,3.7,0.4c1.3,0.2,2.7,0.3,4,0.4c1.5,0.1,3,0.1,4.4,0.5c1.2,0.3,2.5,0.2,3.7,0.3
			c1.5,0.1,3,0.2,4.5,0.5c1.4,0.3,2.9,0.2,4.4,0.3c1.1,0.1,2.1,0.3,3.2,0.4c1.3,0.1,2.5,0.3,3.8,0.3c1.5,0,3,0.2,4.5,0.5
			c1.5,0.3,3,0.2,4.5,0.4c1.1,0.1,2.2,0.3,3.3,0.4c1.5,0.1,3.1,0.3,4.6,0.4c1.1,0.1,2.2,0.2,3.3,0.3c1.8,0.2,3.6,0.3,5.4,0.4
			c0.8,0.1,1.7,0.2,2.5,0.3c1.2,0.1,2.4,0.3,3.6,0.4c1.2,0.1,2.4,0.2,3.6,0.2c0.4,0,0.6,0.2,0.6,0.6c0,0.1,0.1,0.2,0.1,0.3
			c0,0.1,0,0.2,0,0.3c0,0.2-0.1,0.3-0.1,0.5c0,5.5,0,11,0,16.4c0,0.2,0.1,0.3,0.1,0.5C575.9,660.4,575.9,660.6,575.9,660.7z"/>
		<path d="M575.9,618c-0.2,0.1-0.5,0.2-0.7,0.2c-1,0.1-1.9,0.1-2.9,0.2c-0.3,0-0.6,0-0.8-0.1c-1-0.7-2.2-0.7-3.4-0.7
			c-1.3,0-2.5,0-3.8,0c-0.4,0-0.9-0.1-1.2-0.2c-1.2-0.5-2.6-0.5-3.9-0.5c-0.8,0-1.6,0.1-2.4,0c-0.7,0-1.4-0.2-2.1-0.3
			c-1.1-0.2-2.2-0.3-3.3-0.4c-0.7-0.1-1.4,0-2.1,0c-1,0.1-2-0.1-3-0.4c-0.6-0.2-1.2-0.3-1.9-0.3c-1.4,0-2.8,0-4.2,0
			c-0.4,0-0.9-0.1-1.3-0.2c-1-0.2-2-0.4-3-0.5c-0.8-0.1-1.6,0-2.5,0c-1.1,0-2.2-0.1-3.3-0.4c-1.4-0.3-2.8-0.3-4.3-0.3
			c-1.3,0-2.6-0.1-3.9-0.5c-1.1-0.3-2.3-0.3-3.5-0.3c-1.6,0-3.1,0-4.7-0.5c-0.9-0.3-1.8-0.2-2.8-0.3c-1.9,0-3.8,0.1-5.7-0.6
			c-0.5-0.2-1.1-0.2-1.7-0.2c-0.8,0-1.5,0-2.3,0c-1.2,0-2.3-0.1-3.4-0.4c-1.1-0.3-2.2-0.3-3.3-0.3c-1.6,0-3.3,0-4.9-0.5
			c-1-0.3-2.1-0.2-3.2-0.3c-1.2-0.1-2.5,0-3.7-0.2c-1.6-0.4-3.3-0.6-4.9-0.5c-1.6,0-3.1-0.2-4.7-0.6c-1.1-0.2-2.2-0.2-3.3-0.2
			c-0.6,0-1.2,0-1.7,0c-0.7,0-1.3-0.2-2-0.4c-0.6-0.3-1.4-0.4-2.1-0.4c-1.2-0.1-2.4-0.1-3.5-0.2c-1-0.1-2-0.2-3-0.3
			c-1.7-0.2-3.3-0.3-5-0.5c-1.1-0.1-2.2-0.3-3.3-0.4c-1.6-0.1-3.2-0.3-4.9-0.4c-1.2-0.1-2.4-0.2-3.7-0.4c-1.3-0.2-2.6-0.2-3.9-0.3
			c-1.3-0.1-2.6-0.3-3.8-0.4c-1.5-0.1-3.1-0.2-4.6-0.4c-1.2-0.1-2.4-0.3-3.5-0.4c-1.3-0.1-2.7-0.3-4-0.3c-1.3,0-2.5-0.1-3.8-0.4
			c-1.6-0.3-3.2-0.3-4.8-0.5c-0.9-0.1-1.9-0.1-2.8-0.3c-1.9-0.4-3.8-0.4-5.6-0.5c-1.2-0.1-2.4-0.4-3.6-0.5c-1.6-0.1-3.2-0.2-4.8-0.3
			c-0.7,0-1.4-0.2-2.1-0.3c-1.5-0.2-3.1-0.4-4.6-0.4c-1.5-0.1-3-0.3-4.4-0.5c-1.4-0.2-2.8-0.2-4.1-0.3c-1-0.1-1.9-0.2-2.9-0.3
			c-1.7-0.2-3.4-0.3-5.1-0.5c-1.1-0.1-2.3-0.2-3.4-0.3c-1.7-0.2-3.5-0.3-5.2-0.4c-0.8-0.1-1.6-0.1-2.4-0.2c-1.5-0.2-3-0.4-4.6-0.5
			c-1.5-0.1-3-0.2-4.6-0.5c-1.7-0.3-3.5-0.2-5.3-0.3c-0.1,0-0.3,0-0.4,0c-0.8-0.1-0.9-0.2-0.9-1c0-5.7,0-11.3,0-17
			c0-0.2,0-0.4,0-0.7c0-1.1,0-1.1,1.1-1.1c1.5,0,2.9,0,4.4,0c0.3,0,0.7,0,0.9,0.2c0.7,0.6,1.6,0.6,2.4,0.7c1.4,0,2.9,0,4.3,0
			c0.5,0,1.1,0.2,1.6,0.3c0.8,0.2,1.6,0.4,2.5,0.4c1.4,0.1,2.8,0,4.2,0c0.4,0,0.9,0.2,1.3,0.3c0.5,0.1,0.9,0.4,1.4,0.4
			c1.7,0.1,3.5,0,5.2,0.1c0.4,0,0.9,0.1,1.3,0.3c0.7,0.3,1.4,0.5,2.1,0.5c1.6,0,3.3,0,4.9,0c0.3,0,0.7,0,0.9,0.2
			c0.8,0.5,1.7,0.6,2.5,0.6c1.5,0,3,0,4.4,0c0.4,0,0.9,0.1,1.2,0.3c0.8,0.4,1.7,0.5,2.6,0.5c1.3,0,2.7,0,4,0c0.6,0,1.2,0.1,1.7,0.4
			c0.3,0.2,0.7,0.3,1.1,0.3c1.7,0,3.4,0,5.2,0.1c0.5,0,1.1,0.1,1.5,0.3c0.8,0.4,1.7,0.5,2.6,0.5c1.3,0,2.5,0,3.8,0
			c0.7,0,1.3,0.1,1.9,0.4c0.5,0.2,1.1,0.3,1.7,0.3c1.5,0,3,0,4.5,0c0.5,0,1.1,0.1,1.6,0.3c1.3,0.6,2.6,0.4,3.9,0.5c1,0,2,0,3,0
			c0.3,0,0.6,0,0.9,0.2c0.9,0.6,1.9,0.6,2.9,0.6c1.3,0,2.5,0,3.8,0c0.5,0,1.1,0.1,1.5,0.3c1,0.5,2.1,0.5,3.2,0.5c1,0,2.1,0,3.1-0.1
			c0.7,0,1.4,0.1,2,0.4c0.4,0.2,0.8,0.3,1.3,0.3c1.1,0.1,2.3,0.1,3.4,0.1c1.5,0,3,0.2,4.5,0.5c1.5,0.3,3,0.3,4.5,0.4
			c1.3,0.1,2.7,0.2,4,0.5c0.9,0.2,1.9,0.2,2.8,0.2c1.7,0.1,3.3,0.1,5,0.4c1.5,0.3,3,0.2,4.6,0.4c1.2,0.1,2.3,0.3,3.5,0.4
			c1.4,0.1,2.9,0.2,4.4,0.4c1.2,0.1,2.4,0.3,3.7,0.4c1.4,0.1,2.7,0.3,4.1,0.3c1.4,0,2.8,0.2,4.2,0.4c1.5,0.3,3,0.2,4.5,0.4
			c1.1,0.1,2.1,0.3,3.2,0.4c2,0.2,4.1,0.3,6.1,0.4c0.5,0,1,0.2,1.5,0.2c1.6,0.2,3.2,0.3,4.8,0.5c1.2,0.1,2.4,0.3,3.7,0.4
			c1.4,0.1,2.7,0.3,4.1,0.4c1.4,0,2.7,0.2,4.1,0.4c1.5,0.3,3.1,0.2,4.6,0.4c1,0.1,2,0.2,3,0.3c1.4,0.1,2.7,0.3,4.1,0.4
			c1.5,0.1,3,0.2,4.6,0.5c1.4,0.3,2.9,0.2,4.4,0.3c1.2,0.1,2.4,0.3,3.7,0.4c1,0.1,2,0.2,3.1,0.2c1.7,0,3.3,0.1,5,0.5
			c1,0.2,2,0.3,3.1,0.3c1.7,0,3.5,0.2,5.2,0.5c1.2,0.2,2.5,0.2,3.8,0.3c0.2,0,0.4,0.1,0.7,0.2c0,0.2,0,0.4,0,0.6
			c0,0.2-0.1,0.3-0.1,0.5c0,5.1,0,10.1,0,15.2c0,0.8,0.1,1.5,0.1,2.3C575.9,617.6,575.9,617.8,575.9,618z"/>
		<path d="M345.6,663.2c0.3-0.4,0.7-0.4,1.1-0.3c2.3,0.8,4.7,0.6,7.1,0.6c0.6,0,1.1,0.3,1.7,0.4c0.7,0.1,1.3,0.3,2,0.4
			c1.5,0,3,0,4.5,0c0.4,0,0.9,0.2,1.3,0.3c0.5,0.1,1,0.4,1.5,0.4c1.7,0.1,3.3,0,5,0.1c0.5,0,1.1,0.2,1.6,0.3
			c0.6,0.1,1.2,0.4,1.8,0.4c1.6,0.1,3.2,0,4.8,0c0.5,0,1,0.1,1.5,0.3c0.7,0.3,1.4,0.4,2.1,0.4c1.4,0.1,2.8,0,4.2,0
			c0.7,0,1.3,0.2,2,0.4c0.6,0.2,1.3,0.3,2,0.3c1.5,0,3,0,4.5,0c0.3,0,0.7,0.1,1,0.2c0.6,0.2,1.2,0.5,1.7,0.5c1.7,0.1,3.3,0,5,0.1
			c0.4,0,0.9,0,1.2,0.2c1,0.6,2,0.6,3.1,0.6c1.3,0,2.6-0.1,3.9,0c0.4,0,0.9,0.2,1.3,0.3c0.6,0.1,1.2,0.4,1.8,0.4
			c1.5,0.1,3,0.1,4.5,0c0.8,0,1.5,0.1,2.2,0.4c0.5,0.3,1.2,0.3,1.7,0.3c1.5,0,3,0,4.4,0c0.5,0,1.1,0.2,1.6,0.3
			c0.8,0.2,1.6,0.4,2.5,0.4c1.4,0.1,2.8,0,4.2,0c0.3,0,0.8,0,1,0.2c1,0.6,2.1,0.6,3.2,0.6c1.3,0,2.6,0,3.9,0c0.3,0,0.6,0,0.9,0.2
			c0.9,0.6,2,0.6,3,0.7c1.3,0,2.5,0,3.8,0c0.7,0,1.2,0.1,1.8,0.4c0.5,0.2,1,0.3,1.5,0.3c1.9,0.1,3.8,0.1,5.7,0.2
			c0.5,0,1,0.2,1.5,0.2c1.4,0.2,2.9,0.4,4.3,0.4c1.8,0,3.6,0.3,5.3,0.6c0.8,0.1,1.6,0.2,2.3,0.2c1.6,0,3.2,0.2,4.8,0.4
			c1.5,0.3,3,0.2,4.5,0.4c1,0.1,2.1,0.2,3.1,0.3c1.8,0.2,3.6,0.3,5.4,0.5c1,0.1,2,0.3,2.9,0.4c1.4,0.1,2.7,0.3,4.1,0.3
			c1.5,0.1,3,0.2,4.4,0.5c1.5,0.3,3.1,0.2,4.6,0.3c0.8,0.1,1.6,0.2,2.3,0.3c1.6,0.2,3.2,0.4,4.7,0.4c1.5,0.1,2.9,0.3,4.3,0.5
			c1.3,0.2,2.7,0.2,4.1,0.3c1.2,0.1,2.4,0.3,3.5,0.4c1.5,0.1,3,0.2,4.5,0.4c1.1,0.1,2.2,0.2,3.3,0.3c1.7,0.2,3.4,0.3,5.1,0.4
			c0.9,0.1,1.8,0.1,2.6,0.3c1.9,0.5,3.8,0.4,5.6,0.5c1.1,0.1,2.2,0.3,3.3,0.4c1,0.1,2,0.2,3,0.3c1.6,0.1,3.2,0.1,4.8,0.4
			c1.3,0.3,2.7,0.3,4,0.3c1.4,0,2.8,0.2,4.2,0.4c1.5,0.2,3.1,0.2,4.6,0.4c1.1,0.1,2.1,0.2,3.2,0.4c0.5,0.1,1,0.1,1.5,0.3
			c0.2,0.1,0.5,0.3,0.7,0.4c0,0.1,0,0.3,0,0.4c0,0.2-0.1,0.4-0.1,0.7c0,5.6,0,11.1,0,16.7c0,0.2,0.1,0.4,0.1,0.6c0,0.2,0,0.4,0,0.6
			c-0.5,0.4-1.1,0.3-1.6,0.2c-0.6-0.1-1.2-0.4-1.8-0.4c-1.7-0.1-3.5-0.1-5.2-0.1c-0.4,0-0.8,0-1.1-0.2c-1-0.5-2-0.5-3.1-0.6
			c-2-0.2-4.1,0.4-6.1-0.6c-1.7-0.1-3.3-0.2-5-0.2c-0.9,0-1.8,0.1-2.7-0.4c-0.2-0.1-0.4-0.1-0.6-0.1c-1.3-0.1-2.6-0.2-3.9-0.2
			c-1.3,0-2.6,0.1-3.8-0.5c-0.1,0-0.2-0.1-0.3-0.1c-1.7-0.1-3.4-0.2-5.2-0.2c-0.8,0-1.5,0-2.2-0.4c-0.3-0.1-0.6-0.2-1-0.2
			c-1.7-0.1-3.4-0.1-5-0.2c-0.7,0-1.3-0.2-2-0.4c-0.4-0.1-0.8-0.2-1.1-0.2c-1.8-0.1-3.5-0.1-5.3-0.1c-0.3,0-0.7,0-0.9-0.1
			c-1.3-0.6-2.7-0.6-4-0.7c-1.8-0.1-3.6,0.4-5.2-0.5c0,0-0.1,0-0.2,0c-1.6-0.1-3.2-0.2-4.9-0.2c-0.9,0-1.7,0-2.5-0.4
			c-0.2-0.1-0.5-0.2-0.8-0.2c-1.8-0.1-3.6-0.2-5.4-0.3c-0.4,0-0.8,0-1.1-0.1c-1.7-0.3-3.5-0.6-5.3-0.7c-1.1,0-2.2-0.1-3.4-0.2
			c-1.5-0.1-3-0.4-4.6-0.5c-1.2-0.1-2.4,0-3.5-0.3c-1.8-0.4-3.6-0.5-5.5-0.6c-0.8,0-1.6,0-2.3-0.2c-1.9-0.4-3.8-0.6-5.8-0.6
			c-0.8,0-1.6,0-2.3-0.2c-2.1-0.5-4.3-0.6-6.5-0.6c-0.4,0-0.8,0-1.1-0.1c-1.8-0.4-3.6-0.7-5.5-0.7c-1,0-2.1,0-3.1-0.2
			c-1.7-0.4-3.4-0.5-5.1-0.6c-0.9,0-1.9,0-2.8-0.2c-1.8-0.3-3.6-0.6-5.5-0.6c-1.2,0-2.3-0.2-3.5-0.3c-1.5-0.1-2.9-0.3-4.4-0.4
			c-1-0.1-2,0-3-0.2c-2.1-0.4-4.2-0.6-6.3-0.6c-0.4,0-0.8,0-1.2-0.1c-2.4-0.6-4.9-0.7-7.4-0.7c-0.2,0-0.5,0-0.7-0.1
			c-1.8-0.3-3.5-0.7-5.3-0.7c-1.1,0-2.2,0-3.2-0.2c-1.7-0.3-3.4-0.5-5.1-0.6c-0.9,0-1.8,0-2.7-0.2c-1.8-0.3-3.7-0.6-5.6-0.6
			c-1.1,0-2.2-0.1-3.2-0.3c-1-0.1-2-0.3-3-0.4c-1.3-0.1-2.6,0.1-3.8-0.2c-2.6-0.5-5.1-0.8-7.7-0.7c-0.1,0-0.3,0-0.4,0
			c-1.7-0.3-3.4-0.7-5.1-0.7c-1.2,0-2.4-0.1-3.5-0.2c-0.8-0.1-1.6-0.3-2.4-0.4c-2.5-0.3-5,0-7.4-0.7c-1.1-0.3-1.2-0.2-1.2-1.3
			c0-5.7,0-11.5,0-17.2c0-0.2-0.1-0.3-0.1-0.5C345.6,663.4,345.6,663.3,345.6,663.2z"/>
		<path fill="#FFFFFF" d="M345.6,620.6c0,0.2,0.1,0.5,0.1,0.7c0,5.7,0,11.4,0,17.1c0,0.2-0.1,0.4-0.1,0.6
			C345.6,632.8,345.6,626.7,345.6,620.6z"/>
		<path fill="#FFFFFF" d="M345.6,491.3c0,0.2,0.1,0.5,0.1,0.7c0,5.7,0,11.4,0,17c0,0.2-0.1,0.4-0.1,0.6
			C345.6,503.5,345.6,497.4,345.6,491.3z"/>
		<path fill="#FFFFFF" d="M575.9,574.5c0-0.2-0.1-0.4-0.1-0.6c0-5.6,0-11.2,0-16.8c0-0.2,0.1-0.4,0.1-0.6
			C575.9,562.5,575.9,568.5,575.9,574.5z"/>
		<path fill="#FFFFFF" d="M575.9,617.4c0-0.8-0.1-1.5-0.1-2.3c0-5.1,0-10.1,0-15.2c0-0.2,0.1-0.3,0.1-0.5
			C575.9,605.4,575.9,611.4,575.9,617.4z"/>
		<path fill="#FFFFFF" d="M575.9,703.7c0-0.2-0.1-0.4-0.1-0.6c0-5.6,0-11.1,0-16.7c0-0.2,0.1-0.4,0.1-0.7
			C575.9,691.8,575.9,697.8,575.9,703.7z"/>
		<path fill="#FFFFFF" d="M575.9,531.1c0-0.2-0.1-0.4-0.1-0.6c0-5.4,0-10.8,0-16.2c0-0.2,0.1-0.4,0.1-0.6
			C575.9,519.5,575.9,525.3,575.9,531.1z"/>
		<path fill="#FFFFFF" d="M575.9,660.3c0-0.2-0.1-0.3-0.1-0.5c0-5.5,0-11,0-16.4c0-0.2,0.1-0.3,0.1-0.5
			C575.9,648.7,575.9,654.5,575.9,660.3z"/>
		<path fill="#FFFFFF" d="M348.1,490.5c-0.6,0.1-1.2,0.1-1.8,0.2c-0.3,0.1-0.5,0.3-0.7,0.4c0-0.2,0-0.4,0-0.7
			C346.4,490.5,347.3,490.5,348.1,490.5z"/>
	</g>
</g>
<g>
</g>
<g>
</g>
<g>
</g>
<g>
</g>
<g>
</g>
<g>
</g>
</svg>
