<svg xmlns="http://www.w3.org/2000/svg" viewBox="0 0 2048.75 2048.75"><defs><style>.cls-1{fill:none;stroke:#000;stroke-miterlimit:10;stroke-width:0.75px;}</style></defs><title>pattern5</title><g id="HASHTAG"><path d="M1284,1389.56h13.7l3.53-16.83h8.31l-3.51,16.83h15.52l3.5-16.83h8.3l-3.48,16.83h7.35v8.35h-9.08l-2.75,13.27h11.83v8.31h-13.55l-3.46,16.7h-8.35l3.47-16.7h-15.54l-3.48,16.7H1288l3.51-16.7H1284v-8.31h9.16l2.79-13.27h-12Zm20.29,8.35-2.77,13.27h15.54l2.76-13.27Z" transform="translate(0.38 0.38)"/><path d="M1342.53,1365h18.64a43.73,43.73,0,0,1,11.62,1.19,12.93,12.93,0,0,1,6.11,3.43,11.83,11.83,0,0,1,2.77,5.42,49,49,0,0,1,.72,9.87v6.19q0,6.83-1.4,9.94a9.66,9.66,0,0,1-5.17,4.79,24.47,24.47,0,0,1-9.82,1.67h-5v28.65h-18.51Zm18.51,12.17v18.11c.52,0,1,0,1.36,0,1.7,0,2.88-.41,3.53-1.25s1-2.57,1-5.21v-5.84c0-2.43-.38-4-1.14-4.75S1363.44,1377.21,1361,1377.21Z" transform="translate(0.38 0.38)"/><path d="M1417.45,1365l10.58,71.15h-18.91l-1-12.79h-6.62l-1.11,12.79h-19.13l9.44-71.15Zm-9.81,45.75q-1.4-12.09-2.81-29.88-2.83,20.43-3.55,29.88Z" transform="translate(0.38 0.38)"/><path d="M1470.37,1386.57h-17.18v-5.27c0-2.46-.22-4-.66-4.7a2.41,2.41,0,0,0-2.2-1,2.81,2.81,0,0,0-2.53,1.36,7.93,7.93,0,0,0-.85,4.13,11.76,11.76,0,0,0,1,5.37c.61,1.2,2.36,2.65,5.23,4.35q12.36,7.34,15.56,12t3.21,15.17q0,7.59-1.78,11.2t-6.88,6a27.13,27.13,0,0,1-11.86,2.44,26.6,26.6,0,0,1-12.68-2.81q-5.25-2.8-6.88-7.16t-1.62-12.35v-4.66h17.18v8.66c0,2.66.24,4.38.72,5.14a2.81,2.81,0,0,0,2.57,1.14,3,3,0,0,0,2.75-1.45,8.29,8.29,0,0,0,.9-4.31q0-6.27-1.71-8.21t-8.66-6.46a84.51,84.51,0,0,1-9.14-6.64,15.58,15.58,0,0,1-3.71-5.71,25,25,0,0,1-1.48-9.32q0-8.18,2.09-12a14,14,0,0,1,6.75-5.91,26.89,26.89,0,0,1,11.25-2.13,29.19,29.19,0,0,1,12.28,2.33c3.38,1.55,5.63,3.5,6.72,5.86s1.65,6.37,1.65,12Z" transform="translate(0.38 0.38)"/><path d="M1509.69,1365l10.58,71.15h-18.91l-1-12.79h-6.62l-1.11,12.79h-19.13L1483,1365Zm-9.8,45.75q-1.41-12.09-2.82-29.88-2.83,20.43-3.55,29.88Z" transform="translate(0.38 0.38)"/><path d="M1523.41,1365h30.85v14.24h-12.35v13.49h11.56v13.54h-11.56V1422h13.58v14.24h-32.08Z" transform="translate(0.38 0.38)"/><path d="M1579.31,1365V1422h11.25v14.24h-29.75V1365Z" transform="translate(0.38 0.38)"/><path d="M1595,1365h18.46q8.74,0,13.25,1.36a13.16,13.16,0,0,1,7.27,5.51q2.77,4.15,2.77,13.38,0,6.23-2,8.69t-7.72,3.78q6.42,1.46,8.71,4.81t2.28,10.31v6.6q0,7.21-1.65,10.68a8.88,8.88,0,0,1-5.25,4.75q-3.6,1.27-14.76,1.28H1595Zm18.5,12.17V1393l1.85,0c1.82,0,3-.45,3.47-1.34s.75-3.45.75-7.67a12.42,12.42,0,0,0-.62-4.68,2.94,2.94,0,0,0-1.6-1.69A14.44,14.44,0,0,0,1613.54,1377.21Zm0,26.9V1424q3.92-.13,5-1.23t1.08-5.41v-6.64c0-3-.32-4.89-1-5.53S1616.3,1404.2,1613.54,1404.11Z" transform="translate(0.38 0.38)"/><path d="M1676.73,1365l10.58,71.15H1668.4l-1-12.79h-6.62l-1.11,12.79h-19.13L1650,1365Zm-9.81,45.75q-1.39-12.09-2.82-29.88-2.82,20.43-3.55,29.88Z" transform="translate(0.38 0.38)"/><path d="M1709,1365V1422h11.25v14.24h-29.75V1365Z" transform="translate(0.38 0.38)"/><path d="M1765.6,1406.7q0,10.72-.51,15.18a17,17,0,0,1-10.35,13.83,26.3,26.3,0,0,1-10.55,2,26.72,26.72,0,0,1-10.26-1.87,17.12,17.12,0,0,1-10.61-13.73,150.38,150.38,0,0,1-.53-15.38v-12.17q0-10.72.51-15.18a17,17,0,0,1,10.35-13.83,26.29,26.29,0,0,1,10.54-2,27,27,0,0,1,10.27,1.86,17.15,17.15,0,0,1,10.61,13.74,150.51,150.51,0,0,1,.53,15.38Zm-18.51-23.38q0-5-.55-6.35a2.18,2.18,0,0,0-2.26-1.38,2.54,2.54,0,0,0-2.22,1.12q-.76,1.13-.77,6.61v33.22c0,4.14.17,6.68.51,7.65a2.2,2.2,0,0,0,2.35,1.45,2.27,2.27,0,0,0,2.42-1.67q.53-1.67.52-8Z" transform="translate(0.38 0.38)"/><path d="M1813.8,1365v71.15h-16.21l-9.63-32.35v32.35H1772.5V1365H1788l10.37,32v-32Z" transform="translate(0.38 0.38)"/></g><g id="PATTERN_05" data-name="PATTERN 05"><rect class="cls-1" x="0.38" y="0.38" width="2048" height="2048"/></g></svg>