<svg xmlns="http://www.w3.org/2000/svg" viewBox="0 0 2098.75 2149.64"><defs><style>.cls-1{fill:none;stroke:#000;stroke-miterlimit:10;stroke-width:0.75px;}</style></defs><title>pattern4</title><g id="Layer_5" data-name="Layer 5"><path d="M1225.13,1268.12c13.73,0,27.46.07,41.2-.08a5,5,0,0,1,4.94,2.82q20.6,35.9,41.35,71.56c1.25,2.11,1.09,3.61-.08,5.65q-20.83,35.78-41.35,71.63a4.91,4.91,0,0,1-4.94,2.9c-27.62-.08-55.16-.08-82.78,0a4.6,4.6,0,0,1-4.63-2.59c-13.81-24.16-27.77-48.17-41.58-72.34a5.81,5.81,0,0,1,0-4.86c13.81-24.17,27.77-48.18,41.58-72.34,1.26-2.12,2.67-2.43,4.71-2.43C1197.44,1268.12,1211.33,1268.12,1225.13,1268.12Zm-.07,4.78c-12.79,0-25.66.08-38.45-.08a5.13,5.13,0,0,0-5.18,3c-12.79,22.37-25.73,44.57-38.44,66.93a5.66,5.66,0,0,0-.08,4.79q19.3,33.88,39,67.47a5.64,5.64,0,0,0,4.16,2.43c25.89.16,51.78.08,77.68.16a4.7,4.7,0,0,0,4.63-2.67q19.29-33.66,38.75-67.16a4.47,4.47,0,0,0-.15-5.26q-19.31-33.42-38.53-66.84a5,5,0,0,0-4.94-2.83C1250.63,1273,1237.84,1272.9,1225.06,1272.9Z" transform="translate(46.09 101.27)"/><path d="M1372.84,1182.8c13.73,0,27.46.07,41.19-.08a5,5,0,0,1,4.94,2.82q20.6,35.89,41.35,71.56c1.25,2.12,1.1,3.61-.08,5.65q-20.84,35.77-41.35,71.63a4.91,4.91,0,0,1-4.94,2.9c-27.62-.08-55.16-.08-82.78,0a4.58,4.58,0,0,1-4.62-2.59c-13.81-24.16-27.78-48.17-41.59-72.34a5.89,5.89,0,0,1,0-4.86c13.81-24.17,27.78-48.17,41.59-72.34,1.25-2.12,2.66-2.43,4.7-2.43C1345.14,1182.8,1359,1182.8,1372.84,1182.8Zm-.08,4.78c-12.79,0-25.66.08-38.45-.08a5.12,5.12,0,0,0-5.18,3c-12.78,22.36-25.73,44.56-38.44,66.92a5.69,5.69,0,0,0-.08,4.79c12.87,22.59,25.81,45.11,39,67.47a5.6,5.6,0,0,0,4.15,2.43c25.9.16,51.79.08,77.68.16a4.7,4.7,0,0,0,4.63-2.67q19.29-33.66,38.76-67.16a4.46,4.46,0,0,0-.16-5.25q-19.31-33.43-38.52-66.85a5,5,0,0,0-5-2.83C1398.34,1187.66,1385.55,1187.58,1372.76,1187.58Z" transform="translate(46.09 101.27)"/><path d="M1225,1097.46c13.73,0,27.46.07,41.19-.08a5,5,0,0,1,4.94,2.82q20.6,35.9,41.35,71.56c1.25,2.11,1.1,3.61-.08,5.65q-20.84,35.77-41.35,71.63a4.91,4.91,0,0,1-4.94,2.9c-27.62-.08-55.16-.08-82.78,0a4.6,4.6,0,0,1-4.63-2.59c-13.8-24.16-27.77-48.17-41.58-72.34a5.89,5.89,0,0,1,0-4.86c13.81-24.17,27.78-48.17,41.58-72.34,1.26-2.12,2.67-2.43,4.71-2.43C1197.29,1097.46,1211.18,1097.46,1225,1097.46Zm-.08,4.78c-12.79,0-25.66.08-38.45-.08a5.12,5.12,0,0,0-5.18,3c-12.78,22.36-25.73,44.56-38.44,66.92a5.66,5.66,0,0,0-.08,4.79q19.31,33.89,39,67.47a5.64,5.64,0,0,0,4.16,2.43c25.89.16,51.79.08,77.68.16a4.7,4.7,0,0,0,4.63-2.67q19.29-33.66,38.75-67.16a4.45,4.45,0,0,0-.15-5.25q-19.3-33.43-38.53-66.85a5,5,0,0,0-4.94-2.83C1250.48,1102.32,1237.7,1102.24,1224.91,1102.24Z" transform="translate(46.09 101.27)"/><path d="M1373.06,1010.13c13.73,0,27.46.07,41.19-.08a5,5,0,0,1,4.94,2.82q20.6,35.89,41.35,71.56c1.26,2.12,1.1,3.61-.08,5.65q-20.82,35.78-41.34,71.63a4.92,4.92,0,0,1-4.95,2.9c-27.62-.08-55.15-.08-82.77,0a4.6,4.6,0,0,1-4.63-2.59c-13.81-24.16-27.78-48.17-41.58-72.34a5.81,5.81,0,0,1,0-4.86c13.8-24.17,27.77-48.17,41.58-72.34,1.25-2.12,2.67-2.43,4.71-2.43C1345.36,1010.13,1359.25,1010.13,1373.06,1010.13Zm-.08,4.78c-12.79,0-25.65.08-38.44-.08a5.11,5.11,0,0,0-5.18,3c-12.79,22.36-25.74,44.56-38.45,66.92a5.73,5.73,0,0,0-.08,4.79q19.31,33.88,39,67.47a5.64,5.64,0,0,0,4.16,2.43c25.89.16,51.78.08,77.67.16a4.69,4.69,0,0,0,4.63-2.67q19.31-33.66,38.76-67.16a4.45,4.45,0,0,0-.16-5.25q-19.29-33.43-38.52-66.85a5,5,0,0,0-4.94-2.83C1398.56,1015,1385.77,1014.91,1373,1014.91Z" transform="translate(46.09 101.27)"/><path d="M1520.76,924.81c13.73,0,27.46.08,41.19-.08a5,5,0,0,1,5,2.82q20.6,35.9,41.34,71.56c1.26,2.12,1.1,3.61-.07,5.65q-20.84,35.77-41.35,71.63a4.91,4.91,0,0,1-5,2.9c-27.61-.08-55.15-.08-82.77,0a4.6,4.6,0,0,1-4.63-2.59c-13.81-24.16-27.77-48.17-41.58-72.34a5.81,5.81,0,0,1,0-4.86c13.81-24.17,27.77-48.17,41.58-72.34,1.26-2.12,2.67-2.43,4.71-2.43C1493.07,924.81,1507,924.81,1520.76,924.81Zm-.08,4.78c-12.79,0-25.65.08-38.44-.08a5.12,5.12,0,0,0-5.18,3c-12.79,22.36-25.73,44.56-38.44,66.92a5.66,5.66,0,0,0-.08,4.79q19.29,33.88,39,67.47a5.64,5.64,0,0,0,4.16,2.43c25.89.16,51.78.08,77.67.16a4.69,4.69,0,0,0,4.63-2.67q19.3-33.66,38.76-67.16a4.45,4.45,0,0,0-.16-5.25q-19.29-33.44-38.52-66.85a5,5,0,0,0-4.94-2.83C1546.26,929.67,1533.47,929.59,1520.68,929.59Z" transform="translate(46.09 101.27)"/><path d="M1372.91,839.47c13.73,0,27.46.08,41.19-.08a5,5,0,0,1,4.94,2.82q20.6,35.89,41.35,71.56c1.26,2.12,1.1,3.61-.08,5.65q-20.82,35.77-41.34,71.63a4.91,4.91,0,0,1-5,2.9c-27.61-.08-55.15-.08-82.77,0a4.6,4.6,0,0,1-4.63-2.59c-13.81-24.16-27.77-48.17-41.58-72.34a5.81,5.81,0,0,1,0-4.86c13.81-24.17,27.77-48.17,41.58-72.34,1.26-2.12,2.67-2.43,4.71-2.43C1345.21,839.47,1359.1,839.47,1372.91,839.47Zm-.08,4.78c-12.79,0-25.65.08-38.44-.08a5.11,5.11,0,0,0-5.18,3c-12.79,22.36-25.74,44.56-38.45,66.92a5.69,5.69,0,0,0-.07,4.79q19.29,33.89,39,67.47a5.64,5.64,0,0,0,4.16,2.43c25.89.16,51.78.08,77.67.16a4.69,4.69,0,0,0,4.63-2.67q19.3-33.66,38.76-67.16a4.45,4.45,0,0,0-.16-5.25q-19.29-33.44-38.52-66.85a5,5,0,0,0-4.94-2.83C1398.41,844.33,1385.62,844.25,1372.83,844.25Z" transform="translate(46.09 101.27)"/><path d="M1520.61,1267.63c13.73,0,27.46.08,41.19-.08a5,5,0,0,1,4.94,2.83q20.6,35.89,41.35,71.55c1.25,2.12,1.1,3.61-.08,5.65q-20.84,35.78-41.35,71.63a4.91,4.91,0,0,1-4.94,2.91c-27.62-.08-55.16-.08-82.77,0a4.6,4.6,0,0,1-4.63-2.59c-13.81-24.17-27.78-48.18-41.59-72.34a5.91,5.91,0,0,1,0-4.87c13.81-24.16,27.78-48.17,41.59-72.33,1.25-2.12,2.66-2.44,4.7-2.44C1492.91,1267.63,1506.8,1267.63,1520.61,1267.63Zm-.08,4.79c-12.79,0-25.66.08-38.45-.08a5.1,5.1,0,0,0-5.17,3c-12.79,22.36-25.74,44.57-38.45,66.93a5.71,5.71,0,0,0-.08,4.78q19.3,33.9,39,67.48a5.63,5.63,0,0,0,4.16,2.43c25.89.16,51.78.08,77.67.16a4.72,4.72,0,0,0,4.63-2.67c12.87-22.44,25.73-44.8,38.76-67.16a4.48,4.48,0,0,0-.16-5.26q-19.31-33.42-38.52-66.85a5,5,0,0,0-5-2.82C1546.11,1272.5,1533.32,1272.42,1520.53,1272.42Z" transform="translate(46.09 101.27)"/><path d="M1668.31,1182.31c13.73,0,27.46.08,41.19-.08a5,5,0,0,1,4.94,2.83q20.6,35.89,41.35,71.55c1.26,2.12,1.1,3.61-.08,5.65q-20.82,35.77-41.34,71.63a4.93,4.93,0,0,1-4.95,2.91c-27.62-.08-55.15-.08-82.77,0a4.6,4.6,0,0,1-4.63-2.59c-13.81-24.17-27.78-48.17-41.58-72.34a5.81,5.81,0,0,1,0-4.86c13.8-24.17,27.77-48.18,41.58-72.34,1.25-2.12,2.67-2.44,4.71-2.44C1640.61,1182.31,1654.5,1182.31,1668.31,1182.31Zm-.08,4.79c-12.79,0-25.65.08-38.44-.08a5.11,5.11,0,0,0-5.18,3c-12.79,22.36-25.74,44.57-38.45,66.93a5.71,5.71,0,0,0-.08,4.78q19.31,33.9,39,67.48a5.67,5.67,0,0,0,4.16,2.43c25.89.16,51.78.08,77.67.16a4.71,4.71,0,0,0,4.63-2.67q19.31-33.66,38.76-67.16a4.47,4.47,0,0,0-.16-5.26q-19.29-33.42-38.52-66.85a5,5,0,0,0-4.94-2.82C1693.81,1187.18,1681,1187.1,1668.23,1187.1Z" transform="translate(46.09 101.27)"/><path d="M1520.46,1097c13.73,0,27.46.08,41.19-.08a5,5,0,0,1,4.94,2.83q20.6,35.9,41.35,71.55c1.26,2.12,1.1,3.61-.08,5.65q-20.83,35.77-41.35,71.63a4.91,4.91,0,0,1-4.94,2.91c-27.62-.08-55.16-.08-82.77,0a4.6,4.6,0,0,1-4.63-2.59c-13.81-24.17-27.78-48.18-41.59-72.34a5.91,5.91,0,0,1,0-4.87c13.81-24.16,27.78-48.17,41.59-72.33,1.25-2.12,2.67-2.44,4.71-2.44C1492.76,1097,1506.65,1097,1520.46,1097Zm-.08,4.79c-12.79,0-25.66.08-38.44-.08a5.11,5.11,0,0,0-5.18,3c-12.79,22.36-25.74,44.57-38.45,66.93a5.71,5.71,0,0,0-.08,4.78q19.3,33.9,39,67.48a5.63,5.63,0,0,0,4.16,2.43c25.89.16,51.78.08,77.67.16a4.71,4.71,0,0,0,4.63-2.67c12.87-22.44,25.73-44.8,38.76-67.16a4.47,4.47,0,0,0-.16-5.26q-19.3-33.42-38.52-66.85a5,5,0,0,0-4.94-2.82C1546,1101.84,1533.17,1101.76,1520.38,1101.76Z" transform="translate(46.09 101.27)"/><path d="M1668.53,1009.64c13.73,0,27.46.08,41.19-.08a5,5,0,0,1,5,2.83q20.6,35.89,41.34,71.55c1.26,2.12,1.1,3.61-.07,5.65q-20.84,35.78-41.35,71.63a4.91,4.91,0,0,1-4.94,2.91c-27.62-.08-55.16-.08-82.78,0a4.6,4.6,0,0,1-4.63-2.59c-13.81-24.17-27.77-48.18-41.58-72.34a5.81,5.81,0,0,1,0-4.86c13.81-24.17,27.77-48.18,41.58-72.34,1.26-2.12,2.67-2.44,4.71-2.44C1640.84,1009.64,1654.72,1009.64,1668.53,1009.64Zm-.08,4.79c-12.78,0-25.65.08-38.44-.08a5.11,5.11,0,0,0-5.18,3c-12.79,22.36-25.73,44.57-38.44,66.93a5.64,5.64,0,0,0-.08,4.78q19.31,33.9,39,67.48a5.67,5.67,0,0,0,4.16,2.43c25.89.16,51.78.08,77.67.16a4.7,4.7,0,0,0,4.63-2.67q19.31-33.66,38.76-67.16a4.48,4.48,0,0,0-.15-5.26q-19.3-33.42-38.53-66.85a5,5,0,0,0-4.94-2.82C1694,1014.51,1681.24,1014.43,1668.45,1014.43Z" transform="translate(46.09 101.27)"/><path d="M1816.24,924.32c13.73,0,27.46.08,41.19-.08a5,5,0,0,1,4.94,2.83q20.6,35.89,41.35,71.55c1.25,2.12,1.1,3.61-.08,5.65q-20.84,35.77-41.35,71.64a4.92,4.92,0,0,1-4.94,2.9c-27.62-.08-55.16-.08-82.78,0a4.6,4.6,0,0,1-4.63-2.59c-13.8-24.17-27.77-48.17-41.58-72.34a5.89,5.89,0,0,1,0-4.86c13.81-24.17,27.78-48.18,41.58-72.34,1.26-2.12,2.67-2.44,4.71-2.44C1788.54,924.32,1802.43,924.32,1816.24,924.32Zm-.08,4.79c-12.79,0-25.66.08-38.45-.08a5.13,5.13,0,0,0-5.18,3c-12.78,22.36-25.73,44.57-38.44,66.93a5.64,5.64,0,0,0-.08,4.78q19.31,33.9,39,67.48a5.67,5.67,0,0,0,4.16,2.43c25.89.16,51.79.08,77.68.16a4.72,4.72,0,0,0,4.63-2.67q19.29-33.66,38.75-67.16a4.47,4.47,0,0,0-.15-5.26q-19.3-33.42-38.53-66.84a5,5,0,0,0-4.94-2.83C1841.73,929.19,1829,929.11,1816.16,929.11Z" transform="translate(46.09 101.27)"/><path d="M1668.38,839c13.73,0,27.46.08,41.2-.08a5,5,0,0,1,4.94,2.83q20.6,35.89,41.35,71.55c1.25,2.12,1.09,3.61-.08,5.65q-20.83,35.77-41.35,71.64a4.92,4.92,0,0,1-4.94,2.9c-27.62-.08-55.16-.08-82.78,0a4.6,4.6,0,0,1-4.63-2.59c-13.81-24.17-27.77-48.17-41.58-72.34a5.81,5.81,0,0,1,0-4.86c13.81-24.17,27.77-48.18,41.58-72.34,1.26-2.12,2.67-2.44,4.71-2.44C1640.69,839,1654.58,839,1668.38,839Zm-.07,4.79c-12.79,0-25.66.08-38.45-.08a5.11,5.11,0,0,0-5.18,3c-12.79,22.36-25.73,44.57-38.44,66.93a5.64,5.64,0,0,0-.08,4.78q19.3,33.9,39,67.48a5.67,5.67,0,0,0,4.16,2.43c25.89.16,51.78.08,77.68.16a4.72,4.72,0,0,0,4.63-2.67q19.29-33.66,38.75-67.16a4.47,4.47,0,0,0-.15-5.26q-19.31-33.42-38.53-66.85a5,5,0,0,0-4.94-2.82C1693.88,843.85,1681.09,843.77,1668.31,843.77Z" transform="translate(46.09 101.27)"/><path d="M929.4,926.81c13.73,0,27.46.08,41.19-.08a5,5,0,0,1,4.95,2.83q20.6,35.9,41.34,71.55c1.26,2.12,1.1,3.61-.07,5.65q-20.84,35.77-41.35,71.63a4.91,4.91,0,0,1-4.94,2.91c-27.62-.08-55.16-.08-82.78,0a4.6,4.6,0,0,1-4.63-2.59c-13.81-24.17-27.77-48.18-41.58-72.34a5.83,5.83,0,0,1,0-4.87c13.81-24.16,27.77-48.17,41.58-72.34,1.26-2.11,2.67-2.43,4.71-2.43C901.71,926.81,915.59,926.81,929.4,926.81Zm-.08,4.79c-12.78,0-25.65.07-38.44-.08a5.11,5.11,0,0,0-5.18,3c-12.79,22.36-25.73,44.56-38.44,66.92a5.66,5.66,0,0,0-.08,4.79q19.3,33.9,39,67.47a5.65,5.65,0,0,0,4.16,2.44c25.89.15,51.78.08,77.67.15a4.69,4.69,0,0,0,4.63-2.66q19.3-33.66,38.76-67.16a4.48,4.48,0,0,0-.15-5.26q-19.31-33.42-38.53-66.85a5,5,0,0,0-4.94-2.82C954.9,931.67,942.11,931.6,929.32,931.6Z" transform="translate(46.09 101.27)"/><path d="M1077.11,841.49c13.73,0,27.46.08,41.19-.08a5,5,0,0,1,4.94,2.83q20.6,35.89,41.35,71.55c1.25,2.12,1.1,3.61-.08,5.65q-20.84,35.77-41.35,71.63a4.91,4.91,0,0,1-4.94,2.91c-27.62-.08-55.16-.08-82.78,0a4.6,4.6,0,0,1-4.63-2.59c-13.8-24.17-27.77-48.18-41.58-72.34a5.91,5.91,0,0,1,0-4.87C1003,892,1017,868,1030.81,843.84c1.26-2.11,2.67-2.43,4.71-2.43C1049.41,841.49,1063.3,841.49,1077.11,841.49Zm-.08,4.79c-12.79,0-25.66.08-38.45-.08a5.11,5.11,0,0,0-5.18,3c-12.79,22.36-25.73,44.56-38.44,66.93a5.64,5.64,0,0,0-.08,4.78q19.3,33.9,39,67.48a5.67,5.67,0,0,0,4.16,2.43c25.89.15,51.79.08,77.68.15a4.71,4.71,0,0,0,4.63-2.66q19.29-33.66,38.75-67.16a4.46,4.46,0,0,0-.15-5.26q-19.31-33.42-38.53-66.85a5,5,0,0,0-4.94-2.82C1102.6,846.36,1089.82,846.28,1077,846.28Z" transform="translate(46.09 101.27)"/><path d="M929.25,756.15c13.73,0,27.46.08,41.19-.08a5,5,0,0,1,4.95,2.83q20.6,35.9,41.35,71.55c1.25,2.12,1.09,3.61-.08,5.65q-20.83,35.77-41.35,71.63a4.91,4.91,0,0,1-4.94,2.91c-27.62-.08-55.16-.08-82.78,0a4.6,4.6,0,0,1-4.63-2.59c-13.81-24.17-27.77-48.18-41.58-72.34a5.83,5.83,0,0,1,0-4.87c13.81-24.16,27.77-48.17,41.58-72.34,1.26-2.11,2.67-2.43,4.71-2.43C901.56,756.15,915.45,756.15,929.25,756.15Zm-.07,4.79c-12.79,0-25.66.07-38.45-.08a5.11,5.11,0,0,0-5.18,3c-12.79,22.36-25.73,44.56-38.44,66.92a5.66,5.66,0,0,0-.08,4.79q19.31,33.9,39,67.48a5.67,5.67,0,0,0,4.16,2.43c25.89.15,51.78.08,77.68.15a4.69,4.69,0,0,0,4.62-2.66q19.31-33.66,38.76-67.16a4.48,4.48,0,0,0-.15-5.26q-19.3-33.42-38.53-66.85a5,5,0,0,0-4.94-2.82C954.75,761,942,760.94,929.18,760.94Z" transform="translate(46.09 101.27)"/><path d="M1077.33,668.82c13.73,0,27.46.08,41.19-.08a5,5,0,0,1,4.94,2.83q20.6,35.89,41.35,71.55c1.26,2.12,1.1,3.61-.08,5.65q-20.84,35.78-41.35,71.63a4.91,4.91,0,0,1-4.94,2.91c-27.62-.08-55.16-.08-82.77,0a4.6,4.6,0,0,1-4.63-2.59c-13.81-24.17-27.78-48.18-41.59-72.34a5.91,5.91,0,0,1,0-4.87c13.81-24.16,27.78-48.17,41.59-72.34,1.25-2.11,2.67-2.43,4.71-2.43C1049.63,668.82,1063.52,668.82,1077.33,668.82Zm-.08,4.79c-12.79,0-25.66.07-38.44-.08a5.11,5.11,0,0,0-5.18,3c-12.79,22.36-25.74,44.56-38.45,66.92a5.73,5.73,0,0,0-.08,4.79q19.3,33.9,39,67.48a5.63,5.63,0,0,0,4.16,2.43c25.89.15,51.78.08,77.67.15a4.7,4.7,0,0,0,4.63-2.66c12.87-22.44,25.73-44.8,38.76-67.16a4.48,4.48,0,0,0-.16-5.26q-19.31-33.42-38.52-66.85a5,5,0,0,0-5-2.82C1102.83,673.68,1090,673.61,1077.25,673.61Z" transform="translate(46.09 101.27)"/><path d="M1225,583.5c13.73,0,27.46.08,41.19-.08a5,5,0,0,1,4.94,2.83q20.6,35.89,41.35,71.55c1.26,2.12,1.1,3.61-.08,5.65q-20.82,35.77-41.34,71.63a4.92,4.92,0,0,1-4.95,2.91c-27.61-.08-55.15-.08-82.77,0a4.6,4.6,0,0,1-4.63-2.59c-13.81-24.17-27.77-48.18-41.58-72.34a5.83,5.83,0,0,1,0-4.87C1151,634,1164.93,610,1178.74,585.86c1.26-2.12,2.67-2.44,4.71-2.44C1197.33,583.5,1211.22,583.5,1225,583.5Zm-.08,4.79c-12.79,0-25.65.08-38.44-.08a5.11,5.11,0,0,0-5.18,3c-12.79,22.36-25.74,44.56-38.45,66.93a5.67,5.67,0,0,0-.07,4.78q19.29,33.9,39,67.48a5.67,5.67,0,0,0,4.16,2.43c25.89.16,51.78.08,77.67.16a4.71,4.71,0,0,0,4.63-2.67q19.31-33.66,38.76-67.16a4.46,4.46,0,0,0-.16-5.26q-19.29-33.42-38.52-66.85a5,5,0,0,0-4.94-2.82C1250.53,588.37,1237.74,588.29,1225,588.29Z" transform="translate(46.09 101.27)"/><path d="M1077.18,498.16c13.73,0,27.46.08,41.19-.08a5,5,0,0,1,4.94,2.83q20.6,35.9,41.35,71.55c1.26,2.12,1.1,3.61-.08,5.65q-20.82,35.77-41.35,71.63a4.91,4.91,0,0,1-4.94,2.91c-27.62-.08-55.15-.08-82.77,0a4.6,4.6,0,0,1-4.63-2.59c-13.81-24.17-27.78-48.18-41.58-72.34a5.83,5.83,0,0,1,0-4.87c13.8-24.16,27.77-48.17,41.58-72.34,1.25-2.11,2.67-2.43,4.71-2.43C1049.48,498.16,1063.37,498.16,1077.18,498.16Zm-.08,4.79c-12.79,0-25.65.08-38.44-.08a5.11,5.11,0,0,0-5.18,3c-12.79,22.36-25.74,44.56-38.45,66.93a5.71,5.71,0,0,0-.08,4.78q19.31,33.9,39,67.48a5.63,5.63,0,0,0,4.16,2.43c25.89.15,51.78.08,77.67.15a4.7,4.7,0,0,0,4.63-2.66c12.87-22.44,25.73-44.8,38.76-67.16a4.46,4.46,0,0,0-.16-5.26q-19.3-33.42-38.52-66.85a5,5,0,0,0-4.94-2.82C1102.68,503,1089.89,503,1077.1,503Z" transform="translate(46.09 101.27)"/><path d="M1224.88,926.33c13.73,0,27.46.07,41.19-.08a5,5,0,0,1,4.94,2.82q20.6,35.89,41.35,71.56c1.25,2.11,1.1,3.61-.08,5.65q-20.83,35.78-41.35,71.63a4.91,4.91,0,0,1-4.94,2.9c-27.62-.08-55.16-.08-82.78,0a4.58,4.58,0,0,1-4.62-2.59c-13.81-24.16-27.78-48.17-41.59-72.34a5.89,5.89,0,0,1,0-4.86c13.81-24.17,27.78-48.18,41.59-72.34,1.25-2.12,2.66-2.43,4.7-2.43C1197.18,926.33,1211.07,926.33,1224.88,926.33Zm-.08,4.78c-12.79,0-25.66.08-38.45-.08a5.13,5.13,0,0,0-5.18,3c-12.78,22.37-25.73,44.57-38.44,66.93a5.69,5.69,0,0,0-.08,4.79c12.87,22.59,25.81,45.11,39,67.47a5.6,5.6,0,0,0,4.15,2.43c25.9.16,51.79.08,77.68.16a4.7,4.7,0,0,0,4.63-2.67q19.29-33.66,38.76-67.16a4.48,4.48,0,0,0-.16-5.26q-19.31-33.42-38.52-66.84a5,5,0,0,0-5-2.83C1250.38,931.19,1237.59,931.11,1224.8,931.11Z" transform="translate(46.09 101.27)"/><path d="M1372.58,841c13.73,0,27.46.08,41.19-.08a5,5,0,0,1,4.94,2.82q20.6,35.89,41.35,71.56c1.26,2.12,1.1,3.61-.08,5.65q-20.84,35.77-41.35,71.63a4.9,4.9,0,0,1-4.94,2.9c-27.62-.08-55.16-.08-82.77,0a4.6,4.6,0,0,1-4.63-2.59c-13.81-24.16-27.78-48.17-41.59-72.34a5.89,5.89,0,0,1,0-4.86c13.81-24.17,27.78-48.17,41.59-72.34,1.25-2.12,2.67-2.43,4.71-2.43C1344.88,841,1358.77,841,1372.58,841Zm-.08,4.78c-12.79,0-25.66.08-38.44-.08a5.11,5.11,0,0,0-5.18,3c-12.79,22.36-25.74,44.56-38.45,66.92a5.73,5.73,0,0,0-.08,4.79q19.31,33.89,39,67.47a5.6,5.6,0,0,0,4.16,2.43c25.89.16,51.78.08,77.67.16a4.69,4.69,0,0,0,4.63-2.67c12.87-22.44,25.73-44.8,38.76-67.16a4.46,4.46,0,0,0-.16-5.25q-19.31-33.43-38.52-66.85a5,5,0,0,0-5-2.83C1398.08,845.87,1385.29,845.79,1372.5,845.79Z" transform="translate(46.09 101.27)"/><path d="M1224.73,755.67c13.73,0,27.46.07,41.19-.08a5,5,0,0,1,4.94,2.82q20.6,35.9,41.35,71.56c1.25,2.12,1.1,3.61-.08,5.65q-20.84,35.77-41.35,71.63a4.9,4.9,0,0,1-4.94,2.9c-27.62-.08-55.16-.08-82.77,0a4.6,4.6,0,0,1-4.63-2.59c-13.81-24.16-27.78-48.17-41.59-72.34a5.89,5.89,0,0,1,0-4.86c13.81-24.17,27.78-48.17,41.59-72.34,1.25-2.12,2.66-2.43,4.7-2.43C1197,755.67,1210.92,755.67,1224.73,755.67Zm-.08,4.78c-12.79,0-25.66.08-38.45-.08a5.1,5.1,0,0,0-5.17,3c-12.79,22.36-25.74,44.56-38.45,66.92a5.69,5.69,0,0,0-.08,4.79q19.3,33.88,39,67.47a5.6,5.6,0,0,0,4.15,2.43c25.9.16,51.79.08,77.68.16a4.7,4.7,0,0,0,4.63-2.67c12.87-22.44,25.73-44.8,38.76-67.16a4.46,4.46,0,0,0-.16-5.25q-19.3-33.43-38.52-66.85a5,5,0,0,0-5-2.83C1250.23,760.53,1237.44,760.45,1224.65,760.45Z" transform="translate(46.09 101.27)"/><path d="M1372.8,668.34c13.73,0,27.46.07,41.19-.08a5,5,0,0,1,5,2.82q20.6,35.89,41.34,71.56c1.26,2.12,1.1,3.61-.08,5.65q-20.82,35.78-41.34,71.63a4.91,4.91,0,0,1-4.95,2.9c-27.61-.08-55.15-.08-82.77,0a4.6,4.6,0,0,1-4.63-2.59c-13.81-24.16-27.77-48.17-41.58-72.34a5.81,5.81,0,0,1,0-4.86c13.81-24.17,27.77-48.17,41.58-72.34,1.26-2.12,2.67-2.43,4.71-2.43C1345.11,668.34,1359,668.34,1372.8,668.34Zm-.08,4.78c-12.79,0-25.65.08-38.44-.08a5.12,5.12,0,0,0-5.18,3c-12.79,22.36-25.73,44.56-38.44,66.92a5.66,5.66,0,0,0-.08,4.79q19.29,33.88,39,67.47a5.64,5.64,0,0,0,4.16,2.43c25.89.16,51.78.08,77.67.16a4.69,4.69,0,0,0,4.63-2.67q19.31-33.66,38.76-67.16a4.45,4.45,0,0,0-.16-5.25q-19.29-33.44-38.52-66.85a5,5,0,0,0-4.94-2.83C1398.3,673.2,1385.51,673.12,1372.72,673.12Z" transform="translate(46.09 101.27)"/><path d="M1520.5,583c13.73,0,27.46.08,41.19-.08a5,5,0,0,1,5,2.82q20.59,35.9,41.35,71.56c1.25,2.12,1.09,3.61-.08,5.65q-20.84,35.78-41.35,71.63a4.91,4.91,0,0,1-4.94,2.9c-27.62-.08-55.16-.08-82.78,0a4.59,4.59,0,0,1-4.63-2.59c-13.81-24.16-27.77-48.17-41.58-72.34a5.81,5.81,0,0,1,0-4.86c13.81-24.17,27.77-48.17,41.58-72.34,1.26-2.12,2.67-2.43,4.71-2.43C1492.81,583,1506.7,583,1520.5,583Zm-.07,4.78c-12.79,0-25.66.08-38.45-.08a5.12,5.12,0,0,0-5.18,3c-12.79,22.36-25.73,44.56-38.44,66.92a5.66,5.66,0,0,0-.08,4.79q19.31,33.89,39,67.47a5.64,5.64,0,0,0,4.16,2.43c25.89.16,51.78.08,77.68.16a4.68,4.68,0,0,0,4.62-2.67q19.3-33.66,38.76-67.16a4.46,4.46,0,0,0-.15-5.25Q1583,624,1563.81,590.55a5,5,0,0,0-4.94-2.83C1546,587.88,1533.21,587.8,1520.43,587.8Z" transform="translate(46.09 101.27)"/><path d="M1372.65,497.68c13.73,0,27.46.08,41.19-.08a5,5,0,0,1,5,2.82q20.6,35.9,41.34,71.56c1.26,2.12,1.1,3.61-.07,5.65q-20.83,35.77-41.35,71.63a4.91,4.91,0,0,1-4.94,2.9c-27.62-.08-55.16-.08-82.78,0a4.6,4.6,0,0,1-4.63-2.59c-13.81-24.16-27.77-48.17-41.58-72.34a5.81,5.81,0,0,1,0-4.86c13.81-24.17,27.77-48.17,41.58-72.34,1.26-2.12,2.67-2.43,4.71-2.43C1345,497.68,1358.84,497.68,1372.65,497.68Zm-.08,4.78c-12.78,0-25.65.08-38.44-.08a5.12,5.12,0,0,0-5.18,3c-12.79,22.36-25.73,44.56-38.44,66.92a5.66,5.66,0,0,0-.08,4.79q19.3,33.88,39,67.47a5.64,5.64,0,0,0,4.16,2.43c25.89.16,51.78.08,77.67.16a4.68,4.68,0,0,0,4.63-2.67q19.3-33.66,38.76-67.16a4.46,4.46,0,0,0-.15-5.25q-19.31-33.43-38.53-66.85a5,5,0,0,0-4.94-2.83C1398.15,502.54,1385.36,502.46,1372.57,502.46Z" transform="translate(46.09 101.27)"/><path d="M486.44,1525.93c13.73,0,27.46.08,41.19-.08a5,5,0,0,1,4.94,2.83q20.59,35.89,41.35,71.55c1.26,2.12,1.1,3.61-.08,5.65q-20.83,35.77-41.35,71.63a4.91,4.91,0,0,1-4.94,2.91c-27.62-.08-55.16-.08-82.77,0a4.6,4.6,0,0,1-4.63-2.59c-13.81-24.17-27.78-48.18-41.59-72.34a5.91,5.91,0,0,1,0-4.87c13.81-24.16,27.78-48.17,41.59-72.34,1.25-2.11,2.67-2.43,4.71-2.43C458.74,1525.93,472.63,1525.93,486.44,1525.93Zm-.08,4.79c-12.79,0-25.66.08-38.44-.08a5.11,5.11,0,0,0-5.18,3C430,1556,417,1578.18,404.29,1600.55a5.71,5.71,0,0,0-.08,4.78q19.31,33.9,39,67.48a5.63,5.63,0,0,0,4.16,2.43c25.89.15,51.78.08,77.67.15a4.7,4.7,0,0,0,4.63-2.66c12.87-22.44,25.73-44.8,38.76-67.16a4.46,4.46,0,0,0-.16-5.26q-19.31-33.42-38.52-66.85a5,5,0,0,0-4.94-2.82C511.94,1530.8,499.15,1530.72,486.36,1530.72Z" transform="translate(46.09 101.27)"/><path d="M634.14,1440.61c13.73,0,27.46.08,41.19-.08a5,5,0,0,1,4.94,2.83q20.61,35.9,41.35,71.55c1.26,2.12,1.1,3.61-.08,5.65q-20.82,35.78-41.34,71.63a4.92,4.92,0,0,1-5,2.91c-27.61-.08-55.15-.08-82.77,0a4.6,4.6,0,0,1-4.63-2.59c-13.81-24.17-27.77-48.18-41.58-72.34a5.83,5.83,0,0,1,0-4.87c13.81-24.16,27.77-48.17,41.58-72.33,1.26-2.12,2.67-2.44,4.71-2.44C606.44,1440.61,620.33,1440.61,634.14,1440.61Zm-.08,4.79c-12.79,0-25.65.08-38.44-.08a5.11,5.11,0,0,0-5.18,3c-12.79,22.36-25.74,44.57-38.45,66.93a5.67,5.67,0,0,0-.07,4.78q19.29,33.9,39,67.48a5.67,5.67,0,0,0,4.16,2.43c25.89.16,51.78.08,77.67.16a4.71,4.71,0,0,0,4.63-2.67q19.3-33.66,38.76-67.16A4.47,4.47,0,0,0,716,1515q-19.29-33.42-38.52-66.85a5,5,0,0,0-4.94-2.82C659.64,1445.48,646.85,1445.4,634.06,1445.4Z" transform="translate(46.09 101.27)"/><path d="M486.29,1355.27c13.73,0,27.46.08,41.19-.08a5,5,0,0,1,4.94,2.83q20.6,35.89,41.35,71.55c1.26,2.12,1.1,3.61-.08,5.65q-20.82,35.77-41.34,71.63a4.93,4.93,0,0,1-5,2.91c-27.62-.08-55.15-.08-82.77,0a4.6,4.6,0,0,1-4.63-2.59c-13.81-24.17-27.78-48.18-41.58-72.34a5.83,5.83,0,0,1,0-4.87c13.8-24.16,27.77-48.17,41.58-72.33,1.25-2.12,2.67-2.44,4.71-2.44C458.59,1355.27,472.48,1355.27,486.29,1355.27Zm-.08,4.79c-12.79,0-25.65.08-38.44-.08a5.11,5.11,0,0,0-5.18,3c-12.79,22.36-25.74,44.56-38.45,66.93a5.67,5.67,0,0,0-.07,4.78q19.29,33.9,39,67.48a5.67,5.67,0,0,0,4.16,2.43c25.89.16,51.78.08,77.67.16a4.71,4.71,0,0,0,4.63-2.67q19.31-33.66,38.76-67.16a4.46,4.46,0,0,0-.16-5.26q-19.29-33.42-38.52-66.85a5,5,0,0,0-4.94-2.82C511.79,1360.14,499,1360.06,486.21,1360.06Z" transform="translate(46.09 101.27)"/><path d="M634.36,1267.94c13.73,0,27.46.08,41.2-.08a5,5,0,0,1,4.94,2.83q20.6,35.89,41.35,71.55c1.25,2.12,1.09,3.61-.08,5.65q-20.84,35.77-41.35,71.63a4.91,4.91,0,0,1-4.94,2.91c-27.62-.08-55.16-.08-82.78,0a4.6,4.6,0,0,1-4.63-2.59c-13.81-24.17-27.77-48.18-41.58-72.34a5.83,5.83,0,0,1,0-4.87c13.81-24.16,27.77-48.17,41.58-72.33,1.26-2.12,2.67-2.44,4.71-2.44C606.67,1267.94,620.56,1267.94,634.36,1267.94Zm-.07,4.79c-12.79,0-25.66.08-38.45-.08a5.11,5.11,0,0,0-5.18,3c-12.79,22.36-25.73,44.57-38.44,66.93a5.64,5.64,0,0,0-.08,4.78q19.3,33.9,39,67.48a5.67,5.67,0,0,0,4.16,2.43c25.89.16,51.78.08,77.68.16a4.72,4.72,0,0,0,4.63-2.67q19.29-33.66,38.75-67.16a4.47,4.47,0,0,0-.15-5.26q-19.31-33.42-38.53-66.85a5,5,0,0,0-4.94-2.82C659.86,1272.81,647.07,1272.73,634.29,1272.73Z" transform="translate(46.09 101.27)"/><path d="M782.07,1182.62c13.73,0,27.46.08,41.19-.08a5,5,0,0,1,4.94,2.83q20.59,35.89,41.35,71.55c1.25,2.12,1.1,3.61-.08,5.65q-20.84,35.78-41.35,71.63a4.91,4.91,0,0,1-4.94,2.91c-27.62-.08-55.16-.08-82.78,0a4.58,4.58,0,0,1-4.62-2.59c-13.81-24.17-27.78-48.18-41.59-72.34a5.89,5.89,0,0,1,0-4.86C708,1233.15,722,1209.14,735.78,1185c1.25-2.12,2.66-2.44,4.7-2.44C754.37,1182.62,768.26,1182.62,782.07,1182.62Zm-.08,4.79c-12.79,0-25.66.08-38.45-.08a5.11,5.11,0,0,0-5.18,3c-12.78,22.36-25.73,44.57-38.44,66.93a5.67,5.67,0,0,0-.08,4.78c12.87,22.6,25.81,45.12,39,67.48a5.63,5.63,0,0,0,4.15,2.43c25.9.16,51.79.08,77.68.16a4.72,4.72,0,0,0,4.63-2.67q19.29-33.66,38.76-67.16a4.48,4.48,0,0,0-.16-5.26q-19.3-33.42-38.52-66.85a5,5,0,0,0-5-2.82C807.57,1187.49,794.78,1187.41,782,1187.41Z" transform="translate(46.09 101.27)"/><path d="M634.22,1097.28c13.73,0,27.46.08,41.19-.08a5,5,0,0,1,4.94,2.83q20.6,35.9,41.35,71.55c1.25,2.12,1.1,3.61-.08,5.65q-20.83,35.77-41.35,71.63a4.91,4.91,0,0,1-4.94,2.91c-27.62-.08-55.16-.08-82.78,0a4.6,4.6,0,0,1-4.63-2.59c-13.8-24.17-27.77-48.18-41.58-72.34a5.91,5.91,0,0,1,0-4.87c13.81-24.16,27.78-48.17,41.58-72.33,1.26-2.12,2.67-2.44,4.71-2.44C606.52,1097.28,620.41,1097.28,634.22,1097.28Zm-.08,4.79c-12.79,0-25.66.08-38.45-.08a5.11,5.11,0,0,0-5.18,3c-12.78,22.36-25.73,44.57-38.44,66.93a5.64,5.64,0,0,0-.08,4.78q19.31,33.9,39,67.48a5.67,5.67,0,0,0,4.16,2.43c25.89.16,51.79.08,77.68.16a4.72,4.72,0,0,0,4.63-2.67q19.29-33.66,38.75-67.16a4.47,4.47,0,0,0-.15-5.26q-19.31-33.42-38.53-66.85a5,5,0,0,0-4.94-2.82C659.71,1102.15,646.93,1102.07,634.14,1102.07Z" transform="translate(46.09 101.27)"/><path d="M781.91,1525.45c13.73,0,27.46.08,41.19-.08a5,5,0,0,1,4.95,2.82q20.6,35.89,41.34,71.56c1.26,2.12,1.1,3.61-.07,5.65Q848.48,1641.18,828,1677a4.91,4.91,0,0,1-5,2.9c-27.61-.08-55.15-.08-82.77,0a4.6,4.6,0,0,1-4.63-2.59c-13.81-24.16-27.77-48.17-41.58-72.34a5.81,5.81,0,0,1,0-4.86c13.81-24.17,27.77-48.17,41.58-72.34,1.26-2.12,2.67-2.43,4.71-2.43C754.22,1525.45,768.1,1525.45,781.91,1525.45Zm-.08,4.78c-12.79,0-25.65.08-38.44-.08a5.12,5.12,0,0,0-5.18,3c-12.79,22.36-25.73,44.56-38.44,66.92a5.66,5.66,0,0,0-.08,4.79q19.29,33.89,39,67.47a5.64,5.64,0,0,0,4.16,2.43c25.89.16,51.78.08,77.67.16a4.69,4.69,0,0,0,4.63-2.67q19.3-33.66,38.76-67.16a4.45,4.45,0,0,0-.16-5.25q-19.29-33.43-38.52-66.85a5,5,0,0,0-4.94-2.83C807.41,1530.31,794.62,1530.23,781.83,1530.23Z" transform="translate(46.09 101.27)"/><path d="M929.61,1440.13c13.73,0,27.46.08,41.2-.08a5,5,0,0,1,4.94,2.82q20.6,35.89,41.35,71.56c1.25,2.12,1.09,3.61-.08,5.65q-20.84,35.78-41.35,71.63a4.91,4.91,0,0,1-4.94,2.9c-27.62-.08-55.16-.08-82.78,0a4.59,4.59,0,0,1-4.63-2.59c-13.81-24.16-27.77-48.17-41.58-72.34a5.81,5.81,0,0,1,0-4.86c13.81-24.16,27.77-48.17,41.58-72.34,1.26-2.12,2.67-2.43,4.71-2.43C901.92,1440.13,915.81,1440.13,929.61,1440.13Zm-.07,4.78c-12.79,0-25.66.08-38.45-.07a5.11,5.11,0,0,0-5.18,3c-12.79,22.36-25.73,44.56-38.44,66.92a5.66,5.66,0,0,0-.08,4.79q19.3,33.88,39,67.47a5.64,5.64,0,0,0,4.16,2.43c25.89.16,51.78.08,77.68.16a4.7,4.7,0,0,0,4.63-2.67q19.29-33.66,38.75-67.16a4.45,4.45,0,0,0-.15-5.25q-19.31-33.43-38.53-66.85a5,5,0,0,0-4.94-2.82C955.11,1445,942.32,1444.91,929.54,1444.91Z" transform="translate(46.09 101.27)"/><path d="M781.76,1354.79c13.73,0,27.46.08,41.19-.08a5,5,0,0,1,4.95,2.82q20.6,35.9,41.34,71.56c1.26,2.12,1.1,3.61-.07,5.65q-20.83,35.77-41.35,71.63a4.91,4.91,0,0,1-4.94,2.9c-27.62-.08-55.16-.08-82.78,0a4.6,4.6,0,0,1-4.63-2.59c-13.81-24.16-27.77-48.17-41.58-72.34a5.81,5.81,0,0,1,0-4.86c13.81-24.17,27.77-48.17,41.58-72.34,1.26-2.12,2.67-2.43,4.71-2.43C754.07,1354.79,768,1354.79,781.76,1354.79Zm-.08,4.78c-12.78,0-25.65.08-38.44-.08a5.12,5.12,0,0,0-5.18,3c-12.79,22.36-25.73,44.56-38.44,66.92a5.66,5.66,0,0,0-.08,4.79q19.31,33.88,39,67.47a5.64,5.64,0,0,0,4.16,2.43c25.89.16,51.78.08,77.68.16a4.68,4.68,0,0,0,4.62-2.67q19.31-33.66,38.76-67.16a4.46,4.46,0,0,0-.15-5.25q-19.3-33.43-38.53-66.85a5,5,0,0,0-4.94-2.83C807.26,1359.65,794.47,1359.57,781.68,1359.57Z" transform="translate(46.09 101.27)"/><path d="M929.84,1267.46c13.73,0,27.46.08,41.19-.08a5,5,0,0,1,4.94,2.82q20.6,35.9,41.35,71.56c1.25,2.12,1.1,3.61-.08,5.65q-20.84,35.77-41.35,71.63a4.9,4.9,0,0,1-4.94,2.9c-27.62-.08-55.16-.08-82.77,0a4.58,4.58,0,0,1-4.63-2.59c-13.81-24.16-27.78-48.17-41.59-72.34a5.89,5.89,0,0,1,0-4.86c13.81-24.17,27.78-48.17,41.59-72.34,1.25-2.12,2.66-2.43,4.7-2.43C902.14,1267.46,916,1267.46,929.84,1267.46Zm-.08,4.78c-12.79,0-25.66.08-38.45-.08a5.11,5.11,0,0,0-5.17,3c-12.79,22.36-25.74,44.56-38.45,66.92a5.73,5.73,0,0,0-.08,4.79q19.3,33.89,39,67.47a5.6,5.6,0,0,0,4.16,2.43c25.89.16,51.78.08,77.67.16a4.7,4.7,0,0,0,4.63-2.67c12.87-22.44,25.73-44.8,38.76-67.16a4.46,4.46,0,0,0-.16-5.25q-19.3-33.43-38.52-66.85a5,5,0,0,0-4.95-2.83C955.34,1272.32,942.55,1272.24,929.76,1272.24Z" transform="translate(46.09 101.27)"/><path d="M1077.54,1182.14c13.73,0,27.46.08,41.19-.08a5,5,0,0,1,4.94,2.82q20.6,35.89,41.35,71.56c1.26,2.12,1.1,3.61-.08,5.65q-20.82,35.78-41.34,71.63a4.92,4.92,0,0,1-4.95,2.9c-27.62-.07-55.15-.07-82.77,0a4.58,4.58,0,0,1-4.63-2.59c-13.81-24.16-27.78-48.17-41.58-72.33a5.83,5.83,0,0,1,0-4.87c13.8-24.16,27.77-48.17,41.58-72.34,1.25-2.12,2.67-2.43,4.71-2.43C1049.84,1182.14,1063.73,1182.14,1077.54,1182.14Zm-.08,4.78c-12.79,0-25.65.08-38.44-.07a5.11,5.11,0,0,0-5.18,3c-12.79,22.36-25.74,44.56-38.45,66.92a5.69,5.69,0,0,0-.07,4.79q19.29,33.89,39,67.47a5.65,5.65,0,0,0,4.16,2.44c25.89.15,51.78.07,77.67.15a4.69,4.69,0,0,0,4.63-2.67q19.31-33.65,38.76-67.16a4.45,4.45,0,0,0-.16-5.25q-19.29-33.43-38.52-66.85a5,5,0,0,0-4.94-2.82C1103,1187,1090.25,1186.92,1077.46,1186.92Z" transform="translate(46.09 101.27)"/><path d="M929.69,1096.8c13.73,0,27.46.08,41.19-.08a5,5,0,0,1,4.94,2.82q20.59,35.89,41.35,71.56c1.26,2.12,1.1,3.61-.08,5.65q-20.83,35.77-41.35,71.63a4.9,4.9,0,0,1-4.94,2.9c-27.62-.08-55.16-.08-82.77,0a4.58,4.58,0,0,1-4.63-2.59c-13.81-24.16-27.78-48.17-41.59-72.33a5.91,5.91,0,0,1,0-4.87c13.81-24.16,27.78-48.17,41.59-72.34,1.25-2.12,2.67-2.43,4.71-2.43C902,1096.8,915.88,1096.8,929.69,1096.8Zm-.08,4.78c-12.79,0-25.66.08-38.44-.07a5.11,5.11,0,0,0-5.18,3c-12.79,22.36-25.74,44.56-38.45,66.92a5.73,5.73,0,0,0-.08,4.79q19.31,33.88,39,67.47a5.61,5.61,0,0,0,4.16,2.44c25.89.15,51.78.07,77.67.15a4.69,4.69,0,0,0,4.63-2.67c12.87-22.43,25.73-44.8,38.76-67.16a4.45,4.45,0,0,0-.16-5.25q-19.31-33.43-38.52-66.85a5,5,0,0,0-4.94-2.82C955.19,1101.66,942.4,1101.58,929.61,1101.58Z" transform="translate(46.09 101.27)"/><path d="M190.71,1184.62c13.73,0,27.46.08,41.19-.07a5,5,0,0,1,4.94,2.82q20.6,35.89,41.35,71.56c1.25,2.11,1.1,3.6-.08,5.64q-20.83,35.79-41.35,71.64a4.9,4.9,0,0,1-4.94,2.9c-27.62-.08-55.16-.08-82.77,0a4.6,4.6,0,0,1-4.63-2.59c-13.81-24.16-27.78-48.17-41.59-72.34a5.89,5.89,0,0,1,0-4.86c13.81-24.17,27.78-48.18,41.59-72.34,1.25-2.12,2.66-2.43,4.7-2.43C163,1184.62,176.9,1184.62,190.71,1184.62Zm-.08,4.79c-12.79,0-25.66.08-38.45-.08a5.11,5.11,0,0,0-5.17,3c-12.79,22.36-25.74,44.57-38.45,66.93a5.69,5.69,0,0,0-.08,4.79q19.3,33.88,39,67.47a5.6,5.6,0,0,0,4.15,2.43c25.9.16,51.79.08,77.68.16a4.72,4.72,0,0,0,4.63-2.67c12.87-22.44,25.73-44.8,38.76-67.16a4.48,4.48,0,0,0-.16-5.26q-19.31-33.42-38.52-66.84a5,5,0,0,0-5-2.83C216.21,1189.49,203.42,1189.41,190.63,1189.41Z" transform="translate(46.09 101.27)"/><path d="M338.41,1099.31c13.73,0,27.46.07,41.19-.08a5,5,0,0,1,4.94,2.82q20.59,35.9,41.35,71.56c1.26,2.11,1.1,3.61-.08,5.65Q405,1215,384.46,1250.89a4.9,4.9,0,0,1-4.94,2.9c-27.62-.08-55.15-.08-82.77,0a4.6,4.6,0,0,1-4.63-2.59c-13.81-24.16-27.78-48.17-41.58-72.34a5.81,5.81,0,0,1,0-4.86c13.8-24.17,27.77-48.18,41.58-72.34,1.25-2.12,2.67-2.43,4.71-2.43C310.71,1099.31,324.6,1099.31,338.41,1099.31Zm-.08,4.78c-12.79,0-25.65.08-38.44-.08a5.12,5.12,0,0,0-5.18,3c-12.79,22.37-25.74,44.57-38.45,66.93a5.73,5.73,0,0,0-.08,4.79q19.31,33.88,39,67.47a5.6,5.6,0,0,0,4.16,2.43c25.89.16,51.78.08,77.67.16a4.69,4.69,0,0,0,4.63-2.67c12.87-22.44,25.73-44.8,38.76-67.16a4.47,4.47,0,0,0-.16-5.26q-19.31-33.42-38.52-66.84a5,5,0,0,0-4.94-2.83C363.91,1104.17,351.12,1104.09,338.33,1104.09Z" transform="translate(46.09 101.27)"/><path d="M190.56,1014c13.73,0,27.46.07,41.19-.08a5,5,0,0,1,4.94,2.82q20.59,35.89,41.35,71.56c1.26,2.11,1.1,3.61-.08,5.64q-20.83,35.79-41.35,71.64a4.9,4.9,0,0,1-4.94,2.9c-27.62-.08-55.16-.08-82.77,0a4.6,4.6,0,0,1-4.63-2.59c-13.81-24.16-27.78-48.17-41.59-72.34a5.89,5.89,0,0,1,0-4.86c13.81-24.17,27.78-48.18,41.59-72.34,1.25-2.12,2.67-2.43,4.71-2.43C162.86,1014,176.75,1014,190.56,1014Zm-.08,4.78c-12.79,0-25.66.08-38.44-.08a5.12,5.12,0,0,0-5.18,3c-12.79,22.37-25.74,44.57-38.45,66.93a5.73,5.73,0,0,0-.08,4.79q19.31,33.89,39,67.47a5.6,5.6,0,0,0,4.16,2.43c25.89.16,51.78.08,77.67.16a4.71,4.71,0,0,0,4.63-2.67c12.87-22.44,25.73-44.8,38.76-67.16a4.48,4.48,0,0,0-.16-5.26q-19.31-33.42-38.52-66.84a5,5,0,0,0-5-2.83C216.06,1018.83,203.27,1018.75,190.48,1018.75Z" transform="translate(46.09 101.27)"/><path d="M338.63,926.64c13.73,0,27.46.07,41.19-.08a5,5,0,0,1,4.95,2.82q20.6,35.89,41.34,71.56c1.26,2.11,1.1,3.61-.07,5.65q-20.84,35.77-41.35,71.63a4.91,4.91,0,0,1-4.94,2.9c-27.62-.08-55.16-.08-82.78,0a4.6,4.6,0,0,1-4.63-2.59c-13.81-24.16-27.77-48.17-41.58-72.34a5.81,5.81,0,0,1,0-4.86c13.81-24.17,27.77-48.18,41.58-72.34,1.26-2.12,2.67-2.43,4.71-2.43C310.94,926.64,324.82,926.64,338.63,926.64Zm-.08,4.78c-12.78,0-25.65.08-38.44-.08a5.13,5.13,0,0,0-5.18,3c-12.79,22.37-25.73,44.57-38.44,66.93a5.66,5.66,0,0,0-.08,4.79q19.3,33.89,39,67.47a5.64,5.64,0,0,0,4.16,2.43c25.89.16,51.78.08,77.67.16a4.68,4.68,0,0,0,4.63-2.67q19.31-33.66,38.76-67.16a4.48,4.48,0,0,0-.15-5.26q-19.31-33.42-38.53-66.84a5,5,0,0,0-4.94-2.83C364.13,931.5,351.34,931.42,338.55,931.42Z" transform="translate(46.09 101.27)"/><path d="M486.34,841.32c13.73,0,27.46.07,41.19-.08a5,5,0,0,1,4.94,2.82q20.6,35.9,41.35,71.56c1.25,2.12,1.1,3.61-.08,5.65Q552.91,957,532.39,992.9a4.91,4.91,0,0,1-4.94,2.9c-27.62-.08-55.16-.08-82.78,0a4.6,4.6,0,0,1-4.63-2.59c-13.8-24.16-27.77-48.17-41.58-72.34a5.89,5.89,0,0,1,0-4.86c13.81-24.17,27.78-48.17,41.58-72.34,1.26-2.12,2.67-2.43,4.71-2.43C458.64,841.32,472.53,841.32,486.34,841.32Zm-.08,4.78c-12.79,0-25.66.08-38.45-.08a5.12,5.12,0,0,0-5.18,3c-12.79,22.36-25.73,44.56-38.44,66.92a5.66,5.66,0,0,0-.08,4.79q19.31,33.88,39,67.47a5.64,5.64,0,0,0,4.16,2.43c25.89.16,51.79.08,77.68.16a4.7,4.7,0,0,0,4.63-2.67q19.29-33.66,38.75-67.16a4.45,4.45,0,0,0-.15-5.25q-19.3-33.44-38.53-66.85A5,5,0,0,0,524.7,846C511.83,846.18,499.05,846.1,486.26,846.1Z" transform="translate(46.09 101.27)"/><path d="M338.48,756c13.73,0,27.46.07,41.19-.08a5,5,0,0,1,4.95,2.82q20.6,35.89,41.35,71.56c1.25,2.11,1.09,3.61-.08,5.65q-20.83,35.77-41.35,71.63a4.91,4.91,0,0,1-4.94,2.9c-27.62-.08-55.16-.08-82.78,0a4.6,4.6,0,0,1-4.63-2.59c-13.81-24.16-27.77-48.17-41.58-72.34a5.81,5.81,0,0,1,0-4.86c13.81-24.17,27.77-48.17,41.58-72.34,1.26-2.12,2.67-2.43,4.71-2.43C310.79,756,324.68,756,338.48,756Zm-.07,4.78c-12.79,0-25.66.08-38.45-.08a5.12,5.12,0,0,0-5.18,3C282,786,269.05,808.23,256.34,830.59a5.66,5.66,0,0,0-.08,4.79q19.31,33.89,39,67.47a5.64,5.64,0,0,0,4.16,2.43c25.89.16,51.78.08,77.68.16a4.68,4.68,0,0,0,4.62-2.67q19.31-33.66,38.76-67.16a4.45,4.45,0,0,0-.15-5.25Q401,796.93,381.79,763.51a5,5,0,0,0-4.94-2.83C364,760.84,351.19,760.76,338.41,760.76Z" transform="translate(46.09 101.27)"/><path d="M486.18,1184.14c13.73,0,27.46.08,41.19-.08a5,5,0,0,1,4.94,2.83q20.6,35.89,41.35,71.55c1.26,2.12,1.1,3.61-.08,5.65q-20.82,35.78-41.34,71.63a4.92,4.92,0,0,1-5,2.91c-27.61-.08-55.15-.08-82.77,0a4.6,4.6,0,0,1-4.63-2.59c-13.81-24.17-27.77-48.18-41.58-72.34a5.83,5.83,0,0,1,0-4.87c13.81-24.16,27.77-48.17,41.58-72.34,1.26-2.11,2.67-2.43,4.71-2.43C458.48,1184.14,472.37,1184.14,486.18,1184.14Zm-.08,4.79c-12.79,0-25.65.08-38.44-.08a5.11,5.11,0,0,0-5.18,3c-12.79,22.36-25.74,44.56-38.45,66.93a5.67,5.67,0,0,0-.07,4.78q19.29,33.9,39,67.48a5.67,5.67,0,0,0,4.16,2.43c25.89.16,51.78.08,77.67.16a4.71,4.71,0,0,0,4.63-2.67q19.3-33.66,38.76-67.16a4.46,4.46,0,0,0-.16-5.26q-19.29-33.42-38.52-66.85a5,5,0,0,0-4.94-2.82C511.68,1189,498.89,1188.93,486.1,1188.93Z" transform="translate(46.09 101.27)"/><path d="M633.88,1098.82c13.73,0,27.46.08,41.19-.08a5,5,0,0,1,4.95,2.83q20.6,35.9,41.34,71.55c1.26,2.12,1.1,3.61-.07,5.65q-20.84,35.77-41.35,71.63a4.91,4.91,0,0,1-4.94,2.91c-27.62-.08-55.16-.08-82.78,0a4.6,4.6,0,0,1-4.63-2.59c-13.81-24.17-27.77-48.18-41.58-72.34a5.83,5.83,0,0,1,0-4.87c13.81-24.16,27.77-48.17,41.58-72.33,1.26-2.12,2.67-2.44,4.71-2.44C606.19,1098.82,620.07,1098.82,633.88,1098.82Zm-.08,4.79c-12.78,0-25.65.08-38.44-.08a5.11,5.11,0,0,0-5.18,3c-12.79,22.36-25.73,44.57-38.44,66.93a5.64,5.64,0,0,0-.08,4.78q19.3,33.9,39,67.48a5.67,5.67,0,0,0,4.16,2.43c25.89.16,51.78.08,77.67.16a4.7,4.7,0,0,0,4.63-2.67q19.3-33.66,38.76-67.16a4.48,4.48,0,0,0-.15-5.26q-19.31-33.42-38.53-66.85a5,5,0,0,0-4.94-2.82C659.38,1103.69,646.59,1103.61,633.8,1103.61Z" transform="translate(46.09 101.27)"/><path d="M486,1013.48c13.73,0,27.46.08,41.19-.08a5,5,0,0,1,4.95,2.83q20.6,35.89,41.34,71.55c1.26,2.12,1.1,3.61-.07,5.65q-20.84,35.77-41.35,71.63a4.92,4.92,0,0,1-5,2.91c-27.61-.08-55.15-.08-82.77,0a4.6,4.6,0,0,1-4.63-2.59c-13.81-24.17-27.77-48.18-41.58-72.34a5.83,5.83,0,0,1,0-4.87C412,1064,425.93,1040,439.74,1015.84c1.26-2.12,2.67-2.44,4.71-2.44C458.34,1013.48,472.22,1013.48,486,1013.48Zm-.08,4.79c-12.79,0-25.65.08-38.44-.08a5.11,5.11,0,0,0-5.18,3c-12.79,22.36-25.73,44.56-38.44,66.93a5.64,5.64,0,0,0-.08,4.78q19.29,33.9,39,67.48a5.67,5.67,0,0,0,4.16,2.43c25.89.16,51.78.08,77.67.16a4.71,4.71,0,0,0,4.63-2.67q19.31-33.66,38.76-67.16a4.46,4.46,0,0,0-.16-5.26q-19.29-33.42-38.52-66.85a5,5,0,0,0-4.94-2.82C511.53,1018.35,498.74,1018.27,486,1018.27Z" transform="translate(46.09 101.27)"/><path d="M634.11,926.15c13.73,0,27.46.08,41.19-.08a5,5,0,0,1,4.94,2.83q20.6,35.9,41.35,71.55c1.25,2.12,1.1,3.61-.08,5.65q-20.84,35.77-41.35,71.63a4.91,4.91,0,0,1-4.94,2.91c-27.62-.08-55.16-.08-82.78,0a4.58,4.58,0,0,1-4.62-2.59c-13.81-24.17-27.78-48.18-41.59-72.34a5.91,5.91,0,0,1,0-4.87C560,976.68,574,952.67,587.82,928.51c1.25-2.12,2.66-2.44,4.7-2.44C606.41,926.15,620.3,926.15,634.11,926.15Zm-.08,4.79c-12.79,0-25.66.08-38.45-.08a5.11,5.11,0,0,0-5.18,3c-12.78,22.36-25.73,44.57-38.44,66.93a5.67,5.67,0,0,0-.08,4.78c12.87,22.6,25.81,45.12,39,67.48a5.63,5.63,0,0,0,4.15,2.43c25.9.16,51.79.08,77.68.16a4.72,4.72,0,0,0,4.63-2.67q19.29-33.66,38.76-67.16a4.48,4.48,0,0,0-.16-5.26q-19.31-33.42-38.52-66.85a5,5,0,0,0-4.95-2.82C659.61,931,646.82,930.94,634,930.94Z" transform="translate(46.09 101.27)"/><path d="M781.81,840.83c13.73,0,27.46.08,41.19-.08a5,5,0,0,1,4.94,2.83q20.59,35.89,41.35,71.55c1.26,2.12,1.1,3.61-.08,5.65q-20.84,35.78-41.35,71.63a4.91,4.91,0,0,1-4.94,2.91c-27.62-.08-55.16-.08-82.77,0a4.6,4.6,0,0,1-4.63-2.59c-13.81-24.17-27.78-48.18-41.59-72.34a5.89,5.89,0,0,1,0-4.86c13.81-24.17,27.78-48.18,41.59-72.34,1.25-2.12,2.67-2.44,4.71-2.44C754.11,840.83,768,840.83,781.81,840.83Zm-.08,4.79c-12.79,0-25.66.08-38.44-.08a5.11,5.11,0,0,0-5.18,3c-12.79,22.36-25.74,44.57-38.45,66.93a5.71,5.71,0,0,0-.08,4.78q19.3,33.9,39,67.48a5.63,5.63,0,0,0,4.16,2.43c25.89.16,51.78.08,77.67.16a4.71,4.71,0,0,0,4.63-2.67c12.87-22.44,25.73-44.8,38.76-67.16a4.48,4.48,0,0,0-.16-5.26q-19.3-33.42-38.52-66.85a5,5,0,0,0-5-2.82C807.31,845.7,794.52,845.62,781.73,845.62Z" transform="translate(46.09 101.27)"/><path d="M634,755.49c13.73,0,27.46.08,41.19-.08a5,5,0,0,1,4.94,2.83q20.6,35.89,41.35,71.55c1.25,2.12,1.1,3.61-.08,5.65Q700.53,871.21,680,907.07a4.91,4.91,0,0,1-4.94,2.91c-27.62-.08-55.16-.08-82.77,0a4.6,4.6,0,0,1-4.63-2.59c-13.81-24.17-27.78-48.18-41.59-72.34a5.91,5.91,0,0,1,0-4.87C559.89,806,573.86,782,587.67,757.85c1.25-2.12,2.66-2.44,4.7-2.44C606.26,755.49,620.15,755.49,634,755.49Zm-.08,4.79c-12.79,0-25.66.08-38.45-.08a5.1,5.1,0,0,0-5.17,3c-12.79,22.36-25.74,44.57-38.45,66.93a5.67,5.67,0,0,0-.08,4.78q19.31,33.9,39,67.48a5.63,5.63,0,0,0,4.15,2.43c25.9.16,51.79.08,77.68.16a4.72,4.72,0,0,0,4.63-2.67c12.87-22.44,25.73-44.8,38.76-67.16a4.48,4.48,0,0,0-.16-5.26Q696.48,796.45,677.27,763a5,5,0,0,0-4.95-2.82C659.46,760.36,646.67,760.28,633.88,760.28Z" transform="translate(46.09 101.27)"/><path d="M487,669.25c13.73,0,27.46.08,41.19-.08a5,5,0,0,1,4.95,2.83q20.6,35.89,41.34,71.55c1.26,2.12,1.1,3.61-.07,5.65Q553.59,785,533.07,820.83a4.91,4.91,0,0,1-4.94,2.91c-27.62-.08-55.16-.08-82.78,0a4.6,4.6,0,0,1-4.63-2.59C426.91,797,413,773,399.14,748.81a5.83,5.83,0,0,1,0-4.87c13.81-24.16,27.77-48.17,41.58-72.34,1.26-2.11,2.67-2.43,4.71-2.43C459.32,669.25,473.2,669.25,487,669.25Zm-.08,4.79c-12.78,0-25.65.07-38.44-.08a5.11,5.11,0,0,0-5.18,3c-12.79,22.36-25.73,44.56-38.44,66.92a5.66,5.66,0,0,0-.08,4.79q19.31,33.9,39,67.47a5.65,5.65,0,0,0,4.16,2.44c25.89.15,51.78.08,77.68.15a4.69,4.69,0,0,0,4.62-2.66q19.31-33.66,38.76-67.16a4.48,4.48,0,0,0-.15-5.26q-19.3-33.42-38.53-66.85a5,5,0,0,0-4.94-2.82C512.51,674.11,499.72,674,486.93,674Z" transform="translate(46.09 101.27)"/><path d="M634.72,583.93c13.73,0,27.46.08,41.19-.08a5,5,0,0,1,4.94,2.83q20.6,35.9,41.35,71.55c1.25,2.12,1.1,3.61-.08,5.65q-20.83,35.77-41.35,71.63a4.91,4.91,0,0,1-4.94,2.91c-27.62-.08-55.16-.08-82.78,0a4.6,4.6,0,0,1-4.63-2.59c-13.8-24.17-27.77-48.18-41.58-72.34a5.91,5.91,0,0,1,0-4.87c13.81-24.16,27.78-48.17,41.58-72.34,1.26-2.11,2.67-2.43,4.71-2.43C607,583.93,620.91,583.93,634.72,583.93Zm-.08,4.79c-12.79,0-25.66.08-38.45-.08a5.11,5.11,0,0,0-5.18,3c-12.78,22.36-25.73,44.56-38.44,66.93a5.64,5.64,0,0,0-.08,4.78q19.31,33.9,39,67.48a5.67,5.67,0,0,0,4.16,2.43c25.89.15,51.79.08,77.68.15a4.71,4.71,0,0,0,4.63-2.66q19.29-33.66,38.75-67.16a4.46,4.46,0,0,0-.15-5.26Q697.24,624.89,678,591.46a5,5,0,0,0-4.94-2.82C660.21,588.8,647.43,588.72,634.64,588.72Z" transform="translate(46.09 101.27)"/><path d="M486.86,498.59c13.73,0,27.46.08,41.2-.08a5,5,0,0,1,4.94,2.83q20.6,35.9,41.35,71.55c1.25,2.12,1.09,3.61-.08,5.65q-20.84,35.78-41.35,71.63a4.91,4.91,0,0,1-4.94,2.91c-27.62-.08-55.16-.08-82.78,0a4.6,4.6,0,0,1-4.63-2.59c-13.81-24.17-27.77-48.18-41.58-72.34a5.83,5.83,0,0,1,0-4.87c13.81-24.16,27.77-48.17,41.58-72.34,1.26-2.11,2.67-2.43,4.71-2.43C459.17,498.59,473.06,498.59,486.86,498.59Zm-.07,4.79c-12.79,0-25.66.07-38.45-.08a5.11,5.11,0,0,0-5.18,3c-12.79,22.36-25.73,44.56-38.44,66.92a5.66,5.66,0,0,0-.08,4.79q19.31,33.9,39,67.48a5.67,5.67,0,0,0,4.16,2.43c25.89.15,51.78.08,77.68.15a4.71,4.71,0,0,0,4.63-2.66q19.29-33.66,38.75-67.16a4.46,4.46,0,0,0-.15-5.26q-19.31-33.42-38.53-66.85a5,5,0,0,0-4.94-2.82C512.36,503.45,499.57,503.38,486.79,503.38Z" transform="translate(46.09 101.27)"/><path d="M634.94,411.26c13.73,0,27.46.08,41.19-.08a5,5,0,0,1,4.94,2.83q20.59,35.89,41.35,71.55c1.26,2.12,1.1,3.61-.08,5.65Q701.51,527,681,562.84a4.91,4.91,0,0,1-4.94,2.91c-27.62-.08-55.16-.08-82.77,0a4.6,4.6,0,0,1-4.63-2.59C574.84,539,560.87,515,547.06,490.82a5.91,5.91,0,0,1,0-4.87c13.81-24.16,27.78-48.17,41.59-72.34,1.25-2.11,2.67-2.43,4.71-2.43C607.24,411.26,621.13,411.26,634.94,411.26Zm-.08,4.79c-12.79,0-25.66.08-38.44-.08a5.11,5.11,0,0,0-5.18,3c-12.79,22.36-25.74,44.56-38.45,66.92a5.73,5.73,0,0,0-.08,4.79q19.31,33.9,39,67.48a5.63,5.63,0,0,0,4.16,2.43c25.89.15,51.78.08,77.67.15a4.7,4.7,0,0,0,4.63-2.66c12.87-22.44,25.73-44.8,38.76-67.16a4.46,4.46,0,0,0-.16-5.26q-19.31-33.42-38.52-66.85a5,5,0,0,0-4.94-2.82C660.44,416.13,647.65,416.05,634.86,416.05Z" transform="translate(46.09 101.27)"/><path d="M782.64,325.94c13.73,0,27.46.08,41.19-.08a5,5,0,0,1,4.94,2.83q20.61,35.9,41.35,71.55c1.26,2.12,1.1,3.61-.08,5.65q-20.82,35.78-41.34,71.63a4.92,4.92,0,0,1-5,2.91c-27.61-.08-55.15-.08-82.77,0a4.6,4.6,0,0,1-4.63-2.59c-13.81-24.17-27.77-48.18-41.58-72.34a5.83,5.83,0,0,1,0-4.87c13.81-24.16,27.77-48.17,41.58-72.33,1.26-2.12,2.67-2.44,4.71-2.44C754.94,325.94,768.83,325.94,782.64,325.94Zm-.08,4.79c-12.79,0-25.65.08-38.44-.08a5.11,5.11,0,0,0-5.18,3C726.15,356,713.2,378.2,700.49,400.56a5.67,5.67,0,0,0-.07,4.78q19.29,33.9,39,67.48a5.67,5.67,0,0,0,4.16,2.43c25.89.16,51.78.08,77.67.16a4.71,4.71,0,0,0,4.63-2.67q19.3-33.66,38.76-67.16a4.47,4.47,0,0,0-.16-5.26Q845.18,366.9,826,333.47a5,5,0,0,0-4.94-2.82C808.14,330.81,795.35,330.73,782.56,330.73Z" transform="translate(46.09 101.27)"/><path d="M634.79,240.6c13.73,0,27.46.08,41.19-.08a5,5,0,0,1,4.94,2.83q20.6,35.89,41.35,71.55c1.26,2.12,1.1,3.61-.08,5.65q-20.82,35.77-41.34,71.63a4.93,4.93,0,0,1-5,2.91c-27.62-.08-55.15-.08-82.77,0a4.6,4.6,0,0,1-4.63-2.59c-13.81-24.17-27.78-48.18-41.58-72.34a5.83,5.83,0,0,1,0-4.87c13.8-24.16,27.77-48.17,41.58-72.34,1.25-2.11,2.67-2.43,4.71-2.43C607.09,240.6,621,240.6,634.79,240.6Zm-.08,4.79c-12.79,0-25.65.08-38.44-.08a5.11,5.11,0,0,0-5.18,3c-12.79,22.36-25.74,44.56-38.45,66.93a5.67,5.67,0,0,0-.07,4.78q19.29,33.9,39,67.48a5.67,5.67,0,0,0,4.16,2.43c25.89.16,51.78.08,77.67.16A4.71,4.71,0,0,0,678,387.4q19.31-33.66,38.76-67.16a4.46,4.46,0,0,0-.16-5.26q-19.29-33.42-38.52-66.85a5,5,0,0,0-4.94-2.82C660.29,245.47,647.5,245.39,634.71,245.39Z" transform="translate(46.09 101.27)"/><path d="M782.49,668.77c13.73,0,27.46.07,41.19-.08a5,5,0,0,1,4.94,2.82q20.6,35.9,41.35,71.56c1.25,2.11,1.1,3.61-.08,5.65q-20.83,35.78-41.35,71.63a4.9,4.9,0,0,1-4.94,2.9c-27.62-.08-55.16-.08-82.77,0a4.59,4.59,0,0,1-4.63-2.59c-13.81-24.16-27.78-48.17-41.59-72.34a5.89,5.89,0,0,1,0-4.86c13.81-24.17,27.78-48.17,41.59-72.34,1.25-2.12,2.66-2.43,4.7-2.43C754.79,668.77,768.68,668.77,782.49,668.77Zm-.08,4.78c-12.79,0-25.66.08-38.45-.08a5.11,5.11,0,0,0-5.17,3C726,698.82,713.05,721,700.34,743.38a5.69,5.69,0,0,0-.08,4.79c12.87,22.59,25.81,45.11,39,67.47a5.6,5.6,0,0,0,4.15,2.43c25.9.16,51.79.08,77.68.16a4.7,4.7,0,0,0,4.63-2.67Q845,781.9,864.48,748.4a4.48,4.48,0,0,0-.16-5.26Q845,709.72,825.8,676.3a5,5,0,0,0-4.95-2.83C808,673.63,795.2,673.55,782.41,673.55Z" transform="translate(46.09 101.27)"/><path d="M930.19,583.45c13.73,0,27.46.08,41.19-.08a5,5,0,0,1,4.94,2.82q20.59,35.89,41.35,71.56c1.26,2.12,1.1,3.61-.08,5.65Q996.76,699.18,976.24,735a4.9,4.9,0,0,1-4.94,2.9c-27.62-.08-55.16-.08-82.77,0a4.6,4.6,0,0,1-4.63-2.59c-13.81-24.16-27.78-48.17-41.59-72.34a5.89,5.89,0,0,1,0-4.86C856.12,634,870.09,610,883.9,585.8c1.25-2.12,2.67-2.43,4.71-2.43C902.49,583.45,916.38,583.45,930.19,583.45Zm-.08,4.78c-12.79,0-25.66.08-38.44-.08a5.11,5.11,0,0,0-5.18,3C873.7,613.5,860.75,635.7,848,658.06a5.73,5.73,0,0,0-.08,4.79q19.31,33.89,39,67.47a5.6,5.6,0,0,0,4.16,2.43c25.89.16,51.78.08,77.67.16a4.69,4.69,0,0,0,4.63-2.67c12.87-22.44,25.73-44.8,38.76-67.16a4.45,4.45,0,0,0-.16-5.25Q992.71,624.4,973.5,591a5,5,0,0,0-4.94-2.83C955.69,588.31,942.9,588.23,930.11,588.23Z" transform="translate(46.09 101.27)"/><path d="M782.34,498.11c13.73,0,27.46.07,41.19-.08a5,5,0,0,1,4.94,2.82q20.6,35.89,41.35,71.56c1.25,2.12,1.1,3.61-.08,5.65q-20.84,35.78-41.35,71.63a4.9,4.9,0,0,1-4.94,2.9c-27.62-.08-55.16-.08-82.77,0a4.6,4.6,0,0,1-4.63-2.59c-13.81-24.16-27.78-48.17-41.59-72.34a5.89,5.89,0,0,1,0-4.86c13.81-24.17,27.78-48.17,41.59-72.34,1.25-2.12,2.66-2.43,4.7-2.43C754.64,498.11,768.53,498.11,782.34,498.11Zm-.08,4.78c-12.79,0-25.66.08-38.45-.08a5.11,5.11,0,0,0-5.17,3c-12.79,22.36-25.74,44.56-38.45,66.92a5.73,5.73,0,0,0-.08,4.79q19.3,33.88,39,67.47a5.6,5.6,0,0,0,4.16,2.43c25.89.16,51.78.08,77.67.16a4.7,4.7,0,0,0,4.63-2.67c12.87-22.44,25.73-44.8,38.76-67.16a4.46,4.46,0,0,0-.16-5.25q-19.3-33.43-38.52-66.85a5,5,0,0,0-4.95-2.83C807.84,503,795.05,502.89,782.26,502.89Z" transform="translate(46.09 101.27)"/><path d="M930.41,410.78c13.73,0,27.46.08,41.19-.08a5,5,0,0,1,4.95,2.82q20.6,35.89,41.34,71.56c1.26,2.12,1.1,3.61-.07,5.65Q997,526.51,976.47,562.36a4.91,4.91,0,0,1-5,2.9c-27.61-.08-55.15-.08-82.77,0a4.6,4.6,0,0,1-4.63-2.59c-13.81-24.16-27.77-48.17-41.58-72.34a5.81,5.81,0,0,1,0-4.86c13.81-24.17,27.77-48.17,41.58-72.34,1.26-2.12,2.67-2.43,4.71-2.43C902.72,410.78,916.6,410.78,930.41,410.78Zm-.08,4.78c-12.79,0-25.65.08-38.44-.08a5.12,5.12,0,0,0-5.18,3C873.92,440.83,861,463,848.27,485.39a5.66,5.66,0,0,0-.08,4.79q19.29,33.88,39,67.47a5.64,5.64,0,0,0,4.16,2.43c25.89.16,51.78.08,77.67.16a4.69,4.69,0,0,0,4.63-2.67q19.3-33.66,38.76-67.16a4.45,4.45,0,0,0-.16-5.25Q993,451.73,973.72,418.31a5,5,0,0,0-4.94-2.83C955.91,415.64,943.12,415.56,930.33,415.56Z" transform="translate(46.09 101.27)"/><path d="M1078.11,325.46c13.73,0,27.46.08,41.2-.08a5,5,0,0,1,4.94,2.82q20.6,35.9,41.35,71.56c1.25,2.12,1.09,3.61-.08,5.65q-20.83,35.77-41.35,71.63a4.91,4.91,0,0,1-4.94,2.9c-27.62-.08-55.16-.08-82.78,0a4.59,4.59,0,0,1-4.63-2.59c-13.81-24.16-27.77-48.17-41.58-72.34a5.81,5.81,0,0,1,0-4.86C1004.05,376,1018,352,1031.82,327.81c1.26-2.12,2.67-2.43,4.71-2.43C1050.42,325.46,1064.31,325.46,1078.11,325.46Zm-.07,4.78c-12.79,0-25.66.08-38.45-.08a5.12,5.12,0,0,0-5.18,3c-12.79,22.36-25.73,44.56-38.44,66.92a5.66,5.66,0,0,0-.08,4.79q19.3,33.88,39,67.47a5.64,5.64,0,0,0,4.16,2.43c25.89.16,51.78.08,77.68.16a4.7,4.7,0,0,0,4.63-2.67q19.29-33.66,38.75-67.16a4.45,4.45,0,0,0-.15-5.25q-19.31-33.43-38.53-66.85a5,5,0,0,0-4.94-2.83C1103.61,330.32,1090.82,330.24,1078,330.24Z" transform="translate(46.09 101.27)"/><path d="M930.26,240.12c13.73,0,27.46.08,41.19-.08a5,5,0,0,1,4.95,2.82q20.6,35.89,41.34,71.56c1.26,2.12,1.1,3.61-.07,5.65q-20.83,35.78-41.35,71.63a4.91,4.91,0,0,1-4.94,2.9c-27.62-.08-55.16-.08-82.78,0A4.6,4.6,0,0,1,884,392c-13.81-24.16-27.77-48.17-41.58-72.34a5.81,5.81,0,0,1,0-4.86c13.81-24.17,27.77-48.17,41.58-72.34,1.26-2.12,2.67-2.43,4.71-2.43C902.57,240.12,916.45,240.12,930.26,240.12Zm-.08,4.78c-12.78,0-25.65.08-38.44-.08a5.12,5.12,0,0,0-5.18,3c-12.79,22.36-25.73,44.56-38.44,66.92a5.66,5.66,0,0,0-.08,4.79q19.31,33.89,39,67.47a5.64,5.64,0,0,0,4.16,2.43c25.89.16,51.78.08,77.68.16a4.68,4.68,0,0,0,4.62-2.67q19.31-33.66,38.76-67.16a4.46,4.46,0,0,0-.15-5.25q-19.3-33.44-38.53-66.85a5,5,0,0,0-4.94-2.83C955.76,245,943,244.9,930.18,244.9Z" transform="translate(46.09 101.27)"/><path d="M191.28,327.94c13.73,0,27.46.08,41.19-.07a5,5,0,0,1,4.95,2.82q20.6,35.9,41.34,71.55c1.26,2.12,1.1,3.61-.07,5.65q-20.83,35.79-41.35,71.64a4.92,4.92,0,0,1-5,2.9c-27.61-.08-55.15-.08-82.77,0a4.6,4.6,0,0,1-4.63-2.59c-13.81-24.16-27.77-48.17-41.58-72.34a5.81,5.81,0,0,1,0-4.86c13.81-24.17,27.77-48.18,41.58-72.34,1.26-2.12,2.67-2.43,4.71-2.43C163.59,327.94,177.47,327.94,191.28,327.94Zm-.08,4.79c-12.79,0-25.65.08-38.44-.08a5.13,5.13,0,0,0-5.18,3c-12.79,22.36-25.73,44.57-38.44,66.93a5.64,5.64,0,0,0-.08,4.78q19.29,33.9,39,67.48a5.67,5.67,0,0,0,4.16,2.43c25.89.16,51.78.08,77.67.16a4.71,4.71,0,0,0,4.63-2.67q19.31-33.66,38.76-67.16a4.47,4.47,0,0,0-.16-5.26q-19.29-33.42-38.52-66.84a5,5,0,0,0-4.94-2.83C216.78,332.81,204,332.73,191.2,332.73Z" transform="translate(46.09 101.27)"/><path d="M339,242.62c13.73,0,27.46.08,41.19-.07a5,5,0,0,1,4.95,2.82q20.6,35.89,41.35,71.56c1.25,2.11,1.09,3.6-.08,5.64Q405.56,358.36,385,394.21a4.91,4.91,0,0,1-4.94,2.9c-27.62-.08-55.16-.08-82.78,0a4.6,4.6,0,0,1-4.63-2.59c-13.81-24.16-27.77-48.17-41.58-72.34a5.81,5.81,0,0,1,0-4.86c13.81-24.17,27.77-48.18,41.58-72.34,1.26-2.12,2.67-2.43,4.71-2.43C311.29,242.62,325.18,242.62,339,242.62Zm-.07,4.79c-12.79,0-25.66.08-38.45-.08a5.13,5.13,0,0,0-5.18,3c-12.79,22.36-25.73,44.57-38.44,66.93a5.66,5.66,0,0,0-.08,4.79q19.31,33.89,39,67.47a5.64,5.64,0,0,0,4.16,2.43c25.89.16,51.78.08,77.68.16a4.69,4.69,0,0,0,4.62-2.67q19.31-33.66,38.76-67.16a4.47,4.47,0,0,0-.15-5.26q-19.31-33.42-38.53-66.84a5,5,0,0,0-4.94-2.83C364.48,247.49,351.69,247.41,338.91,247.41Z" transform="translate(46.09 101.27)"/><path d="M191.13,157.28c13.73,0,27.46.08,41.19-.07a5,5,0,0,1,5,2.82q20.6,35.9,41.34,71.56c1.26,2.11,1.1,3.6-.07,5.64Q257.7,273,237.19,308.87a4.91,4.91,0,0,1-4.94,2.9c-27.62-.08-55.16-.08-82.78,0a4.6,4.6,0,0,1-4.63-2.59C131,285,117.07,261,103.26,236.84a5.81,5.81,0,0,1,0-4.86c13.81-24.17,27.77-48.18,41.58-72.34,1.26-2.12,2.67-2.43,4.71-2.43C163.44,157.28,177.32,157.28,191.13,157.28Zm-.08,4.79c-12.78,0-25.65.08-38.44-.08a5.13,5.13,0,0,0-5.18,3C134.64,187.33,121.7,209.54,109,231.9a5.64,5.64,0,0,0-.08,4.78q19.31,33.9,39,67.48a5.67,5.67,0,0,0,4.16,2.43c25.89.16,51.78.08,77.67.16a4.7,4.7,0,0,0,4.63-2.67q19.3-33.66,38.76-67.16a4.48,4.48,0,0,0-.15-5.26q-19.31-33.42-38.53-66.84A5,5,0,0,0,229.5,162C216.63,162.15,203.84,162.07,191.05,162.07Z" transform="translate(46.09 101.27)"/><path d="M339.21,70c13.73,0,27.46.08,41.19-.07a5,5,0,0,1,4.94,2.82q20.6,35.89,41.35,71.56c1.25,2.11,1.1,3.6-.08,5.64q-20.83,35.79-41.35,71.64a4.9,4.9,0,0,1-4.94,2.9c-27.62-.08-55.16-.08-82.77,0a4.6,4.6,0,0,1-4.63-2.59c-13.81-24.16-27.78-48.17-41.59-72.34a5.89,5.89,0,0,1,0-4.86c13.81-24.17,27.78-48.18,41.59-72.34,1.25-2.12,2.66-2.43,4.7-2.43C311.51,70,325.4,70,339.21,70Zm-.08,4.79c-12.79,0-25.66.08-38.45-.08a5.11,5.11,0,0,0-5.17,3c-12.79,22.36-25.74,44.57-38.45,66.93a5.69,5.69,0,0,0-.08,4.79q19.31,33.88,39,67.47a5.6,5.6,0,0,0,4.15,2.43c25.9.16,51.79.08,77.68.16a4.72,4.72,0,0,0,4.63-2.67c12.87-22.44,25.73-44.8,38.76-67.16a4.48,4.48,0,0,0-.16-5.26q-19.31-33.42-38.52-66.84a5,5,0,0,0-4.95-2.83C364.71,74.82,351.92,74.74,339.13,74.74Z" transform="translate(46.09 101.27)"/><path d="M486.91-15.36c13.73,0,27.46.07,41.19-.08A5,5,0,0,1,533-12.62q20.6,35.89,41.35,71.56c1.26,2.11,1.1,3.61-.08,5.65Q553.49,100.37,533,136.22a4.9,4.9,0,0,1-4.94,2.9c-27.62-.08-55.15-.08-82.77,0a4.6,4.6,0,0,1-4.63-2.59C426.81,112.37,412.84,88.36,399,64.19a5.81,5.81,0,0,1,0-4.86c13.8-24.17,27.77-48.18,41.58-72.34,1.25-2.12,2.67-2.43,4.71-2.43C459.21-15.36,473.1-15.36,486.91-15.36Zm-.08,4.78c-12.79,0-25.65.08-38.44-.08a5.12,5.12,0,0,0-5.18,3c-12.79,22.37-25.74,44.57-38.45,66.93a5.73,5.73,0,0,0-.08,4.79q19.31,33.88,39,67.47a5.6,5.6,0,0,0,4.16,2.43c25.89.16,51.78.08,77.67.16a4.69,4.69,0,0,0,4.63-2.67C543,109,555.87,86.63,568.9,64.27a4.47,4.47,0,0,0-.16-5.26Q549.43,25.59,530.22-7.83a5,5,0,0,0-4.94-2.83C512.41-10.5,499.62-10.58,486.83-10.58Z" transform="translate(46.09 101.27)"/><path d="M339.06-100.7c13.73,0,27.46.07,41.19-.08A5,5,0,0,1,385.19-98q20.6,35.89,41.35,71.56c1.26,2.11,1.1,3.6-.08,5.64Q405.63,15,385.11,50.88a4.9,4.9,0,0,1-4.94,2.9c-27.62-.08-55.16-.08-82.77,0a4.6,4.6,0,0,1-4.63-2.59C279,27,265,3,251.18-21.15a5.89,5.89,0,0,1,0-4.86C265-50.18,279-74.19,292.77-98.35c1.25-2.12,2.67-2.43,4.71-2.43C311.36-100.7,325.25-100.7,339.06-100.7ZM339-95.92c-12.79,0-25.66.08-38.44-.08a5.12,5.12,0,0,0-5.18,3c-12.79,22.36-25.74,44.57-38.45,66.93a5.73,5.73,0,0,0-.08,4.79q19.31,33.89,39,67.47A5.6,5.6,0,0,0,300,48.6c25.89.16,51.78.08,77.67.16a4.71,4.71,0,0,0,4.63-2.67C395.16,23.65,408,1.29,421.05-21.07a4.48,4.48,0,0,0-.16-5.26q-19.31-33.42-38.52-66.84A5,5,0,0,0,377.42-96C364.56-95.84,351.77-95.92,339-95.92Z" transform="translate(46.09 101.27)"/><path d="M486.76,327.46c13.73,0,27.46.08,41.19-.08a5,5,0,0,1,4.94,2.83q20.6,35.9,41.35,71.55c1.25,2.12,1.1,3.61-.08,5.65Q553.33,443.18,532.81,479a4.91,4.91,0,0,1-4.94,2.91c-27.62-.08-55.16-.08-82.78,0a4.6,4.6,0,0,1-4.63-2.59c-13.8-24.17-27.77-48.18-41.58-72.34a5.91,5.91,0,0,1,0-4.87C412.69,378,426.66,354,440.46,329.81c1.26-2.11,2.67-2.43,4.71-2.43C459.06,327.46,473,327.46,486.76,327.46Zm-.08,4.79c-12.79,0-25.66.07-38.45-.08a5.11,5.11,0,0,0-5.18,3c-12.79,22.36-25.73,44.56-38.44,66.92a5.66,5.66,0,0,0-.08,4.79q19.31,33.9,39,67.48a5.67,5.67,0,0,0,4.16,2.43c25.89.15,51.79.08,77.68.15a4.71,4.71,0,0,0,4.63-2.66q19.29-33.66,38.75-67.16a4.46,4.46,0,0,0-.15-5.26q-19.3-33.42-38.53-66.85a5,5,0,0,0-4.94-2.82C512.25,332.32,499.47,332.25,486.68,332.25Z" transform="translate(46.09 101.27)"/><path d="M634.46,242.14c13.73,0,27.46.08,41.19-.08a5,5,0,0,1,4.94,2.83q20.6,35.89,41.35,71.55c1.25,2.12,1.1,3.61-.08,5.65Q701,357.87,680.51,393.72a4.91,4.91,0,0,1-4.94,2.91c-27.62-.08-55.16-.08-82.77,0a4.6,4.6,0,0,1-4.63-2.59c-13.81-24.17-27.78-48.18-41.59-72.34a5.91,5.91,0,0,1,0-4.87c13.81-24.16,27.78-48.17,41.59-72.34,1.25-2.11,2.66-2.43,4.7-2.43C606.76,242.14,620.65,242.14,634.46,242.14Zm-.08,4.79c-12.79,0-25.66.08-38.45-.08a5.1,5.1,0,0,0-5.17,3C578,272.19,565,294.39,552.31,316.76a5.67,5.67,0,0,0-.08,4.78q19.31,33.9,39,67.48a5.63,5.63,0,0,0,4.15,2.43c25.9.16,51.79.08,77.68.16a4.72,4.72,0,0,0,4.63-2.67c12.87-22.44,25.73-44.8,38.76-67.16a4.48,4.48,0,0,0-.16-5.26Q697,283.1,677.77,249.67a5,5,0,0,0-4.95-2.82C660,247,647.17,246.93,634.38,246.93Z" transform="translate(46.09 101.27)"/><path d="M486.61,156.8c13.73,0,27.46.08,41.19-.08a5,5,0,0,1,4.94,2.83q20.6,35.89,41.35,71.55c1.25,2.12,1.1,3.61-.08,5.65q-20.84,35.78-41.35,71.63a4.91,4.91,0,0,1-4.94,2.91c-27.62-.08-55.16-.08-82.78,0a4.58,4.58,0,0,1-4.62-2.59c-13.81-24.17-27.78-48.18-41.59-72.34a5.91,5.91,0,0,1,0-4.87c13.81-24.16,27.78-48.17,41.59-72.34,1.25-2.11,2.66-2.43,4.7-2.43C458.91,156.8,472.8,156.8,486.61,156.8Zm-.08,4.79c-12.79,0-25.66.07-38.45-.08a5.11,5.11,0,0,0-5.18,3c-12.78,22.36-25.73,44.56-38.44,66.92a5.69,5.69,0,0,0-.08,4.79c12.87,22.6,25.81,45.11,39,67.48a5.63,5.63,0,0,0,4.15,2.43c25.9.15,51.79.08,77.68.15a4.71,4.71,0,0,0,4.63-2.66q19.29-33.66,38.76-67.16a4.48,4.48,0,0,0-.16-5.26q-19.31-33.42-38.52-66.85a5,5,0,0,0-4.95-2.82C512.11,161.66,499.32,161.59,486.53,161.59Z" transform="translate(46.09 101.27)"/><path d="M634.68,69.47c13.73,0,27.46.08,41.19-.08a5,5,0,0,1,4.94,2.83q20.6,35.9,41.35,71.55c1.26,2.12,1.1,3.61-.08,5.65q-20.82,35.78-41.34,71.63a4.92,4.92,0,0,1-5,2.91c-27.61-.08-55.15-.08-82.77,0a4.6,4.6,0,0,1-4.63-2.59c-13.81-24.17-27.77-48.18-41.58-72.34a5.83,5.83,0,0,1,0-4.87C560.62,120,574.58,96,588.39,71.82c1.26-2.11,2.67-2.43,4.71-2.43C607,69.47,620.87,69.47,634.68,69.47Zm-.08,4.79c-12.79,0-25.65.08-38.44-.08a5.11,5.11,0,0,0-5.18,3c-12.79,22.36-25.74,44.56-38.45,66.93a5.67,5.67,0,0,0-.07,4.78q19.29,33.9,39,67.48a5.67,5.67,0,0,0,4.16,2.43c25.89.15,51.78.08,77.67.15a4.7,4.7,0,0,0,4.63-2.66q19.3-33.66,38.76-67.16a4.46,4.46,0,0,0-.16-5.26Q697.22,110.43,678,77a5,5,0,0,0-4.94-2.82C660.18,74.34,647.39,74.26,634.6,74.26Z" transform="translate(46.09 101.27)"/><path d="M782.38-15.85c13.73,0,27.46.08,41.19-.08a5,5,0,0,1,4.95,2.83q20.6,35.89,41.34,71.55c1.26,2.12,1.1,3.61-.07,5.65Q849,99.88,828.44,135.73a4.91,4.91,0,0,1-4.94,2.91c-27.62-.08-55.16-.08-82.78,0a4.6,4.6,0,0,1-4.63-2.59c-13.81-24.17-27.77-48.18-41.58-72.34a5.83,5.83,0,0,1,0-4.87c13.81-24.16,27.77-48.17,41.58-72.33,1.26-2.12,2.67-2.44,4.71-2.44C754.69-15.85,768.57-15.85,782.38-15.85Zm-.08,4.79c-12.78,0-25.65.08-38.44-.08a5.11,5.11,0,0,0-5.18,3C725.89,14.2,713,36.41,700.24,58.77a5.64,5.64,0,0,0-.08,4.78q19.3,33.9,39,67.48a5.67,5.67,0,0,0,4.16,2.43c25.89.16,51.78.08,77.67.16a4.7,4.7,0,0,0,4.63-2.67q19.3-33.66,38.76-67.16a4.48,4.48,0,0,0-.15-5.26Q844.92,25.11,825.69-8.32a5,5,0,0,0-4.94-2.82C807.88-11,795.09-11.06,782.3-11.06Z" transform="translate(46.09 101.27)"/><path d="M634.53-101.19c13.73,0,27.46.08,41.19-.08a5,5,0,0,1,4.95,2.83Q701.27-62.55,722-26.89c1.26,2.12,1.1,3.61-.07,5.65Q701.1,14.54,680.59,50.39a4.92,4.92,0,0,1-5,2.91c-27.61-.08-55.15-.08-82.77,0a4.6,4.6,0,0,1-4.63-2.59c-13.81-24.17-27.77-48.18-41.58-72.34a5.83,5.83,0,0,1,0-4.87c13.81-24.16,27.77-48.17,41.58-72.34,1.26-2.11,2.67-2.43,4.71-2.43C606.84-101.19,620.72-101.19,634.53-101.19Zm-.08,4.79c-12.79,0-25.65.08-38.44-.08a5.11,5.11,0,0,0-5.18,3C578-71.14,565.1-48.94,552.39-26.57a5.64,5.64,0,0,0-.08,4.78q19.29,33.9,39,67.48a5.67,5.67,0,0,0,4.16,2.43c25.89.16,51.78.08,77.67.16a4.71,4.71,0,0,0,4.63-2.67Q697.07,12,716.52-21.55a4.46,4.46,0,0,0-.16-5.26q-19.29-33.42-38.52-66.85a5,5,0,0,0-4.94-2.82C660-96.32,647.24-96.4,634.45-96.4Z" transform="translate(46.09 101.27)"/><path d="M191.22,843.93c13.73,0,27.46.08,41.19-.08a5,5,0,0,1,4.94,2.83q20.6,35.9,41.35,71.55c1.25,2.12,1.1,3.61-.08,5.65q-20.83,35.77-41.35,71.63a4.91,4.91,0,0,1-4.94,2.9c-27.62-.07-55.16-.07-82.78,0a4.6,4.6,0,0,1-4.63-2.58c-13.8-24.17-27.77-48.18-41.58-72.34a5.91,5.91,0,0,1,0-4.87c13.81-24.16,27.78-48.17,41.58-72.34,1.26-2.12,2.67-2.43,4.71-2.43C163.52,843.93,177.41,843.93,191.22,843.93Zm-.08,4.79c-12.79,0-25.66.07-38.45-.08a5.11,5.11,0,0,0-5.18,3c-12.78,22.36-25.73,44.56-38.44,66.92a5.66,5.66,0,0,0-.08,4.79q19.31,33.9,39,67.47a5.65,5.65,0,0,0,4.16,2.44c25.89.15,51.79.08,77.68.15a4.71,4.71,0,0,0,4.63-2.66q19.29-33.66,38.75-67.16a4.46,4.46,0,0,0-.15-5.26q-19.31-33.42-38.53-66.85a5,5,0,0,0-4.94-2.82C216.71,848.79,203.93,848.72,191.14,848.72Z" transform="translate(46.09 101.27)"/><path d="M191.07,673.27c13.73,0,27.46.08,41.19-.08A5,5,0,0,1,237.2,676q20.6,35.9,41.35,71.55c1.25,2.12,1.1,3.61-.08,5.65Q257.64,789,237.12,824.85a4.91,4.91,0,0,1-4.94,2.91c-27.62-.08-55.16-.08-82.78,0a4.58,4.58,0,0,1-4.62-2.59C131,801,117,777,103.19,752.83a5.91,5.91,0,0,1,0-4.87C117,723.8,131,699.79,144.78,675.62c1.25-2.11,2.66-2.43,4.7-2.43C163.37,673.27,177.26,673.27,191.07,673.27Zm-.08,4.79c-12.79,0-25.66.07-38.45-.08a5.11,5.11,0,0,0-5.18,3c-12.78,22.36-25.73,44.56-38.44,66.92a5.69,5.69,0,0,0-.08,4.79c12.87,22.6,25.81,45.11,39,67.47a5.61,5.61,0,0,0,4.15,2.44c25.9.15,51.79.08,77.68.15a4.71,4.71,0,0,0,4.63-2.66q19.29-33.66,38.76-67.16a4.48,4.48,0,0,0-.16-5.26q-19.31-33.42-38.52-66.85a5,5,0,0,0-4.95-2.82C216.57,678.13,203.78,678.06,191,678.06Z" transform="translate(46.09 101.27)"/><path d="M339.14,585.94c13.73,0,27.46.08,41.19-.08a5,5,0,0,1,4.94,2.83q20.61,35.89,41.35,71.55c1.26,2.12,1.1,3.61-.08,5.65q-20.82,35.77-41.34,71.63a4.92,4.92,0,0,1-4.95,2.91c-27.61-.08-55.15-.08-82.77,0a4.6,4.6,0,0,1-4.63-2.59c-13.81-24.17-27.77-48.18-41.58-72.34a5.83,5.83,0,0,1,0-4.87c13.81-24.16,27.77-48.17,41.58-72.34,1.26-2.11,2.67-2.43,4.71-2.43C311.44,585.94,325.33,585.94,339.14,585.94Zm-.08,4.79c-12.79,0-25.65.07-38.44-.08a5.11,5.11,0,0,0-5.18,3C282.65,616,269.7,638.19,257,660.55a5.69,5.69,0,0,0-.07,4.79q19.29,33.9,39,67.48a5.67,5.67,0,0,0,4.16,2.43c25.89.15,51.78.08,77.67.15a4.7,4.7,0,0,0,4.63-2.66q19.31-33.66,38.76-67.16a4.46,4.46,0,0,0-.16-5.26q-19.29-33.42-38.52-66.85a5,5,0,0,0-4.94-2.82C364.64,590.8,351.85,590.73,339.06,590.73Z" transform="translate(46.09 101.27)"/><path d="M339,415.28c13.73,0,27.46.08,41.19-.08a5,5,0,0,1,4.95,2.83q20.6,35.89,41.34,71.55c1.26,2.12,1.1,3.61-.07,5.65Q405.57,531,385.05,566.86a4.92,4.92,0,0,1-4.95,2.91c-27.61-.08-55.15-.08-82.77,0a4.6,4.6,0,0,1-4.63-2.59C278.89,543,264.93,519,251.12,494.84a5.83,5.83,0,0,1,0-4.87c13.81-24.16,27.77-48.17,41.58-72.34,1.26-2.11,2.67-2.43,4.71-2.43C311.3,415.28,325.18,415.28,339,415.28Zm-.08,4.79c-12.79,0-25.65.08-38.44-.08a5.11,5.11,0,0,0-5.18,3c-12.79,22.36-25.73,44.56-38.44,66.92a5.66,5.66,0,0,0-.08,4.79q19.29,33.9,39,67.48a5.67,5.67,0,0,0,4.16,2.43c25.89.15,51.78.08,77.67.15a4.7,4.7,0,0,0,4.63-2.66q19.3-33.66,38.76-67.16a4.46,4.46,0,0,0-.16-5.26q-19.29-33.42-38.52-66.85a5,5,0,0,0-4.94-2.82C364.49,420.15,351.7,420.07,338.91,420.07Z" transform="translate(46.09 101.27)"/><path d="M191,502.14c13.73,0,27.46.08,41.19-.08a5,5,0,0,1,4.94,2.83q20.6,35.9,41.35,71.55c1.25,2.12,1.1,3.61-.08,5.65Q257.53,617.87,237,653.72a4.91,4.91,0,0,1-4.94,2.91c-27.62-.08-55.16-.08-82.77,0a4.6,4.6,0,0,1-4.63-2.59c-13.81-24.17-27.78-48.18-41.59-72.34a5.91,5.91,0,0,1,0-4.87c13.81-24.16,27.78-48.17,41.59-72.34,1.25-2.12,2.66-2.43,4.7-2.43C163.26,502.14,177.15,502.14,191,502.14Zm-.08,4.79c-12.79,0-25.66.07-38.45-.08a5.1,5.1,0,0,0-5.17,3c-12.79,22.36-25.74,44.56-38.45,66.92a5.69,5.69,0,0,0-.08,4.79q19.3,33.9,39,67.47a5.61,5.61,0,0,0,4.15,2.44c25.9.15,51.79.08,77.68.15a4.71,4.71,0,0,0,4.63-2.66c12.87-22.44,25.73-44.8,38.76-67.16a4.48,4.48,0,0,0-.16-5.26q-19.31-33.42-38.52-66.85a5,5,0,0,0-5-2.82C216.46,507,203.67,506.93,190.88,506.93Z" transform="translate(46.09 101.27)"/><path d="M338.66,416.82c13.73,0,27.46.08,41.19-.08a5,5,0,0,1,4.94,2.83q20.59,35.9,41.35,71.55c1.26,2.12,1.1,3.61-.08,5.65q-20.82,35.78-41.35,71.63a4.91,4.91,0,0,1-4.94,2.91c-27.62-.08-55.15-.08-82.77,0a4.6,4.6,0,0,1-4.63-2.59c-13.81-24.17-27.78-48.18-41.58-72.34a5.83,5.83,0,0,1,0-4.87c13.8-24.16,27.77-48.17,41.58-72.34,1.25-2.11,2.67-2.43,4.71-2.43C311,416.82,324.85,416.82,338.66,416.82Zm-.08,4.79c-12.79,0-25.65.07-38.44-.08a5.11,5.11,0,0,0-5.18,3c-12.79,22.36-25.74,44.56-38.45,66.92a5.73,5.73,0,0,0-.08,4.79q19.31,33.9,39,67.48a5.63,5.63,0,0,0,4.16,2.43c25.89.15,51.78.08,77.67.15a4.7,4.7,0,0,0,4.63-2.66c12.87-22.44,25.73-44.8,38.76-67.16a4.46,4.46,0,0,0-.16-5.26Q401.19,457.78,382,424.35a5,5,0,0,0-4.94-2.82C364.16,421.68,351.37,421.61,338.58,421.61Z" transform="translate(46.09 101.27)"/><path d="M1964.3,831.3c13.73,0,27.46.08,41.19-.08a5,5,0,0,1,5,2.82q20.6,35.9,41.34,71.56c1.26,2.12,1.1,3.61-.07,5.65q-20.84,35.78-41.35,71.63a4.91,4.91,0,0,1-4.94,2.9c-27.62-.08-55.16-.08-82.78,0a4.58,4.58,0,0,1-4.63-2.59c-13.81-24.16-27.77-48.17-41.58-72.33a5.83,5.83,0,0,1,0-4.87c13.81-24.16,27.77-48.17,41.58-72.34,1.26-2.12,2.67-2.43,4.71-2.43C1936.61,831.3,1950.49,831.3,1964.3,831.3Zm-.08,4.78c-12.78,0-25.65.08-38.44-.07a5.11,5.11,0,0,0-5.18,3c-12.79,22.36-25.73,44.56-38.44,66.92a5.66,5.66,0,0,0-.08,4.79q19.31,33.88,39,67.47a5.65,5.65,0,0,0,4.16,2.44c25.89.15,51.78.07,77.67.15a4.68,4.68,0,0,0,4.63-2.67q19.31-33.65,38.76-67.16a4.46,4.46,0,0,0-.15-5.25q-19.31-33.43-38.53-66.85a5,5,0,0,0-4.94-2.82C1989.8,836.16,1977,836.08,1964.22,836.08Z" transform="translate(46.09 101.27)"/><path d="M1964.15,660.64c13.73,0,27.46.08,41.2-.08a5,5,0,0,1,4.94,2.82q20.6,35.89,41.35,71.56c1.25,2.12,1.09,3.61-.08,5.65q-20.83,35.77-41.35,71.63a4.91,4.91,0,0,1-4.94,2.9c-27.62-.07-55.16-.07-82.78,0a4.59,4.59,0,0,1-4.63-2.59c-13.81-24.16-27.77-48.17-41.58-72.33a5.83,5.83,0,0,1,0-4.87c13.81-24.16,27.77-48.17,41.58-72.34,1.26-2.12,2.67-2.43,4.71-2.43C1936.46,660.64,1950.35,660.64,1964.15,660.64Zm-.07,4.78c-12.79,0-25.66.08-38.45-.07a5.11,5.11,0,0,0-5.18,3c-12.79,22.36-25.73,44.56-38.44,66.92a5.66,5.66,0,0,0-.08,4.79q19.3,33.88,39,67.47a5.65,5.65,0,0,0,4.16,2.44c25.89.15,51.78.07,77.68.15a4.7,4.7,0,0,0,4.63-2.67q19.29-33.64,38.75-67.16A4.45,4.45,0,0,0,2046,735q-19.31-33.43-38.53-66.85a5,5,0,0,0-4.94-2.82C1989.65,665.5,1976.86,665.42,1964.08,665.42Z" transform="translate(46.09 101.27)"/><path d="M1668.35,662.66c13.73,0,27.46.08,41.19-.08a5,5,0,0,1,4.94,2.83q20.6,35.9,41.35,71.55c1.26,2.12,1.1,3.61-.08,5.65q-20.84,35.77-41.35,71.63a4.91,4.91,0,0,1-4.94,2.91c-27.62-.08-55.16-.08-82.77,0a4.6,4.6,0,0,1-4.63-2.59c-13.81-24.17-27.78-48.18-41.59-72.34a5.89,5.89,0,0,1,0-4.86c13.81-24.17,27.78-48.18,41.59-72.34,1.25-2.12,2.67-2.44,4.71-2.44C1640.65,662.66,1654.54,662.66,1668.35,662.66Zm-.08,4.79c-12.79,0-25.66.08-38.44-.08a5.11,5.11,0,0,0-5.18,3c-12.79,22.36-25.74,44.57-38.45,66.93a5.71,5.71,0,0,0-.08,4.78q19.31,33.9,39,67.48a5.63,5.63,0,0,0,4.16,2.43c25.89.16,51.78.08,77.67.16a4.71,4.71,0,0,0,4.63-2.67c12.87-22.44,25.73-44.8,38.76-67.16a4.48,4.48,0,0,0-.16-5.26q-19.31-33.42-38.52-66.85a5,5,0,0,0-5-2.82C1693.85,667.53,1681.06,667.45,1668.27,667.45Z" transform="translate(46.09 101.27)"/><path d="M1668.57,490c13.73,0,27.46.08,41.19-.08a5,5,0,0,1,5,2.83q20.6,35.89,41.34,71.55c1.26,2.12,1.1,3.61-.08,5.65q-20.82,35.77-41.34,71.63a4.92,4.92,0,0,1-5,2.91c-27.61-.08-55.15-.08-82.77,0a4.6,4.6,0,0,1-4.63-2.59c-13.81-24.17-27.77-48.18-41.58-72.34a5.83,5.83,0,0,1,0-4.87c13.81-24.16,27.77-48.17,41.58-72.33,1.26-2.12,2.67-2.44,4.71-2.44C1640.88,490,1654.76,490,1668.57,490Zm-.08,4.79c-12.79,0-25.65.08-38.44-.08a5.11,5.11,0,0,0-5.18,3c-12.79,22.36-25.73,44.57-38.44,66.93a5.64,5.64,0,0,0-.08,4.78q19.29,33.9,39,67.48a5.67,5.67,0,0,0,4.16,2.43c25.89.16,51.78.08,77.67.16a4.71,4.71,0,0,0,4.63-2.67q19.31-33.66,38.76-67.16a4.47,4.47,0,0,0-.16-5.26q-19.29-33.42-38.52-66.85a5,5,0,0,0-4.94-2.82C1694.07,494.86,1681.28,494.78,1668.49,494.78Z" transform="translate(46.09 101.27)"/><path d="M1816.27,404.67c13.73,0,27.46.08,41.19-.08a5,5,0,0,1,5,2.83q20.6,35.9,41.35,71.55c1.25,2.12,1.09,3.61-.08,5.65q-20.84,35.77-41.35,71.64a4.92,4.92,0,0,1-4.94,2.9c-27.62-.08-55.16-.08-82.78,0a4.6,4.6,0,0,1-4.63-2.59c-13.81-24.17-27.77-48.17-41.58-72.34a5.81,5.81,0,0,1,0-4.86c13.81-24.17,27.77-48.18,41.58-72.34,1.26-2.12,2.67-2.44,4.71-2.44C1788.58,404.67,1802.47,404.67,1816.27,404.67Zm-.07,4.79c-12.79,0-25.66.08-38.45-.08a5.11,5.11,0,0,0-5.18,3c-12.79,22.36-25.73,44.57-38.44,66.93a5.64,5.64,0,0,0-.08,4.78q19.31,33.9,39,67.48a5.67,5.67,0,0,0,4.16,2.43c25.89.16,51.78.08,77.68.16a4.69,4.69,0,0,0,4.62-2.67q19.3-33.66,38.76-67.16a4.48,4.48,0,0,0-.15-5.26q-19.3-33.42-38.53-66.85a5,5,0,0,0-4.94-2.82C1841.77,409.54,1829,409.46,1816.2,409.46Z" transform="translate(46.09 101.27)"/><path d="M1668.42,319.33c13.73,0,27.46.08,41.19-.08a5,5,0,0,1,5,2.83q20.6,35.9,41.34,71.55c1.26,2.12,1.1,3.61-.07,5.65q-20.83,35.78-41.35,71.63a4.91,4.91,0,0,1-4.94,2.91c-27.62-.08-55.16-.08-82.78,0a4.6,4.6,0,0,1-4.63-2.59c-13.81-24.17-27.77-48.18-41.58-72.34a5.81,5.81,0,0,1,0-4.86c13.81-24.17,27.77-48.18,41.58-72.34,1.26-2.12,2.67-2.44,4.71-2.44C1640.73,319.33,1654.61,319.33,1668.42,319.33Zm-.08,4.79c-12.78,0-25.65.08-38.44-.08a5.11,5.11,0,0,0-5.18,3c-12.79,22.36-25.73,44.57-38.44,66.93a5.64,5.64,0,0,0-.08,4.78q19.3,33.9,39,67.48a5.67,5.67,0,0,0,4.16,2.43c25.89.16,51.78.08,77.67.16a4.7,4.7,0,0,0,4.63-2.67q19.3-33.66,38.76-67.16a4.48,4.48,0,0,0-.15-5.26q-19.3-33.42-38.53-66.85a5,5,0,0,0-4.94-2.82C1693.92,324.2,1681.13,324.12,1668.34,324.12Z" transform="translate(46.09 101.27)"/><path d="M1816.12,747.5c13.73,0,27.46.08,41.19-.08a5,5,0,0,1,4.94,2.82q20.6,35.89,41.35,71.56c1.26,2.12,1.1,3.61-.08,5.65q-20.82,35.77-41.34,71.63a4.92,4.92,0,0,1-5,2.9c-27.62-.08-55.15-.08-82.77,0a4.58,4.58,0,0,1-4.63-2.59c-13.81-24.16-27.78-48.17-41.58-72.34a5.81,5.81,0,0,1,0-4.86c13.8-24.17,27.77-48.17,41.58-72.34,1.25-2.12,2.67-2.43,4.71-2.43C1788.42,747.5,1802.31,747.5,1816.12,747.5Zm-.08,4.78c-12.79,0-25.65.08-38.44-.08a5.11,5.11,0,0,0-5.18,3c-12.79,22.36-25.74,44.56-38.45,66.92a5.73,5.73,0,0,0-.08,4.79q19.3,33.89,39,67.47a5.6,5.6,0,0,0,4.16,2.43c25.89.16,51.78.08,77.67.16a4.69,4.69,0,0,0,4.63-2.67c12.87-22.44,25.73-44.8,38.76-67.16a4.45,4.45,0,0,0-.16-5.25q-19.31-33.43-38.52-66.85a5,5,0,0,0-4.94-2.83C1841.62,752.36,1828.83,752.28,1816,752.28Z" transform="translate(46.09 101.27)"/><path d="M1963.82,662.18c13.73,0,27.46.08,41.19-.08a5,5,0,0,1,5,2.82q20.6,35.9,41.34,71.56c1.26,2.12,1.1,3.61-.08,5.65q-20.82,35.77-41.34,71.63a4.91,4.91,0,0,1-5,2.9c-27.61-.07-55.15-.07-82.77,0a4.58,4.58,0,0,1-4.63-2.59c-13.81-24.16-27.77-48.17-41.58-72.33a5.83,5.83,0,0,1,0-4.87c13.81-24.16,27.77-48.17,41.58-72.34,1.26-2.12,2.67-2.43,4.71-2.43C1936.13,662.18,1950,662.18,1963.82,662.18Zm-.08,4.78c-12.79,0-25.65.08-38.44-.07a5.11,5.11,0,0,0-5.18,3c-12.79,22.36-25.73,44.56-38.44,66.92a5.66,5.66,0,0,0-.08,4.79q19.29,33.88,39,67.47a5.65,5.65,0,0,0,4.16,2.44c25.89.15,51.78.07,77.67.15a4.69,4.69,0,0,0,4.63-2.67q19.31-33.65,38.76-67.16a4.45,4.45,0,0,0-.16-5.25q-19.29-33.43-38.52-66.85a5,5,0,0,0-4.94-2.82C1989.32,667,1976.53,667,1963.74,667Z" transform="translate(46.09 101.27)"/><path d="M1816,576.84c13.73,0,27.46.08,41.19-.08a5,5,0,0,1,4.94,2.82q20.6,35.89,41.35,71.56c1.26,2.12,1.1,3.61-.08,5.65q-20.82,35.78-41.34,71.63a4.91,4.91,0,0,1-5,2.9c-27.61-.08-55.15-.08-82.77,0a4.58,4.58,0,0,1-4.63-2.59c-13.81-24.16-27.77-48.17-41.58-72.34a5.81,5.81,0,0,1,0-4.86c13.81-24.16,27.77-48.17,41.58-72.34,1.26-2.12,2.67-2.43,4.71-2.43C1788.27,576.84,1802.16,576.84,1816,576.84Zm-.08,4.78c-12.79,0-25.65.08-38.44-.07a5.11,5.11,0,0,0-5.18,3c-12.79,22.36-25.74,44.56-38.45,66.92a5.69,5.69,0,0,0-.07,4.79q19.29,33.88,39,67.47a5.64,5.64,0,0,0,4.16,2.43c25.89.16,51.78.08,77.67.16a4.69,4.69,0,0,0,4.63-2.67q19.3-33.66,38.76-67.16a4.45,4.45,0,0,0-.16-5.25q-19.29-33.44-38.52-66.85a5,5,0,0,0-4.94-2.82C1841.47,581.7,1828.68,581.62,1815.89,581.62Z" transform="translate(46.09 101.27)"/><path d="M1964.05,489.51c13.73,0,27.46.08,41.19-.08a5,5,0,0,1,4.94,2.82q20.6,35.89,41.35,71.56c1.25,2.12,1.1,3.61-.08,5.65q-20.83,35.77-41.35,71.63a4.91,4.91,0,0,1-4.94,2.9c-27.62-.08-55.16-.08-82.78,0a4.59,4.59,0,0,1-4.63-2.59c-13.8-24.16-27.77-48.17-41.58-72.33a5.91,5.91,0,0,1,0-4.87C1890,540,1904,516,1917.75,491.86c1.26-2.12,2.67-2.43,4.71-2.43C1936.35,489.51,1950.24,489.51,1964.05,489.51Zm-.08,4.78c-12.79,0-25.66.08-38.45-.07a5.11,5.11,0,0,0-5.18,3c-12.79,22.36-25.73,44.56-38.44,66.92a5.66,5.66,0,0,0-.08,4.79q19.31,33.89,39,67.47a5.65,5.65,0,0,0,4.16,2.44c25.89.15,51.79.07,77.68.15a4.7,4.7,0,0,0,4.63-2.67q19.29-33.64,38.75-67.16a4.45,4.45,0,0,0-.15-5.25q-19.31-33.43-38.53-66.85a5,5,0,0,0-4.94-2.82C1989.54,494.37,1976.76,494.29,1964,494.29Z" transform="translate(46.09 101.27)"/><path d="M1963.9,318.85c13.73,0,27.46.08,41.19-.08a5,5,0,0,1,4.94,2.82q20.6,35.9,41.35,71.56c1.25,2.12,1.1,3.61-.08,5.65q-20.84,35.77-41.35,71.63a4.91,4.91,0,0,1-4.94,2.9c-27.62-.07-55.16-.07-82.78,0a4.57,4.57,0,0,1-4.62-2.59c-13.81-24.16-27.78-48.17-41.59-72.33a5.91,5.91,0,0,1,0-4.87c13.81-24.16,27.78-48.17,41.59-72.34,1.25-2.12,2.66-2.43,4.7-2.43C1936.2,318.85,1950.09,318.85,1963.9,318.85Zm-.08,4.78c-12.79,0-25.66.08-38.45-.07a5.11,5.11,0,0,0-5.18,3c-12.78,22.36-25.73,44.56-38.44,66.92a5.69,5.69,0,0,0-.08,4.79c12.87,22.59,25.81,45.11,39,67.47a5.61,5.61,0,0,0,4.15,2.44c25.9.15,51.79.07,77.68.15a4.7,4.7,0,0,0,4.63-2.67q19.29-33.64,38.76-67.16a4.46,4.46,0,0,0-.16-5.25q-19.31-33.42-38.52-66.85a5,5,0,0,0-5-2.82C1989.4,323.71,1976.61,323.63,1963.82,323.63Z" transform="translate(46.09 101.27)"/><path d="M42.72,1441.12c13.73,0,27.46.08,41.19-.07a5,5,0,0,1,4.94,2.82q20.6,35.89,41.35,71.56c1.26,2.11,1.1,3.6-.08,5.64q-20.82,35.79-41.34,71.64a4.91,4.91,0,0,1-5,2.9c-27.61-.08-55.15-.08-82.77,0A4.6,4.6,0,0,1-3.57,1593c-13.81-24.16-27.77-48.17-41.58-72.34a5.81,5.81,0,0,1,0-4.86c13.81-24.17,27.77-48.18,41.58-72.34,1.26-2.12,2.67-2.43,4.71-2.43C15,1441.12,28.91,1441.12,42.72,1441.12Zm-.08,4.79c-12.79,0-25.65.08-38.44-.08a5.12,5.12,0,0,0-5.18,3c-12.79,22.36-25.74,44.57-38.45,66.93a5.69,5.69,0,0,0-.07,4.79q19.29,33.88,39,67.47a5.64,5.64,0,0,0,4.16,2.43c25.89.16,51.78.08,77.67.16a4.71,4.71,0,0,0,4.63-2.67q19.3-33.66,38.76-67.16a4.47,4.47,0,0,0-.16-5.26q-19.29-33.42-38.52-66.84a5,5,0,0,0-4.94-2.83C68.22,1446,55.43,1445.91,42.64,1445.91Z" transform="translate(46.09 101.27)"/><path d="M42.57,1270.47c13.73,0,27.46.07,41.19-.08a5,5,0,0,1,4.95,2.82q20.6,35.89,41.34,71.56c1.26,2.11,1.1,3.61-.08,5.64q-20.82,35.79-41.34,71.64a4.91,4.91,0,0,1-4.95,2.9c-27.61-.08-55.15-.08-82.77,0a4.6,4.6,0,0,1-4.63-2.59c-13.81-24.16-27.77-48.17-41.58-72.34a5.81,5.81,0,0,1,0-4.86C-31.49,1321-17.53,1297-3.72,1272.82c1.26-2.12,2.67-2.43,4.71-2.43C14.88,1270.47,28.76,1270.47,42.57,1270.47Zm-.08,4.78c-12.79,0-25.65.08-38.44-.08a5.13,5.13,0,0,0-5.18,3c-12.79,22.37-25.73,44.57-38.44,66.93a5.66,5.66,0,0,0-.08,4.79q19.29,33.89,39,67.47a5.64,5.64,0,0,0,4.16,2.43c25.89.16,51.78.08,77.67.16a4.71,4.71,0,0,0,4.63-2.67q19.31-33.66,38.76-67.16a4.47,4.47,0,0,0-.16-5.26q-19.29-33.42-38.52-66.84a5,5,0,0,0-4.94-2.83C68.07,1275.33,55.28,1275.25,42.49,1275.25Z" transform="translate(46.09 101.27)"/><path d="M42.62,756.51c13.73,0,27.46.08,41.19-.08a5,5,0,0,1,4.94,2.83q20.6,35.9,41.35,71.55c1.25,2.12,1.1,3.61-.08,5.65q-20.84,35.77-41.35,71.63A4.91,4.91,0,0,1,83.73,911c-27.62-.08-55.16-.08-82.77,0a4.59,4.59,0,0,1-4.63-2.59c-13.81-24.17-27.78-48.18-41.59-72.34a5.91,5.91,0,0,1,0-4.87C-31.45,807-17.48,783-3.67,758.86c1.25-2.11,2.66-2.43,4.7-2.43C14.92,756.51,28.81,756.51,42.62,756.51Zm-.08,4.79c-12.79,0-25.66.08-38.45-.08a5.09,5.09,0,0,0-5.17,3c-12.79,22.36-25.74,44.56-38.45,66.92a5.69,5.69,0,0,0-.08,4.79q19.31,33.9,39,67.48a5.63,5.63,0,0,0,4.15,2.43c25.9.15,51.79.08,77.68.15a4.71,4.71,0,0,0,4.63-2.66c12.87-22.44,25.73-44.8,38.76-67.16a4.48,4.48,0,0,0-.16-5.26Q105.15,797.47,85.93,764a5,5,0,0,0-5-2.82C68.12,761.38,55.33,761.3,42.54,761.3Z" transform="translate(46.09 101.27)"/><path d="M42.46,1099.34c13.73,0,27.46.07,41.19-.08a5,5,0,0,1,4.95,2.82q20.6,35.89,41.34,71.56c1.26,2.11,1.1,3.6-.07,5.64q-20.84,35.79-41.35,71.64a4.91,4.91,0,0,1-4.94,2.9c-27.62-.08-55.16-.08-82.78,0a4.6,4.6,0,0,1-4.63-2.59c-13.81-24.16-27.77-48.17-41.58-72.34a5.81,5.81,0,0,1,0-4.86c13.81-24.17,27.77-48.18,41.58-72.34,1.26-2.12,2.67-2.43,4.71-2.43C14.77,1099.34,28.65,1099.34,42.46,1099.34Zm-.08,4.78c-12.78,0-25.65.08-38.44-.08a5.13,5.13,0,0,0-5.18,3C-14,1129.38-27,1151.59-39.68,1174a5.66,5.66,0,0,0-.08,4.79q19.3,33.88,39,67.47a5.64,5.64,0,0,0,4.16,2.43c25.89.16,51.78.08,77.67.16a4.7,4.7,0,0,0,4.63-2.67Q105,1212.47,124.45,1179a4.48,4.48,0,0,0-.15-5.26q-19.3-33.42-38.53-66.84a5,5,0,0,0-4.94-2.83C68,1104.2,55.17,1104.12,42.38,1104.12Z" transform="translate(46.09 101.27)"/><path d="M42.31,928.68c13.73,0,27.46.07,41.19-.08a5,5,0,0,1,5,2.82Q109,967.32,129.8,1003c1.25,2.11,1.09,3.61-.08,5.65q-20.84,35.77-41.35,71.63a4.91,4.91,0,0,1-4.94,2.9c-27.62-.08-55.16-.08-82.78,0A4.6,4.6,0,0,1-4,1080.57c-13.81-24.16-27.77-48.17-41.58-72.34a5.81,5.81,0,0,1,0-4.86C-31.75,979.2-17.79,955.19-4,931c1.26-2.12,2.67-2.43,4.71-2.43C14.62,928.68,28.51,928.68,42.31,928.68Zm-.07,4.78c-12.79,0-25.66.08-38.45-.08a5.13,5.13,0,0,0-5.18,3c-12.79,22.37-25.73,44.57-38.44,66.93a5.66,5.66,0,0,0-.08,4.79q19.3,33.89,39,67.47A5.64,5.64,0,0,0,3.24,1078c25.89.16,51.78.08,77.68.16a4.69,4.69,0,0,0,4.62-2.67q19.3-33.66,38.76-67.16a4.48,4.48,0,0,0-.15-5.26q-19.31-33.42-38.53-66.84a5,5,0,0,0-4.94-2.83C67.81,933.54,55,933.46,42.24,933.46Z" transform="translate(46.09 101.27)"/><path d="M338.61,1448.61c13.73,0,27.46.08,41.19-.08a5,5,0,0,1,4.94,2.83q20.6,35.9,41.35,71.55c1.26,2.12,1.1,3.61-.08,5.65q-20.83,35.78-41.35,71.64a4.91,4.91,0,0,1-4.94,2.9c-27.62-.08-55.16-.08-82.77,0a4.6,4.6,0,0,1-4.63-2.59c-13.81-24.17-27.78-48.17-41.58-72.34a5.81,5.81,0,0,1,0-4.86c13.8-24.17,27.77-48.18,41.58-72.34,1.25-2.12,2.67-2.44,4.71-2.44C310.91,1448.61,324.8,1448.61,338.61,1448.61Zm-.08,4.79c-12.79,0-25.66.08-38.44-.08a5.12,5.12,0,0,0-5.18,3c-12.79,22.36-25.74,44.57-38.45,66.93a5.71,5.71,0,0,0-.08,4.78q19.31,33.9,39,67.48a5.63,5.63,0,0,0,4.16,2.43c25.89.16,51.78.08,77.67.16a4.71,4.71,0,0,0,4.63-2.67c12.87-22.44,25.73-44.8,38.76-67.16a4.47,4.47,0,0,0-.16-5.26q-19.31-33.42-38.52-66.84a5,5,0,0,0-4.94-2.83C364.11,1453.48,351.32,1453.4,338.53,1453.4Z" transform="translate(46.09 101.27)"/><path d="M338.28,1450.15c13.73,0,27.46.08,41.19-.08a5,5,0,0,1,4.94,2.83q20.59,35.89,41.35,71.55c1.25,2.12,1.1,3.61-.08,5.65q-20.83,35.78-41.35,71.64a4.91,4.91,0,0,1-4.94,2.9c-27.62-.08-55.16-.08-82.78,0a4.58,4.58,0,0,1-4.62-2.59c-13.81-24.17-27.78-48.17-41.59-72.34a5.89,5.89,0,0,1,0-4.86c13.81-24.17,27.78-48.18,41.59-72.34,1.25-2.12,2.66-2.44,4.7-2.44C310.58,1450.15,324.47,1450.15,338.28,1450.15Zm-.08,4.79c-12.79,0-25.66.08-38.45-.08a5.11,5.11,0,0,0-5.17,3c-12.79,22.36-25.74,44.57-38.45,66.93a5.67,5.67,0,0,0-.08,4.78c12.87,22.6,25.81,45.12,39,67.48a5.63,5.63,0,0,0,4.15,2.43c25.9.16,51.79.08,77.68.16a4.72,4.72,0,0,0,4.63-2.67q19.29-33.66,38.76-67.16a4.48,4.48,0,0,0-.16-5.26q-19.31-33.42-38.52-66.85a5,5,0,0,0-4.95-2.82C363.78,1455,351,1454.94,338.2,1454.94Z" transform="translate(46.09 101.27)"/><path d="M190.43,1364.81c13.73,0,27.46.08,41.19-.08a5,5,0,0,1,4.94,2.83q20.59,35.89,41.35,71.55c1.25,2.12,1.1,3.61-.08,5.65q-20.83,35.77-41.35,71.63a4.91,4.91,0,0,1-4.94,2.91c-27.62-.08-55.16-.08-82.78,0a4.6,4.6,0,0,1-4.63-2.59c-13.8-24.17-27.77-48.17-41.58-72.34a5.89,5.89,0,0,1,0-4.86c13.81-24.17,27.78-48.18,41.58-72.34,1.26-2.12,2.67-2.44,4.71-2.44C162.73,1364.81,176.62,1364.81,190.43,1364.81Zm-.08,4.79c-12.79,0-25.66.08-38.45-.08a5.11,5.11,0,0,0-5.18,3c-12.78,22.36-25.73,44.57-38.44,66.93a5.64,5.64,0,0,0-.08,4.78q19.3,33.9,39,67.48a5.67,5.67,0,0,0,4.16,2.43c25.89.16,51.79.08,77.68.16a4.72,4.72,0,0,0,4.63-2.67Q253,1478,272.42,1444.45a4.48,4.48,0,0,0-.16-5.26q-19.31-33.42-38.53-66.85a5,5,0,0,0-4.94-2.82C215.92,1369.68,203.14,1369.6,190.35,1369.6Z" transform="translate(46.09 101.27)"/><path d="M338.5,1277.48c13.73,0,27.46.08,41.19-.08a5,5,0,0,1,4.94,2.83q20.6,35.89,41.35,71.55c1.26,2.12,1.1,3.61-.08,5.65q-20.82,35.77-41.34,71.64a4.93,4.93,0,0,1-4.95,2.9c-27.62-.08-55.15-.08-82.77,0a4.6,4.6,0,0,1-4.63-2.59c-13.81-24.17-27.78-48.17-41.58-72.34a5.81,5.81,0,0,1,0-4.86c13.8-24.17,27.77-48.18,41.58-72.34,1.25-2.12,2.67-2.44,4.71-2.44C310.8,1277.48,324.69,1277.48,338.5,1277.48Zm-.08,4.79c-12.79,0-25.65.08-38.44-.08a5.11,5.11,0,0,0-5.18,3c-12.79,22.36-25.74,44.57-38.45,66.93a5.67,5.67,0,0,0-.07,4.78q19.29,33.9,39,67.48a5.67,5.67,0,0,0,4.16,2.43c25.89.16,51.78.08,77.67.16a4.71,4.71,0,0,0,4.63-2.67q19.31-33.66,38.76-67.16a4.47,4.47,0,0,0-.16-5.26Q401,1318.44,381.81,1285a5,5,0,0,0-4.94-2.82C364,1282.35,351.21,1282.27,338.42,1282.27Z" transform="translate(46.09 101.27)"/></g><g id="Layer_4" data-name="Layer 4"><rect class="cls-1" x="46.09" y="101.27" width="2048" height="2048"/></g></svg>