<svg xmlns="http://www.w3.org/2000/svg" viewBox="0 0 2048.75 2048.75"><defs><style>.cls-1{opacity:0.5;}.cls-2{fill:#555;}.cls-3{fill:#fff;}.cls-4{fill:none;stroke:#000;stroke-miterlimit:10;stroke-width:0.75px;}</style></defs><title>pattern1</title><g id="Layer_6" data-name="Layer 6"><g class="cls-1"><path class="cls-2" d="M35,1057.91c.15,0,.31-.34.47-.34,5-1,9.87-2,14.88-3.08,5.32-1,10.65-2.39,16-3.41L88.85,1046c6.58-1.71,13.31-3.08,19.89-4.44,7.52-1.37,15.2-3.08,22.72-4.79,7.51-1.37,15.19-3.07,22.86-4.78s15.2-3.42,22.72-5.13c8-1.71,16.13-3.42,24.12-5.13h4.38c.79.34,1.73,1,2.51,1.37,3,.68,6.11,1,9.09,1.71a76.35,76.35,0,0,1,8.77,1.37c2.19.34,4.54,1,6.73,1.36,1.1.35,2.35.35,3.6.69,3,.68,5.8,1.36,8.62,2a43.22,43.22,0,0,0,6.42,1.36c2.66.69,5.48,1,8.3,1.71,1.26.35,2.51.35,3.76.69a55.52,55.52,0,0,1,7.36,1.71c2.67.68,5.49,1,8.31,1.71a11.43,11.43,0,0,1,3.29.68,65.87,65.87,0,0,1,8.14,1.37c1.72.34,3.29,1,5,1.36,5.48,1,10.81,1.71,16.14,2.74,4.7.68,9.24,1.71,13.94,2.73l8.92,2,15.36,3.08a78,78,0,0,1,8.77,1.71c4.07,1,8.14,1,12.21,2.39,3,1,5.8.68,8.78,1.37,3.6.68,6.89,2.73,10.49,2.39.31,0,.47.68.78,1-.31.34-.47.68-.62.68-4.08.68-8,1.71-11.91,2.39s-8,1.71-11.9,2.39c-5.64,1.37-11.44,2.74-17.07,3.76a37.32,37.32,0,0,1-6.11,1c-3.92.68-7.84,1.71-11.75,2.39a1.59,1.59,0,0,1-1.1.34,39.56,39.56,0,0,1-6.11,1.71,42.63,42.63,0,0,1-6.58,1c-3.13.68-6.42,1.71-9.55,2.39-.94,0-1.88-.68-2.66,0a19.83,19.83,0,0,1-7.36,2c-1.57.34-3.29.34-5,.68a56.76,56.76,0,0,0-7.05,2c-3,.69-5.95.35-8.92,1.71-3.92,1.71-8.15.69-12.06,2.4-4.23,2-8.62,1-13,2.73-2.81,1-5.63.68-8.45,1a1.61,1.61,0,0,0-1.26.34c-3.44,2-7,2.39-10.65,2.39a3.73,3.73,0,0,0-2.66.68c-2.51,2-5.17,2-7.68,1.71h-6.1a3.75,3.75,0,0,1-3.14-1,3.39,3.39,0,0,0-2.66-1.37c-2.66-.34-5.48-1-8.15-1.37-1.09-.34-2.34-.68-3.6-1-3-.69-6.11-1-9.08-1.71-1.57-.34-3.14-1-4.7-1.37-3.13-.68-6.42-1-9.56-1.71l-14.56-3.07c-4.08-1-8-1.71-11.91-2.4l-6.42-1c-2.66-.68-5.17-1.71-7.83-2.05-4.07-1-8.15-1-12.22-2.39-2.35-1-4.85-1-7.2-1.37-3-.69-5.8-1.37-8.78-2-2.66-.69-5.48-1-8.3-1.71-1.56-.34-3-.69-4.54-1-5.17-.68-10.18-1.71-15.35-2.73-3.13-.68-6.11-1.37-9.24-2a79.25,79.25,0,0,0-8.62-1.37,80.06,80.06,0,0,1-8.92-1.71c-1.41-.34-3-.68-4.39-1-3-.69-5.8-1-8.62-1.71-.94,0-1.88-.34-2.81-.34C34.66,1058.25,34.66,1058.25,35,1057.91Z" transform="translate(0.38 0.38)"/><path class="cls-2" d="M389.9,911.29c-.31,0-.47.34-.78.34C383.64,913,378.31,914,373,915c-12.06,2.4-24.28,5.13-36.34,7.52-3.45.69-7,1.37-10.5,2.05-5,1-9.86,2.06-14.72,3.08l-10.34,2c-5,1-10.18,2.39-15.19,3.42-3.45,1-6.74,1.37-10,2.05-5.17,1-10.33,2.39-15.5,3.42-3.14.68-6.27,1-9.4,1.71-5.64,1-11.28,2.39-16.92,3.76-3.6,1-7.2.68-10.81,2.73-.47.34-.78,0-1.25,0a6.48,6.48,0,0,0-6.11,0,.89.89,0,0,1-1.25,0,2.67,2.67,0,0,0-2.82-1.71,21.89,21.89,0,0,1-4.7-.34c-5.79-1-11.59-2.39-17.39-3.76-3.91-.68-7.83-.68-11.74-2a45.63,45.63,0,0,0-6.58-1l-8.46-2.05c-3-.68-6.11-1-9.09-1.7-2-.35-3.91-1-5.95-1.37-1.09-.34-2.35,0-3.6-.34-3-.69-6.11-1.37-9.08-2.05-2.67-.69-5.17-1-7.84-1.71a38.09,38.09,0,0,0-6.11-1.37c-2.5-.68-4.85-1-7.36-1.71l-4.7-1c-2-.35-3.91-.35-5.95-.69-5.64-1.37-11.12-2.73-16.6-3.76-2.35-.68-4.7-.34-6.89-1a69.88,69.88,0,0,0-14.41-3.08c-1.73,0-3.45-1-5.17-1.37-4.08-.68-8-.68-12.06-2.05-3.14-1-6.43-1-9.72-1.71a11.65,11.65,0,0,1-4.54-1.36c6.11-1.71,12.38-3.08,18.49-4.45,6.57-1.36,13.31-2.73,19.89-4.1L92,896.93c6.58-1.37,13.32-2.73,20-4.1l19.74-4.1c6.58-1.37,13.31-2.74,20-4.1,8.93-2.06,18-3.76,26.94-5.81,8-1.71,16.13-3.42,24.12-5.13.16,0,.63-.34.78,0,1.1,2.39,2.67,1.71,3.92,1.71a27.16,27.16,0,0,1,8.93,1.36,22.49,22.49,0,0,0,4.7,1c2.5.34,4.85,1,7.36,1.37a14.69,14.69,0,0,1,3.92.68,64,64,0,0,1,7.83,1c5.64,1,11.12,2.39,16.76,3.76,3.91,1,8,1.7,11.9,2.39a84.07,84.07,0,0,1,9.24,1.37c6.11,1.36,12.06,2.73,18.17,4.1,3.76,1,7.68,1.71,11.44,2.39,5,1,10.18,2,15.19,3.08,4.07,1,8,1.7,11.9,2.39l6.27,1c3,.69,6.11,1.37,9.09,2s6.1,1,9.08,1.71c2,.35,4.07,1,6.11,1.37,3,.68,5.79,1,8.61,1.71a44.7,44.7,0,0,0,6.43,1.37l9.39,2Z" transform="translate(0.38 0.38)"/><path class="cls-2" d="M388.18,1353.9c-4.7,1-9.24,1.71-13.94,2.74-7.05,1.7-13.94,3.07-21,4.44-6.89,1.37-13.63,2.73-20.36,4.1-7.05,1.37-14.1,3.08-21.15,4.44-6.89,1.37-13.62,2.74-20.36,4.1-5.64,1-11.28,2.4-16.92,3.42s-11.59,2.4-17.38,3.42c-6.58,1.37-13.32,2.73-20,4.1-7.21,1.37-14.41,3.08-21.62,4.45a2.13,2.13,0,0,1-1.41-.35l-2.35-1c-.94-.34-2,0-3-.34a60.46,60.46,0,0,0-7.68-1.71c-5.17-1-10.49-1.71-15.82-2.74-4.7-.68-9.55-1.71-14.25-2.73l-8.46-2c-5-1-9.87-1.71-14.72-2.74-3.29-.34-6.58-1.36-10-2-3.76-1-7.67-1.71-11.43-2.39l-6.58-1-8.77-2.06a77.85,77.85,0,0,1-8.77-1.36c-1.57-.34-3.14-1-4.7-1.37-5-1-9.87-1.71-14.73-2.73-3.13-.35-6.42-1.37-9.55-2-4.08-.69-8-.69-12.06-2.06-3.14-1-6.43-1-9.71-1.7l-8-2.05c-3.14-.69-6.27-1-9.4-1.71v-.69a1.93,1.93,0,0,1,1.1-.68c4.85-1,9.86-2,14.72-3.08,6.58-1.71,13.16-3.07,19.73-4.44s12.69-2.73,19-4.1c5.32-1,10.65-2.39,16-3.42,7.52-1.71,15.2-3.42,22.72-5.13,6.58-1.36,13-2.73,19.58-4.1,7.67-1.71,15.19-3.42,22.86-5.12l23.5-5.13c3.92-.69,7.83-2,11.75-.69a16.16,16.16,0,0,0,3.91,1,31.14,31.14,0,0,1,9.56,1.71,48.68,48.68,0,0,0,6.73,1.37c2.67.68,5.49,1.36,8.31,2,3.13.68,6.26,1,9.39,1.71,2.2.34,4.23,1,6.43,1.36,1.88.34,3.75.34,5.48.69,5.64,1,11.12,2.39,16.76,3.76,4.07.68,8.14.68,12.06,2,2,.68,4.23.68,6.42,1,3,.69,5.8,1.37,8.77,2,3.13.69,6.42,1,9.56,1.71,2.19.34,4.23,1,6.42,1.37,1.72.34,3.44.34,5.17.68,5.64,1.37,11.12,2.39,16.76,3.76,4.07,1,8,1.71,11.9,2.39,3.45.69,6.74,1,10,1.71l9.86,2c.94.35,2,.35,3,.69l8,2c1.88.34,3.76.34,5.48.68,1.25.34,2.35,1,3.6,1.37C388.49,1353.56,388.49,1353.9,388.18,1353.9Z" transform="translate(0.38 0.38)"/><path class="cls-2" d="M37.47,1206.25a24.74,24.74,0,0,1,4.7-1.37c8.46-2.05,17.08-3.76,25.54-5.81,8.45-1.71,16.91-3.76,25.37-5.81s17.07-3.76,25.53-5.81,16.92-3.76,25.38-5.81c9.55-2.39,19.11-4.44,28.66-6.49,8.46-2.05,16.76-3.76,25.22-5.81,1.25-.35,2.51-1,3.76-.69,1.88.69,3.76,1.37,5.64,1,.47,0,.78.34,1.09.34l3.29,1c2.51.35,5.17.35,7.68,1,5.79,1,11.43,2.39,17.23,3.76,3.91,1,7.83,1.71,11.75,2.39a84,84,0,0,1,9.08,1.37c3.6.68,7.21,1.71,10.81,2.39,2,.34,4.07,1,6.11,1.37,1.41.34,3,.68,4.38,1a70,70,0,0,1,8.15,1.37l14.88,3.08c2.35.68,4.7.34,7,1a100.17,100.17,0,0,0,14.25,3.08,104.57,104.57,0,0,1,10.49,2c2.2.34,4.23,1,6.43,1.37,1.56.34,3,.68,4.54,1,2.51.34,4.86,1,7.36,1.37,2.66.34,5.33,1,8,1.37,1.1.34,2.35.34,3.45.68a61.67,61.67,0,0,0,7.2,1.71c1.41.34,2.66,0,4.07.34,3.76,1,7.52,1.71,11.28,2.74,1.25.34,2.66.34,3.92.68a6.91,6.91,0,0,1-3.76,2c-4.54,1-9.24,1.71-13.94,2.73-7.05,1.37-14.1,3.08-21.15,4.45-5.64,1.36-11.28,2.39-16.92,3.42-5.79,1-11.59,2.39-17.38,3.41-7.36,1.71-14.57,3.08-21.77,4.45s-13.94,2.73-21,4.1c-5.49,1-11.12,2.39-16.61,3.42-5.64,1-11.43,2.39-17.07,3.41-5.95,1-11.9,2.4-17.86,3.42-3,.34-6,2.39-9.08.69a12.34,12.34,0,0,0-3.13-1.37l-14.57-3.08c-4.07-1-8-1.71-11.9-2.39a78.37,78.37,0,0,1-8.93-1.37l-18.33-4.1c-2-.34-3.92-.34-6-.68-4.7-.69-9.24-1.71-13.94-2.74-3.13-.68-6.42-1.71-9.56-2.39a17.78,17.78,0,0,1-4.23-.34c-3.13-.69-6.1-1.37-9.24-2-2.35-.34-4.7-1-7-1.37s-4.69-1-7-1.37a39.67,39.67,0,0,0-6.11-1.36c-1.73-.35-3.29-1-5-1.37-3-.68-5.79-1-8.77-1.71a10.42,10.42,0,0,1-3.13-.68c-3-.69-6.11-1-9.08-1.71-2-.34-3.92-1-6-1.37a16.47,16.47,0,0,1-4.07-.34c-2.19-.34-4.54-1.37-6.89-1.71l-12.69-2C37.63,1205.91,37.63,1205.57,37.47,1206.25Z" transform="translate(0.38 0.38)"/><path d="M29.64,904.45c0-.68.16-1.37.16-2.05V847c0-.68-.16-1.37-.16-2v-1.37c.47-4.44,2-3.07,3.29-3.42,2-.68,4.07-.34,6.11-.68a11.92,11.92,0,0,0,3.29-1l5.8-1a55.24,55.24,0,0,1,7.2-1.71,33.76,33.76,0,0,1,6-1A18.62,18.62,0,0,0,68.49,833c2-1,4.07-.69,6.11-1,2.35-.34,4.54-1.37,6.73-1.71a51.71,51.71,0,0,1,6.89-1c1.73-.34,3.45-1,5.17-1.37a21,21,0,0,1,4.55-.68,20,20,0,0,0,8.61-2.05,8.17,8.17,0,0,1,4.07-.69,21.16,21.16,0,0,0,8.93-2.05,6.3,6.3,0,0,1,3.45-.68,28.39,28.39,0,0,0,8.93-2c1.72-.69,3.75-.35,5.63-.69a47.23,47.23,0,0,0,6.74-1.71c.78,0,1.57-.34,2.35-.34a27,27,0,0,0,11.43-2.39,6.84,6.84,0,0,1,2.67-.34,21.3,21.3,0,0,0,8.92-2.05,7.91,7.91,0,0,1,3.92-.69,19.21,19.21,0,0,0,8.46-2.05,9.87,9.87,0,0,1,4.38-.68c3,0,5.8-1,8.62-2,1.72-.69,3.6-.34,5.32-.69,2.35-.34,4.55-1.36,6.9-1.7,1.88-.35,3.91-.35,5.79-.69,2.67-.34,5.17-1.36,7.83-2a5.67,5.67,0,0,1,2.35-.34,18.74,18.74,0,0,0,9.4-2.05,8,8,0,0,1,3.92-.68,20.55,20.55,0,0,0,8.77-2.06,9.24,9.24,0,0,1,4.23-.68c3,0,5.79-1,8.77-2,1.57-.68,3.29-.34,4.86-.68,2.35-.35,4.54-1.37,6.89-1.71l5.79-1A26.39,26.39,0,0,0,281,790c.79,0,1.57-1,2.35-1.37s1.41-1,2-1c3.13-.34,6.11-.34,9.24-.69a.61.61,0,0,0,.63-.34c1.25-2,2.5-1.71,3.76-1.71a58,58,0,0,0,7.67-.34c.63,0,1.1-.68,1.72-1,.94-.35,1.73-1,2.67-1a65.19,65.19,0,0,1,8.14-.34,1.32,1.32,0,0,0,1.41-.68,3.94,3.94,0,0,1,3.6-1.37,61.73,61.73,0,0,0,7.84-.34,2,2,0,0,0,1.09-.69c1.25-1.71,2.51-1.36,3.92-1.36A63.48,63.48,0,0,0,345,777a.61.61,0,0,0,.63-.34c1.09-2,2.5-1.71,3.91-1.71a52.2,52.2,0,0,0,7.36-.34c.63-.34,1.41-1,2-1.37s1.41-1,2.19-1c3.14-.34,6.11-.34,9.24-.69h.32c1.88-3.07,4.07-1.71,6.11-1.71a21.84,21.84,0,0,1,4.7-.34c1.4,0,2.81-1,3.91-3.07h1.1a8.54,8.54,0,0,1,2.82.68c.31,0,.78,1,1.09,1.37v.34c0,.68-.15,1.71-.15,2.39v58.11c0,.68.15,1.36.15,2v1c-.47.34-.78,1-1.25,1-1.72.68-3.6.68-5.33,1.36-2.19,1-4.38,1-6.57,1.37a25.88,25.88,0,0,0-7.05,1.37c-.63,0-1.41.68-2.2.68-3.13.69-6.42.69-9.55,1.71a31.38,31.38,0,0,1-5.48,1.37,56.62,56.62,0,0,0-7.52,1.37c-1.57.34-3,.68-4.54,1-2.82.34-5.8.34-8.62,1.71-1.56,1-3.13.68-4.7,1-2.19.34-4.38.34-6.42,1a17.7,17.7,0,0,1-7.05,1.71,16.47,16.47,0,0,0-5.79,1,17.22,17.22,0,0,1-8.15,1.7,9.12,9.12,0,0,0-4.23.69,12.66,12.66,0,0,1-5.95,1.71c-2.82.34-5.48.34-8.14,1.71a17.93,17.93,0,0,1-4.08,1,63.88,63.88,0,0,0-8,1.37l-5.16,1c-2.35.35-4.7.35-6.9,1.37a23.72,23.72,0,0,1-6.73,1.37c-2,0-3.92.68-5.95,1s-4.08,1-6.11,1.37c-2.35.68-4.86,1-7.36,1.71a12.42,12.42,0,0,0-3.45.68c-2.66.69-5.33.69-7.83,1.37-1.88.34-3.76,1-5.8,1.37a67.39,67.39,0,0,0-8.14,1.71c-1.1.34-2.35.68-3.61,1a34.71,34.71,0,0,1-5.79,1.37l-7.05,2c-1.25.34-2.51.34-3.76.68-2.19.34-4.54,1.37-6.89,1.71-2,.34-3.92.34-5.95.69-3.14.68-6.11,1.36-9.24,2h-1.88c-2.82.68-5.49,1.36-8.31,2a56.89,56.89,0,0,1-7.51,1c-.79.34-1.57.34-2.2.69-3,1.7-6.11,1.36-9.08,2-1.72.34-3.29.68-5,1-2.35.34-4.86.69-7.37,1-.94.34-1.88,0-2.66.34-1.41.34-2.82,1.37-4.23,1.71-2.19.34-4.54.34-6.89.68a4.31,4.31,0,0,0-2,.34,14.46,14.46,0,0,1-8.14,2.05H96.37a5.2,5.2,0,0,0-3.13.69c-2.51,1.71-5,1.71-7.52,1.71-2.19,0-4.23,0-6.42,1.36-1.57,1-3.14.69-4.7,1-2.35.34-4.7,0-7,1.37a11.49,11.49,0,0,1-5.64,1.36,11.73,11.73,0,0,0-3.45,0c-1.25.35-2.66,1-4.07,1.37-1.1.34-2.19,1-3.29,1-2.19.34-4.23,0-6.42.34-.94.34-1.88,1-2.82,1.37A5.42,5.42,0,0,1,39,906.84a67.2,67.2,0,0,1-8.3,1c-.63,0-.94-.34-.94-1.71,0-.34-.16-.68-.16-1Z" transform="translate(0.38 0.38)"/><path d="M390.53,917.1c0,.68-.16,1-.16,1.71V979.3c0,1.37-.15,2.05-.78,2.39a37.68,37.68,0,0,1-5.64,2.06c-2.82.68-5.79.68-8.77,1.36-1.72.34-3.45,1-5.17,1.37-2.66.34-5.17,1-7.83,1.37-1.88.34-3.92.68-5.95,1-1.88.69-3.92.34-6,1.37-2.35,1-4.86,1-7.37,1.37a22.46,22.46,0,0,0-4.85,1,19.85,19.85,0,0,1-5.8,1.71,79.63,79.63,0,0,0-8.3,1.71,17,17,0,0,0-4.07.68c-2.35.69-4.86.69-7.21,1.37a19.73,19.73,0,0,1-6.26,1.37c-2.2.34-4.39.34-6.58,1.37a19.8,19.8,0,0,1-6.11,1.36c-2.19.34-4.39,1-6.58,1.37-1.88.34-3.91,1-5.79,1.37-2.51.68-5,1-7.52,1.71-1.1.34-2.35.68-3.61,1a55.3,55.3,0,0,0-7.51,1c-2,.68-4.08,1.71-6.27,1.71a13.86,13.86,0,0,0-6.42,1c-2.35,1.37-4.7,1.37-7.05,1.71-2,.34-4.23,1-6.27,1.37a30.57,30.57,0,0,1-5.32,1.36c-2.19.35-4.39,0-6.58,1a20.11,20.11,0,0,1-7.52,1.71,8,8,0,0,0-3.91.68c-3.45,1.71-6.9,1.71-10.34,2.05a23.4,23.4,0,0,0-4.39,1.71c-1.09.34-2,1-3.13,1.37l-5.8,1a55.52,55.52,0,0,1-7.36,1.71,73,73,0,0,0-8.46,1.37,28.55,28.55,0,0,0-5.32,1l-6.42,1c-1.26.34-2.51,1-3.76,1.37-4.23.68-8.46.68-12.53,2.39-2.51,1-5.17.68-7.84,1a1.24,1.24,0,0,0-1.09.34,22.38,22.38,0,0,1-10.34,2,6.88,6.88,0,0,0-2.66.68,18.79,18.79,0,0,1-9.4,2,23.94,23.94,0,0,0-5,1c-.94.34-1.73,1-2.67,1a22.64,22.64,0,0,1-4.85.35c-1.1,0-2.35-.35-3.29.34a13.47,13.47,0,0,1-9.4,2h-1.1a4.79,4.79,0,0,0-3,.68c-2.35,1.71-4.7,1.71-7,1.71-2.51,0-5.17-.34-7.52,2a1.09,1.09,0,0,1-.94.34,29.49,29.49,0,0,0-5.48,0,27.48,27.48,0,0,0-5,1.37c-.94,0-1.88,1-2.82,1a36.66,36.66,0,0,0-6.11,0c-1.57,0-3,1-4.39,1.71a3.05,3.05,0,0,1-1.72.69c-3.92-.34-7.83-.34-11.59,1.71a1.52,1.52,0,0,1-2.35-.69v-2c0-.68.16-1.36.16-2V994.34c0-.68-.16-1.37-.16-2.05v-2c.47-.34.78-.68,1.25-1s.79,0,1.26-.34c2.82-1.71,5.63-1.71,8.45-2,1.88-.34,3.76-1,5.64-1.37l4.7-1c2.35-.68,4.86-.34,7.21-1.37a22.64,22.64,0,0,1,6.73-1.36c2.2-.35,4.23-1,6.42-1.37,1.57-.34,3.14-1.37,4.7-1.37,2.82-.34,5.64-.34,8.31-1.71a6.12,6.12,0,0,1,2.34-.68,92.05,92.05,0,0,0,9.56-1.37c1.72-.34,3.6-1,5.33-1.37a51.11,51.11,0,0,1,7-1.36c1.57-.35,3.29-1,4.86-1.37,3-.34,5.79-.34,8.77-1.71,1.41-.68,3-.68,4.54-1,2.2-.34,4.55,0,6.74-1a19,19,0,0,1,7.2-1.71c2,0,3.92-.68,6-1s3.91-1,5.79-1.37c2-.34,4.23-.34,6.27-1a13.8,13.8,0,0,1,6.11-1.71c2.66-.34,5.48-.34,8.14-1.71a16.55,16.55,0,0,1,3.92-1c2.66-.34,5.17-1,7.83-1.37A35.07,35.07,0,0,1,191,955a45,45,0,0,1,6.58-1.36c1.88-.34,3.76-1,5.63-1.37,2-.34,3.92-.34,6-.68,1.41-.35,2.66-1,3.91-1.37a74,74,0,0,1,8.46-1,7.86,7.86,0,0,0,3.6-1.36c.94-.34,1.73-1,2.51-1h6.89a4.45,4.45,0,0,0,2.82-1,4.29,4.29,0,0,1,3.13-1.37h4.86c1.57-.34,3.29,0,4.86-1.71a4,4,0,0,1,2.5-1,60.34,60.34,0,0,1,7.83-.34c.63,0,1.26-.68,1.88-1,.94-.34,1.73-1.37,2.67-1.37a32.93,32.93,0,0,1,5.79,0,6,6,0,0,0,4.86-2.05,1.65,1.65,0,0,1,1.56-.68h7.05a4.3,4.3,0,0,0,3.6-1.71,3.15,3.15,0,0,1,1.73-.69c2.5,0,4.85.35,7.36,0,1.1,0,2-1,3.13-1.36.94-.69,1.72-1.37,2.66-1.37,2.51-.34,4.86,0,7.37-.34.94,0,1.72-1,2.66-1.37.78-.34,1.57-1,2.35-1h6.42a5.12,5.12,0,0,0,4.39-2.06,1.65,1.65,0,0,1,1.56-.68c2.82-.34,5.64,0,8.46-.34.63,0,1.41-1,2-1.37.47-.34,1.09-1,1.56-1H347a4.07,4.07,0,0,0,3.6-1.37,3.6,3.6,0,0,1,2.35-1H360c.94-.34,2-.34,2.82-1.36a3.46,3.46,0,0,1,2.82-1.37h5.95a5.77,5.77,0,0,0,4.38-1.71,2.94,2.94,0,0,1,2-1c3.6,0,7.2.68,10.65-1.71.47-.35,1.1.34,1.72.34C390.37,914,390.37,914.7,390.53,917.1Z" transform="translate(0.38 0.38)"/><path d="M30.11,1343.31c0-.69.16-1,.16-1.71v-56.06c0-.68-.16-1-.16-1.71v-1c0-.34.16-.68.16-1,0-1.36.31-2,.94-2a31.93,31.93,0,0,0,5.64-.68c1.88-.34,3.76-1,5.64-1.37,1.25-.34,2.66-.68,3.91-1a75.22,75.22,0,0,0,8.46-1.37l5.17-1c2.35-.34,4.86-1,7.21-1.36,1.72-.35,3.44-1,5.16-1.37,2.35-.68,4.7-.34,7-1.37a17.87,17.87,0,0,1,7-1.71c2,0,3.92-.68,6-1,1.73-.34,3.29-1,5-1.37,2.35-.34,4.69,0,6.89-1a26.28,26.28,0,0,1,7-1.71c1.88-.35,3.91,0,5.79-1,2.19-1.37,4.54-1.37,6.89-1.71a41.35,41.35,0,0,0,6.27-1.36,12.4,12.4,0,0,1,5.79-1.37,18.89,18.89,0,0,0,6.11-1,20.15,20.15,0,0,1,7.52-1.71,11.09,11.09,0,0,0,5.64-1,17.19,17.19,0,0,1,7.05-1.37,28.76,28.76,0,0,0,5-1,20.31,20.31,0,0,1,6.11-1.71c2.35-.35,4.86-1,7.21-1.37,1.41-.34,3-.68,4.54-1l7.2-1c1.41,0,2.67-1.37,4.08-1.37A27.28,27.28,0,0,0,207,1243.5c2.35-1,4.7-.68,7.05-1,2.51-.34,4.86-.34,7.21-2.74a1.58,1.58,0,0,1,1.25-.34h7c1.1,0,2.19,0,3-1a5.38,5.38,0,0,1,3.75-1.37,22.39,22.39,0,0,0,6.74,0c.94,0,1.72-1,2.66-1.37s1.41-1,2.2-1h7.83c.78,0,1.41-.69,2.19-1,.94-.34,1.88-1.37,2.82-1.37,2.66-.34,5.33,0,8-.34.78,0,1.56-1,2.35-1.37.62-.34,1.25-1,1.88-1h6.73a5.16,5.16,0,0,0,4.08-1.71,2.17,2.17,0,0,1,1.87-.68,46.73,46.73,0,0,0,6.9,0,16.2,16.2,0,0,0,3.44-1.71c.63-.34,1.26-1,1.88-1h7.52a5.42,5.42,0,0,0,2.82-1.36,3.67,3.67,0,0,1,2.82-1.37,27.85,27.85,0,0,0,7.52,0c.94,0,1.72-1,2.66-1.71a3.14,3.14,0,0,1,1.72-.68h6.27a4.9,4.9,0,0,0,4.39-1.71,2.63,2.63,0,0,1,2-1h6.89a4.36,4.36,0,0,0,3.92-2,1.43,1.43,0,0,1,1.41-.68,48.79,48.79,0,0,0,7.05,0,7.88,7.88,0,0,0,3.6-1.37,7.76,7.76,0,0,1,2.51-1c2.35,0,4.7.35,7,0a6.35,6.35,0,0,0,3.14-1.36c.78-.34,1.41-1,2-1h7.68a3.52,3.52,0,0,0,3.13-1.71,1.87,1.87,0,0,1,1.25-.68,14.7,14.7,0,0,1,3.92.34c.31,0,.78,1,1.1,1.37v.34c0,.68-.16,1.71-.16,2.39v58.45c0,.68.16,1.37.16,2v1a2,2,0,0,1-1.1.69c-1.88.68-3.76.68-5.64,1.37a21.7,21.7,0,0,1-6.42,1.36c-2.35.34-4.54,1-6.89,1.37-1.73.34-3.45,1-5.17,1.37-2.66.68-5.33,1-8,1.71-1.25.34-2.35.68-3.6,1-2.35.34-5,0-7.36,1-3,1.36-6.11,1.36-9.09,1.71a16.6,16.6,0,0,0-3.91,1c-2,1-4.08,1-6.11,1.37a27.73,27.73,0,0,0-7.37,1.37c-1.41.34-3,.68-4.54,1-2.35.34-4.7,0-7,1a20,20,0,0,1-7.52,1.7,15.75,15.75,0,0,0-3.91.69c-2.82,1-5.48,2-8.3,2-2.2,0-4.54,1-6.74,1.37l-3.76,1c-3.13.34-6.26,0-9.24,1.71-1.1.34-2.19.34-3.29.68-2.5.69-5.17.35-7.67,1.37a28.53,28.53,0,0,1-7.36,1.71c-1.88.34-3.92,1-5.8,1.37s-3.76,1-5.64,1.36c-2.35.35-4.85,1-7.36,1.37a40.21,40.21,0,0,1-6.27,1.37l-5.79,1c-1.88.35-3.92,1-6,1.37a37,37,0,0,0-6.11,1,27,27,0,0,1-7.21,2,40.74,40.74,0,0,0-5.95,1.37c-1.25.34-2.35,1-3.6,1.36-3.92,1-7.83.34-11.75,2.39-2.35,1.37-4.7.69-7,1-1.25.34-2.51.34-3.6,1-2.19,1.7-4.54,1.36-6.74,1.7-1.72.35-3.44.35-5.17.69-1.09,0-2.19,1.37-3.29,1.37-2.34.34-4.54,0-6.73.34a5.27,5.27,0,0,0-3.13.68c-2.51,1.71-4.86,1.71-7.37,1.71-2,.34-4.07-.34-6,1.37s-3.6,1.36-5.48,1.36c-2.19,0-4.39,0-6.42,1a12.87,12.87,0,0,1-6.89,1.71h-2.67c-.94.34-2.19.34-3.13,1-2,1.71-4.07,1.71-6.11,1.71-2.35,0-4.54,0-6.73,1a16.29,16.29,0,0,1-5.49,1.37c-2.5,0-5-.35-7.36,1.36-1.41,1.37-3,1.37-4.54,1.37H71a7.79,7.79,0,0,0-3.75,1A7,7,0,0,1,63,1343a15.72,15.72,0,0,0-5.64,0,4.4,4.4,0,0,0-3.29,1.37,4.6,4.6,0,0,1-3.29,1.37H47c-2,0-4.07,0-6,1.71a4.08,4.08,0,0,1-2.67,1c-2.35.34-4.85.34-7.2.69-.78,0-1.41.34-1.57-2A21.6,21.6,0,0,1,30.11,1343.31Z" transform="translate(0.38 0.38)"/><path d="M29.8,1199.76c0-2.74.16-5.13.16-7.87v-52c0-.68-.16-1-.16-1.71v-2c.47-.34.78-.68,1.1-.68,2-.34,4.07-.34,6-1a23.28,23.28,0,0,1,8.14-1.71,11.9,11.9,0,0,0,4.86-1,16.24,16.24,0,0,1,7.83-1.71,22.52,22.52,0,0,0,4.86-.68c2-.34,3.91-1,5.79-1.37,2.35-.34,4.7,0,6.89-1a29.35,29.35,0,0,1,7.21-1.7c2.19-.35,4.23-1,6.42-1.37l4.7-1c2.35-.68,4.86-.34,7.21-1.36a21.34,21.34,0,0,1,6.42-1.37c2.19-.34,4.23-1,6.42-1.37s3.92-1,5.79-1.37c2.51-.68,5-1,7.52-1.7.79,0,1.57-.69,2.35-.69a89.8,89.8,0,0,0,9.56-1.37c1.72-.34,3.29-1,5-1.36,2.35-.69,4.7-.34,7-1.37a22.67,22.67,0,0,1,6.58-1.37c2.19,0,4.23-.68,6.42-1,2-.34,3.92-1,5.79-1.37a54.24,54.24,0,0,1,6.9-1.37c1.88-.34,3.6-1,5.48-1.36,2.51-.69,4.85-.35,7.2-1.37,2.67-1,5.17-1,7.84-1.37a9.87,9.87,0,0,0,4.38-.68,21.27,21.27,0,0,1,6.27-1.71c2.35-.34,4.7-.34,7-1.37a17.83,17.83,0,0,1,7-1.71,28,28,0,0,0,5.33-.34,2.69,2.69,0,0,0,2-1,4,4,0,0,1,3.13-1.37,23.34,23.34,0,0,0,4.85.34c1.73,0,3.45,0,5-1.71a3.29,3.29,0,0,1,2.35-1h5.95c1.56,0,3.13,0,4.54-2.06a1.43,1.43,0,0,1,1.41-.68h4.7c2-.34,4.07.34,6.11-1.71a4,4,0,0,1,2.5-1h7.05a4,4,0,0,0,2.67-1,3.78,3.78,0,0,1,3-1.37h5.95a5.19,5.19,0,0,0,4.08-1.7,3.26,3.26,0,0,1,2.35-1,66.48,66.48,0,0,1,8.14-.34,2.1,2.1,0,0,0,1.72-1,3.23,3.23,0,0,1,2.67-1.36h6.26a5.17,5.17,0,0,0,4.07-1.71,2.38,2.38,0,0,1,1.88-1h6.9a4.51,4.51,0,0,0,3.91-2,1.33,1.33,0,0,1,1.41-.68h7.68a5.21,5.21,0,0,0,3.29-1.71,2.9,2.9,0,0,1,2-1c2.67-.34,5.49,0,8.15-.34.78,0,1.41-1,2.19-1.37s1.41-1,2-1a42.51,42.51,0,0,0,6.58,0,8.26,8.26,0,0,0,3.91-1.37,7.73,7.73,0,0,1,2.51-1h6.73c1.26-.35,2.67-.35,3.76-2.4a1.33,1.33,0,0,1,1.41-.68H389c1.73,0,1.73,0,1.73,3.76v60.5c0,2.73-.16,3.07-1.41,3.41h-.63c-2.82.35-5.64,0-8.3,1a29.39,29.39,0,0,1-7.21,1.71,48.72,48.72,0,0,0-7.2,1.71c-1.25.34-2.51.34-3.76.68a66.34,66.34,0,0,0-8.15,1.37c-1.72.34-3.6.68-5.32,1-2.66.69-5.33,1-8,1.71-1.57.34-3,.69-4.54,1a45.14,45.14,0,0,0-6.42,1,44.89,44.89,0,0,1-6.9,1.71,26.93,26.93,0,0,0-7.2,1.37,12.23,12.23,0,0,1-3.29,1l-7.52,1c-1.88.34-3.76,1.37-5.64,1.71-2.82.34-5.79.34-8.77,1.71-1.41.68-3,.68-4.39,1-2.5.69-5,.69-7.51,1.71a12.6,12.6,0,0,1-6,1.37,40,40,0,0,0-6.26,1c-1.72.35-3.6,1-5.48,1.37a52.28,52.28,0,0,1-7.21,1.37c-1.88.34-3.91,1-5.95,1.37a38.2,38.2,0,0,0-6.11,1,39,39,0,0,1-5.8,1.37c-2.66.34-5.16,1-7.67,1.37-1.72.34-3.45,1-5.17,1.36-2.66.69-5.17,1-7.83,1.71l-4.7,1c-1.72.34-3.6.34-5.48.68a4.36,4.36,0,0,0-3.29,1.37,6.38,6.38,0,0,1-3.13,1.37h-2.67a13.59,13.59,0,0,0-5.17.68,14.94,14.94,0,0,1-7.36,2,12.63,12.63,0,0,0-7.67,1.71c-1.88.68-3.92.34-5.8.68-1.72.34-3.44,0-5,1-2.51,1.71-5.17,1.71-7.68,1.71a9.4,9.4,0,0,0-5.16,1,10,10,0,0,1-5.33,1.37h-3.6a3.77,3.77,0,0,0-2.67.68c-3,2.4-5.95,2-8.92,2-1.57.35-3,0-4.39,1-2.51,1.71-4.86,1.71-7.36,1.71a10.23,10.23,0,0,0-5.48,1,10.42,10.42,0,0,1-6.11,1.71c-2.35,0-4.55,0-6.74,1a9.81,9.81,0,0,1-5.17,1.36c-1.41,0-2.66-.34-3.91,0a26.65,26.65,0,0,0-4.7,1.71,4.72,4.72,0,0,1-2,.69H79a4.88,4.88,0,0,0-3,1c-1.57,1-3.14,1.71-4.7,1.37a10.68,10.68,0,0,0-3.29,0,28.24,28.24,0,0,0-5.17,1.37,12.23,12.23,0,0,1-3.29,1,13.92,13.92,0,0,1-3.76,0c-2,0-4.23,0-6.11,1.71a3.63,3.63,0,0,1-1.88.68h-6c-1.88,0-3.76,0-5.33,2.4a1.58,1.58,0,0,1-1.25.34c-1.56-.34-3-.34-4.54-.68a2,2,0,0,1-1.1-.69C29.64,1200.44,29.64,1199.75,29.8,1199.76Z" transform="translate(0.38 0.38)"/><path d="M391,1355.27c0,.68-.16,1-.16,1.71v58.79c0,3.76-.15,3.41-1.88,4.44-3.76,2.39-7.67,1.37-11.59,2.39-1.25.34-2.5,1-3.76,1.37a28.52,28.52,0,0,1-5.48.68c-2.66,0-5.32,1.37-8,2.4h-.62c-4.08-.35-8,.68-12.06,2.39-1.88,1-3.92.34-6,.68-1.56.34-3.13,1-4.7,1.37a12.57,12.57,0,0,1-5,1,26.51,26.51,0,0,0-8.77,2,9.12,9.12,0,0,1-4.23.69,34.18,34.18,0,0,0-8,2,12.38,12.38,0,0,1-5,.68c-2.82,0-5.48,1.37-8.3,2.4a1.41,1.41,0,0,1-1.1.34c-3.91,0-7.83.34-11.59,2.39a3.68,3.68,0,0,1-1.88.34,25.49,25.49,0,0,0-9.87,2c-1.56.69-3.13.34-4.7.69-2.34.34-4.54,1-6.89,1.36-1.88.34-3.6,1-5.48,1-3,0-5.79,1-8.61,2.05a9.91,9.91,0,0,1-4.39.68,23.13,23.13,0,0,0-8,2,11.84,11.84,0,0,1-4.85.69,19.82,19.82,0,0,0-8.62,2.39,2.89,2.89,0,0,1-1.72.34,21.36,21.36,0,0,0-10.18,2,6.49,6.49,0,0,1-3.61.69,21.35,21.35,0,0,0-9.08,2,6.56,6.56,0,0,1-3.6.68,25.38,25.38,0,0,0-8.62,2c-1.72,1-3.6.68-5.48,1-2.51.34-4.86,1.36-7.21,1.7a29.42,29.42,0,0,1-5.32.69,35.77,35.77,0,0,0-8.3,2.39,2.91,2.91,0,0,1-1.73.34l-8.45,1a1.91,1.91,0,0,0-1.26.68c-1.25,1.37-2.5,1.37-3.91,1.37a56.22,56.22,0,0,0-7.68.68h-.31c-2.51,3.08-5.33,1.37-8.15,1.71-2,.34-4.23.34-6.26,2.39a1.94,1.94,0,0,1-1.41.35,67.77,67.77,0,0,0-8.3.34,4.46,4.46,0,0,0-1.73.68,6.3,6.3,0,0,1-3.13,1.37c-2.51.34-5.17.34-7.83.68a2.67,2.67,0,0,0-1.57.68,3.67,3.67,0,0,1-3.44,1.37,61.62,61.62,0,0,0-8.15.69c-.15,0-.31.34-.47.34-1.88,2-3.91,1.71-6,1.71a37.34,37.34,0,0,0-6.11.68,1.09,1.09,0,0,0-.94.34c-1.41,1.71-2.82,1.37-4.23,1.37a60.85,60.85,0,0,0-7.83.68c-3.13,3.42-6.42,1.37-9.55,2.05-1.73.34-3.29.34-4.86,2a1.77,1.77,0,0,1-1.72.69,65.27,65.27,0,0,0-8.15.34c-.94,0-1.88,1-2.82,1.37-.78.34-1.72.68-2.5-.69v-2.05c0-.68.15-1.36.15-2v-57.08c0-1-.15-1.71-.15-2.39v-1.37c.31-.34.78-1,1.09-1.36a7,7,0,0,1,2.35-1,27.7,27.7,0,0,1,5-1.37c2.35-.68,4.86-.68,7.21-1.36A22.41,22.41,0,0,1,52.2,1424a13.39,13.39,0,0,0,6.26-1c2.51-1,5-1,7.52-1.36l4.7-1c1.72-.34,3.45-1,5.17-1.37,2.82-.34,5.8,0,8.77-1.71,1.26-.68,2.66-.68,4.07-1a63.26,63.26,0,0,0,8-1.37l5.17-1a50.1,50.1,0,0,1,7.05-1.37c1.72-.34,3.6-1,5.48-1.37,2.2-.34,4.39-.34,6.42-1a42.92,42.92,0,0,1,6.74-1.71,29.24,29.24,0,0,0,7.36-1.37c1.1-.34,2.35-.68,3.6-1,2.35-.35,4.86,0,7.21-1a23.85,23.85,0,0,1,6.89-1.71c2.19,0,4.23-.68,6.42-1,1.41-.35,3-1,4.55-1.37,2.82-.68,5.63-1,8.45-1.71,1.57-.34,3.29-.68,4.86-1,2.35-.68,4.7-.34,7.05-1.36a28.74,28.74,0,0,1,7.52-1.37,14.73,14.73,0,0,0,3.6-.68,23.66,23.66,0,0,1,8.3-2.05,23.85,23.85,0,0,0,6.74-1.37c.78,0,1.56-.69,2.35-.69,3-.34,5.95-.34,8.92-.68a3.58,3.58,0,0,0,2.35-1,3.47,3.47,0,0,1,2.82-1.37h6c1.56-.34,3.28-.34,4.69-2.39a1.42,1.42,0,0,1,1.41-.69h6.11c1.73,0,3.45,0,5-2.05.31-.68,1.09-.68,1.56-.68a42.51,42.51,0,0,0,6.58,0,8.44,8.44,0,0,0,3.92-1.37,7.77,7.77,0,0,1,2.5-1h6.89a3,3,0,0,0,2.67-1,4.68,4.68,0,0,1,3.44-1.37,24.49,24.49,0,0,0,7.05,0c.94,0,1.88-1,2.82-1.36.63-.35,1.41-1,2-1a36.66,36.66,0,0,1,6.11,0c1.72,0,3.29,0,4.85-2A2,2,0,0,1,302,1372c2.66-.35,5.17,0,7.83-.35.79,0,1.73-1,2.67-1.7a3.08,3.08,0,0,1,1.56-.69h7.05a5.32,5.32,0,0,0,3.13-1,6.28,6.28,0,0,1,3.14-1.37,42.38,42.38,0,0,0,6.57,0,4.59,4.59,0,0,0,3.29-1.37,3.62,3.62,0,0,1,2.35-1,55.51,55.51,0,0,0,7.52,0c.94,0,1.88-1,2.82-1.37a7.76,7.76,0,0,1,2.51-1c2.66-.34,5.17,0,7.83-.34.78,0,1.57-1,2.35-1.36s1.41-1,2-1h7c1.1-.34,2-1,3.14-1.37.94-.34,1.72-1.36,2.66-1.36,3.76,0,7.52.68,11.12-2.06.63-.34,1.25-.34,1.72,1C390.37,1356,390.37,1356.29,391,1355.27Z" transform="translate(0.38 0.38)"/><path class="cls-3" d="M390.37,1272.9c0-.69-.15-1.37-.15-2.05V1212.4c0-.68.15-1.71.15-2.39Z" transform="translate(0.38 0.38)"/><path class="cls-3" d="M390.37,830.62c0-.68-.15-1.36-.15-2v-58.1c0-.68.15-1.71.15-2.39Z" transform="translate(0.38 0.38)"/><path class="cls-3" d="M29.64,990.92c0,.69.16,1.37.16,2.05v57.42c0,.69-.16,1.37-.16,2Z" transform="translate(0.38 0.38)"/><path class="cls-3" d="M29.64,1137.55c0,.68.16,1,.16,1.71v52c0,2.73-.16,5.13-.16,7.86Z" transform="translate(0.38 0.38)"/><path class="cls-3" d="M29.64,1432.51c0,1,.16,1.71.16,2.4V1492c0,.69-.16,1.37-.16,2Z" transform="translate(0.38 0.38)"/><path class="cls-3" d="M29.64,844.64c0,.68.16,1.36.16,2.05v55.37c0,.68-.16,1.36-.16,2.05Z" transform="translate(0.38 0.38)"/><path class="cls-3" d="M29.64,1286.23c0,.68.16,1,.16,1.71v56c0,.68-.16,1-.16,1.71Z" transform="translate(0.38 0.38)"/><path class="cls-3" d="M390.37,765v2.39a8.12,8.12,0,0,0-1.09-1.36c-.94-.35-1.88-.35-2.82-.69A15.22,15.22,0,0,0,390.37,765Z" transform="translate(0.38 0.38)"/></g></g><g id="Layer_4" data-name="Layer 4"><rect class="cls-4" x="0.38" y="0.38" width="2048" height="2048"/></g></svg>