<svg xmlns="http://www.w3.org/2000/svg" viewBox="0 0 2048.75 2048.75"><defs><style>.cls-1{opacity:0.5;}.cls-2{opacity:0.4;}.cls-3{opacity:0.3;}.cls-4{opacity:0.2;}.cls-5{fill:none;stroke:#000;stroke-miterlimit:10;stroke-width:0.75px;}</style></defs><title>pattern2</title><g id="PATTERN_03" data-name="PATTERN 03"><path class="cls-1" d="M13.18,1566.74V1467H694.62v99.74Z" transform="translate(0.38 0.38)"/><path class="cls-2" d="M13.56,1417.06v-99.74H695v99.74Z" transform="translate(0.38 0.38)"/><path class="cls-3" d="M12.92,1267.06v-99.74H694.36v99.74Z" transform="translate(0.38 0.38)"/><path class="cls-4" d="M12.92,1117.06v-99.74H694.36v99.74Z" transform="translate(0.38 0.38)"/><path class="cls-1" d="M1640.14,1492.2v-99.74H2005.8v99.74Z" transform="translate(0.38 0.38)"/><path class="cls-2" d="M1640.34,1342.52v-99.74H2006v99.74Z" transform="translate(0.38 0.38)"/><path class="cls-3" d="M1640,1192.52v-99.74h365.66v99.74Z" transform="translate(0.38 0.38)"/><path class="cls-4" d="M1640,1042.52V942.78h365.66v99.74Z" transform="translate(0.38 0.38)"/><path class="cls-1" d="M36.56,1998.63v-63.48H948.49v63.48Z" transform="translate(0.38 0.38)"/><path class="cls-2" d="M37.07,1903.38v-63.47H949v63.47Z" transform="translate(0.38 0.38)"/><path class="cls-1" d="M1093.21,1998.73v-63.47h911.93v63.47Z" transform="translate(0.38 0.38)"/><path class="cls-2" d="M1093.72,1903.48V1840h911.93v63.47Z" transform="translate(0.38 0.38)"/></g><g id="Layer_4" data-name="Layer 4"><rect class="cls-5" x="0.38" y="0.38" width="2048" height="2048"/></g></svg>