<svg xmlns="http://www.w3.org/2000/svg" viewBox="0 0 2048.75 2048.75"><defs><style>.cls-1{opacity:0.7;}.cls-2{fill:none;stroke:#000;stroke-miterlimit:10;stroke-width:0.75px;}</style></defs><title>pattern3</title><g id="PATTERN_02" data-name="PATTERN 02"><g class="cls-1"><path d="M1106.2,1241.11a15.28,15.28,0,0,1-3.72-.46c-3.4-.77-6.49-1.69-9.89-2.3s-7.11-1.23-10.52-1.85a18.33,18.33,0,0,1-2.78-.77c-.62-.15-.93-.3-1.55-.46-3.4-.77-6.8-1.38-10.2-2.15-.31,0-.31-.31-.62-.31-.93-.31-1.86-.46-2.78-.77a38,38,0,0,0-4-1.07c-2.79-.62-5.57-1.23-8-2-2.78-.92-5.56-1.54-8.35-2.31-1.85-.46-3.4-.92-4.94-1.38l-9.28-2.77c-2.17-.61-4-1.23-6.19-1.84a37.81,37.81,0,0,0-4-1.23,3.92,3.92,0,0,1-1.54-.31c-2.17-.77-4.64-1.69-7.12-2.46l-3.71-1.38c-2.16-.77-4.64-1.39-6.8-2.16-1.55-.46-3.09-1.07-4.64-1.69-2.17-.77-4-1.53-6.19-2.3s-4.33-1.23-6.49-2c-2.78-.92-5.26-1.85-7.73-2.77-1.55-.61-3.4-1.23-5-2-1.86-.77-3.71-1.69-5.57-2.46-1.85-.61-3.71-1.23-5.56-2-2.48-.92-4.64-2-7.12-2.92-2.78-1.07-5.56-2.15-8-3.22-3.09-1.23-5.87-2.62-8.66-3.85-4.33-1.69-8.66-3.38-12.68-5.23-3.4-1.38-6.49-2.92-9.58-4.3-2.79-1.23-5.57-2.61-8.35-3.84-4-1.85-8-3.85-12.07-5.69-3.09-1.54-6.49-3.08-9.89-4.61-2.79-1.39-5-2.77-7.73-4s-5.57-2.31-8-3.54c-3.41-1.38-6.5-2.92-9.59-4.45-2.48-1.23-4.64-2.46-7.11-3.69-1.24-.62-2.48-1.39-4-2-1.54-.77-3.09-1.39-4.63-2.16a42.61,42.61,0,0,1-4-2.3c-3.1-1.54-6.19-2.92-9-4.46-1.24-.61-2.17-1.23-3.41-1.84-2.47-1.23-5.25-2.46-7.73-3.69-2.47-1.39-4.64-2.77-7.11-4a74.44,74.44,0,0,0-7.11-3.38c-.93-.62-.93-1.39.62-1.69,2.16-.31,4-.47,6.18-.77,3.4-.31,6.19-1.39,9.59-1.54,3.09-.15,6.18-.92,9.28-1.38,1.23-.16,2.47-.16,3.71-.31,2.78-.31,5.26-.77,8-1.08,1.24-.15,2.78-.15,4.33-.3l10.2-1.39c2.48-.31,5.26-.61,8-.92a17.65,17.65,0,0,1,2.79-.31c4-.31,8-.15,11.75-.77a84.77,84.77,0,0,1,13.92-1.07c3.09-.16,6.18-.31,9.27-.62q9.28-.91,18.56-.92c2.17.15,3.4.46,4,1.54a1.93,1.93,0,0,0,.62,1.07c2.78,2.16,5.57,4.31,8,6.46.31.46.62.77.93,1.23.31.31.62.46.93.77,1.54,1.23,3.09,2.3,4.64,3.53,1.85,1.39,3.4,2.93,5.25,4.46a52,52,0,0,1,4.33,3.69c1.55,1.39,3.09,2.62,4.64,4a26.32,26.32,0,0,0,2.17,2c0,.15.31.46.61.61,1.86,1.39,3.41,2.62,5.26,3.85a17.18,17.18,0,0,0,2.48,1.84c1.54,1.38,3.4,2.77,5.25,4.15,1.24,1.08,2.79,2,4,3.08,1.55,1.07,3.1,2.3,4.64,3.53a30.31,30.31,0,0,0,4.33,2.92l7.43,5.08c1.85,1.07,3.4,2.15,5.25,3.22,1.24.77,2.17,1.39,3.4,2.16a74,74,0,0,0,6.81,4.3l8.35,4.61c3.4,1.85,6.8,3.69,10.51,5.54,3.41,1.84,7.12,3.53,10.83,5.23,1.23.61,2.47,1.07,3.71,1.69a42.88,42.88,0,0,0,4.29,2.19,48.67,48.67,0,0,1,3-12,2.27,2.27,0,0,1,1-1.14l-1.46-.7c-2.78-1.38-5.25-2.61-7.73-4-2.78-1.39-5.26-2.77-8-4.16-1.24-.76-2.47-1.38-3.71-2.15-1.55-.77-3.09-1.54-4.33-2.3-1.86-1.08-3.71-2.31-5.57-3.39-1.54-.92-3.09-1.69-4.33-2.61l-4.64-3.23c-2.47-1.54-4.94-3.07-7.11-4.61-1.55-1.08-2.78-2.31-4.33-3.54-1.24-.76-2.16-1.69-3.4-2.46-2.78-2-5.57-4.15-8.35-6.15-1.24-1.07-2.78-2-4-3.07a42.33,42.33,0,0,1-5-4c-1.55-1.23-2.78-2.3-4.33-3.53l-4.64-3.69c-1.54-1.23-2.47-2.62-4-3.85-1.85-1.69-4-3.22-6.18-4.92l-4.64-3.68a7.23,7.23,0,0,1-1.55-1.39c-.93-.77-.31-1.23,1.55-1.23,3.09,0,5.87-.15,9,0,5.56.16,11.13.31,16.7.62,3.4.15,6.49.46,9.89.61,2.79.16,5.26,0,7.73.31,3.41.31,6.5.92,9.9,1.23,1.86.15,3.71.15,5.57.31,4,.46,8,1.07,12.06,1.53,4.33.62,8.66,1.69,13.3,1.85a77.85,77.85,0,0,1,8.35,1.23c1.85.31,3.4.46,5.25.77,1.55.3,3.41.61,5,.92l4.64.92c.93.16,2.17.46,3.09.62,4,.77,8,1.38,12.07,2,.31,0,.31.15.61.15,1.86.31,3.41.61,4.95.92,1.24.31,3.1.16,3.71.62,1.86.92,4,.77,6.19,1.07a10.62,10.62,0,0,1,2.16.31c1.86.31,4,.77,5.88,1.08.62.15,1.55.3,2.47.46,1.86.3,3.41.77,5.26,1.07,1.55.31,2.79.62,4,.93a8.58,8.58,0,0,0,3.4.3,1.47,1.47,0,0,0,1.24-1.23v-9.07c0-1.23-1.85-2-4.33-2.15-1.54-.15-3.09-.46-4.64-.77-.93-.15-2.16-.46-3.09-.61-2.17-.46-4.33-.77-6.49-1.23-3.41-.62-6.81-1.08-9.9-1.85-2.48-.61-5.26-.61-7.73-1.38-.31-.15-.93-.15-1.55-.31-4.33-.61-8.66-1.38-13-2-.31,0-.31-.15-.62-.15-1.54-.31-3.4-.62-4.95-.92-.92-.16-2.16-.31-3.4-.46-1.54-.31-3.09-.62-5-.93a25.87,25.87,0,0,0-3.4-.3c-3.71-.47-7.11-1.39-11.13-1.54-3.71-.16-6.8-1.54-10.82-1.54-2.17,0-4.33-.77-6.81-1.07-4-.31-8-.47-12.06-.93a95.29,95.29,0,0,0-9.59-.77c-2.16,0-4-.15-6.18-.3-4.33-.31-8.66-.93-13.3-1.08-6.5-.31-12.68-.15-19.18-.31H936.41a5.38,5.38,0,0,1-2.16-.46,9.83,9.83,0,0,1-2.48-1.69,49.71,49.71,0,0,1-4-3.84,47.34,47.34,0,0,0-4-3.69c-.62-.62-1.55-1.23-2.16-1.85-.31-.3-.62-.77-.93-1.07-1.55-1.23-3.09-2.31-4.64-3.54a48.11,48.11,0,0,1-4-3.84,4.79,4.79,0,0,1-1.24-.62,10.5,10.5,0,0,1-1.54-1.23,3.18,3.18,0,0,0-1.24-1.23c-1.55-1.07-3.09-2.3-4.64-3.53-.93-.62-1.55-1.39-2.47-2-.31-.31-.93-.62-1.24-.92-1.24-1.08-2.48-2.16-3.71-3.08a36.92,36.92,0,0,0-4.64-3.38c-1.86-1.38-3.71-2.92-5.57-4.31l-6.49-5.07c-1.24-.77-2.17-1.54-3.41-2.3-1.85-1.39-3.4-2.62-5.25-3.85-2.48-1.69-4.95-3.23-7.43-4.92-1.54-.92-2.78-1.84-4.32-2.76-2.79-1.7-5.57-3.23-8.35-4.92-3.41-2-7.12-4-10.83-6-2.16-1.23-4.64-2.31-6.8-3.54-2.79-1.38-5.26-2.76-7.73-4-2.48-1.39-5.26-2.46-8.05-3.69-2.47-1.08-4.63-2-6.8-3.08-1.24-.61-2.78-1.07-4.33-1.69-2.16-.77-4.64-1.69-6.8-2.61-1.55-.62-3.4-1.39-5-2-2.48-.92-4.64-1.85-6.81-2.61-1.85-.62-4-1.23-6.18-1.85a34.51,34.51,0,0,1-3.71-1.07c-.62-.16-1.24-.47-1.86-.62-1.23-.31-2.16-.61-3.4-.92a4,4,0,0,1-1.55-.31,71.12,71.12,0,0,0-6.8-2.31c-3.09-.92-6.18-1.53-9.28-2.3a2.19,2.19,0,0,1-.92-.31c-.62-.15-1.55-.46-2.48-.61-3.09-.62-6.49-1.39-9.9-2-.3-.16-.3-.31-.61-.31a18.13,18.13,0,0,0-2.79-.77c-1.54-.46-3.4-.77-5-1.08-1.23-.15-2.16-.3-3.4-.46-1.54-.3-3.09-.46-4.64-.76-1.85-.31-3.4-.47-4.94-.77-2.17-.46-4.64-.77-6.81-1.23a2.35,2.35,0,0,0-1.24-.31c-4-.31-7.73-.92-11.75-1.23-3.09-.31-6.18-.15-9-.62A132.2,132.2,0,0,0,670.44,987c-2.16,0-4.33-.15-6.49-.31-4.33-.15-8.66-.46-13-.61-6.19-.16-12.06,0-18.25,0h-1.85c-8,.92-15.78,1.07-23.82,1.23-3.4.15-7.11.46-10.51.92-5.88.77-11.75.62-17.63,1.69-3.09.62-6.18.46-9.28.77-2.47.15-4.64.77-7.11,1.08-.93.15-2.17-.16-3.09.15a61.7,61.7,0,0,1-10.83,1.54c-3.4.31-6.49,1.07-9.58,1.53-2.48.47-5.26,1.08-8,1.54s-5.56,1.08-8.35,1.54c-.92.15-1.54.46-2.47.61-1.55.31-2.78.62-4,.77a18.79,18.79,0,0,0-4.95.93,65.41,65.41,0,0,1-8.35,2c-1.54.47-3.4.77-5.26,1.23a8,8,0,0,0-1.85.31c-3.09.62-6.81,1.23-9.9,2-2.78.61-5.26,1.69-8,2.31-3.71.92-7.11,2-10.82,3.07-.62.15-.93.15-1.55.31s-1.55.31-2.47.61c-1.24.31-2.17.62-3.41.93-2.47.76-5.25,1.07-7.11,2a13.38,13.38,0,0,1-7.42.77c-4.95-.46-9.9-.92-14.85-1.07-5.25-.31-10.2-.31-15.46-.31-13.3,0-26.9,0-40.2.15-1.86,0-3.71.16-5.57.31a96.19,96.19,0,0,1-11.44,1.08c-7.73-.16-15.16,1.38-22.58,1.69-4.33.15-8,1.53-12.68,1.38a15.7,15.7,0,0,0-3.71.46c-1.86.31-4,.62-6.19.92-1.54.16-3.4.31-4.94.62-2.48.31-4.64.77-6.81,1.08l-2.78.46a38.51,38.51,0,0,1-4.95,1.07c-1.55.31-3.4.62-5.26.93-.92.15-1.54.3-2.47.46-1.86.3-3.71.46-5.57.77-3.4.61-6.49,1.53-9.89,2.15a36.46,36.46,0,0,0-6.19,1.23,20.59,20.59,0,0,1-3.09.46c-1.24.31-2.17.46-3.4.77s-2.17.46-3.41.77c-3.09.76-6.18,1.38-9.27,2H244c-1.55.47-3.1.77-4.64,1.23l-1.86.47c-3.09.76-6.18,1.69-9.27,2.46h-.93a3.75,3.75,0,0,0-1.24.3,38.53,38.53,0,0,1-4,1.23l-1.86.46c-1.23.31-2.78.77-4,1.08-.61.15-1.54.46-2.16.62l-7.42,2.3a2,2,0,0,1-.93.15,9.56,9.56,0,0,1-1.55.47c-2.47.92-4.95,1.69-7.42,2.46-2.47.61-5.26,1.23-7.73,2-.93.31-1.86.77-3.09,1.08-.93.31-2.17.62-3.1.92-2.16.62-4.33,1.39-6.49,2-2.48.62-5,1.39-7.11,2.15-2.48.77-4.64,1.69-7.12,2.46-1.85.62-4,1.23-6.18,2-3.71,1.39-7.43,2.62-11.14,4s-7.73,2.77-11.44,4.15c-2.16.61-4,1.38-6.18,2.15-1.86.77-4,1.39-5.88,2.15-2.17.77-4,1.54-5.88,2.31l-6.49,2.31c-2.17.77-4.33,1.69-6.5,2.46-1.54.61-3.4,1.07-4.94,1.69l-5.88,2.46a24.54,24.54,0,0,1-4,1.69c-1.86.77-3.71,1.23-5.57,2-2.47,1.07-5.25,2.15-7.73,3.23-1.24.46-2.78.92-4,1.53-2.47.77-4.33,1.85-6.8,2.62-1.86.46-2.48,1.23-2.48,2.15v9.22c0,.62-.31,1.23,0,1.69,0,.62.93,1.08,1.55,1.54l2.78-.92a4.54,4.54,0,0,0,1.24-.62c3.71-1.53,7.42-2.92,11.13-4.45,1.24-.47,2.48-1.08,4-1.7,3.1-1.38,6.5-2.61,9.9-3.84,3.71-1.54,7.42-3.07,11.13-4.46,1.55-.61,3.41-1.23,5-1.84l5.57-2.31c2.16-.77,4.64-1.69,6.8-2.46,1.86-.77,4-1.38,5.88-2.15s4-1.54,5.87-2.31c1.86-.61,3.72-1.38,5.57-2.15l7.42-2.77c1.55-.61,3.1-1.23,4.95-1.84,2.17-.62,4.33-1.23,6.5-2,2.47-.77,4.64-1.84,7.11-2.61,2.16-.77,4.33-1.39,6.49-2,3.1-.92,5.88-2,9-2.92l.62-.31c2.48-.77,4.64-1.69,6.81-2.46,1.54-.46,2.78-.92,4.32-1.38,1.24-.46,2.79-.77,4-1.23l1.85-.46c2.47-.77,4.95-1.39,7.42-2,1.55-.31,2.79-.77,4.33-1.23.62-.16.93-.31,1.55-.46.93-.31,1.55-.46,2.47-.77a11.8,11.8,0,0,1,2.17-.62c1.24-.3,2.16-.77,3.4-1.07a9,9,0,0,1,1.86-.62c2.47-.77,4.94-1.69,7.42-2.3,2.78-.77,5.87-1.23,9-2,1.23-.31,1.85-.77,3.09-1.08,3.09-.77,6.18-1.38,9.28-2.15.31-.16.31-.31.62-.31l8.35-2.3h.92c3.71-.62,7.12-1.39,10.83-2h.31c1.54-.31,2.78-.77,4.33-1.08,3.4-.61,6.49-1.23,9.89-1.84a2.27,2.27,0,0,0,.93-.31c.62-.16,1.55-.46,2.48-.62l6.49-.92c1.55-.31,2.78-.46,4.33-.77s3.09-.46,4.64-.77,2.78-.61,4.33-.77a14.24,14.24,0,0,0,2.78-.3,44.07,44.07,0,0,1,8-1.39c2.48-.15,4.95-.76,7.42-1.07,4.33-.46,8.66-.77,12.68-1.54,3.1-.61,6.81-.46,9.9-.92,5.26-.62,10.21-.92,15.46-1.08a31.76,31.76,0,0,0,5.57-.31c5.57-.92,11.44-.92,17.32-1.07,9.9-.16,20.1,0,30,0a11.11,11.11,0,0,1,2.16.46c-.62.15-.92.61-1.54.77l-9.28,3.23c-1.55.61-3.09,1.07-4.64,1.69l-5.88,2.46-9.27,3.69c-1.86.77-3.72,1.69-5.88,2.46-3.09,1.23-6.19,2.46-9,3.69-1.85.76-3.09,1.53-4.95,2.3-1.54.77-3.71,1.23-5.25,2-4.33,2-8.35,4-12.37,5.84-3.72,1.69-7.43,3.23-11.14,4.92a24.92,24.92,0,0,0-4,1.69c-1.55.77-2.78,1.54-4.33,2.31-2.78,1.23-5.87,2.46-8.66,3.69-4.33,1.84-8,3.84-12.06,5.69l-12.06,6c-1.55.77-3.09,1.39-4.64,2a28.51,28.51,0,0,0-4.33,2c-2.78,1.23-5.26,2.61-8,4-2.47,1.23-4.95,2.3-7.42,3.53-2.79,1.39-5.26,2.77-7.73,4-2.17,1.23-4.95,2.31-7.43,3.54-2.47,1.38-4.94,2.76-7.42,4a17.11,17.11,0,0,1-3.4,1.69c-2.78,1.23-5.57,2.31-8,3.54s-5,2.61-7.42,3.84l-10.21,4.62-13.61,6.3c-1.54.61-2.78,1.38-4.33,2-2.78,1.23-5.25,2.3-7.73,3.38-3.09,1.38-5.87,2.77-9,4-1.85.92-3.71,1.69-5.56,2.46s-3.41,1.69-5.26,2.46c-1.55.61-3.71,1.07-5,1.84-1.86,1.23-4.33,1.85-6.49,2.77-1.55.61-3.41,1.23-5,1.84-1.24.46-2.79,1.08-4,1.69-2.17.93-4,1.69-6.19,2.46-1.85.77-4,1.39-5.87,2.16-2.17.76-4,1.53-6.19,2.3s-4.64,1.39-6.8,2.15c0,0,0,.16-.31.16-2.17.77-4.64,1.69-6.81,2.46s-4,1.38-6.18,2c-3.09.92-5.88,1.84-9,2.76a8.76,8.76,0,0,1-1.55.46l-7.42,2.31c-2.47.77-5,1.38-7.42,2l-.31.15c-2.47.77-4.64,1.54-7.11,2.31-.62.15-1.24.15-1.86.31s-1.55.3-2.16.46c-1.55.46-3.1.77-4.64,1.23-.62.15-.93.15-1.55.3a27.21,27.21,0,0,1-4.33,1.23c-.62.16-.93.16-1.55.31-1.54.46-2.78.92-4.32,1.23-3.1.46-4.33,1.23-4.33,2.77v8.45c0,2.77,0,5.69,2.78,7.54,0,1.69.93,2.15,4.33,2.3.31,0,.93.16,1.24.16,3.09.61,6.18,1.07,9.27,1.54,2.17.46,4.64.92,7.12,1.22,3.09.31,6.18.31,9,.62,3.71.46,7.42.92,11.44,1.23,3.71.31,7.73.31,11.44.61,4,.31,7.73.77,11.44.77,9.9,0,20.11-.15,30-.15h.62c4.95-.31,10.21-.77,15.46-1.08l7.43-.46,8.35-.92c4.94-.46,10.2-.31,14.53-1.54a4.46,4.46,0,0,1,1.55-.15l8.35-.92c1.54-.16,2.78-.46,4.33-.62l8-.92a46.75,46.75,0,0,0,4.64-.77c.93-.15,1.85-.15,2.47-.31a64.06,64.06,0,0,1,8-1.38c2.79-.31,5.88-1.08,8.66-1.54,1.55-.31,2.79-.46,4-.77.93-.15,2.17-.46,3.1-.61s2.16-.31,3.09-.46c3.71-.93,7.73-1.85,11.44-2.62a17.63,17.63,0,0,1,2.78-.3c.93-.16,1.55-.31,2.17-.47,1.55-.46,3.09-.76,4.64-1.07,1.23-.31,2.16-.46,3.4-.77s2.16-.46,3.4-.77c3.09-.77,6.19-1.38,9.28-2,.31,0,.31-.3.62-.3a14.67,14.67,0,0,1,3.09-.77,15.11,15.11,0,0,0,2.47-.46,20.42,20.42,0,0,1,6.19-1.39,3.54,3.54,0,0,0,1.24-.31c1.23-.3,2.47-.61,4-.92l9.28-1.84c.3,0,.3-.16.61-.16,1.55-.3,3.1-.77,4.64-1.07.93-.16,1.55-.31,2.17-.46,1.23-.31,2.16-.62,3.4-.93,3.09-.61,5.88-1.23,9-1.84l.31-.15c1.23-.31,2.47-.77,4-1.08l1.85-.46c1.55-.46,3.41-.77,4.95-1.23.62-.16.93-.16,1.55-.31,1.54-.46,3.09-.77,4.64-1.23.62-.15.93-.15,1.54-.31,3.1-.77,6.5-1.69,9.59-2.46h.31c3.4-.61,6.49-1.38,9.9-2h.31l5.56-1.38,1.86-.46a26,26,0,0,0,3.4-.77c.93-.15,1.86-.15,2.47-.31,3.1-.76,6.19-1.69,9.28-2.46,3.4-.76,7.12-1.23,10.52-2.15a33.23,33.23,0,0,1,7.42-1.54,2.25,2.25,0,0,0,.93-.3c.93-.16,1.85-.46,2.78-.62,1.55-.31,3.4-.46,5.26-.77,1.54-.3,2.78-.61,4.33-.92.62-.15,1.54-.15,2.16-.31,2.17-.46,4.64-.92,6.81-1.38,2.47-.62,5.25-1.08,7.73-1.54,2.78-.61,5.56-1.07,8.35-1.53,3.09-.47,5.87-1.08,9-1.54,1.54-.16,3.4,0,4.64-.46a29,29,0,0,1,7.73-1.08c1.54-.15,3.09-.46,4.64-.61,2.47-.31,4.64-.62,6.8-.93a26,26,0,0,0,3.4-.3,59.18,59.18,0,0,1,12.06-1.23,38,38,0,0,0,6.19-.62,77.28,77.28,0,0,1,12.06-.92c3.09,0,5.88-.16,8.66-.31,5.26-.15,10.21-.61,15.46-.77a256.86,256.86,0,0,1,26.6.77c5,.46,10.2.15,15.46.31a33.57,33.57,0,0,1,5.57.31,89.26,89.26,0,0,0,13,1.23,17.78,17.78,0,0,1,4,.46,51.51,51.51,0,0,0,10.2,1.07,41.88,41.88,0,0,1,6.19.62l14.84,2.3h.31c2.48.31,4.95.62,7.43,1.08.31.15.92.46.92.77,0,.15-.61.46-1.23.61-1.24.31-2.48.77-3.71,1.08-.31.15-.93.15-1.24.31l-8.35,1.84c-.31,0-.31.16-.62.16-1.24.3-2.78.76-4,1.07a5.69,5.69,0,0,0-1.55.31c-1.23.31-2.47.77-3.71,1.08l-1.85.46c-2.79.77-5.26,1.69-8,2.46h-.31c-1.24.3-2.17.46-3.1.77-1.23.3-2.16.46-3.09.76l-1.85.47c-2.79.92-5.26,1.84-8,2.61-2.47.77-5.25,1.38-7.73,2-.31,0-.31.3-.62.3-1.23.31-2.16.62-3.4.93a11.1,11.1,0,0,1-1.54.46c-1.24.31-2.48.77-3.72,1.07l-1.85.47c-.93.3-2.17.61-3.09.92a11,11,0,0,1-2.17.61l-7.42,2.31c-2.47.61-5.26,1.23-7.73,2-1.55.31-2.79.77-4.33,1.23a7.22,7.22,0,0,0-1.24.3c-1.24.47-2.78.77-4,1.23a9.56,9.56,0,0,0-1.55.47l-2.78.92c-.93.31-1.85.31-2.47.61-2.48.93-5,1.69-7.43,2.46-.92.31-1.85.31-2.78.62-2.78.77-5.26,1.69-8,2.46-2.47.77-5.26,1.38-8,2-.31.15-.31.3-.62.3-2.47.77-4.64,1.54-7.11,2.16-2.79.76-5.88,1.38-8.66,2.15-1.24.31-2.17.77-3.09,1.07s-2.17.62-3.41.93c-.92.15-1.54.46-2.47.61-.62.16-1.55.46-2.16.62l-2.79.92c-2.78.77-5.26,1.38-8,2,0,0,0,.15-.31.15a19.21,19.21,0,0,0-2.78.77,11.8,11.8,0,0,1-2.17.62c-1.54.46-2.78.76-4.33,1.23-.31.15-.92.15-1.23.3-3.1.77-5.88,1.69-9,2.46a1.91,1.91,0,0,1-.93.16,21,21,0,0,0-2.16.46c-2.79.77-5.88,1.69-8.66,2.46a2,2,0,0,1-.93.15c-.62.15-1.55.31-2.17.46-1.54.46-3.09.77-4.64,1.23-.3.16-.92.16-1.23.31-1.86.46-3.4.77-4.95,1.23-.62.15-.93.31-1.55.46a39.19,39.19,0,0,1-4,1.08,3.44,3.44,0,0,0-1.23.15c-3.72.92-7.12,1.84-10.52,2.77-1.24.3-2.47.3-3.71.61-3.09.77-6.5,1.54-9.59,2.31-1.54.31-3.09.77-5,1.07-3.4.47-6.18,1.23-9,1.85-3.71.77-7.73,1.38-11.44,2a1.64,1.64,0,0,1-.62.15c-1.23.31-2.78.77-4,1.08-1.54.31-2.78.61-4.33.92-1.23.15-2.78.46-4.33.62-.61.15-1.23.15-1.85.3a36.69,36.69,0,0,1-7.73,1.39c-3.1.46-5.88.92-8.66,1.53a38.83,38.83,0,0,1-4.95,1.08c-3.09.46-5.88.61-8.35,1.54a17.63,17.63,0,0,1-2.78.3c-1.86.31-4,.62-5.88.93-1.24.15-2.78.46-4.33.61-2.17.31-4.33.46-6.49.77-2.48.31-4.64.62-6.81.92-1.85.16-3.4.46-5.26.62-2.47.15-4.94.46-7.42.77-.93.15-1.54,0-2.47.15-3.1.31-6.19.92-9.28,1.23-2.47.31-5.57.15-8,.62a93.26,93.26,0,0,1-13,1.07,17.59,17.59,0,0,0-4,.31,85.38,85.38,0,0,1-15.46,1.23l-8.66.46c-3.1.15-6.5.61-9.59.77-7.73.31-15.15.46-22.89.46H176.24c-10.21-.15-20.41-.15-30.62-.31-2.16,0-4.33-.15-6.49-.31L124,1234c-3.09-.15-6.49-.15-9.89-.46s-6.81-.92-10.52-1.08c-5.56-.3-11.13-.3-16.7-1.23-2.78-.46-6.18-.3-9-.61-3.71-.46-7.73-.92-11.75-1.38-3.09-.31-4,0-4,1.69v7.68c0,1.54.31,1.7,3.09,2,.62.16,1.55.31,2.48.46,2.47.31,4.64.62,7.11.77,2.78.16,5.88.31,8.66.62l9.28.92c1.85.15,3.4.15,5.26.31,4.94.3,9.58,1.38,14.53,1.23,3.4,0,6.8.3,10.21.46,7.42.46,14.53.92,21.64,1.23,8.35.31,16.4.31,24.75.46h19.79l30-.46c5.25-.16,10.51-.16,15.77-.31a34,34,0,0,0,4-.31c6.49-1.07,13.3-.92,19.79-1.23,2.17,0,4-.3,6.19-.46,2.78-.31,5.26-.61,8-.77l7.11-.46c2.48-.3,4.64-.61,6.81-.92,4.33-.46,8.66-.31,13-1.23,2.47-.46,5.56-.46,8.35-.77,3.09-.31,5.87-.77,9-1.23,1.86-.31,3.41-.15,4.95-.46a89.54,89.54,0,0,1,9.59-1.38c3.4-.16,6.8-.93,10.21-1.39s6.49-1.07,9.89-1.53c.93-.16,1.55-.16,2.17-.31,4-.77,8.35-1.69,12.37-2.46h.31a44.33,44.33,0,0,0,7.11-1.08c3.09-.77,6.8-.92,9.9-1.84,3.71-.92,7.73-1.39,11.75-2.15a2.27,2.27,0,0,0,.93-.31c.61-.16,1.54-.46,2.47-.62,1.55-.46,3.4-.77,4.95-1.07,1.24-.16,2.47-.46,3.71-.62a27,27,0,0,0,3.4-.61c1.55-.31,3.4-.77,4.95-1.08a11.57,11.57,0,0,0,1.55-.31,13.26,13.26,0,0,1,5.25-1.23c.62,0,.93-.3,1.55-.46a42.72,42.72,0,0,1,4.33-1.07c.62-.16,1.55-.31,2.16-.46,1.55-.47,3.1-.77,4.64-1.08.62-.15.93-.15,1.55-.31,3.4-.77,6.49-1.69,9.9-2.46,2.78-.77,5.87-1.38,9-2.15.31,0,.31-.15.62-.15,2.79-.77,5.26-1.54,8-2.31a2,2,0,0,1,.93-.15c.93-.16,1.86-.47,2.79-.62,1.54-.31,2.78-.77,4.32-1.08.93-.3,1.55-.46,2.17-.61a17.71,17.71,0,0,0,2.78-.77c.93-.31,2.17-.61,3.1-.92,2.78-.62,5.56-1.38,8.35-2.15a3.24,3.24,0,0,1,1.23-.16,10.89,10.89,0,0,1,1.55-.46c1.24-.31,2.47-.77,3.71-1.07.62-.16,1.55-.47,2.17-.62,2.78-.77,5.25-1.54,8-2.31a2,2,0,0,0,.92-.15c.62-.15.93-.31,1.55-.46,1.24-.31,2.17-.62,3.4-.92l1.86-.46c1.23-.31,2.78-.77,4-1.08a9.86,9.86,0,0,1,1.54-.46c2.79-.77,5.26-1.54,7.74-2.31,1.54-.46,3.09-.77,4.63-1.23l1.86-.46c.93-.15,1.55-.31,2.17-.46,1.23-.31,2.47-.77,3.71-1.08a11.66,11.66,0,0,1,2.16-.61l7.42-2.31c2.79-.61,5.57-1.23,8.35-2,1.55-.46,3.41-1.07,5-1.53s3.4-1.08,5.26-1.54l1.24-.61c.62-.16,1.23-.47,1.85-.62,1.24-.31,2.17-.61,3.4-.92.93-.16,1.55-.46,2.48-.62a9.38,9.38,0,0,0,2.47-.61c2.48-.77,4.64-1.54,7.12-2.31h.92a24.29,24.29,0,0,1,2.48-.77c2.78-.77,5.25-1.69,8-2.46.62-.15,1.54-.3,2.47-.61l2.79-.92,2.78-.93c.62-.15,1.55-.46,2.47-.61.93-.31,1.55-.46,2.17-.62l7.42-2.3c2.47-.77,5.26-1.39,8-2,.31-.15.31-.31.62-.31,2.47-.77,4.95-1.54,7.73-2.3.31-.16.93,0,1.24-.16.62-.15.93-.31,1.54-.46,1.24-.31,2.17-.77,3.41-1.08a11.66,11.66,0,0,1,2.16-.61c2.79-.92,5.26-1.69,8-2.46,2.48-.62,5.26-1.23,7.73-1.84.31,0,.31-.31.62-.31,1.24-.31,2.48-.77,3.71-1.08a9.71,9.71,0,0,1,1.55-.46c2.47-.77,4.95-1.69,7.73-2.31,3.09-.76,5.88-1.38,9-2,.62-.16.93-.47,1.55-.62s.92-.31,1.54-.46a30,30,0,0,1,10.52,0c1.85.31,3.4,1.08,5.26,1.23,4,.15,6.8,1.84,10.51,2.15.93.16,1.86.77,2.78.92,3.1.62,6.5,1.39,9.9,2,.31,0,.31.16.62.16,1.24.3,2.16.61,3.4.92,2.78.61,5.88,1.23,8.66,1.84,1.86.46,3.4.93,5,1.39.62.15.93.46,1.54.61s.93.46,1.55.62c2.78.61,5.88,1.38,8.66,2l.31.15c1.55.46,2.78.77,4.33,1.23.62.15,1.24.46,1.85.61,1.24.31,2.17.47,3.1.77.62.16,1.54.31,2.47.62s1.55.46,2.48.77c2.47.61,4.94,1.38,7.42,2a24.88,24.88,0,0,1,4,1.07c.62.15.93.46,1.54.62a9.71,9.71,0,0,0,1.86.76c2.78.77,5.26,1.39,8,2.16.31.15.31.3.62.3l7.42,2.31c2.48.77,4.64,1.38,7.12,2.15,1.54.46,3.09,1.08,4.63,1.54,2.48.77,4.64,1.69,7.12,2.46,2.16.77,4.64,1.38,6.8,2.15l6.5,2.31c4,1.23,8.35,2.46,12.37,3.69,1.23.46,2.78.92,4.33,1.38,4,1.23,7.42,2.77,11.44,4,3.71,1.38,7.73,2.46,11.75,3.69,3.09.92,6.19,2,9.28,3.07a1.5,1.5,0,0,1,.62.16c2.16.77,4.33,1.69,6.49,2.3,2.48.77,5.26,1.39,7.73,2.15,3.1.93,6.19,2,9.28,2.93a2.25,2.25,0,0,1,.93.3c2.16.77,4.64,1.54,6.8,2.31s4.64,1.38,6.81,2l.92.46c.93.31,1.55.61,2.17.77,2.47.77,5,1.38,7.42,2.15l4.64,1.38c2.17.77,4.64,1.69,7.11,2.46l10.21,2.77c.93.15,1.85.31,2.47.46.93.16,1.55.46,2.48.62,1.23.3,2.47.61,3.4.92l2.78.92a8.76,8.76,0,0,0,1.55.46c2.78.77,5.88,1.39,8.66,2.15l.31.16,8.35,2.3c3.09.77,6.49,1.39,9.59,2.16.3,0,.61.3,1.23.46l1.86.46c3.09.61,6.49,1.23,9.59,2s5.87,1.84,9,2.3a40.65,40.65,0,0,1,7.74,1.54,1.85,1.85,0,0,0,.92.16c3.4.61,7.12,1.38,10.83,2,.31.16.31.31.62.31l4.63.92a32.07,32.07,0,0,0,3.72.62c1.54.31,3.4.61,4.94.92,1.55.15,2.79.46,4.33.62,1.86.15,3.41.46,5.26.76a21.77,21.77,0,0,1,3.09.47,50,50,0,0,0,7.12,1.23c3.4.3,6.49,1.53,10.2,1.53,2.48,0,5,.77,7.43,1.08,3.4.46,6.8.77,10.2,1.08,2.17.15,4.64.46,7.11.61,3.41.31,7.12.15,10.52,1.08a2.86,2.86,0,0,0,3.09-.77,1.34,1.34,0,0,0,.62-1.39v-8C1113,1242.5,1110.53,1241.27,1106.2,1241.11Zm-620.39-222.3c3.09-.61,5.88-1.23,8.66-1.84,3.09-.77,5.88-1.54,8.66-2.31.31-.15.93-.15,1.24-.3a40.79,40.79,0,0,1,5.26-1.23c3.4-.62,6.8-1.39,10.2-2,1.55-.31,2.78-.77,4.33-1.08l.31-.15c4-.62,7.73-1.39,11.75-2,1.24-.31,2.48-.46,3.71-.77a1.64,1.64,0,0,1,.62-.15c4.64-.77,9.59-1.39,14.23-2.16,1.54-.15,2.78-.46,4.33-.61,2.16-.31,4-.46,5.87-.77a58.9,58.9,0,0,0,5.88-.77c1.55-.15,3.09-.46,4.64-.61,3.71-.31,7.11-.77,10.82-1.08,1.86-.15,3.4-.31,5.26-.46,4.64-.31,9-.77,13.61-1.08,4.33-.3,9-.46,13.61-.61,8-.31,16.08-.46,24.12-.77,11.13.31,22.27.61,33.71,1.08,3.71.15,7.42.76,11.13,1.07,6.5.62,13.3,1.23,19.79,2,4,.46,8.35,1.38,12.38,2.15,1.23.31,2.47.46,3.4.62,1.85.3,3.4.77,5.25,1.07a1.56,1.56,0,0,0,.62.16c3.41.61,6.81,1.23,10.21,2s6.49,1.69,9.9,2.61c2.47.61,4.94,1.23,7.42,2,2.16.61,4.33,1.38,6.49,2,2.79.77,5.88,1.69,8.66,2.61,1.55.46,3.09.92,4.64,1.54,3.09,1.23,5.88,2.46,9,3.69,2.16.77,4.33,1.53,6.18,2.3l7.43,3.23c6.18,2.92,12.68,6,18.55,9.07,4.33,2.31,8.35,4.77,12.68,7.23,3.4,2,7.12,4,10.52,6.15,2.47,1.53,4.64,3.23,7.11,4.76,1.86,1.08,3.71,2.15,5.26,3.23,1.24.92,2.47,1.69,3.71,2.61,1.55,1.08,2.78,2.31,4.33,3.39a26.69,26.69,0,0,0,3.09,2.3l4.64,3.23c2.47,1.85,5,3.84,7.42,5.84s5.26,3.85,7.73,5.84c1.86,1.39,2.79,2.77,4.33,4l4.64,3.69c1.55,1.23,2.79,2.61,4.33,3.84s3.1,2.62,4.64,4a7.23,7.23,0,0,0,1.55,1.39,15.76,15.76,0,0,1,1.85,1.53,2.1,2.1,0,0,1,.93,1.54,6.23,6.23,0,0,1-2.47.46c-5,.46-10.21.77-15.16,1.08-4.64.3-9.27.15-13.91.61-7.12.62-14.23,1.54-21.34,2.31-6.5.61-13.3,1.23-20.1,1.84-.62,0-.93.16-1.55.16-3.71.46-7.11.92-10.83,1.53-2.47.31-4.63.93-7.11,1.23-3.4.62-7.11,1.08-10.51,1.54-4.64.62-9,1.23-13.61,1.85-1.55.3-3.09.77-4.64,1.07-2.47.31-4.64.31-6.49-.92-2.17-1.38-5.26-2.46-7.74-3.69-1.54-.61-2.78-1.38-4.33-2.15l-3.71-1.85c-4.95-2.15-9.89-4.45-14.53-6.61l-15.16-7.07c-2.78-1.23-5.87-2.46-8.66-3.69s-5.56-2.61-8.35-3.84c-3.09-1.39-6.49-2.62-9.58-3.85s-5.88-2.61-9-3.84-6.19-2.61-9.28-3.84-5.88-2.46-9-3.69c-1.85-.77-3.71-1.54-5.57-2.15-3.71-1.23-7.11-2.62-10.82-3.85l-6.49-2.3c-2.17-.77-4.33-1.69-6.5-2.46-1.54-.62-2.78-1.23-4.33-1.69-2.16-.77-4.33-1.39-6.49-2.16l-6.5-2.3-5.56-1.85c-2.17-.77-4.64-1.23-7.12-2s-4.64-1.69-7.11-2.46c-1.55-.46-3.09-1.07-4.95-1.53-2.78-.77-5.26-1.39-7.73-2.16-2.78-.76-5.57-1.69-8.35-2.45-2.17-.47-4-1.08-5.88-1.54-2.78-.77-5.87-1.39-8.66-2.15s-5.87-1.54-8.66-2.31c-.3,0-.3-.15-.61-.15-3.1-.62-6.5-1.23-9.59-2-3.4-.77-6.5-1.69-9.9-2.46-.31,0-.31-.16-.62-.16l-10.2-1.84h-.62c-3.71-.77-7.11-1.69-10.82-2.46-.31,0-.31-.15-.62-.15l-13-1.85c-1.55-.15-3.09-.61-4.64-.92a2.14,2.14,0,0,0-.93-.31c-5.26-.61-10.2-1.38-15.46-2a38.61,38.61,0,0,1-5.88-.92C484.58,1019.58,484.27,1019.12,485.81,1018.81Zm219.27,113.31-.31.15c-3.09.77-6.49,1.38-9.59,2.15-1.23.31-2.47.77-3.71,1.08-5.25,1.54-10.51.77-15.46-.46a31.9,31.9,0,0,0-3.71-.62c-1.55-.31-3.4-.61-4.95-.92-1.55-.15-2.78-.46-4.33-.62-2.16-.3-4.64-.76-6.8-1.07,0-.16-.31-.16-.31-.16-4.64-.76-9.59-1.38-14.23-2-1.54-.31-3.4-.62-4.95-.77-2.47-.31-4.64-.46-7.11-.77l-8.35-.92c-1.86-.16-3.4-.31-4.95-.46-4.33-.47-9-.93-13.3-1.23-5.25-.31-10.82-.47-16.39-.77-13-.93-25.67-1.23-38.66-.93-6.18.16-12.37.62-18.55.93-4.95.3-9.9.46-14.85.77s-9.58.76-14.53,1.23c-1.55.15-3.4.46-5,.61-2.16.31-4.33.46-6.49.77-1.86.31-4,.46-5.88.77-2.17.15-4.33.46-6.5.77s-4,.61-6.18.92c-1.55.15-2.78.46-4,.61-1.86.16-3.4.46-5.26.77-1.54.31-3.09.46-4.64.77-2.78.46-5.87,1.08-9,1.54-1.54.31-3.4.61-4.94.92a1.64,1.64,0,0,1-.62.15c-4,.62-8,1.23-12.06,2a22.68,22.68,0,0,0-3.1.62c-.31,0-.62.31-.92.31-3.72.61-7.43,1.38-11.14,2l-3.71.93c-.62.15-1.55.3-2.16.46-1.55.3-3.41.77-4.95,1.07-3.4.77-6.81,1.39-10.21,2.16h-.62c-3.09.76-6.49,1.69-9.58,2.46l-.31.15c-3.1.61-6.5,1.23-9.9,2-1.55.31-3.09.77-4.64,1.23-3.71.92-7.42,1.69-11.13,2.61-3.09.77-6.5,1.38-9.59,2.15-.31.16-.93.16-1.24.31-4.33.92-8.35,1.85-12.37,2.92-3.09.77-5.87,1.69-9,2.46-.61.16-1.54.31-2.16.46l-3.71.93c-.31,0-.31.15-.62.15-3.4.61-6.8,1.23-9.9,2-1.23.31-2.16.61-3.4.92-3.4.77-7.11,1.38-10.51,2.15s-6.81,1.69-10.21,2.46a2.14,2.14,0,0,1-.93.31l-6.49,1.38c-3.71.77-7.73,1.39-11.44,2.16a31.54,31.54,0,0,0-3.72.92c-3.71.77-7.42,1.23-11.13,2a39.34,39.34,0,0,1-5,1.23c-4.64.61-9.27,1.23-13.6,2-4.64.77-9,1.7-13.3,2.46-.31,0-.31.16-.62.16-5.88.77-11.75,1.38-17.63,2-.62.15-1.24,0-1.55.15-5.56,1.38-11.75,1.38-17.62,1.85s-11.76.92-17.63,1.23c-8.35.46-16.39.76-24.74,1.07a165.8,165.8,0,0,1-24.13-1.38c-3.71-.31-7.11-.31-10.82-.46-2.47-.16-4.64-.62-7.11-.77-2.79-.31-5.88-.46-9-.77-2.17-.31-4-.62-6.19-.92-2.47-.31-5-.62-7.11-.93a15.12,15.12,0,0,1-2.47-.92c.92-.31,1.54-.77,2.47-1.07l3.71-.93c2.78-.61,5.26-1.38,8-2,3.71-.92,7.12-1.84,10.83-2.76,2.78-.77,5.25-1.39,7.73-2.15,2.16-.62,4.33-1.39,6.49-2,2.48-.77,5.26-1.54,7.73-2.31l7.43-2.31,7.42-2.3,6.49-2.31c1.24-.46,2.79-1.07,4.33-1.53,2.17-.77,4.64-1.54,6.81-2.31,1.54-.62,3.4-1.23,5.25-1.85,3.72-1.38,7.43-2.92,11.14-4.3,3.4-1.23,6.49-2.61,9.59-4,2.47-1.07,5.25-2.15,8-3.23,3.4-1.38,6.49-2.92,9.89-4.3,2.79-1.23,5.88-2.46,8.66-3.69,4-1.69,8-3.54,12.06-5.38,2.79-1.23,5.57-2.61,8.35-3.84,2.48-1.39,5.26-2.62,7.73-3.85,1.55-.77,3.41-1.38,4.95-2.15,1.24-.61,2.48-1.08,3.71-1.69,3.72-1.69,7.43-3.54,11.14-5.23,5.87-2.61,11.75-5.38,17.32-8.15,7.11-3.38,13.91-6.91,21-10.3,5.87-2.76,11.44-5.68,17.32-8.45l13.91-6.92c3.71-1.69,7.73-3.38,11.44-5.23,2.79-1.23,5.26-2.61,8.05-3.84,2.47-1.08,4.63-2.15,7.11-3.23,4.33-2,8.35-4,12.68-5.84,4-1.84,8-3.69,12.37-5.53,5.57-2.46,10.82-4.77,16.39-7.08,3.09-1.23,5.88-2.3,9-3.53s6.18-2.77,9.59-4,6.8-2.3,9.89-3.53c2.17-.77,4-1.7,6.19-2.46s4-1.39,6.18-2.16l12.06-4.15c3.1-.92,6.5-2,9.9-2.76a21.8,21.8,0,0,1,4.33.3c1.55.16,2.78.46,4.33.62,3.71.46,7.11.92,10.52,1.23l5.56.46c2.17.15,4.33.46,6.5.77a46.43,46.43,0,0,1,4.64.61c2.16.31,4.33.77,6.49,1.08a1.64,1.64,0,0,0,.62.15l13.92,1.85a31,31,0,0,1,3.71.77c.62,0,.92.3,1.23.3,4,.62,8,1.23,11.76,2,4,.77,7.73,1.69,11.44,2.46a23.52,23.52,0,0,1,3.09.46c3.4.92,6.8,1.69,10.21,2.62.62.15,1.23.15,1.85.3,1.55.31,3.1.77,4.64,1.08.31,0,.31.15.62.15,3.09.62,6.19,1.23,9,2,3.09.77,5.87,1.69,8.66,2.46l1.85.46c3.1.77,6.19,1.54,9.28,2.46,2.48.77,4.95,1.39,7.42,2.15,2.79.77,5.26,1.7,8,2.46,1.86.62,4,1.23,5.88,1.85,2.47.77,4.64,1.38,7.11,2.15l5.57,1.85c2.78.92,5.26,1.84,8,2.76,3.4,1.23,6.81,2.62,10.21,3.85l6.49,2.3a15.11,15.11,0,0,1,2.17.93c3.4,1.23,6.49,2.3,9.89,3.53,1.86.62,3.71,1.23,5.57,2,3.71,1.54,7.42,2.92,11.13,4.46,4.33,1.84,8.35,3.69,12.68,5.53,4,1.69,8,3.23,12.06,4.92,3.41,1.39,6.5,2.92,9.59,4.31,2.79,1.07,5.57,2.3,8.35,3.53,3.71,1.69,7.42,3.54,11.14,5.23s7.73,3.54,11.75,5.38,7.73,3.84,11.75,5.69c1.24.46,2.47,1.07,3.71,1.54s1.24.92,0,1.23c-.62.15-1.24.46-1.85.61-3.1.77-6.19,1.38-9.28,2-4.33.77-8.35,1.69-12.68,2.61a22.68,22.68,0,0,1-3.1.62c-1.23.31-2.47.46-3.71.77-.31.15-.92.3-1.23.46-3.1.77-6.5,1.38-9.9,2.15C711,1130.58,707.86,1131.35,705.08,1132.12Zm259.16,85.16c-1.23-.15-2.78-.3-5.87-.76-4.64-1.39-9-2.62-13.3-4l-10.21-3.23c-3.09-1.08-6.18-2.15-9.58-3.07-2.17-.62-4.64-1.23-7.12-2-2.16-.62-4.33-1.39-6.49-2.16s-4.64-1.38-6.8-2.15c-2.48-.77-5-1.69-7.74-2.46-2.47-.77-4.64-1.38-7.11-2.15-1.86-.61-4-1.23-6.18-2-1.86-.61-3.72-1.54-5.88-2.15-4-1.38-8-2.61-12.06-3.84-2.17-.62-4-1.39-5.88-2-2.16-.62-4.64-1.39-6.8-2.15-2.48-.77-4.64-1.7-7.11-2.46-1.86-.62-3.41-1.23-5.26-1.85-2.17-.61-4.64-1.23-6.81-2-2.47-.77-4.64-1.69-7.11-2.46s-4.64-1.38-7.11-2.15c-2.17-.61-4.33-1.38-6.5-2-2.78-.77-5.87-1.69-8.66-2.61-2.47-.77-4.64-1.54-7.11-2.31-1.85-.61-3.71-1.07-5.57-1.69-2.16-.77-4.64-1.23-7.11-2-2.47-.61-5-1.53-7.42-2.3-.31-.16-.62-.16-.93-.31-3.09-.77-5.88-1.38-8.66-2.15-2.47-.77-5-1.54-7.73-2.31-2.47-.61-5.26-1.23-8-2s-5.26-1.69-8-2.46c-.31-.15-.31-.3-.62-.3-2.78-.62-5.88-1.23-9-2s-5.88-1.69-9-2.46c-.31,0-.31-.16-.62-.16-3.09-.77-6.18-1.38-9.27-2-.62-.15-1.24-.3-1.24-.46s.62-.46.93-.61c1.54-.46,2.78-.77,4.33-1.08a36.73,36.73,0,0,1,4-1.07c.31,0,.31-.16.62-.16,3.4-.61,6.8-1.23,10.2-2,2.47-.46,4.95-1.07,7.42-1.69,2.17-.46,4.64-.92,6.81-1.38,1.54-.31,3.09-.77,4.64-1.08,3.71-.61,7.73-1.23,11.75-2l7.42-1.38a8.85,8.85,0,0,1,6.19,1.08c2.78,1.38,5.25,2.76,8,4.15l7.11,3.53c2.78,1.23,5.26,2.62,7.73,3.85l13.92,6.92c7.73,3.84,15.15,7.68,22.88,11.53,5,2.46,10.21,4.91,15.16,7.37l11.13,5.08c2.78,1.23,5.26,2.61,7.73,3.84,2.79,1.23,5.57,2.46,8,3.69s4.64,2.31,7.12,3.38c2.78,1.23,5.56,2.62,8.35,3.85,3.4,1.53,6.8,2.92,10.2,4.45,2.79,1.23,5.88,2.46,8.66,3.69,2.48,1.08,5,2.31,7.42,3.39l6.5,2.76,9.28,3.69c3.4,1.23,6.49,2.62,9.89,3.85,2.48.92,4.95,2,7.43,2.92s5.25,1.84,8,2.92a2.42,2.42,0,0,1,1.23.77C964.55,1217.13,964.24,1217.13,964.24,1217.28Z" transform="translate(0.38 0.38)"/></g><g class="cls-1"><path d="M2041,1065.08v8.45c0,1.54-1.14,2.31-4,2.77a40.39,40.39,0,0,0-4,1.23c-.57.15-.86.15-1.43.31a23.73,23.73,0,0,0-4,1.23c-.56.15-.85.15-1.42.3-1.42.46-2.85.77-4.27,1.23-.57.16-1.43.31-2,.46s-1.14.16-1.71.31c-2.28.77-4.28,1.54-6.55,2.31l-.29.15c-2.28.62-4.56,1.23-6.83,2l-6.84,2.31a7.39,7.39,0,0,0-1.42.46c-2.85.92-5.41,1.84-8.26,2.76-2,.62-3.7,1.23-5.7,2s-4.27,1.69-6.26,2.46c-.29,0-.29.16-.29.16-2,.76-4.27,1.38-6.26,2.15s-3.71,1.54-5.7,2.3c-1.71.77-3.7,1.39-5.41,2.16-2,.77-3.7,1.53-5.7,2.46a40.44,40.44,0,0,1-3.7,1.69c-1.42.61-3.13,1.23-4.56,1.84-2,.92-4.27,1.54-6,2.77-1.14.77-3.13,1.23-4.55,1.84-1.71.77-3.14,1.7-4.84,2.46s-3.42,1.54-5.13,2.46c-2.85,1.23-5.41,2.62-8.26,4-2.28,1.08-4.56,2.15-7.12,3.38-1.42.62-2.56,1.39-4,2l-12.53,6.3-9.4,4.62c-2.27,1.23-4.55,2.61-6.83,3.84s-4.84,2.31-7.41,3.54a15.43,15.43,0,0,0-3.13,1.69c-2.28,1.23-4.56,2.61-6.83,4-2.28,1.23-4.85,2.31-6.84,3.54-2.28,1.23-4.56,2.61-7.12,4-2.28,1.23-4.56,2.3-6.83,3.53-2.57,1.39-4.85,2.77-7.41,4a25.17,25.17,0,0,1-4,2c-1.42.61-2.84,1.23-4.27,2l-11.11,6c-3.7,1.85-7.12,3.85-11.1,5.69-2.57,1.23-5.41,2.46-8,3.69-1.42.77-2.56,1.54-4,2.31a21.6,21.6,0,0,1-3.71,1.69c-3.41,1.69-6.83,3.23-10.25,4.92-3.7,1.84-7.4,3.84-11.39,5.84-1.42.77-3.42,1.23-4.84,2-1.71.77-2.85,1.54-4.56,2.3-2.56,1.23-5.41,2.46-8.26,3.69-2,.77-3.7,1.69-5.41,2.46l-8.54,3.69-5.41,2.46c-1.43.62-2.85,1.08-4.28,1.69l-8.54,3.23c-.57.16-.85.62-1.42.77a9.54,9.54,0,0,0,2,.46c9.11,0,18.51.16,27.62,0,5.42-.15,10.83-.15,16-1.07a27,27,0,0,1,5.13-.31c4.84-.16,9.4-.46,14.24-1.08,2.85-.46,6.27-.31,9.11-.92,3.71-.77,7.69-1.08,11.68-1.54,2.28-.31,4.56-.92,6.83-1.07a37.56,37.56,0,0,0,7.41-1.39,12.16,12.16,0,0,1,2.56-.3,39.52,39.52,0,0,0,4-.77c1.42-.31,2.85-.46,4.27-.77s2.56-.46,4-.77l6-.92c.85-.16,1.71-.46,2.28-.62a2,2,0,0,1,.85-.31c3.14-.61,6-1.23,9.12-1.84,1.42-.31,2.56-.77,4-1.08h.29c3.42-.61,6.55-1.38,10-2h.85l7.69-2.3c.28,0,.28-.15.57-.31,2.85-.77,5.7-1.38,8.54-2.15,1.14-.31,1.71-.77,2.85-1.08,2.85-.77,5.7-1.23,8.26-2,2.28-.61,4.56-1.53,6.84-2.3a8,8,0,0,0,1.7-.62c1.14-.3,2-.77,3.14-1.07a10.14,10.14,0,0,0,2-.62c.85-.31,1.42-.46,2.28-.77.57-.15.85-.3,1.42-.46a41.41,41.41,0,0,1,4-1.23c2.28-.61,4.56-1.23,6.83-2l1.71-.46c1.14-.46,2.57-.77,3.71-1.23,1.42-.46,2.56-.92,4-1.38,2-.77,4-1.69,6.27-2.46l.57-.31c2.85-.92,5.41-2,8.26-2.92,2-.61,4-1.23,6-2,2.28-.77,4.27-1.84,6.55-2.61,2-.77,4-1.38,6-2,1.71-.61,3.13-1.23,4.56-1.84l6.83-2.77c1.71-.77,3.42-1.54,5.13-2.15,1.71-.77,3.7-1.54,5.41-2.31s3.7-1.38,5.41-2.15c2-.77,4.27-1.69,6.27-2.46l5.12-2.31c1.43-.61,3.13-1.23,4.56-1.84,3.42-1.39,6.83-2.92,10.25-4.46,3.13-1.23,6.27-2.46,9.11-3.84,1.43-.62,2.57-1.23,3.71-1.7,3.41-1.53,6.83-2.92,10.25-4.45a4,4,0,0,1,1.14-.62l2.56-.92c.57.46,1.43.92,1.43,1.54.28.46,0,1.07,0,1.69V1153c0,.92-.57,1.69-2.28,2.15-2.28.77-4,1.85-6.27,2.62a38.57,38.57,0,0,1-3.7,1.53c-2.28,1.08-4.84,2.16-7.12,3.23-1.71.77-3.42,1.23-5.13,2a21.84,21.84,0,0,0-3.7,1.69l-5.41,2.46c-1.42.62-3.13,1.08-4.56,1.69-2,.77-4,1.69-6,2.46l-6,2.31c-1.71.77-3.42,1.54-5.41,2.31-1.71.76-3.7,1.38-5.41,2.15-2,.77-3.7,1.54-5.7,2.15-3.41,1.38-7.12,2.77-10.53,4.15s-6.84,2.61-10.26,4c-2,.77-4,1.38-5.69,2-2.28.77-4.27,1.69-6.55,2.46-2,.76-4.27,1.53-6.55,2.15-2,.61-4,1.38-6,2-.86.3-2,.61-2.85.92a30,30,0,0,0-2.85,1.08c-2.28.76-4.84,1.38-7.12,2-2.28.77-4.56,1.54-6.83,2.46a8.5,8.5,0,0,0-1.43.47,1.71,1.71,0,0,0-.85.15l-6.84,2.3c-.57.16-1.42.47-2,.62-1.14.31-2.57.77-3.7,1.08l-1.71.46a33.56,33.56,0,0,0-3.71,1.23,3.17,3.17,0,0,1-1.13.3h-.86c-2.85.77-5.69,1.7-8.54,2.46l-1.71.47c-1.43.46-2.85.76-4.27,1.23h-.29c-2.85.61-5.69,1.23-8.54,2-1.14.31-2,.46-3.14.77s-2,.46-3.13.77a17.79,17.79,0,0,0-2.85.46,31.05,31.05,0,0,1-5.69,1.23c-3.13.62-6,1.54-9.12,2.15-1.7.31-3.41.47-5.12.77-.86.16-1.43.31-2.28.46-1.71.31-3.42.62-4.84.93a33.27,33.27,0,0,0-4.56,1.07l-2.56.46c-2,.31-4,.77-6.27,1.08-1.42.31-3.13.46-4.55.62-2,.3-4,.61-5.7.92a13.41,13.41,0,0,1-3.42.46c-4.27-.15-7.69,1.23-11.67,1.38-6.84.31-13.67,1.85-20.79,1.69a81.86,81.86,0,0,0-10.54,1.08c-1.71.15-3.42.31-5.13.31-12.24.15-24.77.15-37,.15-4.84,0-9.4,0-14.24-.31-4.56-.15-9.11-.61-13.67-1.07a11.44,11.44,0,0,0-6.84.77c-1.71.92-4.27,1.23-6.55,2-1.14.31-2,.62-3.13.93-.85.3-1.71.46-2.28.61s-.85.16-1.42.31c-3.42,1.08-6.55,2.15-10,3.07-2.56.62-4.84,1.7-7.4,2.31-2.85.77-6.27,1.38-9.12,2a6.85,6.85,0,0,1-1.71.31c-1.71.46-3.41.76-4.84,1.23a56.85,56.85,0,0,0-7.69,2,16,16,0,0,1-4.55.93c-1.14.15-2.28.46-3.71.77-.85.15-1.42.46-2.28.61-2.56.46-5.12,1.08-7.68,1.54s-5.13,1.07-7.41,1.54c-2.85.46-5.7,1.22-8.83,1.53a52.66,52.66,0,0,0-10,1.54c-.85.31-2,0-2.84.15-2.28.31-4.28.93-6.55,1.08-2.85.31-5.7.15-8.55.77-5.41,1.07-10.82.92-16.23,1.69-3.13.46-6.55.77-9.68.92a211.91,211.91,0,0,0-21.93,1.23h-1.71c-5.7,0-11.11.16-16.81,0-4-.15-8-.46-12-.61-2-.16-4-.31-6-.31a112.37,112.37,0,0,1-19.08-1.38c-2.56-.47-5.41-.31-8.26-.62-3.7-.31-7.12-.92-10.82-1.23a2,2,0,0,1-1.14-.31c-2-.46-4.27-.77-6.27-1.23-1.42-.3-2.84-.46-4.55-.77-1.43-.3-2.85-.46-4.27-.76-1.14-.16-2-.31-3.14-.47-1.42-.3-3.13-.61-4.55-1.07a15.68,15.68,0,0,1-2.57-.77c-.28,0-.28-.15-.57-.31-3.13-.61-6.26-1.38-9.11-2-.85-.15-1.71-.46-2.28-.61a2,2,0,0,0-.85-.31c-2.85-.77-5.7-1.38-8.55-2.3a62.46,62.46,0,0,1-6.26-2.31,3.45,3.45,0,0,0-1.43-.31c-1.13-.31-2-.61-3.13-.92-.57-.15-1.14-.46-1.71-.62a30.41,30.41,0,0,0-3.41-1.07c-2-.62-4-1.23-5.7-1.85-2-.76-4-1.69-6.27-2.61-1.42-.61-3.13-1.38-4.55-2-2-.92-4.28-1.84-6.27-2.61-1.42-.62-2.85-1.08-4-1.69-2-1.08-4-2-6.26-3.08-2.56-1.23-5.13-2.3-7.41-3.69-2.27-1.23-4.55-2.61-7.12-4-2-1.23-4.27-2.31-6.26-3.54-3.42-2-6.84-4-10-6-2.56-1.69-5.13-3.22-7.69-4.92-1.42-.92-2.56-1.84-4-2.76-2.27-1.69-4.55-3.23-6.83-4.92-1.71-1.23-3.13-2.46-4.84-3.85-1.14-.76-2-1.53-3.14-2.3l-6-5.07c-1.71-1.39-3.41-2.93-5.12-4.31a32.58,32.58,0,0,1-4.27-3.38c-1.14-.92-2.28-2-3.42-3.08-.29-.3-.86-.61-1.14-.92-.86-.61-1.43-1.38-2.28-2-1.42-1.23-2.85-2.46-4.27-3.53a3,3,0,0,1-1.14-1.23,10.29,10.29,0,0,0-1.42-1.23,4.43,4.43,0,0,0-1.14-.62,45.57,45.57,0,0,0-3.71-3.84c-1.42-1.23-2.84-2.31-4.27-3.54-.28-.3-.57-.77-.85-1.07-.57-.62-1.43-1.23-2-1.85a46,46,0,0,1-3.7-3.69,47,47,0,0,0-3.7-3.84,9,9,0,0,0-2.28-1.69,4.66,4.66,0,0,0-2-.46h-17.66c-6-.16-11.68,0-17.66-.31-4.27-.15-8.26-.77-12.24-1.08-2-.15-3.71-.3-5.7-.3a81.05,81.05,0,0,1-8.83-.77c-3.7-.46-7.4-.62-11.11-.93-2.27-.3-4.27-1.07-6.26-1.07-3.7,0-6.55-1.38-10-1.54-3.7-.15-6.83-1.07-10.25-1.54a22.1,22.1,0,0,1-3.13-.3c-1.71-.31-3.14-.62-4.56-.93-1.14-.15-2.28-.3-3.13-.46-1.43-.3-3.14-.61-4.56-.92-.29,0-.29-.15-.57-.15-4-.62-8-1.39-12-2a14.13,14.13,0,0,1-1.43-.31c-2.27-.77-4.84-.77-7.12-1.38-2.84-.77-6-1.23-9.11-1.85-2-.46-4-.77-6-1.23-.85-.15-2-.46-2.85-.61a39.88,39.88,0,0,0-4.27-.77c-2.28-.15-4-.92-4-2.15v-9.07a1.42,1.42,0,0,1,1.14-1.23,7.33,7.33,0,0,1,3.14.3c1.13.31,2.27.62,3.7.93,1.71.3,3.13.77,4.84,1.07.85.16,1.71.31,2.28.46,1.71.31,3.7.77,5.41,1.08a9.15,9.15,0,0,0,2,.31c2,.3,4,.15,5.7,1.07.57.46,2.28.31,3.42.62,1.42.31,2.84.61,4.55.92.29,0,.29.15.57.15,3.7.62,7.41,1.23,11.11,2,.85.16,2,.46,2.85.62l4.27.92c1.42.31,3.13.62,4.56.92,1.7.31,3.13.46,4.84.77a65.76,65.76,0,0,0,7.69,1.23c4.27.16,8.26,1.23,12.24,1.85,3.71.46,7.41,1.07,11.11,1.53,1.71.16,3.42.16,5.13.31,3.13.31,6,.92,9.11,1.23,2.28.31,4.56.15,7.12.31,3.13.15,6,.46,9.11.61,5.13.31,10.26.46,15.38.62,2.85.15,5.41,0,8.26,0,1.71,0,2.28-.46,1.43-1.23a7,7,0,0,0-1.43-1.39l-4.27-3.68c-2-1.7-4-3.23-5.7-4.92-1.42-1.23-2.27-2.62-3.7-3.85l-4.27-3.69c-1.42-1.23-2.56-2.3-4-3.53a40.16,40.16,0,0,0-4.55-4c-1.14-1.08-2.57-2-3.71-3.07-2.56-2-5.12-4.16-7.69-6.15-1.14-.77-2-1.7-3.13-2.46-1.42-1.23-2.56-2.46-4-3.54-2-1.54-4.27-3.07-6.55-4.61l-4.27-3.23c-1.14-.92-2.56-1.69-4-2.61-1.7-1.08-3.41-2.31-5.12-3.39-1.14-.76-2.57-1.53-4-2.3-1.14-.77-2.28-1.39-3.42-2.15-2.56-1.39-4.84-2.77-7.4-4.16-2.28-1.38-4.56-2.61-7.12-4-3.42-1.85-7.12-3.54-10.54-5.23a32.91,32.91,0,0,0-4.56-2.31c-2.84-1.23-6-2.3-8.82-3.53-2-.77-4-1.69-6-2.46-1.71-.77-3.71-1.38-5.42-2.15-2.56-.93-4.84-1.69-7.4-2.62l-.29-.15c-2-.62-3.7-1.08-5.69-1.69a22,22,0,0,0-3.7-1.23c-.57-.16-1.71-.31-2.28-.46-2.28-.62-4.84-1.08-6.84-1.85a2.07,2.07,0,0,1-1.42-1.53c-.29-3.23,0-6.46,0-9.69,0-1.08,1.42-1.54,3.42-1.08,1.14.31,2.27.93,3.41,1.23,2.85.77,5.7,1.39,8.55,2.16,2.28.61,4.27,1.38,6.55,2.15l.85.46c2.28.61,4.84,1.23,6.84,2,2.28.77,4.55,1.69,6.83,2.46s4.56,1.54,6.84,2.46c2,.77,4.27,1.69,6.26,2.46,2.28.92,4.28,1.84,6.55,2.76l8.26,3.54a37.4,37.4,0,0,1,4.84,2.61c1.14.62,2.28,1.08,3.42,1.69,3.42,1.7,6.84,3.39,10,5.23,3.42,1.85,6.55,3.69,9.68,5.54q3.86,2.3,7.69,4.61a68.35,68.35,0,0,1,6.27,4.3c1.14.77,2,1.39,3.13,2.16,1.71,1.07,3.13,2.15,4.84,3.22l6.84,5.08a27.07,27.07,0,0,1,4,2.92c1.43,1.23,2.85,2.46,4.28,3.53,1.14,1.08,2.56,2,3.7,3.08,1.71,1.38,3.42,2.77,4.84,4.15a16.25,16.25,0,0,1,2.28,1.84c1.71,1.23,3.13,2.46,4.84,3.85.28.15.57.46.57.61a25.08,25.08,0,0,1,2,2c1.43,1.38,2.85,2.61,4.28,4a49.79,49.79,0,0,0,4,3.69c1.71,1.53,3.14,3.07,4.84,4.46,1.43,1.23,2.85,2.3,4.28,3.53.28.31.57.46.85.77.29.46.57.77.85,1.23,2.28,2.15,4.85,4.3,7.41,6.46a2,2,0,0,1,.57,1.07c.57,1.08,1.71,1.39,3.7,1.54a160.41,160.41,0,0,0,17.09-.92c2.85-.31,5.69-.46,8.54-.62a72,72,0,0,0,12.82-1.07c3.42-.62,7.12-.46,10.82-.77a14.79,14.79,0,0,0,2.56-.31c2.57-.31,5.13-.61,7.41-.92l9.4-1.39c1.42-.15,2.85-.15,4-.3,2.57-.31,4.85-.77,7.41-1.08,1.14-.15,2.28-.15,3.42-.31a81.15,81.15,0,0,1,8.54-1.38c3.13-.15,5.7-1.23,8.83-1.54,2-.3,3.7-.46,5.7-.77,1.42-.3,1.42-1.07.56-1.69a68.11,68.11,0,0,1-6.55-3.38c-2.27-1.23-4.27-2.61-6.55-4-2.27-1.23-4.84-2.46-7.12-3.69-1.13-.61-2-1.23-3.13-1.84-2.56-1.54-5.41-2.92-8.26-4.46a40.44,40.44,0,0,0-3.7-2.3c-1.42-.77-2.85-1.39-4.27-2.16a38.88,38.88,0,0,1-3.7-2c-2.28-1.23-4.28-2.46-6.55-3.69-2.85-1.53-5.7-3.07-8.83-4.45-2.28-1.23-4.84-2.31-7.41-3.54s-4.55-2.61-7.12-4c-3.13-1.53-6.26-3.07-9.11-4.61-3.7-1.84-7.41-3.84-11.11-5.69-2.56-1.23-5.12-2.61-7.69-3.84-2.85-1.38-5.69-2.92-8.83-4.3-3.7-1.85-7.69-3.54-11.67-5.23-2.57-1.23-5.13-2.62-8-3.85-2.28-1.07-4.84-2.15-7.4-3.22-2.28-.93-4.27-2-6.55-2.92-1.71-.77-3.42-1.39-5.13-2-1.71-.77-3.42-1.69-5.13-2.46-1.42-.77-3.13-1.39-4.55-2-2.28-.92-4.56-1.85-7.12-2.77-2-.77-4-1.38-6-2s-3.7-1.53-5.7-2.3c-1.42-.62-2.85-1.23-4.27-1.69-2-.77-4.27-1.39-6.27-2.16l-3.41-1.38c-2.28-.77-4.56-1.69-6.55-2.46a3.45,3.45,0,0,0-1.43-.31,33.4,33.4,0,0,1-3.7-1.23c-2-.61-3.7-1.23-5.7-1.84l-8.54-2.77c-1.42-.46-2.85-.92-4.56-1.38-2.56-.77-5.12-1.39-7.69-2.31-2.27-.77-4.84-1.38-7.4-2a32.2,32.2,0,0,1-3.7-1.07c-.86-.31-1.71-.46-2.57-.77-.28,0-.28-.31-.57-.31-3.13-.77-6.26-1.38-9.39-2.15-.57-.16-.86-.31-1.43-.46a15.57,15.57,0,0,0-2.56-.77c-3.13-.62-6.55-1.23-9.68-1.85s-6-1.53-9.12-2.3a13,13,0,0,0-3.42-.46c-4-.16-6.26-1.39-6.26-3.54v-8a1.39,1.39,0,0,1,.57-1.39,2.51,2.51,0,0,1,2.85-.77c3.13.93,6.55.77,9.68,1.08,2.28.15,4.56.46,6.55.61,3.13.31,6.27.62,9.4,1.08,2.28.31,4.55,1.08,6.83,1.08,3.42,0,6.27,1.23,9.4,1.53a42.54,42.54,0,0,1,6.55,1.23,19,19,0,0,0,2.85.47c1.71.3,3.13.61,4.84.76,1.43.16,2.56.47,4,.62,1.42.31,3.13.61,4.56.92a27.49,27.49,0,0,1,3.41.62l4.27.92c.29,0,.29.15.57.31,3.42.61,6.84,1.38,10,2a1.65,1.65,0,0,1,.86.16,34.56,34.56,0,0,0,7.12,1.54c2.84.46,5.41,1.53,8.26,2.3s6,1.39,8.82,2l1.71.46c.57.16.86.46,1.14.46,2.85.77,6,1.39,8.83,2.16l7.69,2.3.29.16c2.56.76,5.41,1.38,8,2.15a7.39,7.39,0,0,1,1.42.46l2.57.92c.85.31,2,.62,3.13.92.85.16,1.42.46,2.28.62.57.15,1.42.31,2.28.46l9.39,2.77c2.28.77,4.56,1.69,6.55,2.46l4.28,1.38c2.27.77,4.55,1.38,6.83,2.15.57.16,1.14.46,2,.77l.85.46c2,.62,4.27,1.23,6.27,2s4.27,1.54,6.26,2.31a2,2,0,0,0,.85.3c2.85.93,5.7,2,8.55,2.93,2.28.76,4.84,1.38,7.12,2.15,2,.61,4,1.53,6,2.3a1.28,1.28,0,0,0,.57.16c2.85,1.07,5.7,2.15,8.54,3.07,3.71,1.23,7.41,2.31,10.83,3.69,3.7,1.23,6.83,2.77,10.53,4,1.43.46,2.85.92,4,1.38,3.7,1.23,7.69,2.46,11.39,3.69l6,2.31c2,.77,4.27,1.38,6.27,2.15,2.28.77,4.27,1.69,6.55,2.46,1.42.46,2.85,1.08,4.27,1.54,2.28.77,4.27,1.38,6.55,2.15l6.84,2.31c.28,0,.28.15.57.3,2.56.77,4.84,1.39,7.4,2.16a8.54,8.54,0,0,1,1.71.76c.57.16.85.47,1.42.62a21.23,21.23,0,0,0,3.71,1.07c2.27.62,4.55,1.39,6.83,2,.85.31,1.42.46,2.28.77s1.71.46,2.28.62c.85.3,1.71.46,2.84.77.57.15,1.14.46,1.71.61,1.43.46,2.57.77,4,1.23l.29.15c2.56.62,5.41,1.39,8,2,.57.16.85.46,1.42.62s.86.46,1.43.61c1.42.46,2.85.93,4.55,1.39,2.57.61,5.42,1.23,8,1.84,1.14.31,2,.62,3.13.92.29,0,.29.16.57.16,3.13.61,6.27,1.38,9.11,2,.86.15,1.71.76,2.57.92,3.42.31,6,2,9.68,2.15,1.71.15,3.13.92,4.84,1.23a25.47,25.47,0,0,0,9.69,0c.57-.15.85-.31,1.42-.46s.85-.46,1.42-.62c2.85-.61,5.41-1.23,8.26-2,2.57-.62,4.84-1.54,7.12-2.31a8.63,8.63,0,0,0,1.43-.46c1.14-.31,2.27-.77,3.41-1.08.29,0,.29-.31.57-.31,2.28-.61,4.85-1.22,7.12-1.84,2.57-.77,4.84-1.54,7.41-2.46a10.09,10.09,0,0,0,2-.61c1.14-.31,2-.77,3.13-1.08.57-.15.86-.31,1.43-.46.28-.16.85,0,1.14-.16,2.56-.76,4.84-1.53,7.12-2.3.28,0,.28-.16.57-.31,2.56-.61,5.12-1.23,7.4-2l6.84-2.3c.57-.16,1.14-.31,2-.62.85-.15,1.71-.46,2.28-.61l2.56-.93,2.57-.92a22.29,22.29,0,0,1,2.27-.61c2.57-.77,4.85-1.69,7.41-2.46a21.42,21.42,0,0,0,2.28-.77h.85c2.28-.77,4.27-1.54,6.55-2.31a8.18,8.18,0,0,1,2.28-.61c.85-.16,1.42-.46,2.28-.62,1.14-.31,2-.61,3.13-.92.57-.15,1.14-.46,1.71-.62l1.14-.61c1.71-.46,3.42-1.08,4.84-1.54s3.13-1.07,4.56-1.53c2.56-.77,5.12-1.39,7.69-2l6.83-2.31a10.18,10.18,0,0,0,2-.61c1.13-.31,2.27-.77,3.41-1.08.57-.15,1.14-.31,2-.46l1.71-.46c1.42-.46,2.84-.77,4.27-1.23,2.28-.77,4.55-1.54,7.12-2.31a8.17,8.17,0,0,0,1.42-.46c1.14-.31,2.56-.77,3.7-1.08l1.71-.46c1.14-.3,2-.61,3.13-.92.57-.15.86-.31,1.43-.46a1.71,1.71,0,0,1,.85-.15c2.57-.77,4.84-1.54,7.41-2.31.57-.15,1.42-.46,2-.62,1.14-.3,2.28-.76,3.42-1.07a9.13,9.13,0,0,0,1.42-.46,2.79,2.79,0,0,0,1.14-.16c2.57-.77,5.13-1.53,7.69-2.15.86-.31,2-.61,2.85-.92a15.57,15.57,0,0,1,2.56-.77c.57-.15,1.14-.31,2-.61,1.42-.31,2.56-.77,4-1.08.86-.15,1.71-.46,2.57-.62a1.71,1.71,0,0,0,.85-.15c2.56-.77,4.84-1.54,7.41-2.31.28,0,.28-.15.57-.15,2.84-.77,5.69-1.38,8.25-2.15,3.14-.77,6-1.69,9.12-2.46.57-.16.85-.16,1.42-.31a41.07,41.07,0,0,0,4.27-1.08c.57-.15,1.43-.3,2-.46a36.67,36.67,0,0,0,4-1.07c.57-.16.86-.46,1.43-.46a11.46,11.46,0,0,0,4.84-1.23,9.64,9.64,0,0,1,1.42-.31c1.43-.31,3.14-.77,4.56-1.08a23,23,0,0,1,3.13-.61c1.14-.16,2.28-.46,3.42-.62,1.43-.3,3.13-.61,4.56-1.07.85-.16,1.71-.46,2.28-.62a2,2,0,0,1,.85-.31c3.7-.76,7.41-1.23,10.82-2.15,2.85-.92,6.27-1.07,9.12-1.84a36.65,36.65,0,0,1,6.55-1.08h.28c3.7-.77,7.69-1.69,11.39-2.46.57-.15,1.14-.15,2-.31,3.13-.46,6-1.07,9.11-1.53s6.27-1.23,9.4-1.39a76.21,76.21,0,0,0,8.83-1.38c1.42-.31,2.85-.15,4.55-.46,2.85-.46,5.42-.92,8.26-1.23,2.57-.31,5.41-.31,7.69-.77,4-.92,8-.77,12-1.23,2-.31,4-.62,6.27-.92s4.27-.31,6.55-.46c2.56-.16,4.84-.46,7.4-.77,2-.16,3.71-.46,5.7-.46,6-.31,12.25-.16,18.23-1.23a28.85,28.85,0,0,1,3.7-.31c4.84-.15,9.68-.15,14.52-.31l27.63-.46h18.23c7.69.15,15.09.15,22.78.46,6.55.31,13.1.77,19.94,1.23,3.13.16,6.26.46,9.39.46,4.56-.15,8.83.93,13.39,1.23,1.71.16,3.13.16,4.84.31l8.55.92c2.56.31,5.41.46,8,.62,2.28.15,4.27.46,6.55.77.85.15,1.71.3,2.28.46,2.56.3,2.85.46,2.85,2V1018c0,1.69-.86,2-3.71,1.69-3.7-.46-7.4-.92-10.82-1.38-2.56-.31-5.69-.15-8.26-.62-5.12-.92-10.25-.92-15.38-1.22-3.41-.16-6.55-.77-9.68-1.08s-6.27-.31-9.11-.46l-14-.92c-2-.16-4-.31-6-.31-9.4-.16-18.8-.16-28.19-.31h-29.05c-7.12,0-14,.15-21.08.46-2.85.16-6,.62-8.83.77l-8,.46a72.56,72.56,0,0,0-14.24,1.23,14.93,14.93,0,0,1-3.7.31,79.1,79.1,0,0,0-12,1.07c-2.28.47-5.13.31-7.41.62-2.85.31-5.69.92-8.54,1.23-.86.15-1.43,0-2.28.15-2.28.31-4.56.62-6.84.77-1.71.16-3.13.46-4.84.62-2,.3-4,.61-6.26.92-2,.31-4,.46-6,.77-1.43.15-2.85.46-4,.61-1.71.31-3.7.62-5.41.93a15,15,0,0,0-2.57.3c-2.27.93-4.84,1.08-7.68,1.54a32.89,32.89,0,0,0-4.56,1.08c-2.56.61-5.13,1.07-8,1.53a31.43,31.43,0,0,0-7.12,1.39c-.57.15-1.14.15-1.7.3-1.43.16-2.85.47-4,.62-1.43.31-2.57.61-4,.92-1.14.31-2.56.77-3.7,1.08a1.39,1.39,0,0,0-.57.15c-3.42.62-7.12,1.23-10.54,2-2.56.62-5.12,1.38-8.26,1.85-1.71.3-3.13.76-4.55,1.07-2.85.77-6,1.54-8.83,2.31-1.14.31-2.28.31-3.42.61-3.13.93-6.27,1.85-9.68,2.77a3,3,0,0,1-1.14.15,34.58,34.58,0,0,0-3.71,1.08c-.56.15-.85.31-1.42.46-1.42.46-2.85.77-4.56,1.23-.28.15-.85.15-1.13.31-1.43.46-2.85.77-4.28,1.23-.57.15-1.42.31-2,.46a1.69,1.69,0,0,0-.85.15c-2.57.77-5.42,1.69-8,2.46a18.93,18.93,0,0,1-2,.46,1.65,1.65,0,0,0-.86.16c-2.85.77-5.41,1.69-8.26,2.46-.28.15-.85.15-1.14.31-1.42.46-2.56.76-4,1.22a10.22,10.22,0,0,0-2,.62,16.28,16.28,0,0,1-2.56.77c-.28,0-.28.15-.28.15-2.57.62-4.85,1.23-7.41,2l-2.56.92c-.57.16-1.43.46-2,.62-.85.15-1.42.46-2.27.61-1.14.31-2.28.62-3.14.93s-1.71.76-2.84,1.07c-2.57.77-5.42,1.39-8,2.15-2.28.62-4.27,1.39-6.55,2.16-.28,0-.28.15-.57.3-2.56.62-5.13,1.23-7.4,2-2.57.77-4.85,1.69-7.41,2.46-.85.31-1.71.31-2.56.62-2.28.77-4.56,1.53-6.84,2.46-.57.3-1.42.3-2.27.61l-2.57.92a8,8,0,0,1-1.42.47c-1.14.46-2.57.76-3.7,1.22a5.45,5.45,0,0,1-1.14.31,41.41,41.41,0,0,1-4,1.23c-2.28.77-4.84,1.39-7.12,2l-6.84,2.31a9.47,9.47,0,0,0-2,.61c-.85.31-2,.62-2.85.92l-1.71.47c-1.14.3-2.27.76-3.41,1.07a9.7,9.7,0,0,0-1.43.46c-1.14.31-2,.62-3.13.93-.29,0-.29.3-.57.3-2.28.62-4.84,1.23-7.12,2-2.56.77-4.84,1.69-7.4,2.61l-1.71.47c-.86.3-1.71.46-2.85.76-.86.31-1.71.47-2.85.77h-.28c-2.57.77-4.85,1.69-7.41,2.46l-1.71.46c-1.14.31-2.28.77-3.42,1.08a4.76,4.76,0,0,1-1.42.31c-1.14.31-2.56.77-3.7,1.07-.29,0-.29.16-.57.16l-7.69,1.84c-.29.16-.85.16-1.14.31-1.14.31-2.28.77-3.42,1.08-.57.15-1.14.46-1.14.61,0,.31.57.62.86.77,2.28.46,4.55.77,6.83,1.08h.29l13.67,2.3a35.49,35.49,0,0,0,5.69.62,43.9,43.9,0,0,1,9.4,1.07,15.18,15.18,0,0,0,3.7.46,75.94,75.94,0,0,1,12,1.23,28.35,28.35,0,0,0,5.12.31c4.84.16,9.69-.15,14.24.31a217.87,217.87,0,0,0,24.49.77c4.85-.16,9.4-.62,14.24-.77,2.57-.15,5.13-.31,8-.31a65.75,65.75,0,0,0,11.11-.92,32.18,32.18,0,0,1,5.69-.62,50.4,50.4,0,0,0,11.11-1.23,22.1,22.1,0,0,1,3.13-.3c2-.31,4-.62,6.27-.93,1.42-.15,2.85-.46,4.27-.61a24.82,24.82,0,0,0,7.12-1.08c1.14-.46,2.85-.3,4.27-.46,2.85-.46,5.41-1.07,8.26-1.54,2.56-.46,5.13-.92,7.69-1.53,2.28-.46,4.84-.92,7.12-1.54,2-.46,4.27-.92,6.26-1.38.57-.16,1.43-.16,2-.31,1.42-.31,2.56-.62,4-.92,1.7-.31,3.41-.46,4.84-.77.85-.16,1.71-.46,2.56-.62a2,2,0,0,1,.85-.3,28.48,28.48,0,0,0,6.84-1.54c3.13-.92,6.55-1.39,9.68-2.15,2.85-.77,5.7-1.7,8.55-2.46.57-.16,1.42-.16,2.28-.31a22,22,0,0,1,3.13-.77l1.71-.46,5.12-1.38h.29c3.13-.62,6-1.39,9.11-2h.29c2.84-.77,6-1.69,8.82-2.46.57-.16.86-.16,1.43-.31,1.42-.46,2.85-.77,4.27-1.23.57-.15.86-.15,1.42-.31,1.43-.46,3.14-.77,4.56-1.23l1.71-.46c1.42-.31,2.56-.77,3.7-1.08l.29-.15c2.85-.61,5.41-1.23,8.26-1.84,1.14-.31,2-.62,3.13-.93.57-.15,1.14-.3,2-.46,1.43-.3,2.85-.77,4.27-1.07.29,0,.29-.16.57-.16l8.55-1.84c1.42-.31,2.56-.62,3.7-.92a3.09,3.09,0,0,1,1.14-.31,17.53,17.53,0,0,0,5.7-1.39,13.06,13.06,0,0,1,2.27-.46,12.62,12.62,0,0,0,2.85-.77c.29,0,.29-.3.57-.3,2.85-.62,5.7-1.23,8.55-2,1.13-.31,2-.46,3.13-.77s2-.46,3.13-.77a43.69,43.69,0,0,0,4.27-1.07c.57-.16,1.14-.31,2-.47a14.89,14.89,0,0,0,2.56-.3c3.42-.77,7.12-1.69,10.54-2.62.85-.15,2-.3,2.85-.46s2-.46,2.84-.61c1.14-.31,2.28-.46,3.71-.77,2.56-.46,5.41-1.23,8-1.54a54.3,54.3,0,0,0,7.4-1.38c.57-.16,1.43-.16,2.28-.31a40.33,40.33,0,0,1,4.27-.77l7.41-.92c1.42-.16,2.56-.46,4-.62l7.69-.92a3.74,3.74,0,0,0,1.42-.15c4-1.23,8.83-1.08,13.39-1.54l7.69-.92,6.83-.46c4.84-.31,9.68-.77,14.24-1.08h.57c9.11,0,18.51-.15,27.62-.15,3.42,0,6.84.46,10.54.77,3.42.3,7.12.3,10.54.61,3.7.31,7.12.77,10.54,1.23,2.56.31,5.41.31,8.26.62,2.27.3,4.55.76,6.55,1.22,2.84.47,5.69.93,8.54,1.54.29,0,.85.16,1.14.16,3.13.15,4,.61,4,2.3,2.56,1.85,2.56,4.77,2.56,7.54Zm-72.91-5.23c-7.69.31-15.09.61-22.78,1.07-5.41.31-10.82.77-16.23,1.23s-11.11.47-16.24,1.85c-.28.15-.85,0-1.42.15-5.41.62-10.82,1.23-16.24,2-.28,0-.28.16-.57.16-4,.76-8,1.69-12.24,2.46-4,.76-8.26,1.38-12.53,2a33.74,33.74,0,0,0-4.56,1.23c-3.42.77-6.83,1.23-10.25,2a27.09,27.09,0,0,1-3.42.92c-3.42.77-7.12,1.39-10.54,2.16l-6,1.38a1.84,1.84,0,0,0-.85.31c-3.13.77-6.27,1.69-9.4,2.46s-6.55,1.38-9.68,2.15c-1.14.31-2,.61-3.14.92-2.84.77-6,1.39-9.11,2-.28,0-.28.15-.57.15l-3.42.93c-.57.15-1.42.3-2,.46-2.85.77-5.41,1.69-8.26,2.46-3.7,1.07-7.4,2-11.39,2.92-.29.15-.86.15-1.14.31-2.85.77-6,1.38-8.83,2.15-3.42.92-6.83,1.69-10.25,2.61-1.43.46-2.85.92-4.27,1.23-3.14.77-6.27,1.39-9.12,2l-.28.15c-2.85.77-6,1.7-8.83,2.46H1734c-3.13.77-6.27,1.39-9.4,2.16-1.42.3-3.13.77-4.56,1.07-.56.16-1.42.31-2,.46l-3.42.93c-3.41.61-6.83,1.38-10.25,2-.28,0-.57.31-.85.31a19.66,19.66,0,0,1-2.85.62c-3.7.77-7.41,1.38-11.11,2a1.45,1.45,0,0,0-.57.15c-1.42.31-3.13.61-4.55.92-2.85.46-5.7,1.08-8.26,1.54-1.43.31-2.85.46-4.28.77-1.7.31-3.13.61-4.84.77-1.14.15-2.28.46-3.7.61-2,.31-3.7.62-5.7.92s-4,.62-6,.77c-1.71.31-3.7.46-5.41.77-2,.31-4,.46-6,.77-1.42.15-3.13.46-4.55.61-4.56.47-8.83.93-13.39,1.23s-9.11.47-13.67.77c-5.7.31-11.39.77-17.09.93a344,344,0,0,1-35.6-.93c-5.12-.3-10.25-.46-15.09-.77-4-.3-8.26-.76-12.25-1.23-1.42-.15-2.85-.3-4.56-.46l-7.68-.92c-2.28-.31-4.28-.46-6.55-.77a44.74,44.74,0,0,1-4.56-.77c-4.27-.61-8.83-1.23-13.1-2,0,0-.29,0-.29-.16-2-.31-4.27-.77-6.26-1.07-1.43-.16-2.57-.47-4-.62-1.42-.31-3.13-.61-4.56-.92a27.16,27.16,0,0,1-3.41-.62c-4.56-1.23-9.4-2-14.24-.46-1.14.31-2.28.77-3.42,1.08-2.85.77-6,1.38-8.83,2.15l-.28.15c-2.57.77-5.42,1.54-8,2.31-3.13.77-6.26,1.38-9.11,2.15-.29.16-.86.31-1.14.46-1.14.31-2.28.46-3.42.77a19.66,19.66,0,0,0-2.85.62c-4,.92-7.69,1.84-11.67,2.61-2.85.62-5.7,1.23-8.55,2-.57.15-1.14.46-1.71.61-1.14.31-1.14.77,0,1.23s2.28,1.08,3.42,1.54c3.7,1.85,7.12,3.84,10.82,5.69s7.41,3.54,10.83,5.38,6.83,3.54,10.25,5.23c2.56,1.23,5.12,2.46,7.69,3.53,2.85,1.39,5.69,2.92,8.83,4.31,3.7,1.69,7.4,3.23,11.1,4.92,4,1.84,7.69,3.69,11.68,5.53,3.42,1.54,6.83,2.92,10.25,4.46,1.71.77,3.42,1.38,5.13,2,3.13,1.23,6,2.3,9.11,3.53a13.18,13.18,0,0,0,2,.93l6,2.3c3.13,1.23,6.26,2.62,9.39,3.85,2.57.92,4.85,1.84,7.41,2.76l5.13,1.85c2.27.77,4.27,1.38,6.55,2.15,1.71.62,3.7,1.23,5.41,1.85,2.56.76,4.84,1.69,7.4,2.46,2.28.76,4.56,1.38,6.84,2.15,2.85.92,5.69,1.69,8.54,2.46l1.71.46c2.56.77,5.13,1.69,8,2.46,2.57.77,5.42,1.38,8.26,2,.29,0,.29.15.57.15,1.43.31,2.85.77,4.27,1.08.57.15,1.14.15,1.71.3,3.14.93,6.27,1.7,9.4,2.62a20.36,20.36,0,0,0,2.85.46c3.42.77,6.84,1.69,10.54,2.46,3.41.77,7.12,1.38,10.82,2,.28,0,.57.3,1.14.3a26.27,26.27,0,0,0,3.42.77l12.81,1.85a1.39,1.39,0,0,1,.57.15c2,.31,4,.77,6,1.08a39.53,39.53,0,0,0,4.27.61c2,.31,4,.62,6,.77l5.12.46c3.13.31,6.27.77,9.68,1.23,1.43.16,2.57.46,4,.62a18.56,18.56,0,0,0,4,.3c3.13-.76,6.26-1.84,9.11-2.76l11.11-4.15c2-.77,3.7-1.39,5.7-2.16s3.7-1.69,5.69-2.46c2.85-1.23,6-2.3,9.11-3.53s6-2.77,8.83-4,5.41-2.3,8.26-3.53c5.13-2.31,10-4.62,15.1-7.08,4-1.84,7.69-3.69,11.39-5.53,4-1.85,7.69-3.84,11.68-5.84,2.27-1.08,4.27-2.15,6.55-3.23,2.56-1.23,4.84-2.61,7.4-3.84,3.42-1.85,7.12-3.54,10.54-5.23l12.81-6.92c5.41-2.77,10.54-5.69,16-8.45,6.55-3.39,12.82-6.92,19.37-10.3,5.12-2.77,10.54-5.54,15.95-8.15,3.41-1.69,6.83-3.54,10.25-5.23,1.14-.61,2.28-1.08,3.42-1.69,1.42-.77,3.13-1.38,4.55-2.15,2.28-1.23,4.85-2.46,7.12-3.85,2.57-1.23,5.13-2.61,7.69-3.84,3.71-1.84,7.41-3.69,11.11-5.38,2.56-1.23,5.41-2.46,8-3.69,3.14-1.38,6-2.92,9.12-4.3,2.56-1.08,5.12-2.16,7.4-3.23,2.85-1.39,5.7-2.77,8.83-4,3.42-1.38,6.84-2.92,10.25-4.3,1.71-.62,3.42-1.23,4.85-1.85,2-.77,4.27-1.54,6.26-2.31,1.43-.46,2.85-1.07,4-1.53l6-2.31,6.83-2.3,6.84-2.31c2.28-.77,4.84-1.54,7.12-2.31,2-.61,4-1.38,6-2,2.28-.76,4.56-1.38,7.12-2.15,3.42-.92,6.55-1.84,10-2.76,2.56-.62,4.84-1.39,7.4-2l3.42-.93c.85-.3,1.42-.76,2.28-1.07a14,14,0,0,0-2.28-.92c-2-.31-4.27-.62-6.55-.93-2-.3-3.7-.61-5.7-.92-2.84-.31-5.69-.46-8.26-.77-2.27-.15-4.27-.61-6.55-.77-3.41-.15-6.55-.15-10-.46A140.77,140.77,0,0,0,1968.09,1059.85Zm-463.93,191.09c7.4-.31,14.81-.46,22.21-.77,4.28-.15,8.55-.31,12.53-.61,4.28-.31,8.26-.77,12.54-1.08,1.7-.15,3.13-.31,4.84-.46,3.41-.31,6.55-.77,10-1.08,1.43-.15,2.85-.46,4.28-.61a49.92,49.92,0,0,1,5.41-.77c1.71-.31,3.42-.46,5.41-.77,1.42-.15,2.56-.46,4-.61,4.27-.77,8.82-1.39,13.1-2.16a1.45,1.45,0,0,0,.57-.15c1.14-.31,2.27-.46,3.41-.77,3.71-.61,7.12-1.38,10.83-2l.28-.15c1.42-.31,2.56-.77,4-1.08,3.13-.61,6.26-1.38,9.4-2a35.57,35.57,0,0,0,4.84-1.23c.28-.15.85-.15,1.14-.3,2.56-.77,5.12-1.54,8-2.31,2.56-.61,5.13-1.23,8-1.84,1.42-.31,1.13-.77,0-1.08a33,33,0,0,0-5.42-.92c-4.84-.62-9.39-1.39-14.24-2a1.88,1.88,0,0,1-.85-.31,40.69,40.69,0,0,0-4.27-.92l-12-1.85c-.29,0-.29-.15-.57-.15-3.42-.77-6.55-1.69-10-2.46H1601l-9.4-1.84c-.28,0-.28-.16-.57-.16-3.13-.77-6-1.69-9.11-2.46-2.85-.77-6-1.38-8.83-2-.28,0-.28-.15-.57-.15-2.56-.77-5.41-1.54-8-2.31s-5.42-1.38-8-2.15c-1.71-.46-3.42-1.07-5.41-1.54-2.56-.76-5.13-1.69-7.69-2.45-2.28-.77-4.56-1.39-7.12-2.16-1.71-.46-3.13-1.07-4.56-1.53-2.27-.77-4.27-1.7-6.55-2.46s-4.55-1.23-6.55-2l-5.12-1.85-6-2.3c-2-.77-4-1.39-6-2.16a41.41,41.41,0,0,1-4-1.69c-2-.77-4-1.69-6-2.46l-6-2.3c-3.42-1.23-6.55-2.62-10-3.85-1.71-.61-3.42-1.38-5.13-2.15-2.84-1.23-5.41-2.46-8.26-3.69s-5.69-2.61-8.54-3.84-5.41-2.46-8.26-3.84-6-2.46-8.83-3.85c-2.56-1.23-5.12-2.46-7.69-3.84s-5.41-2.46-8-3.69l-14-7.07c-4.27-2.16-8.83-4.46-13.38-6.61l-3.42-1.85c-1.42-.77-2.56-1.54-4-2.15-2.27-1.23-5.12-2.31-7.12-3.69-1.71-1.23-3.7-1.23-6-.92-1.42.3-2.85.77-4.27,1.07-4.27.62-8.26,1.23-12.53,1.85-3.13.46-6.55.92-9.68,1.54-2.28.3-4.28.92-6.55,1.23-3.42.61-6.55,1.07-10,1.53-.57,0-.86.16-1.43.16-6.26.61-12.53,1.23-18.51,1.84-6.55.77-13.1,1.69-19.65,2.31-4.27.46-8.54.31-12.81.61-4.56.31-9.4.62-14,1.08a5.41,5.41,0,0,0-2.28.46,2.15,2.15,0,0,0,.86,1.54,15.7,15.7,0,0,0,1.71,1.53,6.72,6.72,0,0,1,1.42,1.39c1.42,1.38,2.85,2.77,4.27,4s2.56,2.61,4,3.84l4.27,3.69c1.42,1.23,2.28,2.61,4,4,2.28,2,4.84,3.84,7.12,5.84s4.55,4,6.83,5.84l4.27,3.23a24.53,24.53,0,0,1,2.85,2.3c1.43,1.08,2.57,2.31,4,3.39,1.14.92,2.28,1.69,3.42,2.61,1.42,1.08,3.13,2.15,4.84,3.23,2.28,1.53,4.27,3.23,6.55,4.76,3.13,2.16,6.55,4.15,9.68,6.15,4,2.46,7.69,4.92,11.68,7.23,5.41,3.07,11.39,6.15,17.09,9.07l6.83,3.23c1.71.77,3.7,1.53,5.7,2.3,2.85,1.23,5.41,2.46,8.26,3.69,1.42.62,2.85,1.08,4.27,1.54,2.56.92,5.41,1.84,8,2.61,2,.62,4,1.39,6,2,2.28.77,4.56,1.39,6.84,2,3.13.92,6,1.85,9.11,2.61s6.27,1.39,9.4,2a1.32,1.32,0,0,1,.57.16c1.71.3,3.13.77,4.84,1.07.86.16,2,.31,3.13.62,3.71.77,7.69,1.69,11.4,2.15,6,.77,12.24,1.38,18.22,2,3.42.31,6.84.92,10.26,1.07C1483.65,1250.33,1493.91,1250.63,1504.16,1250.94Zm-295.9-219.22c0,.15-.29.15-.29.3a2.22,2.22,0,0,0,1.14.77c2.56,1.08,5.13,2,7.4,2.92s4.56,2,6.84,2.92c3.13,1.23,6,2.62,9.11,3.85l8.55,3.69,6,2.76c2.28,1.08,4.55,2.31,6.83,3.39,2.57,1.23,5.41,2.46,8,3.69,3.13,1.53,6.26,2.92,9.4,4.45,2.56,1.23,5.12,2.62,7.69,3.85,2.27,1.07,4.27,2.3,6.55,3.38s4.84,2.46,7.4,3.69c2.28,1.23,4.56,2.61,7.12,3.84l10.25,5.08c4.56,2.46,9.4,4.91,14,7.37,7.12,3.85,13.95,7.69,21.07,11.53l12.82,6.92c2.28,1.23,4.56,2.62,7.12,3.85l6.55,3.53c2.56,1.39,4.84,2.77,7.4,4.15a7.61,7.61,0,0,0,5.7,1.08l6.83-1.38c3.71-.77,7.41-1.39,10.83-2,1.42-.31,2.84-.77,4.27-1.08,2-.46,4.27-.92,6.26-1.38,2.28-.62,4.56-1.23,6.84-1.69,3.13-.77,6.26-1.39,9.4-2,.28,0,.28-.16.57-.16a32.2,32.2,0,0,0,3.7-1.07,40.08,40.08,0,0,0,4-1.08c.28-.15.85-.46.85-.61s-.57-.31-1.14-.46c-2.85-.62-5.69-1.23-8.54-2-.29,0-.29-.16-.57-.16-2.85-.77-5.41-1.69-8.26-2.46s-5.7-1.38-8.26-2c-.28,0-.28-.15-.57-.3-2.56-.77-4.84-1.69-7.4-2.46s-5.13-1.39-7.41-2c-2.56-.77-4.84-1.54-7.12-2.31-2.56-.77-5.13-1.38-8-2.15-.29-.15-.57-.15-.86-.31-2.28-.77-4.55-1.69-6.83-2.3-2.28-.77-4.56-1.23-6.55-2-1.71-.62-3.42-1.08-5.13-1.69-2.28-.77-4.27-1.54-6.55-2.31-2.56-.92-5.41-1.84-8-2.61-2-.62-4-1.39-6-2-2.28-.77-4.28-1.38-6.55-2.15s-4.28-1.69-6.55-2.46c-2-.77-4.28-1.39-6.27-2-1.71-.62-3.13-1.23-4.84-1.85-2.28-.76-4.27-1.69-6.55-2.46-2-.76-4.27-1.53-6.27-2.15-1.71-.61-3.42-1.38-5.41-2-3.7-1.23-7.4-2.46-11.11-3.84-2-.61-3.7-1.54-5.41-2.15-2-.77-4-1.39-5.69-2-2.28-.77-4.27-1.38-6.55-2.15-2.57-.77-4.84-1.69-7.12-2.46-2-.77-4.28-1.39-6.27-2.15s-4-1.54-6-2.16c-2.28-.77-4.56-1.38-6.55-2-3.13-.92-6-2-8.83-3.07l-9.4-3.23c-4-1.38-8-2.61-12.24-4C1210.82,1032,1209.4,1031.87,1208.26,1031.72Z" transform="translate(0.38 0.38)"/></g></g><g id="PATTERN_05" data-name="PATTERN 05"><rect class="cls-2" x="0.38" y="0.38" width="2048" height="2048"/></g></svg>